<?xml version="1.0" encoding="UTF-8"?>
<svg id="Layer_2" data-name="Layer 2" xmlns="http://www.w3.org/2000/svg" viewBox="0 0 450 300">
  <g id="_Ñëîé_1" data-name="Ñëîé 1">
    <g>
      <path d="M0,0h450v300H0V0Z" fill="#fff"/>
      <path d="M0,0h450v100H0V0Z" fill="#c00029"/>
      <path d="M0,200h450v100H0v-100Z" fill="#c00029"/>
      <g>
        <path d="M0,0h187.5v200H0V0Z" fill="#003a6f"/>
        <g>
          <path d="M98.07,27.35l6.87-5.02-8.41-.13-2.49-8.33-2.71,8.25-8.41-.13,6.74,5.23-2.71,8.25,6.87-5.02,6.74,5.23-2.49-8.33Z" fill="#fff"/>
          <path d="M65.01,33.48l3.83-7.76-7.51,3.94-5.94-6.18,1.3,8.61-7.5,3.94,8.31,1.38,1.3,8.61,3.83-7.76,8.31,1.38-5.94-6.18Z" fill="#fff"/>
          <path d="M38.39,55l-.08-8.72-4.88,7.1-8.03-2.61,5.01,7-4.88,7.1,7.98-2.78,5.01,7-.08-8.72,7.98-2.78-8.03-2.61Z" fill="#fff"/>
          <path d="M24.67,86.81l-3.98-7.68-1.13,8.64-8.28,1.56,7.58,3.78-1.13,8.64,5.82-6.3,7.58,3.78-3.98-7.68,5.82-6.3-8.28,1.56Z" fill="#fff"/>
          <path d="M26.6,121.51l-6.97-4.88,2.87,8.2-6.63,5.36,8.41-.3,2.87,8.2,2.33-8.38,8.41-.3-6.97-4.88,2.33-8.38-6.63,5.36Z" fill="#fff"/>
          <path d="M43.95,151.5l-8.36-.97,6.21,5.88-3.47,7.94,7.31-4.31,6.21,5.88-1.7-8.54,7.31-4.31-8.36-.97-1.7-8.54-3.47,7.94Z" fill="#fff"/>
          <path d="M72.81,169.5l-7.83,3.17,8.14,2.21.49,8.7,4.54-7.34,8.14,2.21-5.33-6.75,4.54-7.34-7.83,3.17-5.33-6.75.49,8.7Z" fill="#fff"/>
          <path d="M106.26,171.65l-5.51,6.58,8.2-1.96,4.34,7.47.73-8.68,8.19-1.96-7.75-3.4.73-8.68-5.51,6.58-7.75-3.4,4.34,7.47Z" fill="#fff"/>
          <path d="M137.03,157.46l-1.93,8.48,6.38-5.68,7.19,4.53-3.25-8.04,6.38-5.68-8.38.72-3.25-8.04-1.93,8.48-8.38.72,7.19,4.53Z" fill="#fff"/>
          <path d="M157.81,129.93l2.09,8.44,3.1-8.1,8.39.54-6.48-5.55,3.1-8.1-7.1,4.67-6.48-5.55,2.09,8.44-7.1,4.67,8.4.54Z" fill="#fff"/>
          <path d="M154.01,62.43l7.89,3.01-4.67-7.25,5.2-6.85-8.09,2.37-4.67-7.25-.33,8.71-8.09,2.37,7.89,3.01-.33,8.71,5.2-6.85Z" fill="#fff"/>
          <path d="M130.17,37.69l8.34-1.13-7.39-4.17,1.53-8.57-6.1,6-7.39-4.16,3.62,7.87-6.1,6,8.34-1.13,3.62,7.87,1.53-8.57Z" fill="#fff"/>
          <path d="M163.85,95.74l5.63,6.47-.89-8.67,7.68-3.56-8.23-1.8-.89-8.67-4.2,7.56-8.23-1.8,5.64,6.47-4.19,7.56,7.68-3.56Z" fill="#fff"/>
          <g>
            <path d="M58.82,145.14h-2.44v-.28c.07,0,.17-.01.3-.02.13-.01.22-.03.27-.05.08-.03.14-.08.18-.14.04-.06.06-.14.06-.25v-4.07c0-.09-.01-.17-.04-.23-.03-.06-.09-.12-.2-.16-.08-.03-.17-.06-.29-.09-.11-.03-.21-.05-.28-.05v-.28h2.44v.28c-.08,0-.17.01-.28.03-.11.02-.2.04-.29.06-.1.03-.16.08-.19.15-.03.07-.05.15-.05.24v4.06c0,.09.02.17.05.23.04.07.1.12.19.16.05.02.14.04.26.07.12.02.22.04.31.04v.28h0Z" fill="#f1d200"/>
            <path d="M59.05,145.36h-2.89v-.7l.5-.04c.15-.01.2-.03.21-.03.02-.01.06-.03.08-.05,0,0,.02-.04.02-.13v-4.07c0-.08-.01-.12-.02-.14,0,0-.02-.02-.08-.05-.07-.03-.15-.05-.25-.08-.1-.03-.18-.04-.25-.05l-.21-.02v-.7h2.89v.71h-.22c-.07.01-.15.02-.25.04-.1.01-.18.03-.25.06-.01,0-.05.02-.06.04-.02.04-.03.09-.03.15v4.06c0,.05,0,.1.03.14,0,.02.04.04.08.06.04.01.11.03.22.06.1.02.19.03.27.03h.22v.72ZM57.17,144.92h.93c-.11-.06-.19-.13-.24-.22-.06-.11-.08-.22-.08-.34v-4.06c0-.12.02-.23.07-.33.03-.07.09-.15.21-.22h-1.01c.16.07.26.16.31.27.04.08.06.19.06.31v4.07c0,.15-.03.27-.09.36-.04.06-.09.11-.16.16Z" fill="#f1d200"/>
          </g>
          <g>
            <path d="M65.49,139.81c-.07,0-.18.02-.33.06-.15.04-.25.08-.32.12-.09.07-.15.19-.19.38-.03.19-.05.42-.05.71v4.11h-.33l-3.28-4.59v2.9c0,.32.02.57.06.75.04.17.1.3.18.37.06.06.18.11.36.16.18.05.3.08.36.08v.28h-2.22v-.28c.07,0,.18-.03.35-.08.16-.05.26-.09.3-.13.09-.07.15-.19.18-.34.03-.15.05-.41.05-.78v-2.77c0-.12-.02-.24-.06-.36-.04-.12-.1-.21-.16-.28-.09-.09-.22-.16-.37-.22-.16-.06-.28-.1-.38-.1v-.28h1.54l3.04,4.28v-2.67c0-.33-.02-.58-.06-.75-.04-.18-.1-.29-.18-.35-.07-.05-.19-.1-.35-.15-.16-.05-.28-.07-.37-.08v-.28h2.2v.28h0Z" fill="#f1d200"/>
            <path d="M64.84,145.42h-.68l-2.93-4.11v2.19c0,.31.02.54.05.7.04.17.09.23.12.26,0,0,.06.05.27.11.24.06.3.07.31.07h.21v.72h-2.67v-.7l.21-.02c.06,0,.16-.03.31-.07.17-.05.21-.08.22-.08.05-.04.09-.12.11-.22.02-.09.04-.3.04-.73v-2.77c0-.1-.02-.2-.05-.3-.03-.09-.07-.15-.11-.19-.07-.07-.17-.12-.3-.17-.17-.07-.26-.09-.31-.09h-.21v-.72h1.89l2.7,3.8v-1.97c0-.31-.02-.55-.06-.7-.04-.19-.09-.23-.09-.23-.02-.01-.1-.06-.28-.11-.18-.05-.27-.07-.32-.07h-.21v-.72h2.65v.71h-.22s-.11.02-.28.06c-.17.04-.23.08-.25.09,0,0-.06.06-.09.24-.03.17-.04.4-.04.67v4.33ZM60.78,139.9l3.61,5.06v-.56l-3.3-4.65h-.87c.14.06.26.14.35.23.09.08.16.2.21.34v-.41ZM60.38,144.92h.95c-.11-.04-.19-.09-.25-.15-.11-.1-.19-.26-.24-.48,0-.02,0-.04-.01-.06,0,.05-.01.1-.02.14-.04.2-.13.35-.26.46-.04.03-.09.06-.17.1ZM63.93,139.75c.09.03.16.07.21.11.13.1.21.25.26.48,0,.03.01.06.02.09,0-.03,0-.06.01-.09.04-.25.13-.42.28-.52.04-.03.08-.05.13-.07h-.92Z" fill="#f1d200"/>
          </g>
          <g>
            <path d="M73.47,142.9c-.06,0-.14.02-.25.04-.1.02-.18.04-.25.07-.08.04-.13.1-.16.17-.03.07-.05.16-.05.25v.44c0,.32,0,.53,0,.64,0,.11.01.2.02.27-.34.16-.67.28-1.01.36-.34.08-.66.13-.99.13-.35,0-.68-.07-1-.2-.32-.13-.6-.33-.84-.57-.24-.25-.43-.56-.58-.91-.14-.36-.21-.76-.21-1.2s.07-.82.2-1.19c.14-.37.33-.68.58-.95.24-.26.53-.47.86-.61.34-.15.69-.22,1.08-.22.3,0,.57.04.8.11.23.08.43.17.6.28l.16-.27h.31l.03,1.96h-.31c-.05-.22-.12-.43-.2-.64-.08-.21-.18-.4-.31-.57-.12-.17-.28-.3-.46-.4-.18-.1-.39-.15-.64-.15-.27,0-.51.06-.73.17-.21.11-.4.28-.56.51-.16.22-.27.49-.36.82-.08.33-.13.69-.13,1.1,0,.36.04.69.12,1.01.08.31.2.59.36.82.16.23.35.42.59.55.24.13.5.2.8.2.22,0,.43-.04.61-.11.19-.07.32-.15.39-.23.02-.14.03-.28.03-.42,0-.14,0-.26,0-.36v-.31c0-.11-.02-.21-.05-.29-.03-.09-.09-.15-.18-.19-.08-.04-.2-.07-.34-.09-.14-.02-.25-.03-.34-.04v-.29h2.37v.29h0Z" fill="#f1d200"/>
            <path d="M70.79,145.49c-.37,0-.74-.07-1.09-.22-.35-.15-.66-.36-.91-.62-.26-.27-.47-.6-.62-.98-.15-.38-.23-.81-.23-1.28s.07-.88.22-1.26c.15-.39.36-.74.62-1.03.26-.28.58-.51.94-.67.65-.29,1.47-.3,2.04-.11.16.05.31.11.44.18l.11-.19h.66l.04,2.4h-.72l-.04-.17c-.05-.21-.12-.42-.19-.61-.07-.19-.16-.36-.28-.51-.11-.14-.23-.25-.39-.33-.31-.17-.81-.16-1.15.02-.18.1-.34.25-.48.44-.14.2-.25.45-.33.75-.08.31-.12.66-.12,1.04,0,.34.04.66.12.96.08.29.19.54.33.75.14.21.31.37.52.49.35.2.85.22,1.22.08.14-.05.22-.1.26-.13.01-.1.02-.2.02-.31,0-.14,0-.26,0-.36v-.31c0-.09-.01-.16-.03-.22,0-.03-.02-.05-.06-.06-.05-.02-.13-.05-.28-.07-.14-.02-.24-.03-.32-.04h-.21v-.73h2.82v.7l-.2.02c-.06,0-.14.02-.24.04-.1.02-.16.04-.19.05-.03.01-.05.03-.06.06-.02.04-.03.1-.03.17v.43c0,.31,0,.53,0,.64,0,.1,0,.19.01.26v.15s-.13.06-.13.06c-.35.16-.7.29-1.05.38-.35.09-.71.13-1.04.13ZM69.77,139.89c-.25.13-.47.29-.66.5-.23.25-.41.54-.54.88-.13.34-.19.71-.19,1.11s.07.79.2,1.12c.13.33.31.61.53.84.22.22.47.4.76.52.09.04.19.07.29.1-.04-.02-.08-.04-.12-.06-.27-.15-.49-.36-.67-.62-.17-.25-.3-.54-.39-.88-.09-.33-.13-.69-.13-1.06,0-.42.04-.81.13-1.15.09-.35.22-.65.39-.89.11-.16.24-.3.38-.41ZM71.88,142.83c.14.06.25.17.29.32.04.1.06.23.06.36v.31c0,.1,0,.22,0,.36,0,.15-.01.29-.03.44v.07s-.06.05-.06.05c-.04.04-.09.08-.15.12.19-.06.38-.13.56-.21,0-.04,0-.08,0-.13,0-.12,0-.33,0-.65v-.43c0-.12.02-.24.06-.34.05-.12.13-.2.24-.27h-.96ZM71.73,139.77c.16.1.29.23.41.38.14.18.25.39.33.62.02.06.04.12.06.18l-.02-1.12-.16.28-.2-.13c-.12-.08-.26-.15-.42-.21Z" fill="#f1d200"/>
          </g>
          <g>
            <path d="M78.79,140.19c.24.26.43.57.56.94.13.36.2.77.2,1.21,0,.45-.07.85-.21,1.21-.14.36-.33.67-.57.93-.24.25-.51.45-.82.59-.31.14-.65.21-1,.21-.38,0-.72-.07-1.04-.22-.32-.15-.59-.35-.82-.61-.23-.26-.41-.57-.54-.93-.13-.37-.19-.76-.19-1.17,0-.46.07-.86.21-1.22.14-.36.33-.67.57-.93.24-.26.52-.46.83-.59.32-.14.65-.21.99-.21.36,0,.7.07,1.01.21.32.14.59.34.82.59h0ZM78.22,144.17c.14-.24.25-.51.31-.81.07-.3.1-.64.1-1.02,0-.39-.04-.74-.11-1.06-.07-.32-.18-.6-.32-.82-.14-.22-.32-.4-.53-.52-.21-.13-.45-.19-.72-.19-.3,0-.56.07-.78.22-.21.15-.39.34-.52.58-.13.23-.22.5-.29.81-.06.31-.09.64-.09.98,0,.38.03.72.1,1.03.07.31.17.58.31.81.14.23.31.41.52.55.21.13.46.19.75.19.27,0,.52-.07.74-.2.22-.13.4-.32.53-.55h0Z" fill="#f1d200"/>
            <path d="M76.95,145.49c-.41,0-.79-.08-1.14-.24-.35-.16-.65-.39-.9-.67-.25-.27-.44-.61-.58-1-.14-.39-.21-.81-.21-1.25,0-.48.07-.92.22-1.3.15-.38.35-.72.61-1,.26-.28.56-.5.91-.65.7-.3,1.51-.29,2.19,0,.34.15.65.37.9.64.26.28.46.62.6,1.01.14.39.22.82.22,1.28s-.07.9-.22,1.29c-.15.39-.36.73-.62,1-.26.27-.56.49-.9.64-.34.15-.71.23-1.09.23ZM75.97,139.83c-.25.12-.48.29-.68.5-.22.24-.4.53-.52.86-.13.33-.19.71-.19,1.14,0,.39.06.76.18,1.1.12.33.29.62.5.86.21.24.45.42.74.55-.2-.14-.37-.33-.5-.56-.15-.25-.27-.55-.34-.88-.07-.32-.1-.68-.1-1.07,0-.35.03-.7.1-1.02.07-.33.17-.63.31-.88.14-.25.31-.45.52-.61ZM78.42,144.28c-.14.23-.31.42-.51.57.26-.12.5-.29.7-.51.22-.23.4-.52.53-.86.13-.34.19-.72.19-1.14s-.06-.8-.19-1.14c-.12-.34-.3-.63-.52-.87h0c-.2-.22-.45-.4-.72-.52.19.14.36.31.5.53.15.25.27.55.34.89.08.34.12.71.12,1.11,0,.39-.04.75-.1,1.06-.07.32-.18.62-.33.88ZM76.95,139.96c-.26,0-.47.06-.65.18-.18.12-.34.3-.45.51-.11.21-.2.46-.26.75-.06.29-.09.61-.09.94,0,.36.03.69.09.98.06.28.16.53.29.75.12.2.27.36.45.47.33.2.86.22,1.24,0,.19-.11.34-.27.46-.48h0c.13-.22.23-.47.28-.75.06-.29.09-.61.09-.97,0-.37-.04-.71-.11-1.01-.07-.3-.16-.55-.29-.76-.12-.19-.27-.34-.45-.45-.18-.11-.38-.16-.61-.16Z" fill="#f1d200"/>
          </g>
          <g>
            <path d="M85.55,142.37c0,.48-.09.89-.26,1.24-.17.35-.4.64-.67.86-.28.22-.59.39-.94.5-.35.11-.71.17-1.08.17h-2.24v-.28c.07,0,.17,0,.29-.02.12-.02.2-.03.24-.05.08-.03.13-.08.16-.15.04-.07.05-.15.05-.25v-4.05c0-.09-.02-.17-.05-.24-.03-.07-.09-.13-.17-.17-.08-.04-.16-.07-.26-.09-.09-.02-.17-.03-.24-.04v-.28h2.36c.33,0,.65.05.96.16.32.1.59.24.82.42.32.23.57.54.75.92.18.38.27.83.27,1.34h0ZM84.61,142.36c0-.38-.05-.72-.14-1.02-.1-.31-.24-.57-.42-.8-.18-.22-.39-.39-.65-.51-.25-.12-.54-.19-.85-.19-.1,0-.22,0-.35,0-.13,0-.23,0-.29,0v4.32c0,.24.07.41.2.5.13.09.34.14.62.14.32,0,.6-.06.85-.18.24-.12.44-.28.59-.49.16-.22.27-.48.34-.77.07-.29.11-.63.11-1.01h0Z" fill="#f1d200"/>
            <path d="M82.59,145.36h-2.47v-.72h.23c.07,0,.15,0,.26-.02.13-.02.16-.03.17-.03.04-.02.05-.03.06-.05.02-.04.03-.09.03-.15v-4.05c0-.06,0-.11-.03-.16,0-.01-.01-.03-.06-.06-.06-.03-.13-.05-.2-.07-.08-.02-.15-.03-.21-.03l-.21-.02v-.7h2.59c.35,0,.7.06,1.03.17.34.11.64.26.89.45.34.25.62.59.81,1,.19.41.29.89.29,1.43h0c0,.51-.1.96-.28,1.34-.19.38-.43.69-.73.94-.3.24-.64.42-1.02.54-.37.12-.76.18-1.15.18ZM81.08,144.92h1s-.08-.04-.11-.06c-.2-.13-.3-.36-.3-.68v-4.43h-.68c.12.07.21.16.26.28.04.09.06.2.06.32v4.05c0,.13-.03.25-.08.34-.04.07-.09.13-.16.18ZM82.13,140.08v4.1c0,.11.02.26.11.32.07.05.2.1.49.1s.54-.05.74-.15c.21-.1.38-.24.5-.42.14-.2.24-.43.31-.69.07-.28.1-.6.1-.96s-.05-.67-.13-.96c-.09-.28-.22-.52-.38-.73-.15-.19-.35-.34-.57-.45-.22-.11-.47-.16-.75-.16-.1,0-.22,0-.35,0h-.07ZM83.57,139.87c.26.14.48.32.65.54.2.25.36.54.46.87.1.32.15.69.15,1.08s-.04.75-.12,1.06c-.08.32-.2.6-.38.84-.08.11-.16.2-.26.29.14-.07.26-.16.38-.26.25-.2.46-.47.61-.79.16-.32.24-.71.24-1.15,0-.48-.08-.9-.25-1.25-.16-.35-.39-.63-.68-.84-.21-.16-.47-.29-.76-.39-.02,0-.04-.01-.07-.02Z" fill="#f1d200"/>
          </g>
          <g>
            <path d="M95.88,139.81c-.06,0-.14.02-.22.05-.08.03-.16.06-.23.11-.09.06-.16.13-.22.2-.05.07-.1.18-.14.31-.18.61-.39,1.32-.63,2.14-.24.81-.5,1.68-.77,2.6h-.35l-1.36-4.32-1.42,4.32h-.34c-.25-.92-.51-1.88-.78-2.87-.27-.99-.45-1.66-.54-2-.02-.08-.06-.15-.1-.22-.04-.06-.1-.12-.18-.17-.06-.04-.14-.08-.22-.1-.08-.02-.16-.04-.23-.04v-.28h2.21v.28c-.19.01-.36.03-.5.06-.13.03-.2.08-.2.15,0,.03,0,.06.01.11,0,.04.01.08.02.1.06.23.16.62.31,1.15.15.53.37,1.33.66,2.4l1.35-4.17h.37l1.36,4.26c.18-.65.34-1.23.47-1.71.13-.49.24-.91.33-1.26.06-.25.1-.41.11-.5.02-.09.02-.17.02-.23,0-.09-.06-.16-.18-.23-.12-.06-.31-.1-.57-.12v-.28h1.96v.28Z" fill="#f1d200"/>
            <path d="M93.83,145.43h-.69l-1.2-3.81-1.25,3.81h-.67l-1.37-5.03c-.02-.06-.04-.11-.07-.15-.03-.04-.07-.08-.13-.12-.04-.03-.09-.05-.15-.06-.08-.02-.14-.03-.19-.04l-.21-.02v-.7h2.66v.71h-.21c-.18.02-.33.04-.46.07,0,0-.01,0-.02,0l.02.09c.06.22.16.61.31,1.14.11.4.27.96.46,1.67l1.17-3.6h.71l1.18,3.69c.1-.36.19-.69.27-.98.13-.49.24-.91.33-1.25.06-.24.1-.4.11-.49.01-.08.02-.14.02-.19,0,0-.01-.01-.06-.03-.06-.03-.2-.08-.49-.1l-.21-.02v-.7h2.42v.71h-.22s-.08.02-.16.05c-.07.02-.13.05-.19.08-.06.04-.11.09-.15.14-.03.04-.07.11-.11.25-.18.61-.39,1.32-.63,2.13-.24.81-.5,1.68-.77,2.6l-.05.16ZM93.48,144.99h.01c.06-.2.12-.39.17-.58l-1.47-4.59h-.04l-.16.49,1.48,4.68ZM88.68,139.75s.03.02.04.03c.1.07.18.14.23.23.06.08.1.18.13.28l1.28,4.7.21-.63-.14-.53c-.29-1.06-.51-1.86-.66-2.4-.15-.54-.25-.92-.31-1.16l-.02-.11c-.01-.07-.02-.11-.02-.15,0-.07.02-.18.15-.27h-.88ZM94.61,139.75c.24.13.28.31.28.41,0,.05,0,.1-.01.16.04-.11.09-.2.14-.28.07-.1.17-.19.28-.26.02-.01.04-.02.06-.03h-.74Z" fill="#f1d200"/>
          </g>
          <g>
            <path d="M101.13,143.49l-.1,1.65h-4.49v-.28c.08,0,.18-.02.31-.03.13-.02.21-.04.25-.06.08-.04.14-.09.17-.15.03-.06.05-.14.05-.24v-4.04c0-.09-.01-.16-.04-.23-.03-.07-.09-.12-.18-.17-.07-.03-.16-.06-.28-.09-.11-.03-.21-.04-.27-.05v-.28h4.19v1.35h-.29c-.05-.2-.16-.41-.33-.64-.17-.23-.33-.35-.48-.37-.08-.01-.17-.02-.28-.02-.11,0-.23,0-.37,0h-.85v2.23h.61c.2,0,.34-.02.43-.06.09-.04.17-.1.24-.19.06-.08.1-.18.14-.3.04-.13.07-.25.08-.36h.29v2.2h-.29c-.01-.13-.04-.26-.08-.4-.04-.14-.09-.25-.14-.31-.08-.1-.17-.17-.27-.2-.1-.03-.23-.05-.4-.05h-.61v1.69c0,.17.01.3.03.4.02.1.07.17.13.22.07.05.16.08.27.1.11.01.28.02.49.02h.33c.14,0,.25,0,.35-.02.1-.01.2-.03.3-.06.1-.03.18-.07.22-.11.12-.13.24-.32.37-.57.13-.26.21-.45.25-.57h.27Z" fill="#f1d200"/>
            <path d="M101.24,145.36h-4.93v-.7l.21-.02c.07,0,.17-.02.29-.03.14-.02.17-.03.18-.04.02-.01.05-.03.06-.05.01-.03.03-.07.03-.15v-4.04c0-.06,0-.11-.03-.15,0-.02-.03-.04-.07-.05-.05-.03-.13-.05-.23-.07-.1-.02-.18-.04-.24-.04l-.21-.02v-.7h4.64v1.79h-.69l-.04-.17c-.04-.17-.14-.36-.29-.56-.18-.24-.29-.28-.33-.28-.07,0-.16-.02-.26-.02-.11,0-.23,0-.36,0h-.62v1.79h.38c.22,0,.31-.03.34-.04.05-.02.1-.06.15-.12.04-.05.07-.13.11-.24.04-.12.06-.23.07-.33l.02-.2h.71v2.63h-.72l-.02-.2c0-.11-.03-.23-.07-.35-.05-.16-.09-.22-.1-.24-.05-.06-.1-.11-.16-.12-.05-.02-.15-.04-.33-.04h-.38v1.47c0,.15,0,.27.03.35.01.05.03.08.05.1.02.02.07.04.16.06.1.01.26.02.46.02h.33c.13,0,.23,0,.32-.01.09,0,.17-.03.27-.05.09-.02.11-.05.11-.05.1-.11.22-.29.33-.52.15-.31.21-.46.23-.53l.05-.16h.68l-.13,2.09ZM100.19,144.92h.63l.05-.89s-.04.08-.06.12c-.14.28-.27.48-.4.62-.05.06-.13.11-.22.14ZM97.27,144.92h.95s-.05-.03-.08-.05c-.11-.08-.18-.2-.21-.35-.03-.11-.04-.26-.04-.45v-4.33h-.71s0,0,0,0c.14.07.23.16.28.28.04.09.06.2.06.31v4.04c0,.13-.03.25-.07.34-.04.08-.1.15-.18.2ZM99.2,142.23c.14.05.27.14.37.28.04.05.07.11.1.18v-.9c-.03.06-.06.12-.1.17-.09.12-.2.21-.33.27-.01,0-.03.01-.04.02ZM99.91,139.75c.13.08.25.2.38.37.08.11.15.21.21.32v-.69h-.59Z" fill="#f1d200"/>
          </g>
          <g>
            <path d="M109.09,141.05h-.26c-.02-.09-.06-.21-.13-.34-.06-.13-.12-.26-.2-.37-.08-.12-.16-.23-.25-.32-.09-.09-.18-.14-.26-.16-.08-.01-.18-.02-.3-.02-.12,0-.23,0-.33,0h-.22v4.49c0,.09.02.17.05.24.04.07.1.13.19.17.05.02.14.04.29.08.15.03.26.05.34.05v.28h-2.55v-.28c.07,0,.18-.02.32-.03.15-.02.25-.04.31-.06.08-.03.14-.08.18-.15.04-.07.06-.15.06-.26v-4.53h-.22c-.08,0-.18,0-.29,0-.12,0-.23.01-.34.02-.08.01-.17.06-.26.16-.09.09-.17.2-.25.32-.08.12-.14.25-.2.38-.06.13-.1.24-.12.33h-.27v-1.52h4.71v1.52h0Z" fill="#f1d200"/>
            <path d="M108.23,145.36h-3.01v-.7l.21-.02c.07,0,.18-.02.32-.03.18-.02.23-.04.24-.04.06-.02.07-.05.08-.06.01-.02.03-.06.03-.15v-4.31c-.07,0-.17,0-.28,0-.11,0-.22,0-.32.02,0,0-.05,0-.13.09-.08.08-.15.18-.22.28-.07.11-.13.23-.19.35-.05.12-.09.22-.11.3l-.04.16h-.67v-1.96h5.16v1.96h-.67l-.04-.17c-.02-.08-.06-.18-.11-.29-.06-.13-.12-.24-.19-.35-.07-.11-.14-.2-.22-.28-.08-.08-.12-.09-.13-.1-.07,0-.16-.02-.27-.02-.11,0-.22,0-.32,0v4.27c0,.05.01.1.03.15,0,0,.02.03.08.06.03.01.12.03.24.06.13.03.23.04.3.05h.22v.72ZM106.27,144.92h.99c-.13-.06-.22-.15-.27-.26-.05-.1-.08-.22-.08-.34v-4.58h-.36v4.61c0,.15-.03.27-.09.37-.05.07-.11.14-.19.19ZM104.6,139.75v.79c.05-.11.11-.21.17-.31.08-.13.18-.25.27-.35.05-.05.1-.09.15-.13h-.6ZM108.26,139.75c.05.03.1.08.15.13.1.1.19.22.28.35.06.1.12.2.17.3v-.78h-.6Z" fill="#f1d200"/>
          </g>
          <g>
            <path d="M115.24,145.14h-1.46c-.32-.52-.62-.98-.88-1.36-.26-.38-.54-.78-.85-1.18h-.55v1.78c0,.09.01.17.04.25.03.07.09.12.18.16.05.02.13.04.24.05.11.02.21.03.29.03v.28h-2.29v-.28c.06,0,.15-.01.26-.03.12-.01.2-.03.24-.05.08-.03.13-.08.16-.15.04-.07.05-.15.05-.25v-4.06c0-.09-.01-.17-.04-.25-.03-.07-.09-.13-.18-.16-.06-.02-.15-.04-.25-.06-.1-.02-.19-.03-.26-.04v-.28h2.5c.23,0,.44.03.64.08.2.05.38.13.55.23.16.11.28.24.38.42.09.17.14.37.14.61,0,.22-.03.41-.1.57-.06.17-.16.31-.28.43-.11.11-.25.21-.41.3-.16.08-.34.15-.53.21.27.37.49.68.66.93.18.25.39.56.65.91.11.16.21.28.3.35.09.07.18.13.27.18.07.03.15.06.25.08s.18.03.25.03v.28h0ZM113.23,140.95c0-.34-.09-.61-.28-.81-.19-.2-.45-.3-.8-.3h-.65v2.41h.5c.35,0,.64-.12.88-.35.23-.23.35-.55.35-.95h0Z" fill="#f1d200"/>
            <path d="M115.46,145.36h-1.81l-.07-.11c-.32-.51-.61-.97-.87-1.35-.24-.35-.5-.71-.77-1.09h-.21v1.56c0,.06,0,.12.03.17,0,0,.02.02.05.03,0,0,.05.02.19.04.1.01.19.02.26.02h.22v.72h-2.74v-.7l.21-.02c.06,0,.15-.01.26-.03.13-.02.17-.03.17-.03.04-.02.05-.03.06-.05.02-.03.03-.07.03-.16v-4.06c0-.07,0-.13-.03-.17,0,0-.02-.02-.05-.03-.05-.02-.12-.04-.21-.05-.1-.02-.17-.03-.24-.04l-.21-.02v-.7h2.72c.25,0,.48.03.7.08.22.05.43.14.62.26.19.13.34.29.45.49.11.2.17.44.17.72,0,.24-.04.46-.11.65-.07.2-.19.37-.33.51-.13.13-.28.24-.46.33-.09.05-.18.09-.28.13.19.27.36.5.49.69l.65.91c.1.14.19.25.27.31.07.06.15.11.23.15.04.02.11.04.18.06.09.02.16.03.21.03h.22v.72ZM113.91,144.92h.69c-.09-.05-.18-.11-.27-.19-.11-.09-.22-.22-.34-.4l-.65-.91c-.18-.25-.4-.56-.66-.92l-.09-.13c-.11.04-.22.07-.34.09h0c.31.42.59.81.85,1.2.25.36.52.79.82,1.26ZM110.67,144.92h.84c-.1-.07-.16-.15-.18-.22-.04-.1-.06-.21-.06-.32v-4.63h-.63c.14.08.2.18.22.25.03.1.05.2.05.32v4.06c0,.14-.03.26-.08.36-.04.07-.09.14-.16.19ZM112.8,139.77c.12.06.22.14.31.23.23.24.34.56.34.96,0,.46-.14.83-.41,1.11,0,0-.02.02-.03.03.09-.04.18-.07.26-.12.14-.07.26-.16.35-.26.1-.1.18-.22.23-.35.05-.14.08-.31.08-.5,0-.2-.04-.37-.11-.51-.08-.14-.18-.25-.31-.34-.14-.09-.3-.16-.47-.2-.08-.02-.16-.04-.25-.05ZM111.73,142.04h.27c.29,0,.52-.09.72-.28.19-.19.29-.46.29-.8,0-.29-.07-.5-.22-.66-.15-.15-.35-.23-.63-.23h-.42v1.97Z" fill="#f1d200"/>
          </g>
          <g>
            <path d="M120.89,139.81c-.07,0-.18.02-.31.05-.14.03-.25.07-.34.13-.09.06-.15.19-.18.38-.03.19-.05.42-.05.7v2.44c0,.31-.06.58-.19.81-.12.23-.29.42-.49.57-.2.14-.41.24-.64.3-.22.06-.43.09-.64.09-.33,0-.62-.04-.87-.13-.25-.09-.47-.21-.64-.36-.17-.15-.3-.32-.38-.51-.09-.2-.13-.4-.13-.61v-3.32c0-.09-.02-.17-.05-.23-.03-.06-.09-.12-.18-.17-.06-.04-.14-.07-.24-.09-.1-.02-.18-.04-.24-.04v-.28h2.25v.28c-.07,0-.16.01-.27.04-.11.02-.19.04-.24.06-.09.03-.14.08-.18.16-.03.07-.04.15-.04.24v3.1c0,.15.02.31.05.47.03.16.1.32.19.46.1.15.23.26.4.36.17.09.4.14.7.14.28,0,.51-.05.7-.14.19-.09.34-.21.45-.36.1-.14.18-.29.22-.45.04-.16.06-.31.06-.47v-2.3c0-.29-.02-.53-.06-.72-.04-.19-.1-.31-.18-.37-.09-.07-.21-.12-.37-.15-.15-.04-.27-.06-.35-.06v-.28h2.21v.28h0Z" fill="#f1d200"/>
            <path d="M118.06,145.49c-.35,0-.67-.05-.95-.15-.28-.1-.52-.23-.71-.4-.19-.17-.34-.37-.44-.59-.1-.22-.15-.46-.15-.7v-3.32c0-.07-.01-.11-.02-.13,0-.01-.02-.04-.09-.08-.04-.02-.1-.04-.18-.06-.09-.02-.16-.03-.21-.04l-.21-.02v-.7h2.7v.71h-.22c-.06.01-.14.02-.24.04-.09.02-.16.03-.2.05-.04.01-.04.03-.05.03-.02.04-.03.1-.03.16v3.1c0,.14.01.28.04.44.03.13.08.26.16.38.08.11.18.21.32.28.26.14.87.15,1.19,0,.16-.08.28-.18.37-.29.09-.12.15-.25.19-.38.04-.14.06-.27.06-.41v-2.3c0-.28-.02-.5-.06-.67-.04-.2-.09-.24-.09-.24-.06-.05-.16-.09-.28-.12-.14-.03-.24-.05-.31-.06h-.21v-.72h2.66v.71h-.22c-.06.01-.15.03-.27.05-.11.02-.19.06-.25.1h0s-.05.04-.09.23c-.03.17-.05.4-.05.66v2.44c0,.34-.07.65-.21.91-.14.26-.33.47-.56.64-.23.16-.46.27-.71.34-.24.07-.47.1-.7.1ZM115.93,139.75s0,0,0,0c.13.08.22.17.27.28.04.08.06.19.06.32v3.32c0,.18.04.35.11.52.07.16.18.31.33.44.15.13.34.23.56.31.26.09.56.14.91.12-.33,0-.59-.06-.79-.17-.2-.11-.36-.25-.48-.43-.11-.17-.19-.35-.22-.54-.03-.18-.05-.35-.05-.52v-3.1c0-.11.02-.22.06-.32.04-.1.11-.18.2-.24h-.96ZM119.35,139.75c.07.03.13.07.18.1.12.09.21.25.26.5,0,.04.02.08.02.12,0-.05.01-.1.02-.14.04-.25.13-.42.27-.52.03-.02.07-.04.11-.06h-.86Z" fill="#f1d200"/>
          </g>
          <g>
            <path d="M124.9,142.56c.11.13.2.28.25.44.06.16.08.34.08.55,0,.5-.18.9-.53,1.23-.35.32-.79.48-1.32.48-.24,0-.48-.04-.72-.11-.24-.08-.45-.17-.63-.28l-.16.29h-.3l-.05-1.92h.31c.06.24.14.45.22.64.09.19.2.37.34.53.13.16.29.28.46.37.18.09.38.14.62.14.18,0,.33-.02.46-.07.13-.05.24-.11.32-.2.08-.09.14-.19.18-.3.04-.12.06-.25.06-.41,0-.22-.06-.43-.18-.62-.12-.2-.3-.34-.55-.44-.17-.07-.35-.14-.57-.23-.21-.08-.4-.16-.55-.24-.3-.14-.54-.33-.71-.56-.17-.23-.25-.53-.25-.91,0-.21.04-.41.13-.6.08-.18.2-.35.36-.49.15-.14.32-.24.52-.32.2-.08.41-.12.63-.12.25,0,.47.04.67.12.2.08.38.17.54.28l.16-.27h.3l.03,1.86h-.31c-.06-.21-.12-.42-.19-.61-.07-.2-.16-.37-.27-.53-.11-.15-.24-.27-.4-.36-.16-.09-.35-.14-.58-.14-.24,0-.45.08-.62.24-.17.16-.26.36-.26.59s.05.44.16.61c.11.16.27.29.48.39.19.09.37.17.55.24.18.07.35.14.52.21.15.07.3.15.44.23.14.09.27.19.37.3h0Z" fill="#f1d200"/>
            <path d="M123.4,145.47c-.26,0-.53-.04-.79-.13-.17-.06-.33-.12-.47-.19l-.12.21h-.66l-.07-2.36h.72l.04.16c.06.23.13.43.21.61.08.17.18.33.31.48.11.13.24.24.39.32.25.13.64.15.89.06.1-.04.17-.08.23-.14.06-.06.1-.14.13-.22.03-.1.05-.21.05-.34,0-.18-.05-.35-.15-.51-.1-.16-.24-.27-.44-.36-.16-.07-.35-.14-.56-.22-.22-.09-.41-.17-.57-.24-.34-.16-.6-.37-.8-.63-.2-.27-.29-.62-.29-1.03,0-.24.05-.47.15-.69.09-.21.23-.4.41-.56.17-.16.37-.28.6-.37.48-.19,1.04-.17,1.47,0,.13.05.25.11.37.17l.11-.18h.66l.04,2.3h-.71l-.04-.17c-.05-.21-.12-.41-.18-.59-.06-.18-.14-.34-.24-.48-.09-.12-.2-.23-.33-.3-.24-.14-.67-.17-.92.07-.13.12-.19.26-.19.43,0,.2.04.36.13.48.09.12.22.23.39.32.18.09.35.17.53.23.18.07.36.14.54.22.16.07.32.15.46.25.16.1.3.21.42.34h0c.13.16.23.33.29.51.06.17.09.38.09.61,0,.56-.2,1.02-.6,1.39-.39.36-.89.54-1.47.54ZM121.97,144.54l.2.13c.13.08.27.15.44.21-.15-.09-.28-.21-.39-.34-.15-.18-.28-.38-.37-.59-.03-.07-.06-.13-.08-.2l.03,1.09.17-.3ZM122.38,139.94s-.05.04-.07.06c-.13.12-.24.27-.31.42-.07.16-.11.33-.11.51,0,.32.07.59.21.78.15.2.36.36.63.49.15.07.33.15.54.23.21.08.4.16.57.23.28.12.5.3.65.53.14.23.22.48.22.74,0,.18-.02.34-.07.48-.03.08-.06.16-.11.23,0,0,.01-.01.02-.02.31-.28.46-.63.46-1.07,0-.18-.02-.34-.07-.47-.05-.14-.11-.25-.21-.36-.09-.1-.2-.19-.32-.26-.13-.08-.27-.16-.41-.22-.16-.07-.33-.14-.51-.21-.19-.07-.38-.16-.57-.25-.24-.12-.43-.28-.56-.46-.13-.2-.2-.44-.2-.73,0-.24.07-.45.22-.64ZM124.19,139.86c.09.08.17.17.24.26.12.17.22.37.3.58.02.05.03.1.05.14l-.02-1.02-.16.28-.2-.13c-.06-.04-.13-.08-.21-.12Z" fill="#f1d200"/>
          </g>
          <g>
            <path d="M130.76,141.05h-.26c-.02-.09-.06-.21-.13-.34-.06-.13-.12-.26-.2-.37-.08-.12-.16-.23-.25-.32-.09-.09-.18-.14-.26-.16-.08-.01-.18-.02-.3-.02-.12,0-.23,0-.33,0h-.22v4.49c0,.09.02.17.05.24.04.07.1.13.19.17.05.02.14.04.29.08.15.03.26.05.34.05v.28h-2.55v-.28c.07,0,.18-.02.32-.03.15-.02.25-.04.3-.06.08-.03.14-.08.18-.15.04-.07.06-.15.06-.26v-4.53h-.22c-.08,0-.18,0-.29,0-.12,0-.23.01-.34.02-.08.01-.17.06-.26.16-.09.09-.17.2-.25.32-.08.12-.14.25-.2.38-.06.13-.1.24-.12.33h-.27v-1.52h4.71v1.52Z" fill="#f1d200"/>
            <path d="M129.91,145.36h-3.01v-.7l.21-.02c.07,0,.18-.02.32-.03.18-.02.23-.04.24-.04.04-.02.07-.04.08-.06.01-.02.03-.06.03-.15v-4.31c-.07,0-.17,0-.28,0-.11,0-.22,0-.32.02,0,0-.05,0-.13.09-.08.08-.15.18-.22.28-.07.11-.13.23-.19.35-.05.12-.09.22-.11.3l-.04.16h-.67v-1.96h5.16v1.96h-.67l-.04-.17c-.02-.08-.06-.18-.11-.29-.06-.13-.12-.24-.18-.35-.07-.11-.14-.2-.22-.28-.08-.08-.12-.09-.13-.1-.07,0-.16-.02-.27-.02-.11,0-.22,0-.32,0v4.27c0,.05.01.1.03.15,0,0,.02.03.08.06.03.01.12.03.24.06.13.03.23.04.3.05h.22v.72ZM127.94,144.92h.99c-.13-.06-.22-.15-.27-.26-.05-.11-.08-.22-.08-.34v-4.58h-.36v4.61c0,.15-.03.27-.09.37-.05.07-.11.14-.19.19ZM126.27,139.75v.79c.05-.11.11-.21.17-.31.08-.13.18-.25.27-.35.05-.05.1-.09.15-.13h-.6ZM129.93,139.75c.05.03.1.08.15.13.1.1.19.22.28.35.06.1.12.2.17.3v-.78h-.6Z" fill="#f1d200"/>
          </g>
          <path d="M93.94,74.04s.02,0,.02,0c0,0,.67.25.68,1.33.59-.11.83.21.72.97,0,0-.7-.2-.82.22-.17.48-.04.87.39,1.17,0,0,.73.6,1.19-.54.46-1.14.62-1.52.62-1.52.13-.42.89-1.4,1.58-1.54.26-.11.52-.09.8-.02,0,0,.6.14.62.66.02.52-.19.75-.53.9-.38.17-.84-.19-.84-.19-.16-.03-.21.03-.31.1-.05.03-.24.25-.35.5,0,0-.34.74-.5,1.3-.13.44-.4,1.78-1.71,1.98h-3.08c-1.31-.2-1.58-1.54-1.71-1.98-.16-.56-.5-1.3-.5-1.3-.11-.24-.3-.46-.35-.5-.1-.07-.15-.13-.31-.1,0,0-.47.36-.84.19-.34-.15-.55-.38-.53-.9.02-.52.62-.66.62-.66.28-.07.53-.09.8.02.69.14,1.45,1.12,1.58,1.54,0,0,.17.39.62,1.52.46,1.14,1.19.54,1.19.54.43-.3.57-.69.39-1.17-.11-.42-.82-.22-.82-.22-.11-.76.12-1.09.72-.97,0-1.09.67-1.33.68-1.33,0,0,0,0,.02,0h-.04Z" fill="#f1d200"/>
          <g>
            <path d="M97.78,110.55h-7.46l.88-30.19h5.74l.85,30.19Z" fill="#f1d200"/>
            <path d="M98.06,110.82h-8.03l.9-30.72h6.28l.86,30.72ZM90.6,110.28h6.9l-.83-29.65h-5.2l-.86,29.65Z" fill="#003a6f"/>
          </g>
          <g>
            <path d="M97.75,127.34h-7.93v-13.71s7.93,0,7.93,0v13.71Z" fill="#f1d200"/>
            <path d="M98.02,127.61h-8.48v-14.25s8.48,0,8.48,0v14.25ZM90.1,127.07h7.37v-13.17h-7.37s0,13.17,0,13.17Z" fill="#003a6f"/>
          </g>
          <g>
            <path d="M89.69,112.07h8.04c.56,0,1.01.35,1.01.79s-.45.79-1.01.79h-8.04c-.56,0-1.01-.35-1.01-.79s.45-.79,1.01-.79Z" fill="#f1d200"/>
            <path d="M97.73,113.92h-8.04c-.71,0-1.29-.48-1.29-1.06s.58-1.06,1.29-1.06h8.04c.71,0,1.29.48,1.29,1.06s-.58,1.06-1.29,1.06ZM89.69,112.34c-.4,0-.74.24-.74.52s.34.52.74.52h8.04c.4,0,.74-.24.74-.52s-.34-.52-.74-.52h-8.04Z" fill="#003a6f"/>
          </g>
          <g>
            <path d="M90.29,110.59h7.01c.5,0,.9.33.9.74h0c0,.41-.4.74-.9.74h-7.01c-.5,0-.9-.33-.9-.74h0c0-.41.4-.74.9-.74Z" fill="#f1d200"/>
            <path d="M97.3,112.34h-7.01c-.65,0-1.18-.45-1.18-1.01s.53-1.01,1.18-1.01h7.01c.65,0,1.18.45,1.18,1.01s-.53,1.01-1.18,1.01ZM90.29,110.86c-.34,0-.63.21-.63.47s.28.47.63.47h7.01c.34,0,.63-.21.63-.47s-.28-.47-.63-.47h-7.01Z" fill="#003a6f"/>
          </g>
          <path d="M96.12,125.51h-4.79v-9.58h4.79v9.58ZM91.89,124.97h3.68v-8.5h-3.68v8.5Z" fill="#003a6f"/>
          <g>
            <path d="M91.52,79.31h4.86c.4,0,.72.24.72.55s-.32.55-.72.55h-4.86c-.4,0-.72-.24-.72-.55s.32-.55.72-.55Z" fill="#f1d200"/>
            <path d="M96.39,80.67h-4.86c-.55,0-1-.37-1-.81s.45-.81,1-.81h4.86c.55,0,1,.37,1,.81s-.45.81-1,.81ZM91.52,79.58c-.26,0-.45.15-.45.28s.18.28.45.28h4.86c.26,0,.45-.15.45-.28s-.18-.28-.45-.28h-4.86Z" fill="#003a6f"/>
          </g>
          <g>
            <path d="M54.06,128.98h80.79v2.82H54.06v-2.82Z" fill="#f1d200"/>
            <path d="M135.13,132.07H53.79v-3.36h81.34v3.36ZM54.34,131.53h80.23v-2.29H54.34v2.29Z" fill="#003a6f"/>
          </g>
          <g>
            <path d="M50.62,131.78h87.74v2.99H50.62v-2.99Z" fill="#f1d200"/>
            <path d="M138.63,135.04H50.34v-3.53h88.29v3.53ZM50.9,134.5h87.18v-2.45H50.9v2.45Z" fill="#003a6f"/>
          </g>
          <g>
            <path d="M56.45,67.67h75.43v1.73H56.45v-1.73Z" fill="#f1d200"/>
            <path d="M132.16,69.67H56.18v-2.27h75.98v2.27ZM56.73,69.13h74.88v-1.19H56.73v1.19Z" fill="#003a6f"/>
          </g>
          <g>
            <path d="M117.68,67.62c-3.91-9.7-12.98-16.48-23.54-16.48s-19.62,6.79-23.54,16.48h-9.38c4.34-14.91,17.45-25.85,32.91-25.85s28.59,10.91,32.93,25.84h-9.38Z" fill="#f1d200"/>
            <path d="M117.68,67.89c-.11,0-.22-.07-.26-.17-3.99-9.91-13.13-16.31-23.29-16.31s-19.28,6.4-23.28,16.31c-.04.1-.14.17-.26.17h-9.38c-.09,0-.17-.04-.22-.11-.05-.07-.07-.15-.05-.24,4.46-15.33,18.1-26.04,33.18-26.04s28.74,10.71,33.19,26.04c.02.08,0,.17-.05.23-.05.07-.13.11-.22.11h-9.38ZM61.59,67.35h8.82c4.12-10.02,13.41-16.48,23.72-16.48s19.62,6.46,23.73,16.48h8.83c-4.48-14.92-17.82-25.31-32.56-25.31s-28.05,10.39-32.54,25.31Z" fill="#003a6f"/>
          </g>
          <g>
            <path d="M58.48,69.42s1.3.81,2.39,3.22h67.1s1.1-2.69,2.62-3.22H58.48Z" fill="#f1d200"/>
            <path d="M60.69,72.91l-.07-.16c-1.03-2.29-2.27-3.09-2.29-3.1l-.79-.49h73.05s.09.52.09.52c-1.39.48-2.45,3.04-2.46,3.06l-.07.17H60.69ZM59.23,69.69c.48.47,1.18,1.31,1.82,2.68h66.74c.22-.49.89-1.87,1.84-2.68H59.23Z" fill="#003a6f"/>
          </g>
          <g>
            <path d="M75.13,73.26s6.22,11.06,18.86,10.91c12.49-.15,18.86-10.53,18.86-10.53l3.33,5.11s1.23,1.73-1.16,3.91c-8.44,7.71-15.12,9.22-21.03,9.18-8.72-.49-15.75-3.55-21.1-9.18-.96-.83-1.16-1.92-.87-2.82l3.11-6.58Z" fill="#f1d200"/>
            <path d="M94.25,92.11c-.09,0-.18,0-.27,0-8.77-.5-15.93-3.61-21.3-9.26-.93-.8-1.29-1.96-.93-3.08l3.13-6.61c.04-.09.14-.15.24-.16.1-.02.2.05.25.14.06.11,6.32,10.91,18.61,10.77,12.19-.15,18.56-10.3,18.62-10.4.05-.08.14-.13.23-.13.13,0,.19.05.24.13l3.33,5.11s1.33,1.94-1.2,4.25c-8.9,8.13-15.86,9.25-20.95,9.25ZM75.16,73.84l-2.89,6.12c-.28.88.01,1.83.8,2.51,5.29,5.56,12.33,8.62,20.93,9.11,5.01.04,11.91-.96,20.82-9.1,2.17-1.98,1.16-3.5,1.12-3.56l-3.1-4.77c-1.28,1.85-7.69,10.17-18.85,10.3-.09,0-.17,0-.26,0-11.03,0-17.23-8.53-18.57-10.6Z" fill="#003a6f"/>
          </g>
          <path d="M71.62,81.03s-.14-.84.45-1.24c.52-.36,1.37-.25,2.58.33l.24-6.83.55.02-.27,7.69-.39-.21c-1.58-.84-2.17-.71-2.39-.56-.3.21-.23.71-.23.72l-.55.09Z" fill="#003a6f"/>
          <path d="M113.12,80.82l-.56-7.13.55-.04.45,5.63c.44-.49,1.12-1.09,1.85-1.04.52.04.95.42,1.26,1.11l-.51.21c-.22-.5-.49-.76-.8-.79-.67-.06-1.54,1-1.79,1.37l-.45.66Z" fill="#003a6f"/>
          <g>
            <path d="M60.51,72.77h67.47c.24,0,.43.21.43.47v.16c0,.26-.19.47-.43.47H60.51c-.24,0-.43-.21-.43-.47v-.16c0-.26.19-.47.43-.47Z" fill="#f1d200"/>
            <path d="M127.98,74.13H60.51c-.39,0-.71-.33-.71-.74v-.16c0-.2.08-.4.22-.54.13-.13.31-.2.49-.2h67.47c.39,0,.71.33.71.74v.16c0,.41-.32.74-.71.74ZM60.51,73.04s-.08.02-.09.04c-.04.04-.06.1-.06.16v.16c0,.11.07.2.16.2h67.47c.09,0,.16-.09.16-.2v-.16c0-.11-.07-.2-.16-.2H60.51Z" fill="#003a6f"/>
          </g>
          <path d="M66.47,73.95s.02,0,.02,0c0,0,.67.25.68,1.33.59-.11.83.21.72.97,0,0-.7-.2-.82.22-.17.48-.04.87.39,1.17,0,0,.73.6,1.19-.54.46-1.14.62-1.52.62-1.52.13-.42.89-1.4,1.58-1.54.26-.11.52-.09.8-.02,0,0,.6.14.62.66.02.52-.19.75-.53.9-.38.17-.84-.19-.84-.19-.16-.03-.21.03-.31.1-.05.03-.24.25-.35.5,0,0-.34.74-.5,1.3-.13.44-.4,1.78-1.71,1.98h-3.08c-1.31-.2-1.58-1.54-1.71-1.98-.16-.56-.5-1.3-.5-1.3-.11-.24-.3-.46-.35-.5-.1-.07-.15-.13-.31-.1,0,0-.47.36-.84.19-.34-.15-.55-.38-.53-.9.02-.52.62-.66.62-.66.28-.07.53-.09.8.02.69.14,1.45,1.12,1.58,1.54,0,0,.17.39.62,1.52.46,1.14,1.19.54,1.19.54.43-.3.57-.69.39-1.17-.11-.42-.82-.22-.82-.22-.11-.76.12-1.09.72-.97,0-1.09.67-1.33.68-1.33,0,0,0,0,.02,0h-.04Z" fill="#f1d200"/>
          <g>
            <path d="M70.22,110.55h-7.46l.99-30.19h5.51l.96,30.19Z" fill="#f1d200"/>
            <path d="M70.51,110.82h-8.04l1.01-30.72h6.05l.97,30.72ZM63.04,110.28h6.89l-.94-29.65h-4.98l-.98,29.65Z" fill="#003a6f"/>
          </g>
          <g>
            <path d="M70.45,127.34h-7.93v-13.71s7.93,0,7.93,0v13.71Z" fill="#f1d200"/>
            <path d="M70.73,127.61h-8.48v-14.25s8.48,0,8.48,0v14.25ZM62.8,127.07h7.37v-13.17h-7.37s0,13.17,0,13.17Z" fill="#003a6f"/>
          </g>
          <g>
            <path d="M62.47,112.07h8.04c.56,0,1.01.35,1.01.79h0c0,.44-.45.79-1.01.79h-8.04c-.56,0-1.01-.35-1.01-.79h0c0-.44.45-.79,1.01-.79h0Z" fill="#f1d200"/>
            <path d="M70.51,113.92h-8.04c-.71,0-1.29-.48-1.29-1.06s.58-1.06,1.29-1.06h8.04c.71,0,1.29.48,1.29,1.06s-.58,1.06-1.29,1.06ZM62.47,112.34c-.4,0-.74.24-.74.52s.34.52.74.52h8.04c.4,0,.74-.24.74-.52s-.34-.52-.74-.52h-8.04Z" fill="#003a6f"/>
          </g>
          <g>
            <path d="M62.98,110.59h7.01c.5,0,.9.33.9.74h0c0,.41-.4.74-.9.74h-7.01c-.5,0-.9-.33-.9-.74h0c0-.41.4-.74.9-.74Z" fill="#f1d200"/>
            <path d="M70,112.34h-7.01c-.65,0-1.18-.45-1.18-1.01s.53-1.01,1.18-1.01h7.01c.65,0,1.18.45,1.18,1.01s-.53,1.01-1.18,1.01ZM62.98,110.86c-.34,0-.63.21-.63.47s.28.47.63.47h7.01c.34,0,.63-.21.63-.47s-.28-.47-.63-.47h-7.01Z" fill="#003a6f"/>
          </g>
          <path d="M68.88,125.51h-4.79v-9.58h4.79v9.58ZM64.65,124.97h3.68v-8.5h-3.68v8.5Z" fill="#003a6f"/>
          <g>
            <path d="M64.06,79.43h4.86c.4,0,.72.24.72.55s-.32.55-.72.55h-4.86c-.4,0-.72-.24-.72-.55s.32-.55.72-.55h0Z" fill="#f1d200"/>
            <path d="M68.92,80.79h-4.86c-.55,0-1-.37-1-.81s.45-.81,1-.81h4.86c.55,0,1,.37,1,.81s-.45.81-1,.81ZM64.06,79.7c-.26,0-.45.15-.45.28s.18.28.45.28h4.86c.26,0,.45-.15.45-.28s-.18-.28-.45-.28h-4.86Z" fill="#003a6f"/>
          </g>
          <g>
            <path d="M60.84,127.37h11.29v1.58h-11.29v-1.58Z" fill="#f1d200"/>
            <path d="M72.41,129.22h-11.85v-2.12h11.85v2.12ZM61.12,128.68h10.74v-1.04h-10.74v1.04Z" fill="#003a6f"/>
          </g>
          <path d="M121.82,74.04s.02,0,.02,0c0,0,.67.25.68,1.33.59-.11.83.21.72.97,0,0-.7-.2-.82.22-.17.48-.04.87.39,1.17,0,0,.73.6,1.19-.54.46-1.14.62-1.52.62-1.52.13-.42.89-1.4,1.58-1.54.26-.11.52-.09.8-.02,0,0,.6.14.62.66.02.52-.19.75-.53.9-.38.17-.84-.19-.84-.19-.16-.03-.21.03-.31.1-.05.03-.24.25-.35.5,0,0-.34.74-.5,1.3-.13.44-.4,1.78-1.71,1.98h-3.08c-1.31-.2-1.58-1.54-1.71-1.98-.16-.56-.5-1.3-.5-1.3-.11-.24-.3-.46-.35-.5-.1-.07-.15-.13-.31-.1,0,0-.47.36-.84.19-.34-.15-.55-.38-.53-.9.02-.52.62-.66.62-.66.28-.07.53-.09.8.02.69.14,1.45,1.12,1.58,1.54,0,0,.17.39.62,1.52.46,1.14,1.19.54,1.19.54.43-.3.57-.69.39-1.17-.11-.42-.82-.22-.82-.22-.11-.76.12-1.09.72-.97,0-1.09.67-1.33.68-1.33,0,0,0,0,.02,0h-.04Z" fill="#f1d200"/>
          <g>
            <path d="M125.72,110.55h-7.46l.99-30.19h5.51l.96,30.19Z" fill="#f1d200"/>
            <path d="M126,110.82h-8.04l1.01-30.72h6.05l.97,30.72ZM118.54,110.28h6.89l-.94-29.65h-4.98l-.97,29.65Z" fill="#003a6f"/>
          </g>
          <g>
            <path d="M126.13,127.34h-7.93l-.08-13.71h8.01s0,13.71,0,13.71Z" fill="#f1d200"/>
            <path d="M126.41,127.61h-8.48l-.09-14.25h8.57s0,14.25,0,14.25ZM118.48,127.07h7.37v-13.17h-7.45s.08,13.17.08,13.17Z" fill="#003a6f"/>
          </g>
          <g>
            <path d="M118.13,112.07h8.04c.56,0,1.01.35,1.01.79s-.45.79-1.01.79h-8.04c-.56,0-1.01-.35-1.01-.79s.45-.79,1.01-.79Z" fill="#f1d200"/>
            <path d="M126.16,113.92h-8.04c-.71,0-1.29-.48-1.29-1.06s.58-1.06,1.29-1.06h8.04c.71,0,1.29.48,1.29,1.06s-.58,1.06-1.29,1.06ZM118.13,112.34c-.4,0-.74.24-.74.52s.34.52.74.52h8.04c.4,0,.74-.24.74-.52s-.34-.52-.74-.52h-8.04Z" fill="#003a6f"/>
          </g>
          <g>
            <path d="M118.54,110.59h7.01c.5,0,.9.33.9.74h0c0,.41-.4.74-.9.74h-7.01c-.5,0-.9-.33-.9-.74h0c0-.41.4-.74.9-.74Z" fill="#f1d200"/>
            <path d="M125.55,112.34h-7.01c-.65,0-1.18-.45-1.18-1.01s.53-1.01,1.18-1.01h7.01c.65,0,1.18.45,1.18,1.01s-.53,1.01-1.18,1.01ZM118.54,110.86c-.35,0-.63.21-.63.47s.28.47.63.47h7.01c.34,0,.63-.21.63-.47s-.28-.47-.63-.47h-7.01Z" fill="#003a6f"/>
          </g>
          <path d="M124.49,125.51h-4.79v-9.58h4.79v9.58ZM120.25,124.97h3.68v-8.5h-3.68v8.5Z" fill="#003a6f"/>
          <g>
            <path d="M119.51,79.31h4.86c.4,0,.72.24.72.55s-.32.55-.72.55h-4.86c-.4,0-.72-.24-.72-.55s.32-.55.72-.55Z" fill="#f1d200"/>
            <path d="M124.38,80.67h-4.86c-.55,0-1-.37-1-.81s.45-.81,1-.81h4.86c.55,0,1,.37,1,.81s-.45.81-1,.81ZM119.51,79.58c-.26,0-.45.15-.45.28s.18.28.45.28h4.86c.26,0,.45-.15.45-.28s-.18-.28-.45-.28h-4.86Z" fill="#003a6f"/>
          </g>
          <g>
            <path d="M87.95,127.37h11.29v1.58h-11.29v-1.58Z" fill="#f1d200"/>
            <path d="M99.52,129.22h-11.85v-2.12h11.85v2.12ZM88.23,128.68h10.74v-1.04h-10.74v1.04Z" fill="#003a6f"/>
          </g>
          <g>
            <path d="M46.03,105.97c-1.92-1.43-3.95-1.05-3.95-1.05,0,0,1.46-2.02,3.8-1.02,1.48.64,2.75,3.01,6.52.53,3.76-2.48,5.23-3.74,8.54-4.89,3.41-1.18,6.08-1.43,6.88-1.73s2.04-.77,2.68-4.74c.14-.9,3.62,7.52,3.62,7.52,0,0-.51,2.78-3.84,4.36-3.33,1.58-9.1,2.52-12.31,5.19-1.09.9-3.17,2.46-4.43,4.38-2.97,4.51-6.06,5.02-6.06,5.02,0,0,2.81-2.55,3.58-5.98.14-.64-.09-3.51,1.01-4.66-1.17,1.22-4.15-1.18-3.76-.86,0,0-.36-.64-2.28-2.07h0Z" fill="#f1d200"/>
            <path d="M46.62,119.96l.67-.61s2.75-2.53,3.5-5.84c.03-.14.04-.44.06-.79.04-.93.09-2.23.51-3.2-1.05.11-2.37-.68-3.19-1.25l.04-.08-.08.06-.2-.17.03-.05c-.21-.26-.78-.86-2.1-1.84h0c-1.79-1.33-3.71-1.01-3.73-1l-.67.12.39-.54s1.63-2.19,4.14-1.11c.36.15.69.39,1.03.64,1.15.82,2.45,1.74,5.21-.09.74-.49,1.38-.92,1.97-1.32,2.45-1.66,3.93-2.66,6.63-3.6,2.25-.78,4.18-1.16,5.46-1.41.64-.13,1.15-.22,1.41-.32.75-.29,1.89-.72,2.51-4.53.03-.2.17-.28.28-.29.25-.02.64-.07,3.86,7.76l.03.07v.08c-.04.12-.58,2.94-4,4.56-1.21.57-2.72,1.06-4.32,1.57-2.77.89-5.91,1.9-7.93,3.58-.14.12-.3.25-.48.39-1.13.92-2.83,2.3-3.9,3.93-3,4.56-6.12,5.12-6.25,5.14l-.91.15ZM52.28,109.09c-.76.79-.83,2.58-.87,3.65-.02.41-.03.7-.07.89-.53,2.34-1.96,4.25-2.87,5.29,1.13-.52,3.01-1.75,4.84-4.53,1.12-1.7,2.86-3.12,4.01-4.05.17-.14.33-.27.47-.39,2.1-1.74,5.29-2.77,8.11-3.68,1.58-.51,3.08-.99,4.25-1.55,2.86-1.36,3.56-3.67,3.67-4.1-1.17-2.83-2.53-5.91-3.15-7-.69,3.66-1.98,4.14-2.76,4.44-.3.11-.8.21-1.5.35-1.26.25-3.17.62-5.38,1.39-2.63.91-4.09,1.9-6.5,3.53-.59.4-1.24.84-1.98,1.33-3.09,2.04-4.62.95-5.85.08-.32-.23-.63-.45-.93-.58-1.4-.6-2.45-.02-3.01.45.8,0,2.14.19,3.43,1.15,1.62,1.21,2.16,1.87,2.31,2.08.61.43,2.59,1.69,3.37.88h0l.4.37h0Z" fill="#003a6f"/>
          </g>
          <g>
            <path d="M117.88,93.14s.58,3.42,7.06,5.15c6.48,1.73,7.49,3.91,8.54,4.44,1.05.53,3.78,2.55,6.7,1.54,1.15-.4,4.36-1.32,4.63-1.11.1.17-.92,1.94-1.04,2.09-2.15,2.64-2.97,3.05-3.76,3.46-1.74.9-1.87,1.01-3.11,1.09,0,0,1.16,1.5,1.34,3.95.18,2.44,3.33,4.93,3.33,4.93,0,0-4.2-1.13-6.04-3.72-1.85-2.59-4.89-4.81-6.01-5.38-1.12-.56-6.84-2.59-8.04-3.08-1.19-.49-4.92-2.52-5.43-5.79-.51-3.27,1.85-7.56,1.85-7.56h0Z" fill="#f1d200"/>
            <path d="M141.47,118.94c-.18-.05-4.32-1.18-6.2-3.83-1.8-2.52-4.78-4.73-5.91-5.29-.7-.35-3.3-1.31-5.39-2.09-1.18-.43-2.19-.81-2.63-.99-1.72-.7-5.11-2.87-5.6-6-.51-3.32,1.78-7.55,1.88-7.73l.38-.69.14.77s.66,3.28,6.86,4.94c4.98,1.33,6.76,2.91,7.83,3.86.31.27.55.49.77.6.16.08.35.19.57.32,1.23.71,3.53,2.03,5.9,1.21.04-.02,4.39-1.47,4.89-1.07l.07.08c.23.4-1.05,2.37-1.07,2.39-2.16,2.65-3,3.09-3.82,3.51l-.35.18c-1.26.65-1.6.83-2.44.92.37.61,1,1.91,1.13,3.7.17,2.3,3.2,4.71,3.23,4.74l-.25.47ZM117.83,93.85c-.6,1.27-1.9,4.36-1.52,6.81.56,3.62,5.22,5.56,5.26,5.58.42.17,1.44.55,2.61.98,2.1.78,4.71,1.74,5.45,2.11,1.17.59,4.26,2.86,6.11,5.46,1.15,1.62,3.29,2.66,4.65,3.19-.97-.96-2.32-2.58-2.44-4.22-.17-2.34-1.27-3.79-1.28-3.81l-.31-.4.51-.03c1.1-.07,1.25-.15,2.68-.89l.32-.17c.8-.41,1.59-.83,3.68-3.39.11-.15.7-1.18.91-1.67-.79.1-3.03.72-4.19,1.12-2.62.91-5.06-.5-6.37-1.25-.21-.12-.4-.23-.55-.3-.29-.14-.55-.38-.89-.68-1.03-.91-2.75-2.44-7.6-3.74-4.91-1.31-6.52-3.58-7.03-4.7Z" fill="#003a6f"/>
          </g>
          <g>
            <path d="M56.45,95.78c-4.4-1.79-3.04-2.99-3.04-2.99,1.08-2.01,2.5-4.52,7.86-6.66,7.17-2.86,14.48-1.58,12.52,1.73-1.19,2.01-3.24,5.53-3.24,5.53,0,0-.85-2.37-4.76-.86-3.91,1.5-5.12,2.14-5.35,2.94-.36,1.24-.22,2.03,2.61,1.58-1.85.64-3.9-.03-6.21-1.09l-.39-.16Z" fill="#f1d200"/>
            <path d="M61.52,97.55c-1.57,0-3.21-.64-4.8-1.37l-.38-.16c-2.1-.85-3.24-1.71-3.39-2.56-.07-.4.1-.7.23-.84,1.04-1.93,2.49-4.56,7.98-6.75,5.7-2.27,11.2-1.95,12.76-.22.41.45.76,1.23.11,2.33-1.19,2.01-3.24,5.53-3.24,5.53l-.3.52-.2-.56s-.24-.63-1.01-.96c-.84-.37-1.98-.28-3.38.26-3.83,1.47-4.99,2.09-5.18,2.76-.17.59-.18.94-.01,1.11.26.29,1.04.33,2.31.13l.14.52c-.53.18-1.07.26-1.63.26ZM69.05,84.8c-2.2,0-4.93.48-7.67,1.57-5.34,2.13-6.71,4.68-7.72,6.54l-.06.07s-.15.15-.1.4c.07.37.57,1.13,3.06,2.14h0s.39.16.39.16c1.07.49,2.17.94,3.23,1.17-.26-.42-.15-.98,0-1.48.26-.89,1.39-1.53,5.51-3.11,1.56-.6,2.85-.68,3.83-.24.51.23.83.55,1.03.81.58-.99,2.06-3.52,3-5.12.39-.66.38-1.24-.05-1.71-.69-.77-2.33-1.21-4.46-1.21Z" fill="#003a6f"/>
          </g>
          <g>
            <path d="M123.47,92.4c.81.22,2.2.91,3.02,1.52,3.98,2.97,3.25,5.55,2.15,5.62-1.23.08,7.81-.19,8.9-.79,1.09-.6,1.45-1.28.8-2.71-.65-1.43-5.57-10.15-13.61-11.81-8.04-1.65-11.22,1.86-10.53,3.05.65,1.13,3.62,4.89,3.73,6.43.82-1.61,2.68-2.07,5.56-1.32h0Z" fill="#f1d200"/>
            <path d="M129.21,99.85c-.27,0-.49,0-.64-.02h0s0,0,0,0c-.11-.01-.19-.03-.22-.05-.09-.07-.12-.19-.09-.29.06-.18.22-.19.36-.2.24-.01.45-.22.55-.55.29-.93-.28-2.69-2.84-4.59-.78-.58-2.14-1.27-2.92-1.48-2.71-.71-4.47-.32-5.24,1.18-.06.11-.18.17-.3.14-.12-.02-.21-.12-.22-.25-.07-1.05-1.68-3.37-2.75-4.9-.41-.59-.76-1.1-.95-1.42-.24-.42-.13-1.01.31-1.59,1.22-1.61,4.7-3.05,10.53-1.86,8.82,1.82,13.76,11.86,13.81,11.96.66,1.44.39,2.33-.91,3.05-.6.33-6.25.85-8.46.85ZM121.05,91.78c.73,0,1.56.12,2.49.37h0c.85.23,2.28.95,3.11,1.57,2.78,2.07,3.39,4.03,3.04,5.18-.04.14-.1.27-.18.38,2.17-.08,7.17-.35,7.88-.75.93-.52,1.29-1.02.68-2.37-.04-.1-4.86-9.89-13.41-11.65-5.95-1.23-9.07.46-9.96,1.65-.3.39-.4.78-.27,1,.17.3.52.8.92,1.38.97,1.4,2.24,3.23,2.68,4.49.66-.83,1.67-1.25,3.02-1.25Z" fill="#003a6f"/>
          </g>
          <g>
            <path d="M119.62,90.79l-1.55-2.31.4,2.51-.62.11-.7-4.37.67-.12,2.01,2.92,1.01-3.45.59-.1.7,4.37-.82.14-.4-2.51-.82,2.72-.47.08Z" fill="#003a6f"/>
            <path d="M126.02,89.11c-.13.69-.39,1.18-.75,1.47-.37.3-.8.39-1.29.29-.48-.1-.84-.36-1.07-.79-.23-.42-.28-.97-.15-1.65l.05-.25c.12-.63.36-1.11.72-1.45.36-.34.81-.45,1.35-.34.53.11.89.4,1.08.86.19.46.23,1,.11,1.62l-.05.23ZM125.13,88.86l.02-.12c.1-.54.14-.94.11-1.22-.03-.28-.21-.45-.53-.52-.29-.06-.51.01-.65.22-.14.21-.27.61-.38,1.2l-.02.11c-.12.6-.15,1.02-.11,1.26.04.24.22.39.53.46.26.05.46-.03.63-.24.16-.22.3-.6.41-1.16h0Z" fill="#003a6f"/>
            <path d="M129.45,91.03c-.33.63-.69,1.04-1.08,1.21-.39.18-.81.14-1.25-.11l-1.31-.74,2.04-3.9,1.17.66c.53.3.83.69.88,1.15.06.46-.07.99-.37,1.56l-.08.16ZM128.65,90.55l.06-.11c.22-.43.33-.79.31-1.09-.02-.3-.14-.52-.38-.65l-.3-.17-1.43,2.73.37.21c.23.13.45.14.66.02.21-.12.45-.43.72-.94h0Z" fill="#003a6f"/>
            <path d="M131.77,91.21l-.8.85.86.88-.45.48-.86-.88-.84.89,1.19,1.21-.45.47-1.84-1.88,2.99-3.16,1.76,1.8-.45.47-1.11-1.13Z" fill="#003a6f"/>
            <path d="M132.2,98.22l-.46-.81c.59-.37.98-.68,1.17-.95.2-.26.23-.5.1-.73l-.11-.19-1.65,1.01-.46-.82,3.68-2.25.81,1.43c.2.35.26.64.19.88-.07.24-.22.43-.44.56l-.2.12c-.21.13-.41.17-.61.12-.2-.05-.38-.19-.55-.43.08.34,0,.67-.21.99-.21.33-.63.68-1.26,1.06h0ZM134.3,95.72l.1-.06c.16-.1.25-.21.27-.33.02-.13-.01-.27-.11-.43l-.15-.27-.97.6.13.22c.11.19.22.31.34.35.12.04.25.02.39-.07Z" fill="#003a6f"/>
            <path d="M120.66,103.69l-.76-.57.36-1.04-1.08-.82-.85.67-.6-.45,3.61-2.75.69.52-1.37,4.44ZM120.47,101.44l.52-1.62-1.3,1.03.78.59Z" fill="#003a6f"/>
            <path d="M125.41,101.85l-.79-.4-1.59,3.39-.82-.42,1.59-3.39-.81-.41.28-.59,2.42,1.23-.28.59Z" fill="#003a6f"/>
            <path d="M127.37,101.94l-1.67,4.08-.84-.37,1.67-4.08.84.37Z" fill="#003a6f"/>
            <path d="M130.6,105.99c-.27.64-.62,1.06-1.04,1.27-.42.21-.86.2-1.32,0-.45-.21-.75-.55-.88-1.01-.14-.47-.07-1.01.2-1.64l.1-.23c.25-.59.59-1.01,1.01-1.26.42-.25.88-.26,1.39-.02.49.23.78.59.87,1.08.09.49.02,1.03-.23,1.6l-.09.22ZM129.78,105.55l.05-.11c.21-.5.33-.89.36-1.17.02-.28-.11-.49-.41-.62-.27-.13-.5-.1-.68.07-.18.17-.39.54-.63,1.09l-.04.1c-.24.56-.36.96-.37,1.2,0,.24.13.43.42.57.24.11.46.08.66-.1.2-.17.42-.52.64-1.04h0Z" fill="#003a6f"/>
            <path d="M133.45,107.86l1.26-2.27.56.34-2.13,3.84-.34-.2-.42-3.47-1.34,2.41-.56-.34,2.13-3.84.42.25.41,3.28Z" fill="#003a6f"/>
            <path d="M60.57,93.18l-.57.35-3.16-3.2.79-.49,2,2.03-.7-2.84.55-.35,2.08,1.97-.83-2.76.63-.4,1.23,4.4-.57.35-2.16-2.02.69,2.94Z" fill="#003a6f"/>
            <path d="M63.73,86.9l1.25,4.24-.87.28-1.25-4.24.87-.28Z" fill="#003a6f"/>
            <path d="M68.64,89.16c.06.47-.03.83-.29,1.09-.25.26-.63.43-1.14.5-.29.04-.54.06-.74.05-.2,0-.37-.03-.51-.07l-.1-.76c.11.05.28.09.5.12.22.02.44.02.65,0,.29-.04.49-.12.59-.22.1-.1.14-.25.11-.45-.02-.13-.07-.24-.17-.32-.09-.09-.34-.18-.73-.29-.32-.09-.57-.22-.76-.4-.19-.18-.31-.45-.36-.8-.05-.34.05-.64.28-.91.23-.27.58-.44,1.05-.51.23-.03.43-.04.61-.03.19.01.32.03.39.05l.09.67c-.16-.02-.31-.03-.47-.04-.15,0-.32,0-.49.02-.24.04-.41.1-.5.2-.1.1-.13.21-.12.33.02.16.08.27.17.33.09.07.34.15.75.25.38.09.66.24.85.43.18.2.3.45.34.75h0Z" fill="#003a6f"/>
            <path d="M81.84,86.15c-.13.27-.32.45-.58.55-.25.1-.54.06-.87-.12-.19-.1-.34-.2-.45-.29-.1-.09-.18-.18-.23-.26l.3-.6c.05.06.12.13.21.21.09.08.19.15.29.2.1.05.2.07.3.05.1-.02.19-.1.25-.24l1.45-2.96.81.43-1.49,3.03Z" fill="#003a6f"/>
            <path d="M86.48,87.92c-.14.39-.37.65-.67.79-.3.13-.68.11-1.14-.08-.49-.2-.8-.46-.93-.78-.13-.32-.11-.71.06-1.18l1.03-2.78.85.34-1.07,2.9c-.08.23-.1.41-.05.56.05.15.19.27.42.36.21.08.39.1.53.04.14-.06.26-.22.36-.48l1.06-2.88.63.25-1.09,2.94Z" fill="#003a6f"/>
            <path d="M90.99,88.88c-.06.47-.24.79-.55.98-.31.19-.72.25-1.23.18-.29-.04-.53-.09-.73-.15s-.35-.13-.48-.2l.09-.76c.09.08.24.16.45.25.21.08.42.14.63.17.3.04.5.02.62-.05.12-.07.19-.21.22-.4.02-.13-.01-.25-.08-.36-.07-.11-.28-.27-.64-.48-.28-.17-.49-.37-.63-.59-.14-.23-.19-.52-.15-.87.04-.34.21-.61.5-.81.29-.2.67-.27,1.14-.21.23.03.43.08.6.14.18.06.3.11.37.15l-.08.67c-.15-.06-.3-.12-.44-.17-.15-.05-.31-.09-.48-.11-.24-.03-.42-.01-.54.06-.12.07-.18.16-.2.29-.02.16,0,.28.08.37.07.09.29.24.66.44.35.19.58.41.71.65.13.24.17.51.14.82h0Z" fill="#003a6f"/>
            <path d="M95.2,86.67l-.88-.02-.06,3.77-.91-.02.06-3.77-.9-.02v-.66s2.71.05,2.71.05v.66Z" fill="#003a6f"/>
            <path d="M97.69,85.77l.52,4.4-.91.12-.52-4.4.91-.12Z" fill="#003a6f"/>
            <path d="M102.8,88.85c-.05.06-.14.14-.29.23-.15.09-.32.17-.53.24-.52.17-1,.13-1.43-.12-.43-.25-.75-.72-.95-1.4l-.05-.17c-.19-.64-.17-1.2.05-1.69.22-.49.59-.82,1.09-.98.22-.07.4-.11.56-.13.15-.02.28-.02.37,0l.2.67c-.09-.02-.2-.03-.33-.02-.13,0-.29.04-.46.09-.31.1-.52.31-.62.64-.1.32-.08.72.06,1.19l.02.06c.15.51.34.85.58,1.04.24.19.5.24.78.15.19-.06.35-.13.48-.22.12-.09.22-.16.29-.22l.19.65Z" fill="#003a6f"/>
            <path d="M104.06,84.15l.52,1.06,1.07-.57.29.6-1.07.57.55,1.12,1.48-.78.29.59-2.29,1.21-1.94-3.95,2.2-1.16.29.59-1.38.73Z" fill="#003a6f"/>
            <path d="M59.08,105.26c.34.63.47,1.16.4,1.6-.06.44-.32.78-.77,1.04l-1.3.75-2.07-3.88,1.16-.67c.53-.31,1-.36,1.41-.16.41.2.76.59,1.07,1.16l.08.16ZM58.26,105.69l-.06-.11c-.23-.42-.47-.71-.72-.86-.25-.15-.5-.15-.73-.02l-.3.17,1.45,2.72.37-.21c.23-.13.35-.32.37-.56.02-.25-.11-.63-.38-1.13h0Z" fill="#003a6f"/>
            <path d="M62.93,103.59c.26.64.32,1.2.18,1.66-.14.46-.44.79-.9,1-.45.2-.89.19-1.31-.02-.42-.21-.76-.64-1.02-1.27l-.09-.23c-.24-.59-.31-1.13-.2-1.62.11-.49.42-.85.93-1.07.5-.22.95-.19,1.36.07.41.27.73.69.97,1.27l.09.22ZM62.06,103.91l-.05-.11c-.21-.5-.4-.86-.58-1.07-.18-.21-.42-.25-.72-.12-.28.12-.41.31-.42.57,0,.26.11.66.34,1.22l.04.1c.23.56.43.93.59,1.1.17.17.4.2.69.07.24-.11.37-.3.38-.57.02-.27-.08-.67-.29-1.19h0Z" fill="#003a6f"/>
            <path d="M66.29,104.71l-1.93-1.98.84,2.39-.59.22-1.46-4.17.64-.24,2.49,2.49.39-3.58.56-.21,1.46,4.17-.78.3-.84-2.39-.33,2.83-.44.17Z" fill="#003a6f"/>
            <path d="M71.92,60.84c0,.09-.04.23-.12.42-.07.19-.18.39-.33.61-.37.54-.83.87-1.38.98-.56.11-1.15-.07-1.77-.52l-.16-.11c-.58-.42-.94-.94-1.05-1.54-.12-.61,0-1.17.35-1.7.15-.23.29-.41.42-.54.13-.13.24-.23.34-.28l.62.45c-.09.05-.2.13-.32.24-.12.11-.24.25-.36.43-.22.33-.27.67-.15,1.04.12.36.4.7.83,1.01l.05.04c.46.34.86.5,1.2.49.34-.01.61-.17.81-.46.14-.2.23-.39.29-.56.06-.17.1-.31.12-.42l.6.44Z" fill="#003a6f"/>
            <path d="M74.23,54.92c.54.54.83,1.08.86,1.63.03.55-.15,1.04-.56,1.48-.4.43-.87.64-1.4.62-.53-.02-1.06-.29-1.6-.82l-.19-.19c-.49-.5-.78-1.02-.86-1.58-.08-.56.11-1.08.55-1.57.44-.47.93-.67,1.47-.59.54.07,1.06.36,1.54.84l.18.18ZM73.44,55.68l-.09-.09c-.42-.42-.77-.7-1.04-.83s-.54-.05-.81.23c-.24.26-.31.53-.21.79.1.27.39.63.85,1.1l.08.08c.47.47.83.75,1.07.85.25.1.5,0,.76-.27.21-.23.27-.49.18-.78-.09-.29-.36-.66-.79-1.09h0Z" fill="#003a6f"/>
            <path d="M78.46,51.9l-1.65-2.36.62-.46,2.79,3.98-.37.28-3.67-1.05,1.75,2.5-.62.46-2.79-3.98.46-.35,3.48.98Z" fill="#003a6f"/>
            <path d="M84.37,49.4c.21.47.22.9.02,1.27-.2.37-.58.69-1.12.95-.31.15-.58.26-.81.32-.23.07-.43.1-.59.11l-.35-.77c.14.02.34,0,.6-.05.26-.05.5-.14.72-.24.32-.15.51-.3.59-.44.08-.14.08-.32-.01-.52-.06-.13-.15-.22-.28-.28-.13-.06-.43-.07-.91-.05-.38.02-.7-.03-.97-.15-.27-.12-.48-.37-.65-.72-.15-.34-.14-.7.03-1.07.18-.37.51-.68,1.01-.92.24-.12.47-.2.68-.25.21-.05.36-.08.46-.09l.31.68c-.18.04-.36.08-.54.13-.18.05-.35.11-.54.2-.26.12-.43.26-.5.39-.08.14-.09.27-.03.39.07.16.17.26.29.3.12.04.43.04.91,0,.45-.04.81.01,1.08.16.27.14.47.37.61.68h0Z" fill="#003a6f"/>
            <path d="M88.48,45.33l-1,.28,1.05,4.04-1.03.29-1.05-4.04-1.02.28-.18-.71,3.05-.85.18.71Z" fill="#003a6f"/>
            <path d="M91.25,44.23l1.07-.08.33,4.91-1.07.08-.33-4.91Z" fill="#003a6f"/>
            <path d="M98.04,45.1l-1.03-.07-.28,4.18-1.07-.08.28-4.18-1.05-.08.05-.73,3.15.23-.05.73Z" fill="#003a6f"/>
            <path d="M103.23,49.31c-.13.44-.36.75-.7.92-.34.17-.78.16-1.33-.01-.59-.19-.98-.46-1.16-.81-.18-.35-.19-.79-.04-1.32l.93-3.16,1.02.32-.97,3.29c-.08.26-.08.47,0,.63.07.16.25.29.52.37.25.08.46.08.62,0,.16-.07.28-.26.37-.56l.97-3.27.76.24-.99,3.35Z" fill="#003a6f"/>
            <path d="M109.19,49l-.92-.49-1.83,3.73-.95-.5,1.83-3.73-.94-.5.32-.65,2.81,1.49-.32.65Z" fill="#003a6f"/>
            <path d="M111.81,49.88l.87.65-2.79,3.98-.87-.65,2.79-3.98Z" fill="#003a6f"/>
            <path d="M115.98,57.07c-.53.55-1.06.84-1.59.86-.53.03-1-.18-1.41-.6-.41-.42-.6-.91-.58-1.46.03-.55.3-1.1.82-1.64l.19-.2c.49-.5,1-.79,1.54-.87.54-.07,1.04.13,1.5.6.45.46.63.97.54,1.53-.08.56-.36,1.09-.84,1.58l-.18.19ZM115.26,56.24l.09-.09c.41-.43.68-.78.81-1.07.13-.28.06-.56-.21-.84-.25-.26-.5-.34-.76-.24-.26.1-.62.39-1.07.86l-.08.09c-.46.48-.74.84-.84,1.1-.1.25-.02.52.25.79.22.22.47.29.75.2.28-.09.64-.36,1.07-.8Z" fill="#003a6f"/>
            <path d="M118.92,61.36l2.27-1.71.45.64-3.84,2.89-.27-.39,1.02-3.81-2.41,1.82-.45-.64,3.84-2.89.34.48-.94,3.61Z" fill="#003a6f"/>
            <g>
              <path d="M109.37,97.15s.26-.3.35-.08c.08.22.1.4.03.48-.07.08-.06.13-.17.27-.1.14-.06.21-.16.28-.1.07-.14.04-.25.03l-.04.34-.07.28.04.27.19.43-.14-.32.2.35c.15.41,1.58.83,2.1,1.07,1.08.5.91,2.88,1.03,3.12.11.24.57,3.39.57,3.92s-.57,3.39-.63,3.98c-.03.29-.1,1-.17,1.71-.01.14-.21-.04-.27.08-.08.17-.07.65-.05.81-.03.35-.13.62-.14.8-.06.65-.63.71-.63.71,0,0-.02,2.22-.13,2.75-.11.53-.19.63-.02,2.11s-.23,3.3-.23,3.3c0,0-.59,2.69-.7,3.1-.11.41.08.79.13,1.09.06.29.06.77.06.77h-5c-.13,0,.09-.47.26-.8.08-.15.31-.38.65-.44.34-.06.37-.44.57-.91.2-.47.11-1.47-.06-2.09-.17-.62-.4-2.12-.4-2.65s-.28-1.74-.57-2.56c-.28-.83-.43-2.62-.43-2.8,0-.08-.03-.18-.09-.33-.08-.2-.09-.5-.25-.96-.28-.83-.26-1.83-.29-2.68-.03-.85-.34-1.8-.49-2.01l-.09-.37-.88.28-.85.69c-.19.18-.39.2-.73.24-.66.06-1.33-.75-1.48-1.91-.17-1.29.07-1.84,1.46-1.84h.62s.53.02.53.02h.26s.16.31-.09.43c-.24.11-.31.13-.31.13l.31.37s.17-.12.68-.41l.19-.46c.01-.29.04-.36-.02-.69-.06-.32-.17-2.19-.17-2.63s.01-.97.06-1.48c.04-.46.03-1.5.25-1.94.27-.55,1.73-.78,1.73-.78,0,0,.63-.07.72-.25.03-.07.19-.35.26-.46-.41-.15-.54-.67-.6-.79-.06-.13-.17-.74-.18-.8-.02-.09-.15-.63-.22-.85-.07-.22-.01-.61-.01-.61l-.46-.05-.56-.04s-.31-.05-.39-.08c-.08-.03-.35-.09-.35-.09,0,0-.44-.39,0-.71.44-.32.96-.61,1.04-.66.08-.05.12-.14.12-.14v-.11c-.11-.16-.21-.38-.33-.86s1.08-.67,1.08-.67c.35-.03,1.52.13,1.4.1.24.06.4.05.87.04.47,0,1.07.17,1.41.25.34.08.68.4.86.74.17.34.88.76,1.09.97.32.32.69.98.84,1.23.25.43-.02.32-.1.38-.39.24-2.59-.27-2.4-.25.16.02.12-.04-.05-.13v.16s-.13.5-.13.5l-.14.17Z" fill="#f1d200"/>
              <path d="M110.47,129.01h-5.35l-.1-.12c-.07-.11-.1-.26.27-.99.12-.23.41-.49.82-.56.11-.02.16-.14.27-.44.04-.11.08-.22.13-.34.17-.4.1-1.35-.07-1.95-.18-.65-.41-2.17-.41-2.71,0-.47-.26-1.64-.56-2.5-.3-.86-.44-2.69-.44-2.87,0-.05-.05-.19-.08-.26-.04-.1-.06-.21-.09-.35-.03-.16-.08-.37-.16-.62-.25-.73-.27-1.59-.29-2.34v-.4c-.04-.86-.35-1.74-.46-1.89l-.03-.07-.03-.13-.6.19-.82.66c-.23.21-.49.25-.86.29-.81.08-1.56-.83-1.73-2.1-.08-.62-.11-1.25.26-1.65.27-.3.72-.44,1.41-.44h.02l1.55.02.06.12s.12.26.04.47c-.02.04-.04.08-.06.11.07-.04.14-.08.23-.13l.15-.36v-.11c.02-.18.02-.25-.02-.49-.06-.35-.17-2.24-.17-2.67,0-.55.02-1.05.06-1.49,0-.1.01-.23.02-.38.03-.56.06-1.26.25-1.64.31-.63,1.74-.88,1.9-.9.25-.03.51-.1.56-.15.01-.03.08-.15.14-.26-.28-.21-.4-.54-.47-.71-.01-.03-.02-.05-.03-.07-.05-.11-.11-.36-.18-.75l-.02-.09c-.05-.21-.15-.65-.21-.83-.05-.14-.05-.34-.04-.49l-.79-.07c-.14-.02-.37-.06-.46-.09-.07-.03-.31-.08-.31-.08h-.06s-.04-.05-.04-.05c-.03-.03-.29-.27-.27-.58,0-.13.06-.31.29-.47.38-.27.8-.52.99-.63l.07-.04h.01s0,0,0,0c-.12-.21-.22-.46-.32-.87-.04-.14-.01-.27.07-.39.25-.38,1.04-.52,1.19-.55.26-.03.78.03,1.26.08.1.01.17.02.19.02v.22s-.01,0-.01,0l.05-.22h0c.19.04.32.04.66.04h.16c.42-.02.89.11,1.24.2l.22.05c.44.1.83.5,1.01.85.09.18.43.43.68.62.16.12.29.22.37.3.3.3.64.88.82,1.18l.05.09c.1.16.18.35.1.51-.07.14-.23.17-.29.17-.36.22-1.78-.02-2.39-.18l-.02.1c.06.04.12.1.15.18.09.22.15.52,0,.71-.02.02-.02.03-.04.06-.02.05-.05.11-.12.19-.03.03-.03.06-.04.09-.02.06-.05.16-.17.24-.07.04-.13.07-.18.07l-.02.14-.06.27.07.29.18.32c.09.24.99.58,1.43.75.23.09.43.16.57.23.95.44,1.05,2,1.1,2.84.01.17.02.35.04.4.14.28.59,3.47.59,4,0,.33-.19,1.4-.37,2.44-.12.68-.23,1.33-.26,1.56l-.18,1.81-.1.1c-.07.05-.14.05-.2.05-.02.16-.02.44,0,.59-.02.26-.06.44-.1.59-.02.1-.04.18-.05.25-.04.51-.37.76-.63.86,0,.53-.04,2.16-.14,2.62l-.03.15c-.09.4-.13.6.02,1.89.17,1.49-.21,3.29-.23,3.37-.02.11-.59,2.7-.7,3.11-.07.25,0,.49.07.73.03.09.05.18.07.26.06.31.06.79.06.81v.22ZM105.48,128.57h4.53c0-.15-.02-.36-.05-.51-.01-.07-.04-.15-.06-.22-.08-.27-.17-.59-.07-.96.11-.4.69-3.06.7-3.09,0-.02.39-1.81.22-3.23-.16-1.36-.1-1.6,0-2.03l.03-.14c.09-.42.12-2.09.13-2.71v-.2s.2-.02.2-.02c.04,0,.39-.06.43-.51,0-.08.03-.18.06-.3.03-.14.07-.3.09-.49-.01-.06-.05-.64.07-.88.04-.08.11-.16.27-.17l.15-1.55c.02-.25.13-.88.26-1.59.16-.92.36-2.07.36-2.36,0-.55-.46-3.6-.55-3.83-.04-.09-.05-.22-.07-.54-.04-.69-.14-2.14-.84-2.47-.13-.06-.33-.13-.54-.22-.89-.34-1.54-.61-1.67-.98l-.02-.03h-.03s-.14-.31-.14-.31h0s-.06-.16-.06-.16l-.05-.31.08-.32.07-.52.29.02c.04-.06.06-.13.13-.23.04-.05.06-.09.07-.12.02-.04.05-.1.1-.16h0s0-.04-.03-.13c0,0,0,0,0,0l-.35-.28.11-.13.12-.45v-.11s0-.38,0-.38l.34.19c.06.03.16.09.22.17.55.12,1.78.33,2,.21.02-.01.04-.02.06-.03,0-.02-.02-.03-.03-.05l-.05-.09c-.16-.27-.49-.83-.75-1.09-.07-.07-.18-.15-.32-.25-.32-.24-.67-.5-.81-.77-.16-.3-.46-.57-.71-.62l-.23-.05c-.33-.08-.78-.19-1.13-.19h-.15c-.36,0-.52,0-.75-.05-.06,0-.12,0-.19-.02-.3-.03-.93-.1-1.15-.08-.28.05-.76.19-.87.35.12.53.21.71.29.84l.03.1v.16s0,.05,0,.05c0,.03-.07.16-.21.25l-.08.05c-.18.1-.59.35-.95.61-.1.07-.1.12-.1.14,0,.07.05.15.09.2.09.02.26.06.32.09.04.01.21.05.34.06l1.25.12-.03.22c-.02.13-.04.39,0,.51.06.2.17.66.21.82l.03.16c.07.37.12.59.15.64.01.02.02.06.04.1.07.17.19.49.43.58l.25.09-.14.22c-.06.11-.22.38-.25.44-.12.24-.55.33-.9.37-.55.09-1.4.35-1.55.66-.15.3-.18,1-.21,1.47,0,.15-.01.29-.02.39-.04.43-.06.92-.06,1.46,0,.45.11,2.29.16,2.59.05.29.04.4.03.59l-.02.21-.22.53-.07.04c-.5.29-.65.39-.65.39l-.12-.15-.2.12-.53-.63.34-.09s.08-.03.27-.12c0,0,0,0,0,0l-1.23-.02h-.02c-.55,0-.89.09-1.07.29-.2.22-.24.61-.15,1.3.15,1.12.75,1.77,1.24,1.72.32-.03.47-.05.6-.18l.93-.74,1.11-.36.14.57c.17.3.47,1.24.5,2.08v.41c.03.72.05,1.55.27,2.21.1.28.14.5.18.67.02.11.04.21.07.28.07.18.11.3.11.41,0,.16.14,1.94.42,2.73.28.81.58,2.06.58,2.63,0,.51.22,1.99.39,2.6.16.59.28,1.67.05,2.23-.05.11-.08.22-.12.32-.11.33-.23.66-.62.73-.26.04-.44.22-.49.32-.12.23-.18.38-.22.48Z" fill="#f1d200"/>
            </g>
          </g>
          <path d="M107.31,103.54l-.55-.03c.08-1.38.19-2.32.35-3.02,0-.02,0-.04.01-.06-.25-.04-.49-.14-.78-.49l.43-.34c.25.3.37.3.61.31h.17s.07.15.07.15c.02.05.09.23.02.54-.15.68-.26,1.58-.34,2.94Z" fill="#003a6f"/>
          <path d="M105.39,116.73l-.55-.07.09-.59h0s.11-.24.06-.7c-.06-.59,0-2.18.14-2.99.08-.43.43-1.27.77-2.08.28-.67.57-1.37.62-1.63.09-.48.11-2.19.11-2.43-.02-.1-.05-.33-.03-.9l.55.02c-.02.51,0,.71.02.79v.08s0,1.94-.11,2.52c-.06.32-.33.98-.65,1.74-.31.75-.67,1.61-.74,1.97-.14.76-.2,2.3-.14,2.85.05.51-.05.83-.1.94l-.06.46Z" fill="#003a6f"/>
          <path d="M104.16,110.54c.14.21.46,1.15.49,2.01.03.85-.11,1.86.17,2.68.16.47.28.76.36.96.06.16.32.26.32.33,0,.18.14,1.98.43,2.8.28.83.46,2.03.46,2.56s.23,2.03.4,2.65c.17.62.26,1.62.06,2.09-.2.47-.25.76-.57.91-.24.12-.36.17-.55.41-.23.29-.49.83-.36.83h4.78s0-.47-.06-.77c-.06-.29-.4-.71-.28-1.12.11-.41.85-3.07.85-3.07,0,0,.4-1.83.23-3.3-.17-1.47-.23-1.47-.11-2,.11-.53.24-2.65.24-2.65,0,0,.89-.25.95-.9.06-.65.41-2.82.46-3.41.06-.59.63-3.45.63-3.98s-.46-3.68-.57-3.92c-.11-.24,0-2.06-1.08-2.56-.52-.24-1.9-1.21-2.05-1.62l-.2-.35" fill="none"/>
          <path d="M104.06,107.7l-.55-.03v-.15c.02-.17.02-.25-.02-.48-.06-.35-.17-2.24-.17-2.68,0-.03.06-2.97.33-3.53.28-.57,1.87-1,2.51-1.15l.2-.35.49.26-.26.46c-.04.07-.1.12-.18.13-.99.22-2.13.63-2.26.88-.17.34-.28,2.62-.28,3.3,0,.45.11,2.28.16,2.59.05.29.04.41.03.6v.14Z" fill="#003a6f"/>
          <path d="M111.27,116.33l-.16-.56c-.43-.21-.45-.73-.46-1.25-.01-.44-.03-.94-.23-1.43-.02-.04-.14-.11-.23-.15-.12-.06-.25-.13-.35-.24-.16-.18-.52-.87-1.06-1.9-.26-.49-.49-.93-.58-1.09-.54-.87-.58-2.11-.6-2.64,0-.09,0-.15,0-.18l.55-.06s0,.12.01.23c.02.49.05,1.63.52,2.38.11.17.34.61.6,1.12.34.65.86,1.64.99,1.8.03.03.12.08.19.12.17.09.39.2.48.43.24.59.26,1.16.27,1.62.02.57.05.76.21.8l.16.04.24.85-.53.14Z" fill="#003a6f"/>
          <path d="M108.11,104.86h-.55c0-.23.02-.36.03-.45,0-.08.01-.1,0-.13-.06-.35-.06-2.94.03-3.42.03-.15.03-.29.03-.41,0-.21.01-.6.39-.6s1.06-.43,1.15-.55l.46.3c-.16.23-.89.69-1.44.77,0,.03,0,.06,0,.09,0,.14,0,.31-.04.49-.07.43-.08,2.94-.03,3.24.02.1,0,.18,0,.27,0,.08-.02.2-.02.4Z" fill="#003a6f"/>
          <path d="M112.24,113.55c-.06,0-.13-.02-.18-.06-.41-.34-.89-.42-1.51-.27-.09.02-.18,0-.25-.06-.07-.06-.1-.15-.09-.23l.26-2.12.15-.67.11-.69.03-.97-.03-1.17-.14-1.3-.39-2.16-.29-1.17c-.04-.14.06-.29.2-.32.15-.03.3.05.33.2l.29,1.18.4,2.2.15,1.35.03,1.2-.03,1.02-.12.74-.14.66-.21,1.73c.63-.08,1.17.07,1.63.45.12.1.13.27.03.38-.05.06-.13.09-.21.09Z" fill="#003a6f"/>
          <path d="M110.83,109.82l-.23-.15c-3.88-2.44-5.54-7.03-6.08-8.9l-.02-.07h0s-.06-.2-.06-.2h.02s-.01-.07-.01-.07l.25-.08c.09-.02.15,0,.2.03l.07-.02.05.17s.02.07.03.09c.41,1.41,2.02,6.19,5.85,8.59l.23.15-.31.45Z" fill="#003a6f"/>
          <path d="M110.74,108.31l-.03-.17c-3.2-2.07-4.72-5.82-5.35-7.88l.53-.15c.61,2.02,2.1,5.69,5.22,7.65l.11.07.06.42-.55.08Z" fill="#003a6f"/>
          <path d="M107.44,110.24c-.35,0-.72-.05-1.16-.14l.12-.53c.84.18,1.34.18,2.07-.02l.15.52c-.42.12-.79.18-1.18.18Z" fill="#003a6f"/>
          <path d="M108.02,128.84l-.55-.02c.03-.7.27-1.25.74-1.64v-2.82l-.11-4.53c-.04-.81-.14-2.13-.22-2.41-.06-.2-.21-1.19-.45-2.96l.55-.07c.33,2.36.42,2.81.44,2.89.12.43.23,2.32.24,2.53l.11,4.55v3.09l-.11.08c-.4.29-.6.72-.63,1.31Z" fill="#003a6f"/>
          <path d="M102.27,111.49s-.03,0-.04,0c-.91-.12-1.37-1.01-1.29-2.5.02-.34.13-.6.32-.77.31-.27.74-.24,1.09-.22.14,0,.38.02.43-.02l.47.29c-.2.31-.59.28-.93.26-.27-.02-.55-.03-.68.09-.08.07-.13.2-.14.4-.03.52-.02,1.72.71,1.92l.58-.4.14-.15.4.37-.18.19-.72.5s-.1.05-.16.05Z" fill="#003a6f"/>
          <path d="M102.16,107.6c-.39-6.4-.21-12.01.81-16.25-2.76,4.15-1.62,16.25-1.62,16.25h.81Z" fill="#f1d200"/>
          <path d="M102.97,108.73l-.09-.53s.13-.03.49-.22l.16-.46.52.18-.2.56c-.02.06-.07.11-.12.14-.48.27-.69.33-.76.34Z" fill="#003a6f"/>
          <path d="M103.2,110.85l-.52-.19c.37-.93-.09-2.23-.09-2.24l.52-.18c.02.06.53,1.5.09,2.62Z" fill="#003a6f"/>
          <path d="M102.5,108.45h0v-.54s0,0,.02,0h-.34s.01-.55.01-.55h.81c.11.01.2.07.25.16.02.04.13.28.05.51-.05.12-.14.22-.26.28-.27.13-.48.13-.52.13Z" fill="#003a6f"/>
          <path d="M101.54,111.65c-.8,0-1.52-.9-1.68-2.15-.1-.76-.1-1.35.23-1.73.25-.28.65-.42,1.26-.44l.02.54c-.44.01-.72.09-.85.25-.17.2-.2.58-.11,1.31.15,1.09.71,1.71,1.18,1.68.34-.03.46-.06.57-.16l.38.39c-.27.25-.58.28-.9.31-.03,0-.07,0-.1,0Z" fill="#003a6f"/>
          <path d="M101.46,111.03l-.26-.28c-.26-.35-.35-.98-.29-2.07.02-.47.45-.7.69-.77h.08s.88-.01.88-.01v.54h-.84c-.07.03-.25.11-.26.27-.06,1.15.06,1.56.17,1.7l.24.26-.41.36Z" fill="#003a6f"/>
          <path d="M105.72,96.81l-1.21-.06c-.15-.01-.38-.04-.48-.08-.08-.03-.31-.06-.31-.06l-.11-.02-.06-.09c-.19-.26-.42-.87.07-1.26.35-.27.7-.48.87-.59l.09-.06c.17-.12.31-.1.38-.07l-.19.5c.07.03.13.01.14,0-.03.02-.07.04-.13.08-.17.1-.5.29-.81.54-.15.12-.08.33-.02.44.1.02.22.04.28.06.08.02.33.04.33.04l.83.04-.06-.36.55-.08.09.56-.23.44Z" fill="#003a6f"/>
          <rect x="105.31" y="95.95" width=".55" height=".54" fill="#003a6f"/>
          <path d="M107.09,99.81c-.17,0-.35-.02-.51-.07-.51-.14-.71-.67-.8-.89l-.03-.07c-.05-.11-.11-.36-.18-.76l-.02-.09c-.05-.22-.15-.65-.21-.83-.09-.27.02-.71.06-.83l.53.14c-.05.18-.09.44-.06.52.06.19.17.65.21.82l.04.17c.07.36.12.58.14.63.01.02.02.06.04.1.07.17.19.49.43.56.38.11.79.02.99-.12l.32.44c-.25.17-.6.27-.95.27Z" fill="#003a6f"/>
          <path d="M107.11,98.69h-.04c-.08-.01-.22-.03-.31-.07-.03,0-.09.02-.13.04l-.2-.5c.33-.12.46-.06.51-.04.02,0,.09.02.16.03.2-.03.34-.04.44,0,.03.01.12.01.16.01l.06.53c-.06,0-.25,0-.38-.03-.01,0-.13.01-.22.03h-.04Z" fill="#003a6f"/>
          <path d="M107.18,99.02c-.22,0-.43-.04-.52-.06l.11-.53c.23.04.5.06.57.03l.23.49c-.11.05-.25.06-.39.06Z" fill="#003a6f"/>
          <path d="M108.14,96.72c-.27-.21-.59-.08-.59-.08l-.22-.49s.62-.26,1.16.15l-.34.42Z" fill="#003a6f"/>
          <path d="M106.79,98.08c-.08,0-.16-.02-.25-.07-.16-.09-.26-.16-.27-.37,0-.18.1-.42.11-.44.01-.03.02-.07.03-.11.02-.1.05-.22.1-.32.04-.07.08-.27.07-.33l.53-.15c.08.22-.05.6-.11.72-.02.04-.04.13-.05.19-.02.09-.04.16-.06.21-.02.04-.03.09-.05.13l.06-.03c.07-.02.14-.04.23-.05-.04-.03-.09-.06-.09-.06l.32-.44s.15.1.22.16c.16.14.18.4.18.47,0,.13-.06.24-.17.32-.12.09-.27.12-.4.08,0,0-.06.02-.1.03-.08.03-.18.07-.3.07Z" fill="#003a6f"/>
          <path d="M106.01,96.69l-.09-.53.04.27-.07-.26c.2-.08.69-.27,1.13.04l-.33.43c-.16-.12-.36-.06-.56.01-.05.02-.08.03-.13.04Z" fill="#003a6f"/>
          <g>
            <path d="M106.36,96.82c-.17,0-.31-.04-.31-.08,0-.04.14-.08.31-.07.17,0,.31.04.31.08,0,.04-.14.08-.31.07Z" fill="#003a6f"/>
            <path d="M106.38,97.09h-.03c-.23,0-.4-.05-.49-.15l-.08-.08v-.13s0-.11,0-.11l.09-.1c.1-.09.27-.13.49-.13.23,0,.4.05.49.15l.08.08v.13s0,.11,0,.11l-.09.1c-.11.1-.31.13-.46.13Z" fill="#003a6f"/>
          </g>
          <path d="M107.09,99.81c-.17,0-.35-.02-.51-.07l-.08-.02.22-.49c.39.11.79.02,1-.12l.32.44c-.25.17-.6.27-.95.27Z" fill="#003a6f"/>
          <path d="M111.72,97.03c-.84,0-2.1-.27-2.21-.35l-.16-.12.02-.05c-.68-.28-2.66-.85-3.7-.32-.15.08-.29.09-.41.03-.19-.09-.23-.28-.25-.41,0-.04-.01-.07-.02-.1l-.06-.17c-.07-.19-.23-.62-.3-.72-.15-.21-.26-.48-.4-.91-.22-.69.96-1.09,1.2-1.16h.05c.26-.04.84,0,1.38.06h.13s-.02.27-.02.27l.05-.26.25.05c.13.02.27.03.53.01.41-.02.9.07,1.27.15l.22.04c.39.07.93.37,1.18.79.11.19.47.47.7.66.12.09.22.17.28.23.34.32.82.95,1,1.21.27.42.26.74-.05.95-.13.09-.37.12-.67.12ZM110.01,96.27c.57.12,1.82.31,2.06.2h0s0-.06-.1-.21c-.15-.23-.61-.83-.91-1.11-.06-.05-.15-.12-.25-.21-.3-.24-.68-.54-.84-.81-.15-.26-.53-.48-.79-.53l-.23-.04c-.33-.06-.78-.15-1.13-.14-.44.02-.62-.01-.82-.05l-.09-.02s-.08,0-.12,0c-.25-.02-.98-.1-1.23-.08-.47.15-.84.41-.81.48.15.47.25.65.33.77.1.14.22.46.36.83l.06.16s.03.09.04.14c1.51-.63,4.11.29,4.42.57l.05.05Z" fill="#003a6f"/>
          <path d="M109.63,119.07c-.84,0-1.43-.36-1.46-.38l.3-.45s1.11.68,2.39-.04c.1-.05.18-.1.25-.14h0c.12-.07.22-.12.3-.16.07-.04.11-.06.12-.07h0c.22-.09.29-.07.38.09.09.15.12.21-.12.36h0s-.1.06-.19.11c-.12.07-.28.16-.48.27-.55.3-1.06.41-1.51.41Z" fill="#003a6f"/>
          <path d="M106.74,119.17c-.81,0-1.41-.28-1.44-.3l.25-.48c.05.03,1.25.59,2.5-.08l.27.47c-.55.3-1.1.39-1.57.39Z" fill="#003a6f"/>
          <g>
            <path d="M107.84,96.86c-.18-.02-.32-.07-.31-.12,0-.05.15-.07.33-.05.18.02.32.07.31.12,0,.05-.15.07-.33.05Z" fill="#003a6f"/>
            <path d="M107.97,97.14c-.05,0-.11,0-.16,0-.52-.06-.57-.28-.56-.41v-.11s.11-.09.11-.09c.1-.08.28-.11.52-.09.51.06.57.28.56.41v.11s-.11.09-.11.09c-.09.07-.23.09-.36.09Z" fill="#003a6f"/>
          </g>
          <path d="M107.37,111.12c-.5,0-.99-.07-1.4-.22l.2-.5c.75.29,1.96.21,2.7-.03l.18.51c-.46.15-1.07.25-1.67.25Z" fill="#003a6f"/>
          <g>
            <path d="M116.52,127.37h11.29v1.58h-11.29v-1.58Z" fill="#f1d200"/>
            <path d="M128.09,129.22h-11.85v-2.12h11.85v2.12ZM116.8,128.68h10.74v-1.04h-10.74v1.04Z" fill="#003a6f"/>
          </g>
        </g>
      </g>
    </g>
  </g>
</svg>