<?xml version="1.0" encoding="UTF-8"?>
<svg id="Layer_2" data-name="Layer 2" xmlns="http://www.w3.org/2000/svg" viewBox="0 0 450 300">
  <g id="_Ñëîé_1" data-name="Ñëîé 1">
    <g>
      <g>
        <rect x="0" width="450" height="300" fill="#00247d"/>
        <polygon points="70.09 75 0 128.4 0 150 6.98 166.28 98.44 96.6 189.9 166.28 203.85 133.72 126.78 75 203.85 16.28 196.88 0 168.53 0 98.44 53.4 28.34 0 0 0 0 21.6 70.09 75" fill="#fff"/>
        <g>
          <polygon points="4.65 160.85 98.44 89.4 98.44 75 0 150 4.65 160.85" fill="#cf142b"/>
          <polygon points="117.33 75 98.44 75 196.88 150 201.53 139.15 117.33 75" fill="#cf142b"/>
          <polygon points="0 14.4 79.54 75 98.44 75 0 0 0 14.4" fill="#cf142b"/>
          <polygon points="177.98 0 98.44 60.6 98.44 75 196.88 0 177.98 0" fill="#cf142b"/>
        </g>
        <g>
          <path d="M98.44,0v187.5M0,75h225"/>
          <polygon points="120.09 187.5 76.79 187.5 76.79 96.65 0 96.65 0 53.35 76.79 53.35 76.79 0 120.09 0 120.09 53.35 225 53.35 225 96.65 120.09 96.65 120.09 187.5" fill="#fff"/>
        </g>
        <g>
          <path d="M98.44,0v187.5M0,75h225"/>
          <polygon points="113.59 187.5 83.28 187.5 83.28 90.16 0 90.16 0 59.84 83.28 59.84 83.28 0 113.59 0 113.59 59.84 225 59.84 225 90.16 113.59 90.16 113.59 187.5" fill="#cf142b"/>
        </g>
      </g>
      <path d="M196.88,150V0h253.12v300H0v-150s196.88,0,196.88,0Z" fill="#fff"/>
      <path d="M196.88,75v37.5h253.12V37.5l-253.12,37.5ZM0,187.5v37.5h450v-75L0,187.5Z" fill="#00247d"/>
      <path d="M450,300H0v-37.5h450v37.5ZM450,187.5H0v-37.5h450v37.5ZM450,75h-253.12v-37.5h253.12v37.5Z" fill="#cf142b"/>
    </g>
  </g>
</svg>