<?xml version="1.0" encoding="UTF-8"?>
<svg id="Layer_2" data-name="Layer 2" xmlns="http://www.w3.org/2000/svg" viewBox="0 0 450 300">
  <g id="_Ñëîé_1" data-name="Ñëîé 1">
    <g id="g9523">
      <g id="path162">
        <path d="M0,300h450V0H0v300Z" fill="#002e91"/>
      </g>
      <g id="g9347">
        <g id="path164">
          <path d="M212.87,184.31h43.24l.3-.25v11.76c0,2.67.38,4.96-4.71,6.23-5.07,1.27-26.47,7-26.47,7,0,0-21.4-5.73-26.47-7-5.09-1.27-4.71-3.55-4.71-6.23v-.19c.08,0,.24-.03.44-.07h.03c.34-.05.81-.12,1.35-.21,0,0,.01,0,.02,0,.12-.02.25-.04.38-.06.02,0,.04,0,.07,0,.12-.02.24-.03.36-.05.02,0,.04,0,.07,0,.12-.02.24-.04.35-.06.04,0,.08,0,.12-.02.1-.02.21-.04.32-.05.04,0,.08-.02.13-.03.1,0,.21-.02.31-.04.04,0,.09,0,.14-.02.1-.02.19-.03.29-.05.05,0,.1-.02.15-.03.1,0,.2-.03.3-.05.04,0,.08,0,.11-.02.14-.01.27-.04.4-.06,2.14-.37,3.78,0,7.06-.5,3.28-.51,5.54-.37,9.58-.76,4.04-.37,8.57-.88,9.83-1.26,1.26-.37,2.39-.88,5.67-1.51,3.27-.63,2.02-.76,2.02-.76,0,0-1.01-.25-2.65-.88-1.64-.63-1.38-.88-3.53-1.26-2.14-.38-.63.37-2.52,0-1.89-.38-2.27-.63-2.27-.63,0,0-2.27-.26-3.15-.51-.88-.25-1.51-.12-2.02-.5-.51-.38-2.65-1.14-2.65-1.14,0,0-1.15-.31-2.14-.63" fill="#9ed9ff"/>
        </g>
        <g id="path166">
          <path d="M225.48,211.88c1.26,0,3.03.51,1.26,3.78-1.76,3.28,3.72,5.16,3.72,5.16l2.07-2.14c-2.52-2.27-2.52-3.02.5-5.04,3.03-2.02,4.29,2.77,4.29,2.77l2.27-1.01.25-2.77c6.05.5,9.58,0,14.87-3.27-10.09,3.27-15.88-.51-15.88-.51,0,0,11.1-3.02,15.13-4.03,4.03-1,6.55-2.01,6.55-7.3v-50.9c0-16.12,6.05-14.36,6.05-14.36l-6.55-10.59c-16.64,5.8-20.17-4.79-34.54-4.79s-17.89,10.59-34.54,4.79l-6.55,10.59s6.05-1.77,6.05,14.36v50.9c0,5.29,2.52,6.29,6.56,7.3,4.03,1.01,15.13,4.03,15.13,4.03,0,0-5.8,3.78-15.88.51,5.3,3.27,8.82,3.77,14.87,3.27l.25,2.77,2.27,1.01s1.26-4.79,4.28-2.77c3.03,2.01,3.03,2.77.32,5.1l1.89,2.21s5.86-2.02,4.09-5.3c-1.76-3.27,0-3.78,1.26-3.78l-.25-2.84s-21.4-5.73-26.47-7c-5.09-1.27-4.71-3.55-4.71-6.23v-45.52h62.36v45.52c0,2.67.38,4.96-4.71,6.23-5.07,1.27-26.47,7-26.47,7l.25,2.84" fill="#006fff"/>
        </g>
        <g id="path168">
          <path d="M200.9,198.67c3.03,0,4.16-.76,6.05-.76s3.02,0,5.67-.75c2.65-.76,10.21-1.51,6.81-.37-3.4,1.13-2.27,1.51,3.03,1.13,5.3-.37,8.7-.75,8.32-1.89-.38-1.14.12-.37-2.9-.13-3.03.25-3.28-.25-3.28-.25,0,0,1.01-1.26,3.03-1.01,2.02.25,5.05-.11,6.18-.37,1.13-.25,2.39,1.14,1,1.39-1.38.25-.63,1.13.38,1.26,1.01.13,1.77,2.52-4.16,2.15s-7.81.25-11.85.37c-4.04.13-8.95.25-6.81-.37,2.14-.64,3.28-1.01-1.64-.25-4.91.75-4.28.13-8.19.37-3.91.25-5.92.25-5.92.25l4.29-.75" fill="#006fff"/>
        </g>
        <g id="path170">
          <path d="M234.77,191.54c-3.03.29,4.12-.46,5.59-.62,1.47-.14,4.76-.63,1.88.09-2.89.73-2.73.78-.27.71,2.46-.07,3.98-.43,4.2-.47.22-.04,1.57,0,1.57,0,0,0,1.73.04-2.68.63-4.4.58-7.81.78-6.36.49,1.45-.29,4.61-.68.97-.52-3.64.17-4.49,0-3.03-.22,1.46-.21-.4-.24-1.88-.08" fill="#006fff"/>
        </g>
        <g id="path172">
          <path d="M256.11,188.73s2.02.24-1.89.09c-3.91-.16-5.3-.09-5.3-.09,0,0-1.51-.07,1.64.33,3.15.41,7.06.82,3.91.98-3.15.16-4.67.49-3.66.65,1.01.16,1.51.08,2.52-.09,1.01-.15,2.02,0,2.02,0l1.01.17v1.63s.63.08-2.27.08-7.18.16-5.04.24c2.14.07,3.03.07,4.41.07s3.28,0,3.02,0" fill="#006fff"/>
        </g>
        <g id="path174">
          <path d="M227.24,185.32c1.14,0,4.54.36,3.03.36s-2.14.38.26.51c2.39.12,4.4.12,4.4.12l-4.66.37s-3.03,0-2.39-.25c.63-.25-1.13-.63-1.13-.63l-.88-.63,1.38.12" fill="#006fff"/>
        </g>
        <g id="path176">
          <path d="M242.49,200.94c4.79-.14,3.78-.51,9.33-1.52,5.55-1,.5-2.01-2.9-2.63-3.4-.64,5.68-1.13,4.67-1.38-1.01-.25-6.93.25-10.72.25s-.75,2.26,3.15,2.64c3.91.37-4.41.87-8.32,1.01,0,0,1.64.75-6.3,1.12-7.94.38-13.62.5-10.21,1.01,3.4.5,16.89.64,7.56,1.51-9.33.89-12.1.38-13.99.76-1.89.37-5.8.88-5.8.88,0,0,4.54,1.13,4.92,1.13s-1.26-.5,4.41-.5,9.45-.37,13.99-.89c4.54-.5,11.97-1.51,7.56-1.89-4.41-.37-7.18-1.01-3.66-1.01s6.3-.5,6.3-.5" fill="#006fff"/>
        </g>
        <g id="path178">
          <path d="M214.64,94.73l-1.51-1.01s-.13,1.77,1.01,3.66" fill="#38be39"/>
        </g>
        <g id="path180">
          <path d="M218.04,103.05s-1.64-.63-2.27-1.01c-.63-.37-2.14-.63-2.14-.63,0,0,.05-.28.04-.71.08-.17.13-.35.13-.56,0-.36-.15-.69-.39-.93-.16-.46-.4-.96-.79-1.45-1.38-1.76-1.89-1.63-4.41-2.27-2.52-.63-4.29-1.63-4.29-1.63,0,0-.5,1.76,2.14,2.77,2.65,1.01,5.42,2.52,5.42,2.52,0,0-.25,1.01-2.02.89-.34-.02-.69-.08-1.05-.18.06-.14.09-.3.09-.46,0-.73-.58-1.31-1.31-1.31-.56,0-1.03.35-1.22.86-.78-.39-1.5-.85-2.05-1.31-1.39-1.13-3.91-2.39-6.05-2.39,0,0,1,.76,2.64,2.02.58.44,1.24.97,1.85,1.46-.7.02-1.26.59-1.26,1.3,0,.09.01.19.03.29-.86-.16-1.09-.46-1.85-.92.01-.09.02-.16.02-.24,0-.73-.59-1.32-1.31-1.32-.44,0-.84.23-1.08.58-.28-.03-.65-.07-1.18-.14-2.02-.25-4.03,0-4.03,0,0,0,.63.63,1.51.88.88.26,2.01,0,2.27,1.13.15.7.07.88,0,1.35-.04,0-.09,0-.14,0,.03-.12.05-.23.05-.35,0-.72-.58-1.31-1.31-1.31s-1.31.59-1.31,1.31c0,.16.03.32.08.45-.17-.07-.35-.11-.54-.11-.72,0-1.31.59-1.31,1.3s.59,1.3,1.31,1.3,1.31-.58,1.31-1.3c0-.16-.03-.31-.08-.44.17.06.35.11.54.11.09,0,.18,0,.26-.02-.03.11-.05.23-.05.35,0,.68.52,1.24,1.19,1.29-.09.55-.47.49-1.52,1.11-1.52.89-4.41,3.28-4.41,3.28,0,0,2.14-.64,3.66-1.01s2.77-.76,3.28-2.15,1.76-2.77,1.76-2.77c0,0,.2-.17.48-.36-.01.07-.02.15-.02.23,0,.72.59,1.31,1.31,1.31s1.31-.59,1.31-1.31c0-.13-.02-.27-.07-.39.44.2.78.4.78.4,0,0,.13,2.02-1.13,3.28-1.26,1.25-3.91,2.89-3.91,2.89,0,0,2.65.37,4.16-.76,1.51-1.14,1.38-1.76,2.14-3.15.75-1.39,1.38-1.64,1.38-1.64,0,0,.26,0,.7-.03-.07.17-.11.35-.11.53,0,.72.59,1.3,1.31,1.3.09,0,.18,0,.27-.02-.15.12-.33.25-.52.36-1.89,1.13-3.53,3.02-3.53,3.02,0,0,1.26.89,3.4-.88,2.14-1.76,2.65-2.9,3.78-3.4,1.13-.5,2.52-.12,2.52-.12,0,0-.38,1.63-2.65,2.89-2.27,1.26-3.78,3.16-3.78,3.16,0,0,1.64-.12,3.03-.89,1.38-.75,3.02-1.76,3.02-1.76" fill="#38be39"/>
        </g>
        <g id="path182">
          <path d="M194.09,179.89c1.39,0,2.52-.12,4.54,1.14,2.02,1.26,2.65,1.76,4.04,2.01,1.38.25,1.38,0,2.9.64,1.51.63.75.76,2.39.63,1.64-.13,2.9-.5,3.91-.13,1.01.39,2.9.89,2.9.89,0,0,2.14.76,2.65,1.14.5.37,1.13.25,2.02.5.88.25,3.15.51,3.15.51,0,0,.37.25,2.27.63,1.89.37.38-.38,2.52,0,2.14.37,1.89.63,3.53,1.26,1.64.63,2.65.88,2.65.88,0,0,1.25.14-2.02.76-3.28.63-4.41,1.13-5.67,1.51-1.26.38-5.8.89-9.83,1.26-4.04.38-6.3.25-9.58.76-3.28.5-4.92.13-7.06.5-2.14.38-5.42.89-5.42.89l.12-15.75" fill="#38be39"/>
        </g>
        <g id="path184">
          <path d="M208.11,219.29c4.72,3.78,6.71,3.5,12.01,10.67-2.46-6.42-3.03-7.93-6.43-10.77,5.67,3.97,7.38,3.97,11.53,10.59-9.27-27.59-46.9-12.85-56.92-8.69,13.05-3.03,22.88.95,27.99,7.18,0,0-2.27-6.05-4.54-8.69,8.7,5.29,8.51,4.72,13.05,9.64,0,0-3.21-7.75-3.78-9.26,6.81,1.89,11.91,9.64,11.91,9.64,0,0-2.17-6.14-4.82-10.3" fill="#38be39"/>
        </g>
        <g id="path186">
          <path d="M242.34,219.29c-4.73,3.78-6.71,3.5-12.01,10.67,2.46-6.42,3.03-7.93,6.43-10.77-5.67,3.97-7.38,3.97-11.53,10.59,9.27-27.59,46.9-12.85,56.92-8.69-13.05-3.03-22.88.95-27.99,7.18,0,0,2.27-6.05,4.54-8.69-8.7,5.29-8.51,4.72-13.05,9.64,0,0,3.21-7.75,3.78-9.26-6.81,1.89-11.91,9.64-11.91,9.64,0,0,2.17-6.14,4.82-10.3" fill="#38be39"/>
        </g>
        <g id="path188">
          <path d="M131.81,65.29c-.47-1.98,0-3.31.38-1.89.38,1.41.57,1.61.57,1.61" fill="#985147"/>
        </g>
        <g id="path190">
          <path d="M190.43,146.64c0-16.12-6.05-14.37-6.05-14.37l6.55-10.58c5.78,2.01,9.98,2.05,13.6,1.24l.08-.3s-.38-1.51-1.33-4.53c-.95-3.02-1.7-3.02-3.78-3.21-2.08-.19-6.8,2.84-10.59,3.96-3.78,1.13-7.94,2.64-7.94,2.64,0,0-2.84-5.1-3.78-6.23-.94-1.13-2.27-1.7-3.21-4.54-.95-2.83-1.33-2.83-3.21-4.9-1.62-1.79-4.49-5.09-5.28-6,.05-.11.21-.39.74-1,.66-.75,2.17-.46,4.63-.75,2.46-.29,2.36-2.74,2.93-3.58.57-.86.28-.76.09-2.84-.19-2.07-1.99-2.74-3.03-3.02-1.04-.29-2.65-.86-4.44-2.27-1.8-1.41-6.9-3.87-7.94-4.54-1.04-.65-.09-1.79.95-2.16,1.04-.38,7.47,0,9.83-.19,2.37-.19.85-.76-.09-1.04-.95-.28-5.67-.66-5.67-.66,0,0,2.65-.37,9.36-3.49,6.71-3.12,8.6-9.55,8.6-9.55-2.08,3.03-6.72,4.91-8.04,5.2-1.33.28-.47-1.23.09-3.21.57-1.98-.38-.86-1.89,1.98-1.51,2.84-5.58,4.25-7.56,5.01-1.99.75-1.7.65.09-1.04,1.8-1.7,1.99-2.84,2.84-5.2.85-2.35.47-2.92-1.13.1-1.61,3.02-7.19,6.89-8.61,7.75-1.41.85-.37-1.52.47-3.68.85-2.17.47-2.27-.57-.47-1.04,1.79-2.08,3.4-3.78,4.63-1.7,1.23-1.42.57-1.42-.38,0-3.96-1.41-4.9-1.89-5.47-.47-.57-.95-1.23-.38.75.57,1.99.19,4.25,0,5.11-.19.85-.85.47-1.51.08-.66-.36-1.23-1.51-.66-2.73,3.4-6.24,2.93-9.93,2.93-12.85s-.85-.76-.85-.76c.47,10.87-5.01,13.42-5.01,13.42-1.04-4.25-1.7-3.68-1.7-3.68,0,1.89-.66,3.21-.66,3.21,0,0-4.72-5.29-3.78-10.11.94-4.82-.38-7.38-.38-7.38-1.23,14.84-11.82,9.64-11.82,9.64l5.2,3.49c-1.79,6.8-10.49,3.21-10.49,3.21,2.74,5.2,18.54,3.02,18.54,3.02,0,0,1.42,1.8,4.44,3.87,3.03,2.08,5.76,3.97,5.76,3.97l-.85.44c-3.78-2.78-7.57-2.78-9.83-1.77-2.27,1.01-3.53,2.27-3.53,2.27,1.26,4.79,7.82,5.79,7.82,5.79-1.01,2.53-1.26,7.31-.51,12.86.76,5.54-1.01,10.83-1.01,10.83l2.02-1.26s.25,1.51,0,2.77c-.25,1.26.5,1.77,1.51,2.27,1.01.5,1.01,1.77,1.01,1.77v3.02l1.76-1.01s.76,5.8.76,8.07-.51,4.28-.76,5.29c-.25,1-.5,3.27-.5,3.27l1.51-.75s-1.77,6.8-3.03,9.57c-1.26,2.78-7.82,6.81-14.63,13.87-6.8,7.05-5.29,13.59-5.79,16.87-.51,3.27,2.02,1.26,2.02,1.26,0,0,3.52,4.78,3.52,10.83s-3.78,9.58-5.04,10.84c-1.26,1.26-.25,2.26-.5,4.53-.26,2.27,0,4.79,1.25,7.06,1.26,2.27.26,10.58,0,12.85-.25,2.27,0,2.27,1.01,3.03,1.01.75,2.27,2.51,3.78,3.77,1.51,1.26,2.27-.75,2.52-2.51.26-1.77-.5-2.02-.5-2.02l.38-.2s-1.13-.75-2.84-3.02c-1.7-2.27-.95-8.32-.38-14.55.57-6.23.95-5.11,7.38-10.96,6.43-5.86,10.21-15.69,10.21-15.69,0,0,2.08,1.33,6.62,4.35,4.54,3.03,3.22,2.84,2.08,7.94-1.13,5.1-.95,6.43,0,7.74.95,1.33,2.08,2.45,4.92,3.78,2.84,1.32,3.02,1.51,5.86,5.29,2.84,3.78,4.35,4.73,7,5.11,2.64.37,2.64,1.51,2.64,1.51l4.35-1.89c-.95-2.64-3.22-2.27-5.67-2.46-2.45-.18-2.65-.76-5.48-3.78-2.84-3.02-4.54-5.48-6.43-10.21-1.89-4.72.18-8.5,3.02-16.43,2.83-7.93-1.13-10.96-1.13-10.96,0,0,3.59-4.16,6.99-7.18,3.4-3.02,7.19-10.58,7.57-12.65.37-2.08.75-2.08,3.59-1.9,2.84.19,1.51,5.48,1.13,9.83s-.75,4.72.38,6.05c1.13,1.33.75,2.45.19,5.48-.48,2.54,2.67,4.02,4.35,3.62v-28.2" fill="#985147"/>
        </g>
        <g id="path192">
          <path d="M311.07,81.25c7.94-.94,14.37-7.74,17.02-11.34,2.65-3.58-.76-2.64-1.89-1.31-1.14,1.31-.19.75-2.65,3.02-2.46,2.27-3.21,1.7-2.27-.56.95-2.27-1.89.36-4.92,2.45-3.02,2.08-3.21.94-1.32-1.14,1.89-2.07-.19-1.31-2.08-.37-1.89.95-6.05,2.45-6.05,2.45,0,0-.38-1.51,4.35-4.15,4.73-2.65,11.15-7.95,12.1-10.4.95-2.46.19-3.97-1.13-.94-1.33,3.02-2.84,2.64-5.1.75-5.49,4.72-5.3-.57-5.3-.57,0,0-.57.95-1.51,2.46-.95,1.51-2.27,1.32-3.22.75-.94-.57-1.32-.94-4.16,1.7-2.84,2.64-5.86-2.84-6.05-5.67-.19-2.83-.38-3.02-1.33-.18-.95,2.84-.18,6.42,1.33,10.2,1.51,3.78-1.13,2.27-2.84,2.08-1.7-.19-5.48-3.59-7.56-5.67-2.08-2.08-1.7-1.52-1.7.37s1.13,4.35,1.13,4.35c0,0-5.86-2.45-7.94-4.54-2.08-2.07-2.46-.94-1.51.76.95,1.69,1.51,5.47,10.96,6.8,9.45,1.31,11.72,3.4,11.35,6.61-11.53.95-15.51-3.58-16.45-4.35-.95-.76-.38,2.27-.38,2.27,0,0-3.97-1.32-5.68-3.22-1.7-1.89-1.51.19,0,2.09,6.81,8.69,22.57,6.67,22.57,6.67,0,0-3.03,1.51-4.29,2.77-1.26,1.26-2.27,1.52-3.66,1.63-4.04.25-6.18.13-9.71,1.77-3.53,1.63-3.03,5.04-2.52,7.18.5,2.14,3.78,2.14,4.54,3.02.75.87,2.77,1.01,3.4.63.63-.38.75-1.13,1.89-1.64,1.13-.5,1.76-.25,1.13,1.26-.63,1.51-5.04,6.17-7.19,8.32-2.14,2.13-1.63,1.89-1.89,3.39-.25,1.52.89,1.89.76,2.78-.13.87-.25,1.12-1.39,2.77-1.13,1.63-2.65,3.02-2.77,4.16-.13,1.13-3.28,3.78-3.28,3.78-4.16-2.52-9.71-5.68-11.97-7.18-2.27-1.51-2.27-1.89-5.93-1.89s-5.04,4.16-5.3,7.81l.31.22c2.57-.02,5.5-.5,9.03-1.73l6.55,10.58s-1.21-.34-2.54.7l.34.25,2.27,2.08-4.92,2.08h-.19c-.6,2.11-1.01,5.09-1.01,9.26v27.13c2.13-1.23,1.94-5.28,1.39-8.62,2.65-.37,1.89-3.02,1.32-3.21-.57-.18-.95-9.45-.19-13.61.75-4.16,2.08-3.39,4.54-3.78,2.46-.38,1.7,2.27,2.46,5.48.76,3.21,2.84,6.05,2.84,6.05l-.19-2.27s-.75-2.25,1.7,1.33c2.46,3.59,15.31,10.95,15.31,10.95,0,0-2.46,1.7-4.54,7.94-2.08,6.23,2.46,13.6.95,23.62-.99,6.56-6.05,12.85-9.45,14.73-3.4,1.9-4.16,3.4-4.16,3.4l3.78,2.08s.57-.94,1.51-1.89c.95-.95,0-.95,2.45-.95s3.22-3.39,4.73-6.61c1.51-3.21,7-9.07,7-9.07,2.27-3.4,1.7-3.02,1.33-4.73-.38-1.69-1.14-3.4-.19-6.8,2.39-8.61,10.59-14.17,10.59-14.17v3.4c0,7.18,2.08,7.94,8.13,16.44,6.05,8.5,4.54,18.9,3.97,23.99-.57,5.1-2.84,6.99-2.84,6.99l1.51,5.48s.19-.57.76-1.7c.57-1.14,1.7-3.59,2.84-4.35,1.13-.76,1.5.38,1.32-4.53-.19-4.91.19-9.65,1.33-16.44,1.13-6.8.57-5.1-1.7-11.52-2.27-6.43-.75-7.18,1.14-11.34,1.89-4.16,3.03-7.75,3.03-7.75,0,0,1.7.19,1.51-1.9,0-4.72-3.78-8.87-10.78-15.3-7-6.43-8.13-13.04-8.13-13.04h.19c-.95-3.6,1.33-1.89,1.33-1.89-1.13-4.17,1.51-8.69,1.51-8.69-1.7-3.4-1.51-4.54-1.51-4.54l1.51-.94c-2.07-6.62-1.51-6.99-1.51-6.99l1.51-.38c-.18-3.4.19-6.04.19-6.04l1.89.19s-.19-4.16.95-9.45c1.13-5.29,2.46-2.45,0-13.04,6.43-1.89,6.05-5.1,6.05-5.1,0,0-3.21-1.7-7.18-1.7s-2.46-2.08.37-2.27" fill="#985147"/>
        </g>
        <g id="path194">
          <path d="M238.08,82.01l1.89,1.51.75-2.63c.25.75,2.52,2.38,2.52,2.38l.63-2.02,1.89,3.28,1.51-1.13c.5,1.26,2.27,1.89,2.27,1.89l1.13-2.39s-1.38-2.64.38,0c1.76,2.64,3.66,2.26,3.66,2.26l.63-1.89,2.52,2.64,1.38-2.01c1.39,4.9,3.02,7.05,3.02,7.05l.89-.37c.37,3.4,1.51,5.29,1.51,5.29l1.01-2.89s.51,2.64,1.01,5.16,1.38,3.78,1.38,3.78l.5-2.27,1.89,3.9c3.78-26.06-7.44-37.92-11.6-42.95-4.16-5.04-13.74-8.44-20.17-8.82-6.43-.37-5.41,6.43-.5,9.32,3.84,2.27-2.52,7.31-2.52,7.31,0,0-.65-.99-1.43-2.2l-.08.05s-.13.51.25,1.51c.37,1.01.37,1.9.37,1.9l-.88.12s-.12.89-.37,1.63c-.25.76.37,1.77.37,1.77l-1.76-1.51-.37,2.13-1.89-1.26-.63,1.89-1.39-1.26-.88,1.26-1.51-.76-.88,1.9-1.38-1.77-1.26,1.77-.88-1.9-.26.5-.75-1.14-.88,2.15s-.63-1.63-1.51-1.76c-.88-.12-1.14-.12-1.51-.38-.38-.25-.38-2.01-.38-2.01l-1.26.37,1.26-5.54.13.12c-4.29-3.14-7.69-5.54-6.06-11.33,1.14-4.29-3.28-8.82-13.86.12-12.23,11.59-15.88,33.13-15,47.11l2.02-4.03.89,1.01,1.89-3.9.88.63s3.15-3.02,3.78-5.54c.63-2.52.13.37.13.37l.75,1.14s.76.5,1.51-.89c.76-1.38,3.15-5.79,3.15-5.79,0,0-.38,2.39,1.01,2.9,0,0,1.63-.5,3.02-3.02l1.01,1.51s2.4-1.01,2.9-2.4l.63,2.02s2.52-1.77,3.66-3.53l1.13,2.52s1.64-1.01,2.39-2.64l2.77,2.01s-1.26,1.77.63,4.04c-.25,1.51,0,4.28,0,4.28,0,0-.25,1.13-.5,2.27-.26,1.13-.51,2.14-.38,3.52.12,1.38.63,2.64,2.14,2.89,1.51.26,2.02.63,3.66.89,1.64.25,2.9-.13,4.29-.51,1.38-.37,1.89-1.76,1.76-2.77s-.25-.76-.25-2.52-.63-3.15.63-3.15,1.51-.5,2.39,1.52c.88,2.01.88,1.51.88,3.65s0,3.53,1.26,3.79c1.26.25.63.5,2.9.36,2.27-.11,2.65-.11,4.16-.25,1.51-.12,2.52-1,2.9-2.14.38-1.13.25-1.63.13-2.64-.13-1.01.38.37-.51-1.76-.88-2.15-1.76-5.55-2.02-7.56-.25-2.02-.63-4.03-.5-6.05" fill="#985147"/>
        </g>
        <g id="path196">
          <path d="M214.07,109.5v-5.29l26.09-.47v5.29l-26.09.47" fill="#985147"/>
        </g>
        <g id="path198">
          <path d="M218.67,101.86s1.14.43-1.76,2.26c-2.9,1.83-4.79,1.89-4.79,3.53s.32,1.7.32,1.7c0,0,.88-.06,1.76,0,.88.06,1.83.25,2.27.06.44-.18,1.13.76,2.2.51,1.07-.25,2.21-.82,2.21-.82,0,0-.06,0,.88.31.95.32.57.25,1.89,0,1.32-.25,2.21-.5,2.21-.5,0,0,1.57-1.88-.5-3.14-2.08-1.26-2.97-1.45-3.28-1.7-.32-.25-.57-1.07-.69-1.7" fill="#ffef6f"/>
        </g>
        <g id="path200">
          <path d="M233.55,102.49s1.07.82-1.2,2.14c-2.27,1.32-3.78.82-3.97,2.7-.16,1.61.32,2.08.32,2.08,0,0,.95-.19,1.83-.25,0,0,.37-.12.88-1.07.5-.94,2.02-2.14,2.02-2.14,0,0,.63-.32.19,1.45-.44,1.76.69,2.32.69,2.32l1.39-.12s.12-1.13.18-1.76c.06-.64,0-1.83,0-1.83,0,0,.25-.12.88.5.63.64.76.76,1.13,1.9.38,1.12.32,1,.57,1s1.52-.31,1.52-.31c0,0,1.57-1.77.19-2.78-1.39-1-3.59-1.69-4.47-3.64" fill="#ffef6f"/>
        </g>
        <g id="path202">
          <path d="M240.37,106.8l7.07-1.71.18.61,2.09-1.74-2.7-.32.16.56-7.02,1.69" fill="#ffef6f"/>
        </g>
        <g id="path204">
          <path d="M240.41,108.82l9.96,2.37-.12.63,2.67-.61-2.27-1.51-.11.57-9.91-2.38" fill="#ffef6f"/>
        </g>
        <g id="path206">
          <path d="M240.6,107.87l12.9-.14.04.58,2.43-1.25-2.57-.89.04.62-12.85.15" fill="#ffef6f"/>
        </g>
        <g id="path208">
          <path d="M256.41,184.43v-34.13h-62.37l.04,29.59c1.39,0,2.52-.12,4.54,1.14,2.02,1.26,2.65,1.76,4.03,2.02,1.38.25,1.38,0,2.9.63,1.51.64.75.76,2.39.64,1.64-.14,2.9-.51,3.91-.14l44.55.26" fill="#ffef6f"/>
        </g>
        <g id="path210">
          <path d="M214.26,189.97c1.01-.5,1.51-.63,2.39.13,0,0,.76-3.52.88-4.28.13-.75,1.51-4.53,1.51-4.53,0,0,.13,1.51.25,4.04.13,2.51-.37,3.64,1.26,4.03,1.64.37,2.65,0,2.65,0,0,0-1.01-.26-1.01-2.02s-.63-8.32-.75-9.07c-.12-.76-.12-2.02-.12-2.02l.5-2.01s1.01.12,2.27,0c1.26-.13,1.76-.64,2.27-.64s1.14-.25,1.14-.25l.25-.87s-1.64-.25-3.03-.25-2.65-.51-2.65-.51c0,0-.25-.25-.37-1.13-.13-.88-1.26-1.89-1.26-1.89,0,0,.5-.5.5-1.26s.63-1.13.13-2.02c-.5-.88-.75-1.51-2.02-1.13-1.26.37-1.26.25-1.76,1.51-.5,1.26-.25,1.13-.13,1.76.13.63-.12.89-.12.89,0,0-.76-.76-1.13-.13-.38.64-.76,1.01-.76,1.01l-1.38.12-.38-1.38s-.25-.63-.38-1.38c-.13-.75-.63-2.77-.63-2.77l-.88-1.01s-.5,1.26-.37,1.64c.12.37.63,1.63.63,2.63v3.16s0,1.26,1.26,1.51c1.26.25,2.77.25,2.77.25,0,0,.38.5.5,2.64.13,2.15,0,.64.13,1.77.12,1.13-.13.63-.38,2.9-.25,2.27-.88,5.04-1.13,6.04-.25,1.01-.63,4.54-.63,4.54" fill="#985147"/>
        </g>
        <g id="path212">
          <path d="M166.48,171.59l-3.53,3.27s3.78,5.54.76,13.61c-3.03,8.05.5,10.58.5,10.58,0,0-1.51-5.79,2.02-14.61,3.53-8.82,2.76-9.08.25-12.85" fill="#be7c38"/>
        </g>
        <g id="path214">
          <path d="M126.64,210.39c1.26-2.02,2.77-7.82-.5-10.84l-.76.76.26,7.3.75,1.77" fill="#be7c38"/>
        </g>
        <g id="path216">
          <path d="M131.94,195.01c1.76-7.05.25-8.57,1.76-17.64,1.51-9.07.5-18.39,4.29-17.13,3.78,1.26,8.57,3.78,7.81,9.57-.75,5.8-4.79,14.11-8.57,19.15-3.78,5.04-5.3,7.81-5.05,5.04" fill="#be7c38"/>
        </g>
        <g id="path218">
          <path d="M131.94,175.87c3.5-5.84-.25-14.11,5.3-17.64,5.54-3.53,3.28-2.27,3.28-2.27,0,0-9.58,1.01-10.09,12.35-.51,11.34.75,8.82,1.51,7.56" fill="#be7c38"/>
        </g>
        <g id="path220">
          <path d="M154.12,139.07c-5.28,14.53-7.06,19.91-4.29,22.69,2.77,2.77,7.06,2.52,11.1-3.53,4.04-6.05,6.3-14.36,6.8-16.38.51-2.02.26-3.28,4.54-1.51,4.29,1.76,9.83,3.78,12.35,4.53,2.52.76,4.78,0,4.53,8.57-.25,8.57-1.51,7.56-1,11.85.5,4.28-.51,8.05,2.02,8.81l-.25-30.74s-12.11-4.79-13.87-6.05-4.54-14.87-8.32-21.91c-3.78-7.06-9.33-12.1-12.85-17.64-3.53-5.55-3.78-8.32-1.26-7.06,2.52,1.26,5.04,4.54,9.58,5.04,0,0-2.27-2.01-3.53-3.53-1.26-1.51-2.02-2.26-.76-2.26s2.52.25,2.52,1.51-.25,1.26,2.02,2.01c2.27.76,3.53,0,1.26-1.26-2.27-1.26-2.27-3.77-2.27-3.77,0,0,2.52.5,4.04,1.51,1.51,1,2.52,2.26,2.52,2.26l4.04-2.01s-1.01-.51-3.28-.51-5.55-1.5-6.31-2.26c-.75-.76-4.03-4.03-8.32-3.02-4.29,1.01-5.3,2.52-5.3,2.52h-1.76l.76,1.26s-1.26,1-1.52,3.52c-.25,2.52,1.26,1.26,1.26,1.26,0,0,.76,1.26,1.01,5.8.25,4.53-1.01,2.77-1.01,6.3s.26,4.28.26,4.28c0,0,1.01-3.02,1.26.25.26,3.27-.75,5.54,1.77,9.32,2.52,3.77,2.27,6.29,2.27,6.29l-2.52-2.52s1.77.5.25,5.8c-1.51,5.29.75,4.78.75,4.78,0,0,1.51.51.5,2.78-1.01,2.27,1.26.75,1.26.75,0,0,.76-.5-.25,2.27" fill="#be7c38"/>
        </g>
        <g id="path222">
          <path d="M136.47,83.4s3.78-2.51,7.06-1.76c3.28.76,5.04,4.03,5.04,4.03,0,0-4.79,2.27-6.55,1.26-1.76-1.01-5.55-3.53-5.55-3.53" fill="#be7c38"/>
        </g>
        <g id="path224">
          <path d="M124.88,73.07c4.29,0,6.3-.75,7.06-4.28-.25,3.53,1.76,3.53-7.06,4.28" fill="#be7c38"/>
        </g>
        <g id="path226">
          <path d="M131.69,66.52c-2.03,0,4.79-1.51,5.8-4.03,1.01-2.52,1.01-2.02,0,.75-1.01,2.77-1.26,3.28-5.8,3.28" fill="#be7c38"/>
        </g>
        <g id="path228">
          <path d="M311.2,186.69c-4.48-7.03-4.04-8.56-4.29-13.84-.25-5.3-1.76-5.55-.25-9.08,1.51-3.52,8.32-5.54,9.83,0,1.51,5.55,3.28,8.57.25,15.11-3.03,6.55-3.78,10.59-5.55,7.81" fill="#be7c38"/>
        </g>
        <g id="path230">
          <path d="M303.39,171.84s-2.52-2.27-6.56,4.53c-4.04,6.8-5.55,6.3-5.8,11.58-.25,5.3.5,8.57.5,8.57l2.02-.25s-1.51-5.54-.5-8.32c1.01-2.77,3.28-7.3,6.05-9.82,2.77-2.52,4.54-4.29,4.54-4.29l-.25-2.01" fill="#be7c38"/>
        </g>
        <g id="path232">
          <path d="M284.98,141.85s.5,7.81,6.3,12.35c5.8,4.52,8.57,6.79,10.59,5.03,2.02-1.76,3.02-1.76.25-7.81-2.77-6.04-4.53-10.58-4.53-12.59v-7.56l1.76,2.78-.25-8.07,1.51,1.01s-.51-2.27-.76-5.29c-.25-3.03-.25-4.79-.25-4.79l1.76,1.76s-.5-4.28-1.26-7.05c-.75-2.77-.5-1.51-.5-1.51l2.02,1.25.76-5.54,1.01-6.55s.75-.75,1.26-4.79c.5-4.03.75-5.04.75-5.04,0,0,1.26,0,4.28-.5,3.03-.5,6.81-3.02,6.81-3.02,0,0-3.78-2.52-8.07-1.01-4.29,1.51-5.3,1.51-5.3,1.51,0,0-3.27-3.27-6.05-1.51-2.77,1.76-4.54,3.53-7.31,3.78-2.77.25-7.06-.25-8.32,2.01-1.26,2.27-2.52,4.04-.26,4.79,0,0,0-3.02,1.51-3.53,1.51-.5,3.78-1.26,3.78-1.26,0,0,4.54-.25,6.55-1.51,2.02-1.26,3.28-2.26,5.29-2.01,2.02.25,3.78-.76,2.27,2.01-1.51,2.78-4.03,3.28-4.03,3.28,0,0,2.01.5.5,3.28-1.51,2.77-3.27,3.52-4.03,4.53-.75,1-3.28,4.54-3.28,4.54l3.28-.76-5.8,8.32,3.03-1.01-2.77,2.52,1.51.5-4.79,5.79s-.25,1.76-2.52,4.28c-2.27,2.52-2.52,2.26-3.53,3.53-1.01,1.26-2.02,3.02-2.02,3.02,0,0-2.27,3.53-6.3,5.04-4.04,1.51-9.08,3.02-9.08,3.02,0,0-1.01,3.53-.75,12.1.25,8.57.25,12.09.25,12.09,0,0,1.01-.5,1.26-7.56.25-7.05-2.27-13.59,4.79-15.11,7.06-1.51,11.6-3.52,16.64-3.77,5.04-.25,6.3.75,3.78,2.01-2.52,1.26-3.53,1.51-3.53,1.51,0,0,1.51-1.51,1.76,1.51" fill="#be7c38"/>
        </g>
        <g id="path234">
          <path d="M251.7,123.46s-.25-5.54,2.77-5.78c3.03-.25,3.28-.25,6.81,3.02,3.53,3.27,3.27,5.8,2.52,7.06l-3.53-5.8-8.57,1.51" fill="#be7c38"/>
        </g>
        <g id="path236">
          <path d="M292.79,71.81s5.05,0,5.8,2.02c.75,2.01,2.02,8.31,2.02,8.31,0,0,3.02,1.77,5.04.51,2.02-1.26,1.01-1.26,3.53-2.78,2.52-1.51,10.84-5.04,10.84-5.04,0,0-2.02-.5-.76-2.01,1.26-1.51-.25.75-.25.75,0,0-4.29,2.27-6.05,2.52-1.76.25-1.51-1-.75-1.76l-5.55,1.51s-1.51-.25-.76-2.01c.76-1.77,2.52-3.28,2.52-3.28,0,0-3.28-1.01-4.04,2.27-.75,3.27-.5,7.05-.5,7.05h-2.02s-.26-2.27-.76-4.78c-.5-2.52-2.52-7.82-2.52-7.82,0,0,.76,2.78-.25,4.04-1.01,1.26-5.55.5-5.55.5" fill="#be7c38"/>
        </g>
        <g id="path238">
          <path d="M276.66,64.5s2.77,3.27,4.79,4.54c2.01,1.26,6.3,1.76,6.3,1.76l-3.03-7.05.5,5.03s-6.55-2.52-8.57-4.28" fill="#be7c38"/>
        </g>
        <g id="path240">
          <path d="M275.4,73.07s4.04,2.52,6.31,3.53v-2.27s2.27,2.27,6.05,3.78c3.78,1.51,4.79,1.26,10.84.75l-.5,1.26s-6.05,0-9.08-.5c-3.03-.5-6.05-2.52-6.05-2.52l.75,1.76s-.5.5-2.27-.25c-1.77-.75-6.31-4.78-6.31-4.78" fill="#be7c38"/>
        </g>
        <g id="path242">
          <path d="M214.76,189.72s.76-4.15,1.14-5.79c.37-1.63.63-3.15.88-4.41.25-1.26.75-1.77.5-2.52-.25-.76-.13-.5-.25-1.63-.13-1.13-.51-2.27-.51-3.03s-.37-.63.38-1.37c.76-.76,1.26-2.78,1.64-.64s.38,2.27.38,2.27l1.76-3.03.38.26-2.14,3.78s-.38-.51-.38,1.38.5,2.89-.13,3.27c-.63.38-.5,1.14-.12,1.39.37.25.25.37-.38,2.02-.63,1.63-1.13,3.65-1.39,4.79-.25,1.13-.75,3.15-.75,3.15l-1.01.12" fill="#be7c38"/>
        </g>
        <g id="path244">
          <path d="M220.69,188.96s.12.51-.13-2.13c-.25-2.66-.63-5.3-.63-5.3l.51-1.63s-.38.37.12,2.27c.51,1.9.63,4.28.76,5.29.12,1.01.5,1.77.5,1.77l-1.13-.25" fill="#be7c38"/>
        </g>
        <g id="path246">
          <path d="M220.81,166.54s-1.01,0-1.38-.5c-.38-.5-.76.12-.76.12,0,0-.25.63,0,1.26.26.63.51,1.26.51,1.26h1.13l.76-1-.26-1.15" fill="#be7c38"/>
        </g>
        <g id="path248">
          <path d="M218.29,176.5s1.26.36,1.89.25l.63-.14-1.51.51h.75l-2.01,1.25" fill="#be7c38"/>
        </g>
        <g id="path250">
          <path d="M211.73,166.79s.76.51.76,1.9,1.13,3.02,1.13,3.02c0,0-1.51.51-1.76-.75s-.13-4.17-.13-4.17" fill="#be7c38"/>
        </g>
        <g id="path252">
          <path d="M215.9,66.01s4.03-6.04,1.64-8.31c-2.39-2.27-2.77-2.02-2.77-2.02,0,0-.5-.37-.5-1.26,0,0-.76-.12-1.89.12-1.13.25-1.26-.75-.75-2.38.5-1.64,2.27-3.03,5.42-1.77,0,0,1.62-1.46,4.29-.5,3.15,1.13,5.92,2.52,7.56,6.8,1.64,4.29,2.02,4.54,2.9,5.8.47.67,1.56,2.32,2.47,3.72l-.08.05s-.13.51.25,1.52c.37,1,.37,1.89.37,1.89l-.88.12s-.12.89-.37,1.63c-.25.76.37,1.77.37,1.77l-1.76-1.51-.37,2.13-1.89-1.26-.63,1.89-1.39-1.26-.88,1.26-1.51-.76-.88,1.9-1.38-1.77-1.26,1.77-.88-1.9-.26.5-.75-1.13-.88,2.14s-.63-1.63-1.51-1.76c-.88-.12-1.14-.12-1.51-.37s-.37-2.02-.37-2.02l-1.26.37,1.26-5.54.12.12" fill="#fff"/>
        </g>
        <g id="path254">
          <path d="M238.72,88.95c2.65,2.64,8.32,5.54,5.42,6.55,0,0-1.39.25-2.27-.63-.88-.89.13.36.13.36,0,0,0,1.01-.88,1.26,0,0-1.89-3.64-2.39-7.55" fill="#fff"/>
        </g>
        <g id="path256">
          <path d="M229.64,97.63c-1.26,0-3.78.21-3.78-2.51,0-1.01-.63-1.26.5-1.64,1.14-.38.88-1.38,1.89.51,0,0,1.51,2.01,1.39,3.64" fill="#fff"/>
        </g>
        <g id="path258">
          <path d="M211.71,163.14l-.09-.12h0s.1.12.1.12" fill="#fff"/>
        </g>
        <g id="path260">
          <path d="M211.73,167.42v-.25c0-1-.5-2.27-.63-2.64-.05-.17.01-.52.11-.86l-.36.61.76,2.01.12,1.13" fill="#fff"/>
        </g>
        <g id="path262">
          <path d="M218.01,184.21h1.23c-.11-1.85-.2-2.93-.2-2.93,0,0-.59,1.61-1.03,2.93" fill="#fff"/>
        </g>
        <g id="path264">
          <path d="M216.02,179.4c.25-2.27.5-1.77.38-2.9-.13-1.15,0,.36-.13-1.77-.12-2.14-.5-2.64-.5-2.64,0,0-1.51,0-2.77-.25-1.26-.25-1.26-1.51-1.26-1.51v-1.53c-.31.53-1.29,1.92-3.66,3.29-3.02,1.76-3.27,3.53-1.26,3.53s1.51-1.01,4.04,1.01c2.52,2.01,2.27,1.76-2.52.75-4.79-1.01-3.52-1.01-5.55-.5-2.02.5-3.27.75-1.51,1.51,1.77.76,3.28,1.51,1.26,2.02-2.02.5-3.91.63-3.91.63,2.02,1.26,2.65,1.76,4.04,2.02,1.38.25,1.38,0,2.9.63,1.51.64.75.76,2.39.64,1.64-.14,2.9-.51,3.91-.14l3.32.02c.29-1.29.66-3.17.84-4.8" fill="#fff"/>
        </g>
        <g id="path266">
          <path d="M253.21,163.02c-2.52.75-3.78,1.01-4.54-1.01-.76-2.02-3.78-1.26-5.04-.75-1.26.5-3.03.75-3.78.75s-3.53-1.76-2.02-2.26c1.51-.5.75-4.03-3.53-2.52-4.29,1.51-7.56,1.01-4.54,2.27,3.02,1.26,4.79,3.28,1.26,4.28-3.53,1.01-4.79,2.27-6.05,2.52-1.26.25-1.01.76-2.52-1.51s-2.27-4.03-4.54-2.27c-2.27,1.77-1.76,3.28-2.77,4.03-1.01.76-1.76.76-1.76.76l-.86-2.78c.16.65.4,1.66.48,2.15.13.76.38,1.38.38,1.38l.38,1.39,1.38-.13s.38-.37.75-1.01c.37-.63,1.13.13,1.13.13,0,0,.25-.25.12-.88-.12-.63-.37-.5.13-1.76.5-1.26.5-1.13,1.76-1.51,1.26-.38,1.51.25,2.02,1.13.5.89-.13,1.26-.13,2.02s-.5,1.26-.5,1.26c0,0,1.13,1.01,1.26,1.89.12.88.37,1.13.37,1.13,0,0,1.26.51,2.65.51s3.03.25,3.03.25l-.25.87s-.63.25-1.14.25-1.01.5-2.27.64c-1.26.12-2.27,0-2.27,0l-.5,2.01s0,1.26.12,2.02c.08.5.38,3.48.58,5.98l34.39.19v-22.67s-.67.5-3.2,1.26" fill="#fff"/>
        </g>
        <g id="path268">
          <path d="M225.23,231.04c-25.97.5-39.58-2.77-61.27-10.84-21.68-8.06-22.44,1.51-29.25,6.81l-2.59,3.51c.53-.24,1.03-.47,1.53-.7l.31.21c21.68,19.91,43.87,40.18,91.27,40.44,46.14-.5,66.82-20.78,88.5-40.69l.34-.26c.52.25,1.04.5,1.6.75l-2.2-3.76c-6.81-5.3-9.33-12.86-26.98-6.31-21.69,8.05-35.3,11.34-61.27,10.84v11.09c39.69-.22,55.32-7.54,65.55-12.2-12.81,10.36-30.21,26.42-65.55,25.41-35.47,1-55.59-14.93-68.46-25.27,10.71,4.6,28.47,11.83,68.46,12.05v-11.09" fill="#fff"/>
        </g>
        <g id="path270">
          <path d="M244.23,184.41c.64-.72,1.02-1.68,1.02-2.72,0-2.29-1.85-4.15-4.14-4.15s-4.14,1.86-4.14,4.15c0,.95.32,1.83.86,2.53" fill="#ffb935"/>
        </g>
        <g id="path272">
          <path d="M226.65,182.62h9.36v-.98h-9.36v.98Z" fill="#ffb935"/>
        </g>
        <g id="path274">
          <path d="M235.99,180.66l-8.21-.99-.09.75,8.21.99.09-.75" fill="#ffb935"/>
        </g>
        <g id="path276">
          <path d="M236.22,179.64l-8.66-3.83-.31.69,8.66,3.83.31-.69" fill="#ffb935"/>
        </g>
        <g id="path278">
          <path d="M236.83,178.67l-7.1-4.23-.38.65,7.1,4.23.38-.64" fill="#ffb935"/>
        </g>
        <g id="path280">
          <path d="M237.45,177.82l-7.22-7.94-.56.51,7.22,7.94.56-.51" fill="#ffb935"/>
        </g>
        <g id="path282">
          <path d="M238.41,177.19l-4.79-6.74-.62.43,4.78,6.75.62-.44" fill="#ffb935"/>
        </g>
        <g id="path284">
          <path d="M239.32,176.67l-3.94-11.83-.71.23,3.93,11.84.72-.24" fill="#ffb935"/>
        </g>
        <g id="path286">
          <path d="M240.44,176.49l-1.64-8.11-.74.16,1.65,8.09.74-.15" fill="#ffb935"/>
        </g>
        <g id="path288">
          <path d="M241.49,176.38l1.2-12.41-.75-.08-1.19,12.42.75.07" fill="#ffb935"/>
        </g>
        <g id="path290">
          <path d="M242.6,176.65l1.78-8.07-.74-.16-1.78,8.08.74.15" fill="#ffb935"/>
        </g>
        <g id="path292">
          <path d="M243.6,176.99l6.12-10.88-.66-.36-6.12,10.87.66.37" fill="#ffb935"/>
        </g>
        <g id="path294">
          <path d="M244.49,177.68l4.9-6.65-.61-.45-4.89,6.66.61.44" fill="#ffb935"/>
        </g>
        <g id="path296">
          <path d="M245.28,178.4l10-7.46-.45-.61-10,7.46.45.61" fill="#ffb935"/>
        </g>
        <g id="path298">
          <path d="M245.82,179.41l7.17-4.12-.37-.65-7.17,4.11.37.66" fill="#ffb935"/>
        </g>
        <g id="path300">
          <path d="M246.24,180.36l8.42-1.93-.17-.73-8.42,1.92.17.73" fill="#ffb935"/>
        </g>
        <g id="path302">
          <path d="M246.33,181.5l8.23-.86-.08-.75-8.23.86.08.76" fill="#ffb935"/>
        </g>
        <g id="path304">
          <path d="M246.33,182.55l7.67,1.48.14-.74-7.67-1.48-.14.74" fill="#ffb935"/>
        </g>
        <g id="path306">
          <path d="M225.04,41.77c16.64,0,34.6,4.15,48.22,11.33,0,0,1.33,0,2.27-1.89.95-1.89,1.33-2.08,1.33-2.08,0,0,7.56,6.61,11.34,7.94,0,0-1.7-3.59-1.7-7.75l9.08-2.64c-6.62-3.02-14.75-8.13-18.91-12.67-4.16-4.53-10.97-6.23-11.72-2.26-.75,3.96-1.7,5.28-1.7,5.28,0,0-15.88-6.23-38.19-6.23s-38.19,6.23-38.19,6.23c0,0-.95-1.32-1.7-5.28-.75-3.97-7.56-2.27-11.72,2.26-4.16,4.54-12.29,9.64-18.91,12.67l9.08,2.64c0,4.16-1.7,7.75-1.7,7.75,3.77-1.33,11.34-7.94,11.34-7.94,0,0,.38.19,1.33,2.08.95,1.89,2.27,1.89,2.27,1.89,13.61-7.18,31.58-11.33,48.22-11.33" fill="#f1143a"/>
        </g>
        <g id="path308">
          <path d="M152.74,85.91c2.02-.12,3.03-1.12,4.79-.5,1.76.64,2.65,1.13,4.04,2.39,1.38,1.26.75.63.75.63,0,0-1.64-.63-2.27.13-.63.76-2.9.88-3.66,0-.76-.88-.51-1.26-1.51-1.51-1.01-.25-1.51-.13-2.9-.63-1.38-.51-1.38-.64-1.38-.64,0,0,2.39.37,3.28.51.88.11,1.51-.14,2.14.62.63.75.38.64.88.25.5-.37.88-1.01,1.26-.76.37.25,1.38.13,1.01,1.01-.38.89-.25.89-.25.89,0,0,.37-.25,1.01-.37.63-.13.88-.13.88-.13,0,0-2.52-1.26-3.15-1.64-.62-.37-1.25-.5-2.52-.37-1.26.12-2.39.12-2.39.12"/>
        </g>
        <g id="path310">
          <path d="M173.16,90.33c-1.14-.25-1.14.25-2.39.75-1.26.5-2.02.76-2.02.76,0,0,1.01.75,1.89.5.88-.25,2.27-.76,3.03-.76l-.5-1.26"/>
        </g>
        <g id="path312">
          <path d="M138.24,83.52c1.64-.75,1.39-.88,3.53-.5,2.14.37,3.27.25,4.4,1.77,1.13,1.51-2.14,1.26-3.02.75-.88-.5-4.79-1.26-5.3-2.02"/>
        </g>
        <g id="path314">
          <path d="M284.6,94.29c-2.27,3.21-4.6.7-2.65-1.51.71-.8.98-.89,1.51-1.17,1.34-.74,2.84-.91,2.84-.91,0,0-2.46.81-3.31,1.85-.85,1.04-.14.94-.33,1.65-.19.7-.09.66.47.23.57-.42.66.05,1.04-.75.38-.81.8.08.42.61"/>
        </g>
        <g id="path316">
          <path d="M292.67,89.19c1.64-1.13,2.77-2.02,3.78-2.27,1.01-.25,1.77-.12,2.65.25.88.38,1.26.64,1.26.64l-2.14-.25s-.76,3.02-1.89.38l-1.89.63-1.76.63"/>
        </g>
        <g id="path318">
          <path d="M305.15,87.94c.63-.5.5-.76,2.02-1.14,1.51-.37,1.76-.89,2.77-.64,1.01.25,2.9.64,2.9.64,0,0-1.39,1.14-3.78,1.14h-3.91"/>
        </g>
        <g id="path320">
          <path d="M217.03,50.34c1.51.63,2.71,1.12,5.04,2.63,2.34,1.52.32,1.2-.37.64-.69-.57-1.14-.5-1.14-.5,0,0-.95,1-1.51-.25-.57-1.26.13-.95-.57-1.4-.69-.44-1.83-1.06-1.83-1.06l.38-.06"/>
        </g>
        <g id="path322">
          <path d="M215.27,108.66c0-1.39-.13-2.02.5-2.59.63-.56,2.07-1.31,2.07-1.31,0,0-1.06.18-1.38,1.83-.32,1.63-.63,2.32-.32,2.7l-1.01-.06.13-.57"/>
        </g>
        <g id="path324">
          <path d="M220.37,109.1c.25-.25.57-.63.25-1.51-.32-.89-.75-1.9-.44-2.08.32-.19.51-.32.69.75.19,1.07,0,2.21.69,2.89l-.63-.25-.57.19"/>
        </g>
        <g id="path326">
          <path d="M212.37,109.48l.63.94.5-1"/>
        </g>
        <g id="path328">
          <path d="M217.66,109.85s.44.37.69,1.26c.26.88.26.51.26.51,0,0,.25-.64.37-.89.13-.25.26-.82.26-.82l-1.58-.06"/>
        </g>
        <g id="path330">
          <path d="M223.33,109.53c.25.38.63,1.4.63,1.4,0,0,.06-.25.38-.64.32-.38.43-1.07.43-1.07l-1.25.19"/>
        </g>
        <g id="path332">
          <path d="M228.75,109.35c-.12.32.32,1.38.32,1.38l.82-1.38h-1.14"/>
        </g>
        <g id="path334">
          <path d="M234.18,109.79l.95,1.25.44-1.44-1.38.19"/>
        </g>
        <g id="path336">
          <path d="M238.15,109.42l.88,1.37s.06-.06.32-.5c.25-.44.57-1.2.57-1.2l-1.76.32"/>
        </g>
        <g id="path338">
          <path d="M227.12,172.08l.63-3.65.37.13-.5,3.65"/>
        </g>
        <g id="path340">
          <path d="M226.74,173.6l-1.38,10.84-.63,1.14-.51.25.38.38-.75,2.77,1,.25.51-3.27s.5-.89.75-1.9c.25-1.01,1.13-10.58,1.13-10.58"/>
        </g>
        <g id="path342">
          <path d="M214.26,189.97s1.38-.75,2.27-.12c.89.64-.12,1.01-.63,1.01s-1.64-.89-1.64-.89"/>
        </g>
        <g id="path344">
          <path d="M223.21,189.47l.25.37s-.38.12-1.64.12-2.02-.75-2.02-.75"/>
        </g>
        <g id="path346">
          <path d="M182.36,216.23l-1.01-2.26-3.08,2.82.81-.81-5.67-.56s2.65.56,3.21.95c.51.33,1.01.82,1.11.91l-.23.21,4.86-1.26"/>
        </g>
        <g id="path348">
          <path d="M129.16,228.08c1.51.19,4.54-.19,5.1-.57l-.75,3.22-1.14.37-3.21-3.02"/>
        </g>
        <g id="path350">
          <path d="M276.09,218.62l.19-.75-3.4-2.84-1.51,2.08,4.73,1.51"/>
        </g>
        <g id="path352">
          <path d="M314.1,223.36l2.83,1.69-.75,1.15-2.27-1.15.19,4.54-.95-3.78-1.14-.57,2.08-1.89"/>
        </g>
        <g id="path354">
          <path d="M161.01,227.12c-.14.42.12.78.52.92.37.11.78-.06.91-.44.19-.58-.24-.92-.63-1.2-.32-.23-.59-.43-.76-.79-.17-.35-.2-.8-.08-1.16.29-.88,1.22-1.27,2.06-1,.82.27,1.34,1.19,1.05,2.02l-1.01-.32c.09-.34-.11-.65-.41-.75-.33-.1-.62.07-.71.39-.14.38.17.65.45.86.33.25.66.48.87.83.28.42.34.88.16,1.4-.31.94-1.34,1.42-2.28,1.1-.91-.3-1.49-1.26-1.18-2.18l1.03.33"/>
        </g>
        <g id="path356">
          <path d="M165.61,224.41l.99.32-1.73,5.31-.99-.32,1.73-5.31"/>
        </g>
        <g id="path358">
          <path d="M173.89,233.07c-.51-.12-.95-.43-1.26-.85-.51.14-1.14.09-1.66-.07-1.53-.48-2.46-2.1-1.97-3.66.25-.76.71-1.36,1.41-1.72.7-.36,1.53-.42,2.28-.18,1.54.49,2.48,2.09,1.97,3.69-.22.68-.58,1.16-1.18,1.53.13.14.34.27.52.33l.16.04-.28.89"/>
        </g>
        <g id="path360">
          <path d="M177.41,228.16l-1,3.34c-.07.24-.16.5-.11.75.06.32.26.58.57.67.26.07.57,0,.79-.17.23-.2.3-.48.38-.76l1-3.33.99.3-1,3.34c-.16.53-.35,1.01-.82,1.32-.47.31-1.08.43-1.63.27-.51-.15-.96-.59-1.18-1.06-.26-.56-.15-1.06.01-1.62l1-3.33.99.3"/>
        </g>
        <g id="path362">
          <path d="M183.93,230.07l2.47.66-.26.97-1.6-.42-.33,1.24,1.52.4-.26.97-1.52-.4-.33,1.24,1.6.42-.26.97-2.6-.69.37-1.4-1.43-.37-1.21,1.17-1.16-.31,5.01-4.44"/>
        </g>
        <g id="path364">
          <path d="M188.01,231.07l1.58.33c.51.13,1,.26,1.33.69.33.41.45.97.35,1.48-.09.4-.38.85-.71,1.09-.33.23-.69.31-1.08.31l1.04,2.33-1.25-.27-.98-2.4-.45,2.09-1.02-.22,1.19-5.46"/>
        </g>
        <g id="path366">
          <path d="M192.5,231.99l1.02.19-1,5.49-1.02-.18,1-5.5"/>
        </g>
        <g id="path368">
          <path d="M194.87,236.48c-.06.44.26.75.67.81.39.05.76-.19.82-.6.08-.61-.39-.85-.83-1.06-.35-.17-.65-.33-.89-.64-.23-.32-.34-.75-.28-1.13.13-.91.98-1.46,1.86-1.33.85.12,1.52.94,1.39,1.81l-1.06-.15c.04-.35-.21-.63-.54-.67-.34-.04-.59.18-.63.51-.06.4.29.62.6.77.37.19.73.36,1.01.66.35.37.48.81.4,1.34-.14.98-1.07,1.62-2.05,1.49-.94-.15-1.69-.99-1.54-1.95l1.07.16"/>
        </g>
        <g id="path370">
          <path d="M200.72,238.78l.45-5.57,1.31.11c.54.04,1.04.06,1.48.41.43.34.67.9.63,1.46-.04.55-.31,1.06-.77,1.36-.49.33-1.14.25-1.69.2h-.2s-.17,2.1-.17,2.1l-1.03-.08"/>
        </g>
        <g id="path372">
          <path d="M205.61,233.55l3,.14-.05,1.01-1.97-.1-.06,1.29,1.88.1-.05,1-1.88-.1-.07,1.29,1.97.1-.05,1-3-.15.29-5.58"/>
        </g>
        <g id="path374">
          <path d="M209.77,233.75l1.16.04,2.21,4.14.12-4.08,1.03.03-.17,5.58-1.15-.03-2.22-4.14-.12,4.07-1.03-.02.17-5.59"/>
        </g>
        <g id="path376">
          <path d="M215.62,233.91l1.03.02-.1,5.58-1.03-.02.1-5.58"/>
        </g>
        <g id="path378">
          <path d="M218,233.96h1.17s2.28,4.12,2.28,4.12l.04-4.08h1.03s-.06,5.59-.06,5.59l-1.15-.02-2.3-4.09-.04,4.07h-1.04s.06-5.59.06-5.59"/>
        </g>
        <g id="path380">
          <path d="M224.51,238.03c0,.44.35.7.77.7.39,0,.73-.29.73-.69,0-.62-.51-.8-.97-.96-.37-.12-.68-.23-.96-.52-.27-.28-.44-.69-.43-1.08,0-.91.76-1.58,1.66-1.58.86,0,1.64.72,1.63,1.6h-1.07c0-.35-.3-.59-.62-.59s-.56.25-.56.59c0,.4.36.57.7.68.39.13.77.25,1.08.52.4.32.59.73.58,1.27,0,1-.83,1.76-1.82,1.76-.95,0-1.8-.75-1.8-1.72h1.08"/>
        </g>
        <g id="path382">
          <path d="M229.06,234.02l.05,3.48c0,.25,0,.52.11.75.16.29.42.47.74.47.27,0,.55-.17.69-.41.16-.26.15-.55.14-.84l-.05-3.48h1.03s.05,3.47.05,3.47c0,.55-.03,1.07-.39,1.52-.35.43-.9.73-1.47.74-.53,0-1.08-.27-1.44-.65-.41-.46-.47-.97-.48-1.56l-.04-3.48h1.03"/>
        </g>
        <g id="path384">
          <path d="M233.09,233.95l1.03-.04.16,4.58,1.71-.06.03,1-2.74.1-.19-5.58"/>
        </g>
        <g id="path386">
          <path d="M238.51,233.72l.81-.05,2.67,5.44-1.14.06-.68-1.4-1.98.12-.53,1.48-1.14.06,2-5.7"/>
        </g>
        <g id="path388">
          <path d="M242.43,233.47l1.41-.13,1.89,4.12,1.11-4.4,1.4-.12.52,5.56-1.03.09-.38-4.17-1.05,4.31-.88.07-1.83-4.03.39,4.17-1.03.09-.52-5.56"/>
        </g>
        <g id="path390">
          <path d="M253.59,232.21l.8-.11,3.15,5.18-1.13.16-.81-1.34-1.96.29-.4,1.51-1.13.17,1.48-5.87"/>
        </g>
        <g id="path392">
          <path d="M257.47,231.63l1.39-.26,2.28,3.9.68-4.48,1.38-.26,1.04,5.49-1.01.18-.79-4.11-.63,4.38-.86.17-2.21-3.84.79,4.11-1.01.2-1.05-5.49"/>
        </g>
        <g id="path394">
          <path d="M269.92,234.68l-.15-.6c-.26.55-1.01.99-1.58,1.14-1.54.37-3.06-.63-3.43-2.14-.37-1.55.5-3.12,2.05-3.5.58-.14,1.43-.09,1.92.29l-.15-.62,2.6-.64.24.97-1.61.39.31,1.25,1.53-.37.24.97-1.53.37.31,1.25,1.61-.39.24.98-2.61.64"/>
        </g>
        <g id="path396">
          <path d="M272.26,228.29l1.11-.32,3.39,3.25-1.16-3.91,1-.3,1.59,5.36-1.1.32-3.4-3.23,1.16,3.89-.99.3-1.59-5.36"/>
        </g>
        <g id="path398">
          <path d="M279.58,226.02l.77-.26,4.02,4.54-1.08.36-1.03-1.17-1.88.63-.12,1.57-1.08.36.41-6.04"/>
        </g>
        <g id="path400">
          <path d="M283.3,224.75l1.32-.5,2.92,3.45-.1-4.53,1.31-.5,1.99,5.21-.97.38-1.49-3.91.14,4.43-.82.31-2.84-3.4,1.49,3.91-.97.35-1.99-5.21"/>
        </g>
        <g id="path402">
          <path d="M166.19,245.36c.16-.89.24-1.97-.72-2.61-1.12-.74-2.21.14-2.9,1.19-.83,1.26-1.27,2.78-.1,3.54.89.59,1.83.06,2.62-.38l.97,1.13c-1.05.83-2.68,1.16-4.51-.06-2.07-1.36-2.98-3.51-1.53-5.7,1.45-2.18,3.78-2.19,5.59-1,.79.52.99.98,1.12,1.32l.3-.21.85.57-.32,2.73-1.36-.5"/>
        </g>
        <g id="path404">
          <path d="M168.96,251.53l.31.18c.58.33,1.01.53,1.34-.06l2.07-3.64c.33-.58-.06-.85-.65-1.17l-.31-.17.48-.85,4.85,2.74-.48.84-.31-.17c-.58-.32-1.01-.52-1.35.06l-2.07,3.63c-.33.59.06.86.64,1.19l.31.18-.48.84-4.84-2.75.48-.85"/>
        </g>
        <g id="path406">
          <path d="M177.84,256.47l.33.13c.61.27,1.06.42,1.33-.19l1.66-3.85c.27-.61-.15-.84-.76-1.11l-.33-.13.39-.9,4.88,2.12c2.37,1.02,3.28,2.71,2.86,3.68-.42.97-1.54,1.25-2.76.97l.39,1.88c.14.68.29.98,1.1,1.34l.44.18-.39.9-3.37-1.46-.64-3.65-.56-.24-.56,1.28c-.27.62.13.83.66,1.06l.34.15-.38.89-5.02-2.16.39-.9"/>
        </g>
        <g id="path408">
          <path d="M199.26,260.14c-.12-.9-.39-1.96-1.5-2.27-1.31-.34-2.05.84-2.38,2.04-.39,1.46-.33,3.04,1.01,3.41,1.03.28,1.76-.52,2.37-1.19l1.28.77c-.73,1.11-2.18,1.93-4.3,1.35-2.38-.65-3.92-2.4-3.23-4.93.68-2.54,2.9-3.28,4.99-2.7.91.24,1.24.62,1.47.89l.22-.29.99.27.56,2.69-1.46-.04"/>
        </g>
        <g id="path410">
          <path d="M209.88,259.18l-.12.96-.34-.04c-.53-.06-.79.02-.84.4l-.5,3.88c-.09.79.35,1.31,1.33,1.43,1.06.14,1.52-.22,1.65-1.19l.48-3.75c.04-.38-.13-.53-.63-.59l-.56-.07.12-.97,4.21.54-.12.96-.47-.06c-.63-.07-.83.03-.87.4l-.52,4.03c-.22,1.71-1.94,1.91-3.71,1.68-3.38-.43-3.58-1.74-3.41-3.08l.45-3.56c.05-.36-.21-.54-.87-.63l-.34-.04.12-.97,4.96.64"/>
        </g>
        <g id="path412">
          <path d="M218.47,266.65h.35c.67,0,1.14-.04,1.14-.71l-.03-4.2c0-.66-.48-.7-1.15-.69h-.36v-.97s4.78-.03,4.78-.03l1.75,4.14h.03l1.69-4.17,4.74-.04v.97s-.34,0-.34,0c-.67,0-1.14.06-1.13.72l.03,4.18c0,.67.48.71,1.14.7h.36v.97s-5.22.04-5.22.04v-.96s.39,0,.39,0c.65,0,.93-.1.93-.54l-.03-4.33h-.03l-2.41,5.86h-1.01s-2.52-5.86-2.52-5.86h-.03l.03,4.38c0,.45.29.53.94.53h.39v.96s-4.41.04-4.41.04v-.97"/>
        </g>
        <g id="path414">
          <path d="M236,264.7l1.17-.6c.72.52,2.17,1.39,3.65,1.16.85-.12,1.35-.57,1.3-.89-.07-.48-.57-.6-1.6-.76l-2.77-.46c-1.12-.19-1.84-.83-1.97-1.58-.2-1.27,1.12-2.53,2.95-2.82.77-.12,1.51,0,1.86.09v-.25s1.04-.17,1.04-.17l1.57,1.89-1.18.61c-.8-.64-1.76-1.31-3.01-1.12-.74.11-1.09.5-1.03.87.07.48.89.6,1.73.74l2.63.4c1.15.17,1.84.72,1.98,1.61.21,1.33-1.33,2.57-3.24,2.87-.42.08-1.13.13-2.15-.09l-.02.29-1.2.19-1.69-2.02"/>
        </g>
        <g id="path416">
          <path d="M249.13,263.69l.34-.1c.65-.17,1.09-.33.92-.98l-1.1-4.04c-.17-.64-.65-.56-1.29-.38l-.34.09-.26-.94,4.99-1.36c2.09-.58,4.31-.43,4.74,1.15.45,1.65-1.95,2.71-4,3.27l-.63.17.37,1.35c.17.64.64.57,1.29.39l.56-.16.26.95-5.59,1.52-.26-.93"/>
        </g>
        <g id="path418">
          <path d="M262.49,259.74l.33-.11c.63-.24,1.05-.44.82-1.07l-1.47-3.92c-.23-.63-.69-.5-1.32-.27l-.34.13-.34-.92,5.22-1.94.34.91-.33.12c-.63.23-1.05.44-.82,1.06l1.47,3.92c.24.63.69.5,1.32.27l.33-.12.34.9-5.22,1.95-.34-.91"/>
        </g>
        <g id="path420">
          <path d="M276.61,249.62c-.68-.59-1.58-1.22-2.62-.72-1.22.58-1.01,1.97-.47,3.1.66,1.36,1.73,2.51,2.99,1.92.96-.46.99-1.55,1.01-2.46l1.48-.25c.17,1.32-.39,2.89-2.37,3.84-2.23,1.08-4.54.75-5.68-1.61-1.13-2.37.05-4.37,2.01-5.31.86-.4,1.35-.34,1.7-.28l-.02-.36.92-.44,2.18,1.67-1.13.91"/>
        </g>
        <g id="path422">
          <path d="M283.61,250.23l.3-.2c.55-.36.92-.66.55-1.22l-2.34-3.47c-.37-.55-.79-.32-1.35.05l-.3.2-.54-.81,6.52-4.4,2.42.89-.88,1.06c-1.33-.57-2.6-.06-3.87.8l-.27.18,1.26,1.86.5-.33c.45-.31.59-.61.32-1.02l-.17-.25,1.13-.76,1.72,2.55-1.13.76-.18-.27c-.26-.37-.53-.54-1.1-.14l-.5.33,1.3,1.93.42-.28c1.62-1.09,2.14-1.81,2.36-3.49l1.27-.45-.04,2.69-6.84,4.62-.55-.81"/>
        </g>
        <g id="path424">
          <path d="M180.17,40.76l3.69-1.28.43,1.23-2.41.84.55,1.58,2.31-.8.43,1.23-2.31.8.55,1.58,2.41-.84.43,1.24-3.69,1.28-2.38-6.85" fill="#fff"/>
        </g>
        <g id="path426">
          <path d="M193.68,44.07l-1.83-7.03,1.66-.43c.67-.17,1.31-.36,2-.12.68.24,1.21.83,1.39,1.53.18.68.06,1.43-.37,2.01-.46.62-1.29.79-1.98.97l-.26.06.69,2.66-1.3.34" fill="#fff"/>
        </g>
        <g id="path428">
          <path d="M197.79,35.55l1.32-.29,1.27,5.82,2.17-.47.28,1.28-3.48.76-1.55-7.1" fill="#fff"/>
        </g>
        <g id="path430">
          <path d="M204,34.28l.76,4.47c.05.33.09.66.3.95.25.33.63.52,1.05.45.35-.07.67-.32.81-.66.15-.35.07-.73,0-1.11l-.76-4.46,1.33-.23.76,4.46c.12.71.18,1.4-.19,2.03-.37.64-1.02,1.14-1.74,1.26-.67.12-1.45-.13-1.98-.56-.62-.51-.79-1.15-.92-1.9l-.76-4.47,1.33-.22" fill="#fff"/>
        </g>
        <g id="path432">
          <path d="M209.6,33.39l2.09-.24c.68-.07,1.34-.1,1.94.29.57.37.96,1.01,1.04,1.68.06.53-.11,1.21-.41,1.63s-.72.68-1.2.85l2.26,2.44-1.65.18-2.21-2.55.32,2.77-1.34.15-.83-7.22" fill="#fff"/>
        </g>
        <g id="path434">
          <path d="M215.88,32.74l1.34-.1.54,7.24-1.35.09-.54-7.24" fill="#fff"/>
        </g>
        <g id="path436">
          <path d="M219.25,32.5l1.32-.04c.66-.02,1.33-.08,1.95.21.61.29,1.05.92,1.07,1.6.02.57-.23,1.14-.75,1.41.8.22,1.27.89,1.3,1.71.02.71-.28,1.32-.83,1.76-.56.44-1.3.5-1.99.54l-1.82.06-.24-7.26" fill="#fff"/>
        </g>
        <g id="path438">
          <path d="M227.02,32.38l-.12,4.52c0,.34-.04.68.11.99.19.37.52.63.95.64.35,0,.72-.18.93-.49.22-.33.22-.7.23-1.09l.12-4.53,1.35.04-.12,4.53c-.02.72-.09,1.39-.58,1.95-.49.54-1.21.91-1.95.89-.68,0-1.39-.4-1.83-.92-.52-.62-.56-1.28-.54-2.04l.12-4.52,1.35.03" fill="#fff"/>
        </g>
        <g id="path440">
          <path d="M233.11,37.88c-.05.58.39.94.94.99.51.04.97-.31,1.01-.84.06-.79-.59-1.09-1.17-1.33-.47-.19-.87-.36-1.2-.77-.33-.38-.5-.93-.46-1.43.1-1.18,1.15-1.97,2.31-1.89,1.12.1,2.05,1.1,1.95,2.23l-1.38-.11c.02-.45-.33-.78-.75-.82-.44-.04-.75.28-.78.71-.05.52.42.77.84.96.5.21.98.4,1.36.78.48.45.68,1,.63,1.7-.1,1.29-1.25,2.21-2.54,2.1-1.23-.1-2.26-1.14-2.16-2.4l1.4.12" fill="#fff"/>
        </g>
        <g id="path442">
          <path d="M246.29,34.3l-.85,4.45c-.06.33-.15.66-.05.99.12.39.41.7.83.79.34.06.74-.06.99-.33.27-.29.33-.66.4-1.04l.86-4.45,1.32.26-.85,4.44c-.14.7-.32,1.36-.89,1.84-.57.46-1.35.69-2.07.56-.68-.12-1.31-.63-1.66-1.22-.41-.68-.34-1.35-.2-2.09l.85-4.45,1.33.25" fill="#fff"/>
        </g>
        <g id="path444">
          <path d="M251.85,35.41l1.47.37,1.63,5.88,1.3-5.14,1.31.33-1.78,7.04-1.45-.36-1.66-5.86-1.3,5.12-1.31-.33,1.78-7.04" fill="#fff"/>
        </g>
        <g id="path446">
          <path d="M260.84,37.84l-1.35,4.33c-.1.32-.22.64-.16.97.08.41.34.76.74.89.33.09.74.02,1.02-.22.29-.26.39-.62.51-.98l1.34-4.33,1.29.4-1.34,4.32c-.22.68-.47,1.31-1.09,1.72-.62.39-1.41.55-2.12.33-.65-.2-1.23-.77-1.51-1.4-.33-.73-.19-1.38.03-2.1l1.34-4.33,1.29.4" fill="#fff"/>
        </g>
        <g id="path448">
          <path d="M266.21,39.53l1.72.63-.1,5.88,3.78-4.52,1.71.64-2.52,6.81-1.26-.46,1.89-5.11-3.65,4.45-1.07-.39.13-5.75-1.89,5.11-1.26-.47,2.52-6.8" fill="#fff"/>
        </g>
        <g id="path450">
          <path d="M193.71,143.54h.44c.68,0,1.16-.05,1.16-1.01v-7c-1.27.17-1.71.87-2.63,2.32l-1.3-.5,1.61-3.21h7.4l1.5,3.09-1.23.64c-.68-1.12-1.36-2.08-2.71-2.33v7c0,.96.49,1.01,1.17,1.01h.44v1.4h-5.84v-1.4" fill="#fff"/>
        </g>
        <g id="path452">
          <path d="M207.34,134.14v1.4h-.35c-.54,0-.8.17-.8.72v5.6c0,1.14.53,1.8,1.53,1.8,1.09,0,1.51-.59,1.51-1.99v-5.4c0-.55-.2-.73-.71-.73h-.57v-1.4h4.33v1.4h-.48c-.65,0-.83.2-.83.73v5.82c0,2.46-1.72,3.05-3.54,3.05-3.47,0-3.85-1.83-3.85-3.75v-5.12c0-.53-.29-.73-.97-.73h-.34v-1.4h5.09" fill="#fff"/>
        </g>
        <g id="path454">
          <path d="M213.21,143.54h.36c.68,0,1.16-.05,1.16-1.01v-5.98c0-.96-.48-1.02-1.16-1.02h-.36v-1.39h8.03l1.54,2.99-1.35.55c-.8-1.73-2.16-2.15-3.73-2.15h-.34v3.21h.62c.56,0,.85-.24.85-.96v-.43h1.39v4.4h-1.39v-.48c0-.64-.14-1.06-.85-1.06h-.62v3.32h.52c2,0,2.84-.42,3.99-2.25l1.33.49-1.57,3.16h-8.43v-1.4" fill="#fff"/>
        </g>
        <g id="path456">
          <path d="M224.11,143.54h.36c.68,0,1.16-.05,1.16-1.01v-5.98c0-.96-.48-1.02-1.16-1.02h-.36v-1.39h4.13c2.26-.03,4.76.32,4.79,2.84.01,1.35-.88,2.23-2.81,2.41v.03c2.21.02,3.46,1.24,3.5,2.45,0,2.87-2.54,3.06-4.71,3.06h-4.9v-1.39" fill="#fff"/>
        </g>
        <g id="path458">
          <path d="M239.82,133.95c3.21,0,4.52,2.78,4.52,5.59s-1.32,5.6-4.52,5.6c-2.52,0-4.5-1.84-4.5-5.6s1.98-5.59,4.5-5.59" fill="#fff"/>
        </g>
        <g id="path460">
          <path d="M245.65,143.54h.36c.68,0,1.17-.05,1.17-1.01v-5.98c0-.96-.48-1.02-1.17-1.02h-.36v-1.39h5.43c2.63,0,4.17,1.69,4.17,3.21s-.94,2.51-2.19,2.84l1.13,2.24c.4.81.66,1.11,1.57,1.11h.48v1.4h-3.75l-2.06-4.42h-.62v2.01c0,.96.45,1.01,1.04,1.01h.38v1.39h-5.58v-1.39" fill="#fff"/>
        </g>
        <g id="path462">
          <path d="M172.88,230.99c.39-.21.66-.58.8-1.01.32-1.01-.23-2.11-1.25-2.43-.5-.15-1.04-.1-1.51.15-.4.2-.77.6-.91,1.03l-.08.3.07.89c.22.67.7,1.09,1.36,1.29.23.08.41.05.66.02l.85-.24" fill="#fff"/>
        </g>
        <g id="path464">
          <path d="M182.99,233.06l.37-1.38-1.21,1.16.84.22" fill="#fff"/>
        </g>
        <g id="path466">
          <path d="M189.01,234.01c.26.05.61.09.85-.05.2-.13.33-.31.38-.54.05-.23,0-.49-.16-.67-.2-.23-.43-.3-.71-.36l-.56-.11-.35,1.61.56.12" fill="#fff"/>
        </g>
        <g id="path468">
          <path d="M202.19,235.77c.26.02.55.06.8,0,.31-.08.53-.32.56-.64.03-.33-.18-.6-.48-.71-.22-.08-.54-.09-.77-.1l-.19-.02-.12,1.45.19.02" fill="#fff"/>
        </g>
        <g id="path470">
          <path d="M239.7,236.78l-.69-1.65-.5,1.73,1.19-.08" fill="#fff"/>
        </g>
        <g id="path472">
          <path d="M265.78,232.85c.24.99,1.23,1.6,2.21,1.36.98-.24,1.54-1.25,1.31-2.23-.24-.98-1.2-1.66-2.21-1.41-1.05.27-1.56,1.26-1.31,2.28" fill="#fff"/>
        </g>
        <g id="path474">
          <path d="M281.54,228.68l-1.11-1.42-.02,1.8,1.13-.38" fill="#fff"/>
        </g>
        <g id="path476">
          <path d="M183.26,255.37c.94.4,2.1.7,2.49-.2.37-.85-.57-1.52-1.68-2l-.3-.13-.94,2.16.42.17" fill="#fff"/>
        </g>
        <g id="path478">
          <path d="M252.23,259.57l.54-.14c.92-.25,1.83-.75,1.59-1.61-.26-.96-1.51-.85-2.48-.59l-.27.08.62,2.26" fill="#fff"/>
        </g>
        <g id="path480">
          <path d="M255.05,235.18l-.84-1.59-.34,1.76,1.18-.17" fill="#fff"/>
        </g>
        <g id="path482">
          <path d="M194.2,39.74c.32-.09.7-.17.99-.35.35-.22.52-.62.41-1.03-.11-.42-.47-.65-.89-.65-.31,0-.7.12-.99.19l-.24.06.48,1.84.24-.05" fill="#f1143a"/>
        </g>
        <g id="path484">
          <path d="M212.07,36.6c.35-.04.8-.14,1.03-.42.19-.23.28-.52.24-.83-.03-.31-.21-.61-.48-.76-.34-.2-.66-.18-1.02-.13l-.74.08.25,2.13.73-.07" fill="#f1143a"/>
        </g>
        <g id="path486">
          <path d="M221.35,38.38c.39,0,.75-.04,1.1-.29.24-.18.34-.41.33-.71,0-.35-.19-.57-.51-.73-.31-.15-.63-.13-.96-.12l-.59.02.06,1.86.56-.02" fill="#f1143a"/>
        </g>
        <g id="path488">
          <path d="M220.94,35.24c.29,0,.66,0,.91-.13s.4-.4.39-.68c0-.3-.21-.53-.47-.63-.26-.1-.6-.04-.89-.03h-.25s.05,1.49.05,1.49h.25" fill="#f1143a"/>
        </g>
        <g id="path490">
          <path d="M228.58,138.66c.92,0,1.65-.61,1.65-1.43,0-.99-.68-1.54-1.7-1.54h-.25v2.97h.31" fill="#006fff"/>
        </g>
        <g id="path492">
          <path d="M228.58,143.54c1.39,0,2.15-.64,2.15-1.61,0-1.27-1.29-1.73-2.1-1.73h-.35v3.33h.31" fill="#006fff"/>
        </g>
        <g id="path494">
          <path d="M239.82,143.65c1.31,0,1.62-2.26,1.62-4.08s-.32-4.08-1.62-4.08-1.6,2.26-1.6,4.08.32,4.08,1.6,4.08" fill="#006fff"/>
        </g>
        <g id="path496">
          <path d="M250.28,139.04c1.04,0,2.26-.27,2.26-1.68,0-1.33-1.15-1.67-2.39-1.67h-.33v3.35h.47" fill="#006fff"/>
        </g>
        <g id="path498">
          <path d="M132.57,231.15c-.33,0-.67-.15-1.03-.45-.79-.66-1.52-1.45-2.16-2.16-.59-.64-1.14-1.25-1.62-1.6l-.2-.15c-.93-.68-1.14-.93-.9-3.09l.03-.28c.29-2.55,1.17-10.31,0-12.43-1.14-2.06-1.58-4.54-1.28-7.19.09-.84,0-1.5-.07-2.08-.13-.97-.22-1.73.63-2.59l.14-.14c1.32-1.31,4.83-4.79,4.83-10.53,0-5.24-2.72-9.58-3.35-10.51-.38.26-1.2.73-1.76.41-.45-.26-.59-.92-.42-2.02.1-.65.12-1.43.14-2.33.09-3.58.22-8.98,5.72-14.67,3.19-3.3,6.34-5.96,8.88-8.1,2.83-2.38,5.06-4.27,5.71-5.7,1.04-2.29,2.46-7.45,2.88-9.05l-1.44.71.05-.41c.01-.09.26-2.3.51-3.3l.02-.09c.25-1.04.73-2.97.73-5.15,0-1.92-.55-6.44-.71-7.7l-1.81,1.03v-3.41s-.02-1.13-.88-1.57c-1.02-.51-1.92-1.08-1.63-2.52.17-.85.1-1.84.04-2.35l-2.25,1.41.2-.6c.02-.05,1.74-5.3.99-10.72-.72-5.28-.56-10,.42-12.71-1.29-.25-6.58-1.54-7.73-5.91l-.03-.13.09-.09c.05-.05,1.32-1.3,3.6-2.32,2.27-1,6.06-1.07,9.94,1.71l.39-.2c-.8-.55-3.04-2.09-5.46-3.75-2.65-1.82-4.06-3.41-4.41-3.82-1.61.21-15.95,1.93-18.64-3.16l-.29-.55.58.24s4.55,1.85,7.62.32c1.24-.61,2.08-1.7,2.52-3.22l-5.06-3.4.23-.39s2.56,1.23,5.22.74c-.25-1.18-.24-2.47.23-2.58.39-.1.56.52.62.75.24.9.4,1.28.47,1.43.19-.08.39-.18.58-.29,2.49-1.41,3.96-4.61,4.36-9.51l.07-.79.36.7c.06.11,1.35,2.69.4,7.52-.79,4.04,2.56,8.49,3.49,9.63.19-.49.5-1.51.5-2.78v-.1l.08-.07c.07-.06.21-.11.37-.06.53.17,1.06,1.34,1.63,3.57,1.04-.66,5.04-3.81,4.64-13.06v-.05s.02-.04.02-.04c.18-.45.46-.98.82-.91.28.05.47.37.47,1.75,0,.31,0,.62.01.95.03,2.08.07,4.52-1.11,7.89.17.05.35.27.58.55l.08.1c.05.07.12.14.2.22.61.64,1.75,1.83,1.75,5.4,0,.13,0,.26-.01.38,0,.18-.02.42.02.48,0-.02.22-.05,1.05-.65,1.71-1.23,2.73-2.86,3.72-4.56.82-1.42,1.07-1.45,1.28-1.34.21.1.35.33-.31,2.01l-.22.56c-.43,1.09-1.08,2.72-.92,3,0,0,.1-.01.34-.15,1.67-1,7.01-4.82,8.52-7.66,1.27-2.39,1.59-2.24,1.79-2.16.16.07.49.22-.24,2.25-.12.34-.23.66-.33.95-.61,1.77-.98,2.84-2.56,4.34-.23.22-.44.41-.62.58-.12.11-.24.22-.35.32.18-.07.39-.15.6-.23l.36-.14c2-.76,5.72-2.16,7.11-4.78,1.75-3.28,2.08-3.16,2.28-3.08.26.11.27.43.03,1.27-.13.44-.26.85-.39,1.23-.24.71-.51,1.52-.36,1.69.04.04.16.06.39.01,1.14-.25,5.81-2.07,7.9-5.1l.4.19c-.02.07-2,6.56-8.72,9.69-4.07,1.89-6.65,2.77-8.06,3.18,1.48.14,3.7.36,4.33.55,1.3.39,1.54.65,1.52.93-.03.32-.43.47-1.47.55-1.02.08-2.81.06-4.55.04-2.19-.03-4.67-.06-5.22.14-.65.23-1.2.76-1.25,1.19-.02.22.09.41.34.56.34.22,1.16.65,2.11,1.15,1.96,1.03,4.64,2.45,5.85,3.4,1.35,1.06,2.77,1.79,4.36,2.23,1.97.53,3.04,1.61,3.19,3.22.06.62.12,1.05.17,1.36.12.79.13.98-.3,1.63-.13.2-.23.52-.35.89-.34,1.09-.8,2.57-2.75,2.8-.83.1-1.53.13-2.16.16-1.17.05-1.95.09-2.33.52-.35.4-.53.67-.62.82.91,1.05,3.63,4.18,5.17,5.87.34.38.63.68.88.95,1.15,1.22,1.58,1.67,2.37,4.04.68,2.03,1.56,2.87,2.34,3.61.29.28.57.54.83.86.86,1.03,3.21,5.19,3.71,6.1.01,0,.02,0,.04-.01l.04-.03s0,0,.01.01c.98-.35,4.49-1.59,7.68-2.55,1.58-.48,3.31-1.28,4.99-2.05,2.37-1.1,4.43-2.04,5.68-1.93h.14c2.03.2,2.87.27,3.84,3.37.94,2.99,1.32,4.52,1.32,4.54l-.44.11s-.38-1.54-1.32-4.51c-.88-2.81-1.47-2.86-3.45-3.04h-.14c-1.14-.12-3.24.85-5.45,1.88-1.69.78-3.44,1.59-5.05,2.08-3.1.93-6.49,2.12-7.58,2.51.29.56.8,1.75,1.31,4.03.29,1.28.6,2.28.87,3.16.45,1.45.77,2.49.65,3.71-.17,1.71-.49,2.65-.57,2.85.34-.42.83-.84,1.34-1.27.32-.27.65-.55.93-.83l.32.32c-.29.28-.63.57-.95.85-.74.63-1.51,1.29-1.63,1.87-.16.8-.6,3.12-.72,3.79l7.58,3.13-.17.42-7.92-3.27.03-.17c-.95-.36-6.05-2.34-6.95-3.42-.94-1.12-3.38-4.13-3.4-4.16l.35-.29s2.46,3.04,3.4,4.15c.71.86,4.87,2.57,6.68,3.26.17-.88.53-2.81.68-3.53.06-.28.21-.56.42-.83l-.41-.16s.37-.95.55-2.77c.12-1.13-.2-2.13-.63-3.53-.28-.89-.59-1.9-.88-3.19-.52-2.33-1.04-3.49-1.3-3.97l-.1.04-.09-.17c-.03-.05-2.84-5.1-3.76-6.2-.24-.29-.51-.55-.79-.82-.82-.78-1.75-1.66-2.46-3.8-.76-2.27-1.14-2.68-2.27-3.88-.26-.27-.55-.58-.89-.96-1.87-2.05-5.45-6.19-5.49-6.23l.32-.28c.12-.18.31-.43.61-.78.51-.57,1.36-.61,2.65-.67.62-.03,1.32-.06,2.13-.16,1.66-.19,2.05-1.46,2.37-2.48.13-.4.23-.75.4-1,.35-.52.34-.58.23-1.31-.05-.32-.11-.75-.17-1.39-.13-1.41-1.07-2.34-2.86-2.82-1.65-.45-3.13-1.21-4.52-2.31-1.18-.93-3.84-2.33-5.78-3.36-1-.53-1.79-.94-2.14-1.17-.4-.25-.59-.6-.55-1,.07-.69.83-1.31,1.54-1.57.63-.23,2.94-.2,5.38-.17,1.72.02,3.51.05,4.51-.03.58-.05.86-.11.98-.16-.12-.08-.42-.23-1.12-.44-.91-.27-5.58-.65-5.63-.66v-.45s2.69-.41,9.28-3.47c4.7-2.18,7.02-6.06,7.96-8.09-2.26,2.33-5.89,3.87-7.25,4.17-.14.03-.58.12-.82-.15-.33-.36-.09-1.07.27-2.13.13-.37.26-.78.39-1.21.06-.21.1-.37.12-.49-.28.35-.79,1.13-1.6,2.64-1.47,2.77-5.3,4.21-7.36,4.99l-.33.12c-1.33.51-1.5.57-1.64.34-.14-.23,0-.35.88-1.18.18-.17.39-.36.62-.58,1.5-1.42,1.83-2.39,2.44-4.16.1-.3.21-.61.34-.96.29-.82.4-1.29.42-1.54-.18.19-.53.67-1.14,1.82-1.71,3.21-7.6,7.19-8.69,7.84-.25.15-.61.33-.87.11-.43-.36-.02-1.45.79-3.51l.22-.56c.21-.55.33-.9.39-1.13-.13.17-.3.44-.55.86-1.01,1.74-2.07,3.41-3.84,4.7-.89.64-1.28.81-1.56.66-.26-.14-.25-.48-.23-.88,0-.11,0-.23,0-.36,0-3.39-1.05-4.5-1.62-5.09-.09-.09-.16-.17-.22-.24l-.08-.1s-.07-.08-.1-.12c.04.17.1.42.2.77.61,2.14.16,4.53,0,5.22-.07.32-.22.54-.43.63-.41.18-.92-.12-1.41-.4-.82-.46-1.34-1.74-.75-3.02,3.02-5.55,2.97-9.02,2.92-11.8,0-.33-.01-.64-.01-.95,0-.79-.06-1.12-.11-1.25-.08.11-.2.32-.29.53.46,10.85-4.92,13.48-5.14,13.58l-.25.12-.07-.27c-.59-2.42-1.05-3.19-1.26-3.43-.06,1.75-.65,2.95-.68,3l-.15.3-.22-.25c-.2-.22-4.79-5.43-3.83-10.3.59-3.03.27-5.17-.03-6.29-.53,4.49-2.04,7.46-4.49,8.85-2.08,1.18-4.35.94-5.85.56l3.86,2.59-.04.16c-.46,1.74-1.4,2.98-2.8,3.67-2.57,1.27-5.94.4-7.34-.07,3.46,4.28,17.79,2.37,17.94,2.35l.13-.02.08.1s1.44,1.8,4.39,3.83c3.03,2.08,5.77,3.97,5.77,3.97l.31.21-1.31.68-.11-.08c-3.76-2.75-7.43-2.7-9.6-1.74-1.86.83-3.04,1.83-3.37,2.13,1.29,4.48,7.53,5.48,7.6,5.49l.28.04-.11.26c-1.02,2.56-1.21,7.44-.49,12.74.61,4.46-.42,8.81-.84,10.35l1.8-1.12.06.34c.01.06.25,1.57,0,2.85-.21,1.03.29,1.47,1.39,2.02,1.12.56,1.14,1.91,1.14,1.97v2.63l1.72-.98.04.34c.03.24.76,5.84.76,8.1s-.48,4.2-.74,5.25l-.02.09c-.18.72-.36,2.13-.45,2.83l1.58-.78-.13.48c-.07.28-1.79,6.85-3.04,9.6-.69,1.53-2.85,3.35-5.83,5.86-2.53,2.13-5.67,4.78-8.84,8.07-5.37,5.56-5.5,10.86-5.59,14.36-.02.92-.04,1.71-.15,2.39-.13.85-.06,1.41.2,1.56.35.2,1.13-.26,1.45-.51l.18-.15.14.19s3.57,4.91,3.57,10.97-3.61,9.51-4.97,10.86l-.14.14c-.7.7-.63,1.27-.51,2.21.07.58.17,1.29.07,2.19-.2,1.78-.15,4.43,1.23,6.92,1.12,2.01.57,8.21.06,12.7l-.03.28c-.22,1.98-.08,2.09.72,2.67l.2.15c.51.38,1.05.97,1.68,1.66.63.69,1.35,1.48,2.11,2.11.37.3.69.41.96.3.53-.2.99-1.22,1.19-2.67.22-1.52-.35-1.77-.35-1.77l.13-.37c-.41-.32-1.38-1.18-2.69-2.92-1.6-2.14-1.1-7.44-.58-13.05l.15-1.65c.46-5.07.82-5.37,4.26-8.31.85-.72,1.9-1.62,3.19-2.8,6.13-5.59,9.9-14.95,10.14-15.57h0c.01-.06,1.31-5.86,1.13-9.01-.19-3.24,1.29-5.87,1.36-5.98l.39.22s-1.48,2.63-1.29,5.73c.17,2.95-.89,8-1.1,8.97.52.34,2.62,1.69,6.49,4.27,3.61,2.41,3.65,2.87,2.83,5.67-.19.66-.43,1.48-.66,2.51-1.16,5.23-.89,6.37-.04,7.56.96,1.35,2.1,2.44,4.83,3.71,2.85,1.33,3.07,1.53,5.95,5.36,2.93,3.9,4.42,4.67,6.85,5.02,2.81.4,2.84,1.68,2.84,1.74h-.45.23-.23s-.08-.95-2.45-1.29c-2.85-.4-4.39-1.52-7.15-5.19-2.84-3.77-3-3.92-5.78-5.22-2.82-1.31-4-2.45-5.01-3.85-1.01-1.41-1.17-2.82-.04-7.92.23-1.04.47-1.87.67-2.54.75-2.58.83-2.85-2.65-5.17-3.65-2.43-5.73-3.77-6.38-4.2-.65,1.6-4.35,10.22-10.17,15.51-1.3,1.18-2.35,2.08-3.2,2.81-3.38,2.89-3.66,3.12-4.1,8.01l-.15,1.65c-.52,5.52-1.01,10.74.49,12.74,1.65,2.2,2.77,2.96,2.78,2.96l-.21.31c.26.23.62.79.42,2.13-.14.97-.52,2.66-1.48,3.02-.12.05-.25.07-.38.07ZM149.25,69.97c-.4,1.01-.91,2.1-1.55,3.28-.51,1.09,0,2.11.57,2.42.36.21.81.47,1.01.38.1-.04.15-.19.17-.32.15-.66.58-2.96,0-4.99-.09-.32-.16-.57-.2-.77ZM131.88,63.19c-.06.32-.09.98.11,1.89.15-.04.31-.09.46-.14-.11-.23-.27-.66-.49-1.48-.03-.12-.06-.21-.09-.27ZM181.71,215.49c-.75-2.1-2.34-2.16-4.36-2.24-.36-.01-.73-.03-1.11-.06-2.24-.17-2.71-.68-4.68-2.82-.28-.31-.6-.65-.96-1.03-2.67-2.86-4.5-5.34-6.48-10.28-1.63-4.07-.35-7.5,1.76-13.18.39-1.05.82-2.19,1.26-3.43,2.74-7.66-1.02-10.66-1.06-10.69l-.19-.15.16-.18s3.64-4.21,7.01-7.2c3.39-3.02,7.14-10.61,7.5-12.53.19-1.04.41-1.6.86-1.89-.72-.2-2.83-.84-3.79-1.47-1.11-.74-2.06-.9-4.4-.72-2.48.19-7.12-2.56-7.32-2.68l.23-.39s4.68,2.79,7.05,2.61c2.46-.18,3.47-.01,4.69.79,1.09.72,3.88,1.47,3.9,1.48l-.06.23c.55-.18,1.38-.13,2.66-.05.55.04.99.25,1.32.64,1.01,1.23.67,3.98.31,6.9-.1.84-.21,1.71-.28,2.53-.08.91-.16,1.64-.22,2.24-.25,2.3-.29,2.66.55,3.62,1.09,1.28.87,2.38.41,4.79l-.17.88c-.19,1.04.29,1.79.72,2.24.82.83,2.21,1.33,3.24,1.16l.07.45c-1.16.2-2.73-.36-3.64-1.29-.73-.75-1.03-1.66-.85-2.64l.17-.88c.45-2.34.64-3.3-.31-4.41-.96-1.11-.9-1.66-.65-3.97.06-.6.14-1.33.22-2.23.07-.83.18-1.7.28-2.55.33-2.69.68-5.48-.21-6.55-.24-.29-.57-.45-1-.48-2.79-.18-3.01-.19-3.35,1.7-.37,2.02-4.12,9.66-7.64,12.79-2.96,2.63-6.11,6.18-6.82,6.99.77.72,3.56,3.95,1.03,11.05-.44,1.24-.87,2.38-1.26,3.43-2.15,5.76-3.33,8.94-1.77,12.85,1.96,4.9,3.69,7.25,6.39,10.14.36.38.67.72.96,1.03,1.96,2.13,2.32,2.51,4.38,2.67.37.03.73.04,1.09.06,2.02.08,3.92.16,4.77,2.55l-.43.15Z"/>
        </g>
        <g id="path500">
          <path d="M314.46,230.73l-1.75-6.33.11-.09s2.21-1.9,2.76-6.84l.08-.71c.6-5.27,1.72-15.07-4.01-23.13-1.3-1.83-2.41-3.28-3.38-4.56-3.49-4.59-4.79-6.31-4.79-12.02v-2.96c-1.59,1.18-8.09,6.38-10.15,13.79-.79,2.84-.37,4.47,0,5.92.07.26.13.52.19.77.06.29.13.52.19.71.33,1.08.33,1.38-1.55,4.19-.08.09-5.5,5.9-6.98,9.04-.31.67-.6,1.35-.87,2-1.06,2.54-1.97,4.73-4.06,4.73h-.58c-1.14,0-1.15,0-1.3.26-.08.14-.19.34-.4.61l-1.63,2.04-4.14-2.27.1-.19c.03-.06.82-1.59,4.25-3.5,3.19-1.76,8.34-7.97,9.34-14.57.76-5.01-.02-9.39-.7-13.25-.69-3.9-1.28-7.26-.24-10.4,1.7-5.12,3.65-7.21,4.35-7.84-1.95-1.13-12.82-7.53-15.1-10.86-.76-1.11-1.17-1.59-1.37-1.79.02.08.04.18.07.26l.27,3.12-.48-.65c-.09-.12-2.11-2.91-2.88-6.13-.22-.95-.31-1.84-.4-2.63-.12-1.19-.22-2.14-.71-2.51-.24-.19-.61-.24-1.1-.17-.44.07-.85.1-1.21.13-1.7.14-2.55.21-3.14,3.46-.74,4.04-.38,12.63.08,13.37.41.19.72,1.01.65,1.75-.04.46-.31,1.53-1.83,1.84.77,4.84.21,7.77-1.67,8.71l-.2-.4c1.69-.85,2.17-3.77,1.39-8.46l-.04-.23.23-.03c1.28-.18,1.62-.9,1.67-1.47.06-.68-.25-1.25-.39-1.3-.88-.3-.98-10.35-.34-13.86.65-3.6,1.81-3.69,3.55-3.83.37-.03.75-.06,1.17-.13.62-.1,1.1-.01,1.45.25.64.49.75,1.52.88,2.82.08.77.17,1.65.39,2.57.51,2.18,1.66,4.2,2.32,5.24l-.12-1.39c-.26-.75,0-.88.07-.92.25-.13.56-.06,2.04,2.1,2.4,3.5,15.11,10.81,15.24,10.89l.31.18-.29.21s-2.43,1.75-4.45,7.83c-1.01,3.03-.43,6.35.25,10.18.69,3.9,1.47,8.31.7,13.4-1.03,6.83-6.22,13.04-9.57,14.9-2.6,1.45-3.63,2.67-3.95,3.12l3.4,1.87,1.39-1.74c.19-.24.28-.41.36-.54.28-.5.38-.5,1.69-.49h.58c1.79,0,2.65-2.06,3.65-4.45.27-.66.56-1.34.88-2.02,1.51-3.21,6.81-8.89,7.04-9.13,1.8-2.7,1.74-2.88,1.47-3.78-.06-.21-.13-.44-.2-.74-.06-.25-.12-.5-.19-.76-.39-1.5-.82-3.2,0-6.15,2.39-8.6,10.6-14.25,10.68-14.3l.35-.24v3.83c0,5.56,1.28,7.24,4.7,11.74.97,1.28,2.08,2.73,3.39,4.57,5.83,8.2,4.7,18.11,4.09,23.44l-.08.71c-.5,4.55-2.33,6.58-2.81,7.04l1.3,4.7c.12-.27.29-.64.52-1.1l.16-.32c.62-1.27,1.67-3.39,2.76-4.12.25-.17.47-.25.65-.32.53-.2.71-.27.57-4.01-.19-4.95.2-9.73,1.33-16.49.85-5.08.73-5.35-.34-7.91-.36-.86-.81-1.93-1.36-3.5-1.91-5.44-1.15-6.94.24-9.66.28-.54.59-1.15.91-1.85,1.86-4.1,3-7.69,3.02-7.72l.06-.18.18.02s.56.05.92-.31c.28-.27.39-.73.34-1.34,0-4.52-3.45-8.49-10.71-15.15-6.97-6.4-8.19-13.1-8.2-13.17l.17-.03c-.35-1.34-.3-2.1.15-2.4.32-.21.74-.1,1.06.04-.75-3.74,1.21-7.54,1.6-8.24-1.66-3.35-1.49-4.52-1.48-4.57l.02-.1,1.45-.9c-.8-2.55-1.97-6.67-1.37-7.08l.07-.03,1.33-.33c-.16-3.29.2-5.88.2-5.91l.03-.22,1.85.19c-.02-1,0-4.74.95-9.24.31-1.45.63-2.29.89-2.97.68-1.78.89-2.32-.89-9.98l-.05-.21.21-.06c5.45-1.6,5.87-4.16,5.89-4.74-.61-.3-3.51-1.62-6.95-1.62-2.27,0-2.63-.66-2.64-1.05-.03-.79,1.34-1.56,2.99-1.67,8.94-1.06,15.61-9.55,16.86-11.25.95-1.28,1.05-1.92.86-2.07-.35-.28-1.72.24-2.4,1.04-.39.46-.53.68-.65.88-.23.38-.42.68-2.01,2.16-1.38,1.28-2.29,1.74-2.77,1.4-.4-.28-.36-1.03.14-2.22.14-.33.16-.49.17-.56-.36.06-1.57.96-2.56,1.7-.67.5-1.43,1.07-2.19,1.59-2.27,1.56-2.66,1.12-2.79.97-.45-.52.54-1.76,1.16-2.45.7-.76.69-.97.69-.98-.09-.02-.78.1-2.5.96-1.88.94-6.03,2.45-6.07,2.46l-.24.09-.06-.24c-.04-.17-.28-1.75,4.46-4.41,4.61-2.58,11.05-7.82,12-10.27.54-1.4.43-2.24.3-2.32,0,0-.36.05-1.02,1.54-.61,1.39-1.27,2.12-2.08,2.32-.85.2-1.82-.2-3.23-1.35-1.92,1.62-3.39,2.2-4.37,1.73-.75-.36-1.01-1.23-1.11-1.86-.26.43-.65,1.06-1.14,1.85-.84,1.34-2.15,1.65-3.52.82l-.09-.05c-.81-.49-1.18-.71-3.8,1.73-.8.74-1.7.95-2.61.59-2.1-.83-3.69-4.41-3.82-6.41-.03-.39-.1-1.47-.21-1.89-.14.26-.37.85-.68,1.76-.83,2.48-.39,5.77,1.32,10.05.53,1.33.61,2.11.24,2.54-.44.5-1.31.29-2.23.07-.37-.09-.75-.18-1.08-.22-2.09-.24-6.78-4.82-7.7-5.74-.38-.38-1.06-1.06-1.33-1.22-.02.14,0,.42,0,.67,0,.22.02.48.02.77,0,1.81,1.1,4.23,1.11,4.25l.24.53-.54-.23c-.24-.1-5.93-2.5-8.01-4.59-1.04-1.04-1.49-1.1-1.56-1.04-.11.08-.09.63.41,1.53.11.2.22.44.34.7.84,1.81,2.25,4.83,10.46,5.98,8.74,1.22,11.97,3.15,11.54,6.87l-.02.18-.18.02c-10.69.88-14.93-2.9-16.32-4.15-.12-.1-.21-.19-.29-.25-.08-.07-.12-.07-.12-.07-.11.13-.08,1.13.11,2.12l.07.38-.36-.12c-.17-.05-4.05-1.37-5.77-3.28-.59-.65-.81-.67-.82-.67h0c-.07.15.19,1.23,1.17,2.46,6.65,8.48,22.21,6.61,22.36,6.59l.13.43s-3.01,1.51-4.23,2.73c-1.26,1.26-2.27,1.56-3.8,1.7-.57.04-1.09.06-1.59.09-3.04.16-5.05.27-8.05,1.65-3.21,1.5-2.97,4.49-2.39,6.93.29,1.25,1.64,1.71,2.84,2.11.72.24,1.34.46,1.65.82.69.79,2.59.9,3.11.57.22-.13.37-.32.55-.54.28-.35.63-.78,1.36-1.11.72-.31,1.22-.33,1.5-.06.29.29.27.81-.06,1.61-.65,1.56-5.02,6.17-7.24,8.39-1.66,1.65-1.67,1.8-1.74,2.53-.02.2-.04.43-.09.74-.13.78.14,1.21.4,1.63.21.34.43.68.36,1.15-.14.92-.27,1.19-1.43,2.86-.38.54-.79,1.05-1.19,1.54-.75.93-1.47,1.81-1.54,2.51-.13,1.19-3.03,3.65-3.36,3.93l-.12.1-.14-.08c-1.63-.99-3.47-2.07-5.25-3.12-2.75-1.62-5.35-3.15-6.73-4.07-.3-.2-.55-.37-.78-.53-1.54-1.06-1.91-1.31-5.02-1.31-4.21,0-4.95,5.82-5.07,7.6l-.45-.03c.13-1.88.92-8.02,5.52-8.02,3.25,0,3.72.32,5.28,1.4.23.16.48.33.78.53,1.37.91,3.96,2.44,6.71,4.05,1.73,1.02,3.52,2.07,5.12,3.04.93-.8,2.98-2.71,3.07-3.53.09-.83.81-1.72,1.64-2.74.39-.48.8-.99,1.17-1.52,1.15-1.66,1.23-1.86,1.35-2.67.04-.3-.11-.54-.3-.84-.28-.44-.62-.99-.46-1.94.05-.29.07-.52.09-.71.08-.86.15-1.1,1.87-2.81,2.55-2.56,6.56-6.86,7.14-8.25.35-.84.21-1.07.16-1.12-.1-.1-.41-.11-1,.15-.63.28-.92.63-1.19.98-.2.24-.38.47-.67.64-.72.45-2.87.29-3.69-.67-.23-.27-.83-.48-1.46-.69-1.24-.42-2.78-.95-3.13-2.44-.36-1.53-1.32-5.59,2.64-7.44,3.08-1.42,5.12-1.53,8.21-1.69.5-.03,1.02-.05,1.58-.09,1.45-.13,2.34-.4,3.51-1.57.82-.82,2.34-1.73,3.35-2.29-3.75.26-15.91.47-21.65-6.86-.92-1.16-1.58-2.68-1.08-3.1.44-.37,1.18.45,1.43.72,1.35,1.5,4.21,2.65,5.22,3.03-.13-.85-.22-1.97.2-2.22.12-.07.33-.11.61.11.08.06.18.15.31.26,1.35,1.2,5.44,4.85,15.8,4.05.23-2.75-1.67-4.86-11.17-6.18-8.45-1.18-9.93-4.35-10.81-6.24-.11-.25-.22-.47-.33-.67-.57-1.03-.68-1.82-.29-2.12.4-.31,1.13.06,2.16,1.08,1.67,1.66,5.88,3.61,7.35,4.27-.34-.84-.93-2.51-.93-3.91,0-.28,0-.54-.02-.76-.02-.68-.03-1.02.24-1.14.31-.13.65.15,1.86,1.36,2.49,2.48,5.92,5.44,7.43,5.61.36.04.76.14,1.14.23.72.17,1.53.37,1.78.08.16-.18.23-.69-.32-2.07-1.76-4.39-2.19-7.78-1.33-10.36.64-1.92.84-2.22,1.18-2.19.35.05.46.5.58,2.43.13,1.91,1.67,5.28,3.54,6.02.74.29,1.46.13,2.13-.5,2.75-2.56,3.31-2.4,4.34-1.79l.09.05c.67.4,1.95.86,2.9-.67.94-1.51,1.51-2.46,1.51-2.46l.42.12s-.05,1.73.9,2.18c.57.27,1.73.18,4.02-1.79l.15-.13.15.12c1.36,1.14,2.25,1.55,2.98,1.38.65-.15,1.23-.83,1.77-2.06.6-1.37,1.14-1.98,1.61-1.78.6.25.43,1.65-.05,2.9-.98,2.53-7.52,7.89-12.2,10.51-3.27,1.84-4.03,3.09-4.19,3.62,1.04-.38,4.14-1.54,5.68-2.32,2.67-1.34,2.95-.96,3.08-.8.22.29,0,.73-.73,1.53-1.12,1.23-1.2,1.78-1.16,1.85h0s.37.19,2.19-1.05c.75-.52,1.51-1.08,2.17-1.58,1.93-1.45,2.73-2.02,3.13-1.71.27.21.13.68-.05,1.1-.48,1.15-.4,1.6-.3,1.67.02.01.44.27,2.2-1.36,1.55-1.44,1.72-1.71,1.93-2.06.13-.21.27-.45.69-.94.69-.8,2.35-1.63,3.02-1.1.51.4.25,1.31-.78,2.69-1.27,1.72-8.04,10.35-17.18,11.43-1.58.11-2.6.79-2.58,1.2,0,.23.48.61,2.19.61,3.98,0,7.15,1.66,7.29,1.73l.1.06v.12c.03.14.33,3.35-5.99,5.28,1.76,7.6,1.52,8.22.82,10.03-.25.66-.57,1.49-.87,2.91-1.11,5.19-.94,9.34-.94,9.39v.26s-1.92-.2-1.92-.2c-.08.7-.31,3-.16,5.79v.19s-1.57.39-1.57.39c-.04.27-.06,1.57,1.56,6.73l.05.17-1.56.97c0,.33.12,1.57,1.49,4.31l.06.11-.06.11s-2.58,4.5-1.49,8.52l.17.63-.53-.39c-.23-.17-.78-.48-1.01-.31-.09.06-.37.39.04,1.97l-.17.04c.09.49,1.44,6.8,8.05,12.88,7.35,6.75,10.85,10.79,10.85,15.46.07.74-.09,1.32-.47,1.69-.37.36-.84.43-1.1.44-.25.75-1.34,3.98-2.98,7.61-.32.71-.64,1.33-.92,1.87-1.38,2.69-2.07,4.05-.22,9.3.55,1.56.99,2.62,1.35,3.47,1.11,2.67,1.23,2.95.36,8.16-1.13,6.73-1.51,11.48-1.32,16.4.15,3.92-.04,4.14-.86,4.45-.16.06-.35.13-.56.27-.99.66-2.04,2.79-2.6,3.94l-.16.32c-.55,1.1-.75,1.67-.75,1.67l-.24.69ZM263.31,161.73s0,0,0,0t0,0ZM151.76,180.85l-.19-.41s2.51-1.15,5.9-2.09c2.34-.65,3.38-1.83,4.14-2.69.32-.37.6-.69.91-.87.91-.54,3.52-3.32,3.55-3.35l.33.31c-.11.12-2.68,2.86-3.65,3.43-.25.15-.49.43-.8.78-.75.85-1.89,2.15-4.36,2.83-3.35.93-5.81,2.05-5.83,2.07ZM261.81,137.59l-.18-.42,4.59-1.94-2.01-1.84.31-.33,2.06,1.89-.02-.05,4.96-1.66c.05-.61.26-2.66.79-3.37.18-.24.2-.42.22-.67.03-.42.07-.94.94-1.81.81-.81,1.68-1.2,2.53-1.59.58-.26,1.13-.51,1.66-.89,1.3-.93,2.25-1.68,2.26-1.69l.28.36s-.97.76-2.27,1.7c-.56.4-1.16.67-1.73.93-.81.37-1.65.75-2.4,1.5-.75.75-.78,1.14-.81,1.52-.02.28-.04.56-.31.91-.43.58-.66,2.57-.71,3.29v.15s-5.05,1.68-5.05,1.68l.13.12-5.24,2.22ZM166.26,97.35c-.54,0-1.06-.08-1.24-.14l.14-.43c.39.13,1.8.2,2.19-.09.09-.07.19-.15.29-.24.49-.42,1.16-.99,2.44-1.31,1.49-.38,3.5-1,3.52-1.01l.13.43s-2.04.63-3.54,1.01c-1.18.29-1.8.83-2.25,1.21-.11.1-.22.18-.31.26-.3.22-.84.29-1.37.29ZM156.35,81.41s-2.77-3.01-3.88-3.88c-1.07-.83-3.53-1.21-3.55-1.21l.07-.45c.11.02,2.59.4,3.76,1.31,1.14.89,3.82,3.81,3.94,3.93l-.33.31ZM158,81.3s-.44-.48-.94-2.37c-.41-1.54.16-1.87.82-2.24.24-.13.5-.29.76-.51,1.02-.88,4.07-2.48,4.2-2.54l.21.4s-3.14,1.63-4.12,2.48c-.29.26-.58.42-.84.57-.62.35-.93.53-.6,1.73.47,1.76.82,2.17.83,2.17l-.33.31ZM143.41,73.57s-.1,0-.15,0c-.45-.05-.85-.29-1.17-.73l.37-.27c.24.33.53.52.85.55.61.06,1.21-.46,1.21-.46l.3.34s-.65.58-1.41.58ZM135.79,71.81c-.59,0-1.59-.1-2.14-.72-.37-.42-.47-1-.29-1.72l.31.08c-1.23-.86-2.3-1.32-2.32-1.32l.17-.42c.13.05,3.11,1.31,4.89,3.73l.23.31-.39.04s-.2.02-.46.02ZM133.78,69.52c-.12.54-.05.96.2,1.26.43.49,1.28.57,1.79.57-.6-.73-1.32-1.34-1.99-1.83Z"/>
        </g>
        <g id="path502">
          <path d="M303.73,173.7l-.45-.08s.35-2.06-.93-5.17l.42-.17c1.34,3.24.98,5.34.96,5.42ZM268.95,144.78l-.08-.45c.09-.02,9.11-1.7,12.28-2.45,3.21-.75,3.81-.76,3.84-.76v.45s-.63.02-3.73.75c-3.18.75-12.21,2.44-12.3,2.45ZM274.8,126.26l-.45-.05c0-.07.21-1.78.97-3.12l.39.23c-.72,1.26-.92,2.92-.92,2.94ZM278.33,122.17c-.09,0-.17,0-.25-.02-.8-.14-1.22-.88-1.24-.91l.4-.22s.34.59.92.68c.41.07.88-.12,1.37-.56l.3.34c-.51.46-1.02.69-1.5.69ZM281.61,113.65s-.09,0-.14-.01c-.35-.06-.47-.34-.48-.37l.42-.17-.21.08.21-.09s.05.09.15.1c.15.02.6-.04,1.56-1.09,1.67-1.86,2.43-2.99,2.43-3l.38.25s-.78,1.17-2.47,3.05c-.76.84-1.36,1.25-1.84,1.25ZM270.6,104.31l-1.93-3.98-.48,2.14-.3-.42c-.04-.05-.92-1.32-1.42-3.86-.33-1.65-.66-3.36-.85-4.34l-.89,2.55-.25-.41c-.05-.08-1.1-1.86-1.51-5.08l-.77.33-.11-.14c-.07-.09-1.58-2.09-2.93-6.66l-1.27,1.85-2.46-2.57-.55,1.65-.13.03c-.08.02-2.06.37-3.89-2.37l-1.21,2.55-.19-.07c-.07-.03-1.63-.59-2.28-1.76l-1.5,1.13-1.76-3.05-.57,1.83-.26-.18c-.2-.14-1.65-1.21-2.31-2.02l-.71,2.48-1.83-1.46c-.06,1.47.15,2.97.35,4.42.06.43.12.86.17,1.29.26,2.09,1.16,5.46,2,7.49.18.44.31.74.39.93.17.4.22.52.11.62,0,.04,0,.12.02.27l.04.31c.11.83.18,1.38-.18,2.44-.44,1.31-1.6,2.16-3.09,2.29-1.07.09-1.58.11-2.59.16l-1.58.08c-1.5.09-1.77,0-2.19-.16-.17-.07-.37-.14-.76-.22-1.44-.29-1.44-1.84-1.44-4q0-1.68-.44-2.64c-.11-.24-.25-.54-.42-.93-.65-1.48-.86-1.46-1.55-1.4-.18.02-.39.03-.63.03-.21,0-.35.04-.43.13-.19.21-.13.77-.07,1.41.04.41.09.88.09,1.39,0,1.16.06,1.43.13,1.77.04.18.08.38.12.71.14,1.17-.48,2.63-1.93,3.03l-.19.05c-1.33.36-2.57.7-4.19.45-.88-.13-1.44-.3-1.98-.47-.5-.15-.97-.29-1.68-.41-1.38-.23-2.17-1.27-2.33-3.1-.13-1.37.11-2.38.35-3.45l.03-.14c.22-1.03.45-2.04.49-2.23-.03-.34-.23-2.75-.01-4.21-1.53-1.89-.96-3.49-.69-4.03l-2.39-1.73c-.81,1.53-2.29,2.46-2.36,2.5l-.22.14-1.08-2.39c-1.22,1.65-3.39,3.17-3.48,3.24l-.25.18-.56-1.78c-.81,1.18-2.67,1.98-2.76,2.02l-.17.07-.91-1.36c-1.37,2.29-2.9,2.78-2.97,2.8l-.07.02-.07-.03c-.92-.34-1.16-1.36-1.2-2.15-.74,1.36-2.14,3.94-2.69,4.94-.33.6-.7.96-1.12,1.06-.4.1-.68-.07-.71-.09l-.06-.06-.66-1c-.9,2.41-3.54,4.95-3.66,5.06l-.14.13-.81-.59-1.92,3.97-.89-1-1.87,3.73-.2-.1h-.23c-.98-15.48,3.3-36.12,15.07-47.27,7.72-6.53,11.47-5.38,12.73-4.59,1.43.91,2.03,2.74,1.51,4.68-1.57,5.56,1.67,7.94,5.78,10.95.65-1.05,3.53-5.93,1.54-7.82-1.81-1.72-2.41-1.93-2.54-1.96l-.08.05-.13-.1s-.51-.39-.59-1.23c-.28-.02-.86-.02-1.62.15-.46.1-.81.03-1.04-.22-.37-.41-.37-1.21.02-2.46.28-.93.9-1.66,1.73-2.06,1.04-.5,2.37-.46,3.86.1.42-.32,2.01-1.32,4.4-.46,3.08,1.11,5.99,2.47,7.7,6.93,1.43,3.76,1.89,4.39,2.58,5.34.09.13.19.26.29.41.77,1.09,3.17,4.78,3.77,5.71.77-.66,3.61-3.2,3.47-5.18-.05-.65-.41-1.17-1.12-1.59-2.94-1.74-4.68-4.96-3.95-7.34.3-.98,1.3-2.6,4.59-2.4,6.56.39,16.2,3.91,20.33,8.9.2.24.41.5.64.77,4.75,5.66,14.62,17.44,11.01,42.36l-.11.73ZM268.82,99.6l1.54,3.18c3.29-24.22-6.35-35.71-11.01-41.27-.23-.27-.44-.53-.64-.77-4.05-4.9-13.54-8.35-20.01-8.74-2.22-.14-3.68.61-4.13,2.09-.66,2.15,1.03,5.21,3.75,6.82.83.49,1.28,1.15,1.34,1.95.17,2.52-3.67,5.6-3.83,5.73l-.2.15-.14-.21s-.48-.74-1.09-1.68c.03.22.1.5.23.85.38,1.04.39,1.93.39,1.97v.19l-.91.14c-.05.3-.17.93-.36,1.51-.21.64.35,1.56.35,1.57l-.34.29-1.46-1.25-.37,2.09-1.93-1.29-.65,1.93-1.46-1.32-.84,1.21-1.48-.73-.94,2.01-1.42-1.81-1.31,1.83-.85-1.82-.22.44-.73-1.1-.93,2.28-.21-.53c-.16-.42-.72-1.54-1.33-1.63l-.34-.05c-.62-.08-.9-.12-1.26-.36-.37-.24-.46-1.25-.48-1.9l-1.34.39,1.31-5.74c-4.22-3.09-7.53-5.56-5.89-11.39.46-1.74-.06-3.38-1.32-4.18-1.17-.74-4.7-1.78-12.18,4.54-11.37,10.78-15.7,31.24-14.97,46.07l1.69-3.37-.05-.03c.17-.31.37-2.02.61-4.01.58-4.94,1.55-13.22,3.93-18.4l.41.19c-2.34,5.12-3.31,13.35-3.89,18.27-.28,2.42-.44,3.66-.63,4.1l.6.68,1.71-3.54-.1-.04c.13-.32.3-1.53.52-3.07.62-4.32,1.65-11.56,3.78-14.98l.39.24c-2.08,3.34-3.11,10.52-3.72,14.8-.2,1.41-.34,2.41-.47,2.92l.69.5c.6-.61,3.05-3.16,3.59-5.31.22-.88.29-1.15.45-1.19.03-.22.06-.43.09-.63.41-2.97.7-5.12,2.51-9.41l.42.18c-1.79,4.23-2.08,6.36-2.48,9.29-.05.35-.1.72-.15,1.1h-.08c-.02.22-.08.55-.16,1.05l.67,1.01c.05.02.18.06.33.01.28-.08.57-.37.82-.84.66-1.2,2.53-4.66,3.03-5.57l.99-3.57.44.12-.93,3.35.05.02s-.32,2.13.79,2.63c.32-.13,1.63-.77,2.78-2.82l-.09-.04.76-1.9.42.17-.67,1.67.91,1.36c.54-.26,2.22-1.12,2.61-2.19l.23-.63.74,2.35c.66-.49,2.45-1.89,3.34-3.27l.23-.35,1.19,2.65c.46-.33,1.54-1.19,2.09-2.4l.12-.25,3.18,2.3-.13.18c-.05.07-1.13,1.67.62,3.76l.07.08-.02.1c-.24,1.46,0,4.2,0,4.23v.04s0,.03,0,.03c0,0-.25,1.12-.5,2.27l-.03.14c-.25,1.08-.46,2.02-.34,3.31.14,1.62.78,2.5,1.95,2.69.74.12,1.24.28,1.73.43.53.16,1.08.33,1.92.46,1.52.23,2.72-.09,4-.44l.19-.05c1.2-.33,1.72-1.56,1.6-2.54-.04-.32-.08-.51-.11-.67-.08-.37-.14-.65-.14-1.86,0-.48-.05-.94-.09-1.34-.08-.78-.15-1.4.18-1.76.17-.19.42-.28.77-.28.23,0,.42-.02.59-.03.93-.08,1.29.03,2.01,1.67.17.39.31.68.42.92.49,1.05.49,1.08.49,2.83,0,2.26.05,3.35,1.07,3.55.43.09.66.17.84.25.33.13.53.21,2,.12l1.59-.08c1-.05,1.51-.08,2.57-.16,1.31-.11,2.32-.85,2.7-1.98.32-.96.26-1.44.16-2.23l-.04-.31c-.03-.26-.03-.41,0-.52-.02-.05-.05-.13-.11-.26-.08-.19-.21-.49-.39-.93-.85-2.07-1.77-5.48-2.03-7.61-.05-.43-.11-.86-.17-1.29-.22-1.57-.44-3.2-.33-4.81h.16s.23-.28.23-.28l1.62,1.3.86-3.02.23.69c.15.45,1.33,1.45,2.19,2.09l.69-2.21,2.02,3.5,1.55-1.17.11.28c.37.92,1.49,1.49,1.94,1.68l.99-2.1c-.52-1-.56-1.21-.44-1.32l-.77-1.74.41-.18.97,2.17c.15.2.36.5.66.94,1.41,2.12,2.86,2.21,3.3,2.19l.64-1.93-1.45-4.34.43-.14,1.51,4.53-.17.06,2.32,2.43,1.14-1.66c-.66-2.28-2.19-6.29-2.21-6.34l.42-.16s1.41,3.68,2.11,6.02l.03-.04.13.47c1.16,4.11,2.51,6.28,2.89,6.83l.67-.28c-.21-1.21-1.26-7.08-2.6-11.2l.43-.14c1.5,4.62,2.64,11.43,2.65,11.49l-.12.02c.26,2.36.9,3.99,1.25,4.73l.71-2.05h-.02s-.26-3.56-.76-6.65c-.49-3.09-1.61-5.85-1.62-5.87l.42-.17s1.15,2.83,1.65,5.97c.34,2.12.57,4.43.68,5.71l.04-.12.16.83s.51,2.64,1.01,5.16c.31,1.56.77,2.63,1.06,3.2l.38-1.69c-.03-.52-.29-5.1-.88-8.75-.62-3.83-1.12-5.36-1.13-5.37l.43-.14c.02.06.52,1.57,1.15,5.45.59,3.7.86,8.36.88,8.81ZM223.2,73.45l1.34,1.71.82-1.76,1.55.76.91-1.31,1.32,1.2.61-1.84,1.85,1.23.38-2.19,1.34,1.14c-.09-.33-.12-.7-.01-1.04.24-.73.36-1.59.36-1.59l.02-.17.85-.13c-.02-.3-.1-.93-.35-1.61-.39-1.03-.27-1.59-.26-1.65h.04c-.89-1.35-1.94-2.94-2.4-3.59-.1-.15-.2-.28-.29-.4-.71-.98-1.18-1.63-2.63-5.45-1.64-4.28-4.45-5.6-7.43-6.67-2.49-.9-3.99.4-4.06.46l-.1.09-.13-.05c-1.42-.56-2.67-.62-3.62-.16-.72.35-1.25.98-1.5,1.79-.45,1.45-.23,1.89-.12,2.02.11.12.32.15.61.09,1.16-.25,1.94-.14,1.97-.14l.19.03v.2c0,.59.25.91.36,1.03.47.04,1.43.74,2.85,2.09,2.5,2.37-1.43,8.34-1.6,8.6l-.13.2-.05-.03-1.09,4.8,1.18-.34v.3c0,.86.13,1.71.28,1.82.28.19.48.21,1.07.29l.35.05c.68.1,1.19.89,1.47,1.42l.84-2.06.78,1.17.29-.57.91,1.96,1.21-1.69ZM283.92,99.32c-.85,0-1.52-.49-1.53-.5l.27-.36c.06.04,1.38,1,2.54-.16l.3-.31c1.25-1.28,2.67-2.74,5.77-2.02l-.1.44c-2.83-.66-4.11.64-5.34,1.9l-.31.31c-.53.53-1.1.7-1.6.7ZM306.03,90.55v-.45s1.4,0,3.39-.11c1.32-.09,2.19-.08,2.39.03l-.22.4.11-.2-.08.21s-.35-.11-2.17.02c-2.01.11-3.41.11-3.42.11Z"/>
        </g>
        <g id="path504">
          <path d="M218.3,110.19c-.51,0-.93-.22-1.25-.39-.19-.1-.41-.21-.5-.18-.37.16-.96.1-1.65.03-.24-.03-.48-.05-.72-.07-.85-.06-1.72,0-1.73,0h-.03s-.03,0-.03,0c-.33-.07-.5-.71-.5-1.93s.93-1.67,2.34-2.34c.7-.34,1.58-.76,2.55-1.37,1.78-1.12,1.89-1.62,1.88-1.75,0-.07-.06-.1-.08-.11l.17-.42c.12.05.33.2.36.48.05.55-.63,1.26-2.09,2.18-1,.63-1.89,1.06-2.6,1.4-1.45.69-2.09,1.04-2.09,1.94,0,1.01.12,1.36.18,1.47.26-.01.97-.05,1.69,0,.25.02.5.04.74.07.57.06,1.16.12,1.42,0,.28-.12.58.04.88.2.38.2.82.43,1.36.3,1.03-.24,2.15-.79,2.16-.8l.43-.22-.06.28c.12.04.33.11.69.23l.22.07q.46.16.9.06c.16-.04.37-.08.67-.14,1.08-.21,1.88-.41,2.12-.48.14-.19.57-.85.46-1.54-.08-.47-.4-.87-.94-1.21-1.31-.79-2.16-1.16-2.66-1.39-.32-.14-.51-.23-.65-.33-.46-.36-.7-1.5-.77-1.84l.45-.09c.15.76.4,1.4.61,1.57.09.07.28.16.55.27.51.23,1.37.6,2.71,1.41.67.41,1.06.92,1.16,1.52.17,1.02-.57,1.92-.6,1.96l-.04.05-.07.02s-.91.26-2.23.51c-.29.05-.5.1-.65.13-.55.12-.59.12-1.14-.07l-.21-.07c-.4-.13-.65-.21-.81-.28-.3.14-1.24.58-2.16.79-.15.03-.28.05-.42.05ZM234.26,109.96l-.06-.03s-1.29-.67-.81-2.58c.2-.82.15-1.1.12-1.18-.27.22-1.48,1.24-1.9,2.03-.52.98-.93,1.15-1.01,1.18h-.05c-.86.07-1.79.26-1.8.26l-.12.02-.09-.09c-.06-.06-.55-.6-.38-2.26.13-1.36.92-1.62,2.01-1.99.57-.19,1.28-.43,2.07-.89,1.12-.66,1.32-1.14,1.33-1.36.02-.25-.16-.4-.16-.4l.28-.36c.14.1.36.39.34.78-.04.57-.56,1.15-1.56,1.73-.83.48-1.56.73-2.16.93-1.06.36-1.6.54-1.7,1.6-.11,1.09.09,1.61.19,1.8.3-.06.99-.18,1.67-.22.07-.04.36-.24.74-.95.52-.97,2.01-2.16,2.07-2.21.13-.07.33-.12.5.02.27.21.29.73.05,1.67-.34,1.36.33,1.91.52,2.04l1.13-.1.16-1.57c.06-.61,0-1.78,0-1.8v-.15s.13-.07.13-.07c.12-.06.47-.12,1.14.54.65.65.8.81,1.19,1.99l.08.25c.1.28.17.5.21.6h.06c.15,0,.88-.16,1.39-.29.16-.2.73-.95.65-1.63-.03-.3-.19-.55-.47-.76-.37-.27-.81-.52-1.27-.78-1.22-.69-2.61-1.48-3.27-2.96l.41-.19c.61,1.34,1.87,2.06,3.09,2.75.47.27.92.52,1.31.81.39.28.61.65.66,1.08.11.99-.77,1.99-.81,2.03l-.05.05-.07.02c-.22.05-1.3.32-1.57.32-.38.02-.43-.1-.7-.9l-.08-.25c-.35-1.08-.46-1.19-1.07-1.79-.22-.22-.39-.34-.5-.4.01.4.03,1.12-.01,1.57l-.2,1.94-1.64.15ZM229.28,97.85c-1.21,0-2.91-.12-3.64-2.67l.44-.12c.67,2.36,2.19,2.35,3.39,2.34h.18s0,.45,0,.45h-.18c-.06,0-.12,0-.18,0ZM241.17,96.71l-.12-.44c.59-.17.69-.76.71-.97-.49-.6-.59-.76-.41-.92.18-.17.34-.01.67.33.79.78,2.06.56,2.07.56.36-.13.58-.3.61-.5.11-.7-1.56-1.97-3.17-3.2-1.06-.81-2.15-1.64-2.98-2.46l.32-.32c.8.8,1.88,1.63,2.93,2.42,1.88,1.43,3.5,2.67,3.35,3.63-.06.38-.38.67-.95.87-.08.02-1.11.19-2-.3-.05.44-.31,1.1-1.04,1.3ZM205.31,79.83c-.06,0-.12-.01-.17-.03-.47-.16-.46-.88-.45-1.65v-.3h.46v.3c0,.35-.02,1.16.14,1.21.06.03.5.02,2.23-2.28l.36.27c-1.53,2.04-2.18,2.47-2.57,2.47ZM245.64,79.83c-.39,0-1.04-.44-2.57-2.47l.36-.27c1.73,2.31,2.16,2.31,2.23,2.28.15-.05.14-.86.14-1.21v-.3s.45,0,.45,0v.3c.01.77.02,1.49-.44,1.65-.05.02-.11.03-.17.03ZM251.94,78.07c-.39,0-1.04-.44-2.57-2.47l.36-.27c1.73,2.31,2.16,2.31,2.23,2.29.16-.05.15-.87.14-1.22v-.31s.45,0,.45,0v.3c.01.77.02,1.5-.45,1.65-.05.02-.11.03-.17.03ZM199.01,78.07c-.06,0-.12-.01-.17-.03-.47-.16-.46-.88-.45-1.65v-.3h.46v.31c0,.35-.02,1.17.14,1.22.07.02.49.02,2.23-2.29l.36.27c-1.53,2.04-2.18,2.47-2.57,2.47ZM210.11,76.31c-.06,0-.12-.01-.17-.03-.47-.16-.46-.88-.45-1.65v-.3h.46v.3c0,.35-.02,1.16.14,1.22.08.02.5.02,2.23-2.28l.36.27c-1.53,2.03-2.18,2.47-2.57,2.47ZM240.84,76.31c-.39,0-1.04-.43-2.57-2.47l.36-.27c1.73,2.3,2.15,2.31,2.23,2.28.15-.05.14-.86.14-1.21v-.31s.45,0,.45,0v.3c.01.76.02,1.49-.44,1.65-.05.02-.11.03-.17.03ZM251.19,74.92c-.39,0-1.04-.43-2.57-2.46l.36-.27c1.73,2.3,2.15,2.3,2.23,2.28.16-.05.14-.87.14-1.21v-.3s.45,0,.45,0v.3c.01.77.02,1.49-.44,1.65-.05.02-.11.03-.17.03ZM199.77,74.92c-.06,0-.12-.01-.17-.03-.47-.16-.46-.88-.45-1.64v-.3h.46v.31c0,.35-.02,1.16.14,1.21.06.02.48.04,2.23-2.28l.36.27c-1.53,2.03-2.18,2.46-2.57,2.46ZM255.09,74.54c-.39,0-1.04-.44-2.57-2.47l.36-.27c1.73,2.3,2.16,2.3,2.23,2.28.16-.05.15-.87.14-1.21v-.3s.45,0,.45,0v.3c.01.77.02,1.49-.45,1.65-.05.02-.11.03-.17.03ZM204.94,74.54c-.06,0-.12-.01-.17-.03-.47-.16-.46-.88-.45-1.65v-.3h.46v.3c0,.35-.02,1.16.14,1.21.06.02.5.02,2.23-2.28l.36.27c-1.53,2.03-2.18,2.47-2.57,2.47ZM246.02,74.54c-.39,0-1.04-.43-2.56-2.47l.36-.27c1.73,2.3,2.16,2.31,2.23,2.28.15-.05.14-.86.14-1.21v-.31s.45,0,.45,0v.3c.01.76.02,1.48-.44,1.64-.05.02-.11.03-.17.03ZM195.86,74.54c-.06,0-.12-.01-.17-.03-.47-.16-.46-.88-.45-1.64v-.3h.46v.31c0,.35-.02,1.16.14,1.21.07.03.49.02,2.22-2.28l.36.27c-1.53,2.03-2.17,2.47-2.56,2.47ZM192.46,74.42c-.06,0-.12-.01-.17-.03-.47-.16-.46-.89-.45-1.65v-.3h.46v.31c0,.35-.02,1.17.14,1.22.06.02.5.02,2.23-2.29l.36.27c-1.53,2.04-2.18,2.47-2.57,2.47ZM258.5,74.42c-.39,0-1.04-.44-2.57-2.47l.36-.27c1.73,2.31,2.16,2.31,2.23,2.29.16-.05.15-.87.14-1.22v-.31s.45,0,.45,0v.3c.01.77.02,1.5-.45,1.65-.05.02-.11.03-.17.03ZM251.19,71.77c-.39,0-1.04-.43-2.57-2.47l.36-.27c1.73,2.3,2.16,2.31,2.23,2.28.16-.05.15-.87.14-1.22v-.3s.45,0,.45,0v.3c.01.77.02,1.49-.45,1.65-.05.02-.11.03-.17.03ZM199.77,71.77c-.06,0-.12-.01-.17-.03-.47-.16-.46-.88-.45-1.65v-.3h.46v.31c0,.35-.02,1.16.14,1.21.08.02.5.02,2.23-2.28l.36.27c-1.53,2.03-2.18,2.47-2.57,2.47ZM189.69,71.65c-.06,0-.12-.01-.17-.03-.47-.16-.46-.88-.45-1.65v-.3h.46v.31c0,.35-.02,1.16.14,1.22.08.02.5.02,2.23-2.28l.36.27c-1.53,2.03-2.18,2.47-2.57,2.47ZM261.27,71.65c-.39,0-1.04-.44-2.56-2.47l.36-.27c1.73,2.31,2.16,2.3,2.23,2.28.15-.05.14-.86.14-1.21v-.31s.45,0,.45,0v.31c.01.77.02,1.49-.44,1.65-.05.02-.11.03-.17.03ZM193.34,70.13c-.06,0-.12-.01-.17-.03-.47-.16-.46-.88-.45-1.65v-.3h.46v.3c0,.35-.02,1.16.14,1.22.07.02.5.02,2.23-2.29l.36.27c-1.53,2.04-2.18,2.48-2.57,2.48ZM257.61,70.13c-.39,0-1.04-.44-2.57-2.48l.36-.27c1.73,2.31,2.16,2.31,2.23,2.29.15-.05.14-.86.14-1.21v-.31s.45,0,.45,0v.3c.01.76.02,1.49-.44,1.64-.05.02-.11.03-.17.03ZM198.26,69.5c-.06,0-.12-.01-.17-.03-.47-.16-.46-.88-.45-1.65v-.3h.46v.31c0,.35-.02,1.16.14,1.22.06.02.5.02,2.23-2.28l.36.27c-1.53,2.03-2.18,2.47-2.57,2.47ZM252.7,69.5c-.39,0-1.04-.44-2.57-2.47l.36-.27c1.73,2.3,2.15,2.31,2.23,2.28.15-.05.14-.87.14-1.22v-.31s.45,0,.45,0v.3c.01.77.02,1.49-.45,1.65-.05.02-.11.03-.17.03ZM247.65,69.25c-.39,0-1.04-.44-2.57-2.47l.36-.27c1.73,2.31,2.16,2.31,2.23,2.29.16-.05.15-.87.14-1.22v-.31s.45,0,.45,0v.3c.01.77.02,1.5-.45,1.65-.05.02-.11.03-.17.03ZM203.3,69.25c-.06,0-.12-.01-.17-.03-.47-.16-.46-.89-.45-1.65v-.3h.46v.31c0,.35-.02,1.17.14,1.22.07.02.5.02,2.23-2.29l.36.27c-1.53,2.04-2.18,2.47-2.57,2.47ZM192.33,66.73c-.06,0-.12-.01-.17-.03-.47-.16-.46-.88-.45-1.65v-.3h.46v.31c0,.35-.02,1.16.14,1.22.06.02.5.02,2.23-2.28l.36.27c-1.53,2.03-2.18,2.47-2.57,2.47ZM258.62,66.73c-.39,0-1.04-.44-2.57-2.47l.36-.27c1.73,2.3,2.15,2.31,2.23,2.28.15-.05.14-.87.14-1.22v-.31s.45,0,.45,0v.3c.01.77.02,1.49-.45,1.65-.05.02-.11.03-.17.03ZM196.37,64.34c-.06,0-.12-.01-.17-.03-.47-.16-.46-.89-.45-1.65v-.3h.46v.31c0,.35-.02,1.17.14,1.22.07.02.5.02,2.23-2.29l.36.27c-1.53,2.04-2.18,2.47-2.57,2.47ZM254.59,64.34c-.39,0-1.04-.44-2.57-2.47l.36-.27c1.74,2.31,2.17,2.3,2.23,2.29.15-.05.14-.87.14-1.22v-.31s.45,0,.45,0v.3c.01.77.02,1.49-.44,1.65-.05.02-.11.03-.17.03ZM197,61.06c-.06,0-.12-.01-.17-.03-.47-.16-.46-.88-.45-1.65v-.3h.46v.3c0,.35-.02,1.16.14,1.22.07.02.5.02,2.23-2.29l.36.27c-1.53,2.04-2.18,2.48-2.57,2.48ZM253.96,61.06c-.39,0-1.04-.44-2.57-2.48l.36-.27c1.73,2.31,2.16,2.31,2.22,2.29.15-.05.14-.87.14-1.21v-.31s.45,0,.45,0v.3c.01.77.02,1.49-.44,1.65-.05.02-.11.03-.17.03ZM161.44,57.47l.23-.49s1.63-3.5,1.68-7.48l-9.5-2.77.55-.25c6.04-2.77,14.51-7.9,18.84-12.61,2.96-3.23,7.38-5.16,10.06-4.4,1.13.32,1.84,1.1,2.06,2.25.6,3.14,1.33,4.61,1.58,5.05,1.82-.68,17.25-6.18,38.1-6.18s36.29,5.51,38.1,6.18c.25-.44.98-1.9,1.58-5.05.22-1.15.93-1.93,2.06-2.25,2.67-.76,7.09,1.17,10.06,4.4,4.35,4.74,12.81,9.86,18.84,12.62l.55.25-9.5,2.77c.04,3.98,1.66,7.45,1.68,7.48l.23.49-.51-.18c-3.52-1.24-10.14-6.89-11.26-7.85-.16.18-.52.67-1.13,1.88-1,1.99-2.41,2.02-2.47,2.02l-.11-.03c-13.42-7.08-31.4-11.31-48.11-11.31h0c-16.71,0-34.7,4.23-48.11,11.31l-.11.03c-.06,0-1.48-.02-2.47-2.02-.6-1.2-.96-1.69-1.13-1.88-1.12.97-7.74,6.61-11.26,7.85l-.51.18ZM276.88,48.87l.12.1c.07.06,6.94,6.05,10.77,7.7-.46-1.15-1.5-4.09-1.5-7.34v-.17l8.66-2.52c-6.02-2.82-14.17-7.82-18.43-12.47-2.81-3.06-7.11-4.97-9.6-4.27-.96.27-1.55.91-1.73,1.89-.75,3.97-1.7,5.32-1.74,5.37l-.1.14-.16-.06c-.16-.06-16.1-6.22-38.11-6.22s-37.95,6.15-38.11,6.22l-.16.06-.1-.14s-.02-.03-.04-.06c-3.08,1.03-7.1,2.81-10.04,4.12-.82.36-1.54.68-2.12.93l-.65.28c-1.21.53-2.02.88-2.67.71.15.26.29.52.41.78.75,1.68,2.07,4.89,2.08,4.92l-.26.11c.16.11.57.54,1.38,2.15.77,1.54,1.78,1.74,2.02,1.76,13.47-7.1,31.51-11.33,48.27-11.33h0c16.75,0,34.79,4.24,48.27,11.33.24-.02,1.25-.22,2.02-1.76.91-1.81,1.32-2.13,1.43-2.18l.14-.07ZM155.15,46.64l8.66,2.52v.17c0,3.25-1.04,6.19-1.51,7.34,3.83-1.65,10.7-7.64,10.77-7.7l.08-.07c-.26-.63-1.36-3.29-2.02-4.77-.12-.27-.27-.53-.43-.81-.16-.28-.32-.55-.45-.84-.15-.21-.3-.48-.44-.8l.18-.08c-.03-.26,0-.53.08-.8.29-.84,1.2-1.56,2.88-2.26,1.1-.45,2.35-.83,3.67-1.24,4.09-1.25,8.33-2.53,7.92-6.08l.19-.02c-.28-.64-.8-1.08-1.55-1.29-2.49-.71-6.79,1.21-9.6,4.27-4.27,4.65-12.22,9.55-18.43,12.47ZM170.65,42.26c.6.8,1.26.51,2.97-.23l.65-.28c.58-.25,1.3-.57,2.11-.93,2.93-1.3,6.92-3.07,10-4.11-.33-.65-.9-2.03-1.4-4.53-.39,3.16-4.54,4.42-8.24,5.55-1.31.4-2.55.78-3.63,1.22-1.53.64-2.39,1.29-2.63,1.99-.15.44-.05.87.15,1.32ZM218.31,55.51c-2.41-1.21-4.01-.99-4.02-.99l-.07-.45c.07-.01,1.74-.25,4.3,1.03l-.2.41Z"/>
        </g>
        <g id="path506">
          <path d="M220.19,221.11l-.14-.43s3.37-1.14,4.12-3.04c.24-.61.19-1.22-.16-1.86-.79-1.46-.97-2.56-.55-3.27.33-.55,1.03-.85,2.01-.85v.45c-.57,0-1.31.11-1.62.63-.33.55-.14,1.53.56,2.82.41.76.47,1.51.18,2.24-.83,2.09-4.26,3.25-4.4,3.3ZM225.29,209.27l-.06-.23-.06.23c-.21-.06-21.46-5.75-26.47-7-4.93-1.23-4.91-3.51-4.89-5.93v-.52s0-45.75,0-45.75h62.82v46.27c.03,2.42.05,4.7-4.88,5.93-5.01,1.25-26.25,6.94-26.46,7ZM194.27,150.52v45.82c-.03,2.43-.04,4.35,4.54,5.49,4.89,1.22,25.2,6.66,26.42,6.99,1.22-.33,21.53-5.76,26.42-6.99,4.58-1.14,4.56-3.06,4.54-5.49v-.52s0-45.29,0-45.29h-61.91ZM249.97,112.12l.14-.75-9.75-2.32.11-.44,10.17,2.42-.09.5,1.81-.41-1.54-1.03-.09.47-10.14-2.43.03-.11v-.37s13.11-.15,13.11-.15l.03.45,1.65-.85-1.75-.61.03.51-13.09.16v-.17s-.16.04-.16.04l-.11-.44,7.27-1.76.14.48,1.42-1.19-1.84-.22.13.46-7.06,1.7v.34h-.45v-2.41l-3.27.05v-.45s3.72-.06,3.72-.06v2.07l6.49-1.57-.19-.66,3.56.43-2.76,2.3-.21-.73-5.46,1.32,11.38-.13-.05-.72,3.39,1.18-3.2,1.65-.05-.71-10.95.12,8.02,1.92.13-.67,2.99,1.99-3.52.8ZM205.56,110.25l.32-.41c.06-.08,1.57-1.95,3.85-3.21,1.66-.92,2.27-2.05,2.46-2.52-.43-.08-1.36-.18-2.13.16-.57.25-.98.7-1.56,1.31-.52.55-1.17,1.24-2.17,2.06-2.25,1.85-3.62.93-3.68.89l-.21-.14.17-.19c.07-.08,1.66-1.9,3.54-3.04-.65-.18-1.12-.77-1.12-1.48,0-.1,0-.19.03-.29-.16,0-.27.01-.33.01-.13.07-.64.41-1.24,1.53-.21.38-.35.71-.48,1-.33.76-.59,1.37-1.73,2.22-1.57,1.18-4.21.82-4.33.8l-.62-.09.53-.33s2.64-1.65,3.87-2.86c1-1,1.07-2.55,1.07-2.99-.06-.04-.15-.08-.26-.14,0,.85-.69,1.53-1.53,1.53-.77,0-1.41-.57-1.52-1.31-.06.05-.1.08-.1.08h0s-1.21,1.35-1.69,2.67c-.53,1.47-1.81,1.89-3.44,2.29-1.49.37-3.62,1-3.65,1.01l-.21-.39c.12-.1,2.93-2.41,4.44-3.3.35-.2.62-.33.83-.43.29-.14.43-.21.5-.3-.65-.18-1.12-.77-1.12-1.47,0-.03,0-.07,0-.1-.07,0-.15,0-.22-.02,0,.04,0,.08,0,.12,0,.84-.69,1.53-1.53,1.53s-1.54-.69-1.54-1.53.69-1.53,1.54-1.53c.08,0,.16,0,.24.02,0-.04,0-.08,0-.13,0-.85.69-1.54,1.53-1.54.46,0,.87.2,1.15.52-.16-.58-.61-.67-1.32-.76-.26-.03-.52-.07-.78-.14-.93-.26-1.58-.91-1.61-.93l-.33-.33.46-.06c.08-.01,2.06-.25,4.09,0,.45.06.79.1,1.05.12.3-.36.73-.57,1.19-.57.85,0,1.54.69,1.54,1.55,0,.04,0,.08,0,.13.14.09.27.17.38.25.34.23.57.38.97.49,0-.65.4-1.2.97-1.42-.5-.4-1.01-.81-1.47-1.16-1.64-1.26-2.64-2.02-2.64-2.02l-.54-.41h.67c2.19,0,4.75,1.27,6.19,2.44.49.4,1.11.81,1.81,1.18.27-.48.77-.77,1.33-.77.86,0,1.53.67,1.53,1.54,0,.1,0,.2-.03.3.27.06.53.1.78.11,1.13.08,1.55-.33,1.71-.56-.67-.35-2.99-1.56-5.21-2.41-2.8-1.07-2.29-3.02-2.28-3.04l.08-.28.25.14s1.77,1,4.23,1.61c.37.09.69.17.99.24,1.73.41,2.32.55,3.55,2.11.35.44.62.94.81,1.47.27.28.42.66.42,1.05,0,.2-.04.4-.13.6,0,.2,0,.36-.02.48.45.09,1.49.31,2.01.62.61.37,2.22.99,2.24.99l-.16.42c-.07-.03-1.67-.64-2.31-1.03-.58-.35-2.05-.59-2.06-.6l-.23-.04.04-.23s.05-.27.04-.67v-.05s.02-.05.02-.05c.07-.16.11-.31.11-.46,0-.29-.12-.57-.33-.77l-.06-.09c-.17-.5-.42-.97-.75-1.39-1.13-1.44-1.63-1.56-3.3-1.95-.29-.07-.62-.15-.99-.24-1.95-.48-3.43-1.18-4.04-1.5,0,.5.25,1.51,2.04,2.2,2.63,1,5.42,2.52,5.45,2.53l.15.08-.04.17s-.32,1.19-2.25,1.06c-.35-.02-.72-.08-1.1-.18l-.25-.07.1-.24c.05-.12.07-.24.07-.37,0-.61-.47-1.08-1.08-1.08-.45,0-.85.28-1.01.71l-.09.24-.23-.11c-.81-.41-1.54-.87-2.1-1.34-1.25-1.02-3.33-2.06-5.16-2.29.46.35,1.16.88,2.04,1.56.58.44,1.24.97,1.85,1.47l.48.39-.61.02c-.58.02-1.04.49-1.04,1.07,0,.08.01.17.03.25l.05.32-.32-.06c-.69-.13-1-.34-1.43-.63-.14-.1-.3-.2-.49-.32l-.13-.08.02-.15c.01-.08.02-.14.02-.2,0-.6-.49-1.09-1.08-1.09-.35,0-.69.18-.9.48l-.08.11h-.13c-.28-.04-.65-.08-1.19-.15-1.34-.17-2.69-.11-3.42-.05.25.17.6.37,1,.49.22.07.47.1.71.13.7.09,1.5.19,1.72,1.17.13.62.1.86.05,1.2-.01.07-.02.14-.03.22l-.02.2h-.2s-.06,0-.1,0l-.35.07.09-.35c.03-.12.05-.21.05-.3,0-.6-.48-1.08-1.08-1.08s-1.08.49-1.08,1.08c0,.13.02.25.07.36l.19.48.36.14c.28.11.49.1.7.08l.35-.04-.11.34c-.03.09-.04.19-.04.28,0,.56.42,1.02.99,1.07l.24.02-.04.24c-.08.49-.36.63-.83.85-.21.1-.47.22-.8.42-.97.57-2.54,1.78-3.51,2.55.75-.21,1.76-.5,2.58-.7,1.54-.38,2.66-.75,3.12-2,.51-1.41,1.75-2.78,1.8-2.84.03-.03.23-.2.52-.4l.46-.31-.11.54c-.01.06-.02.12-.02.18,0,.6.49,1.08,1.08,1.08s1.08-.49,1.08-1.08c0-.1-.02-.21-.06-.32l-.17-.5.48.22c.44.2.78.41.8.41l.1.06v.12c.01.09.13,2.14-1.19,3.45-.92.91-2.52,2-3.38,2.56.87.03,2.36-.04,3.33-.77,1.04-.78,1.26-1.28,1.59-2.04.13-.3.28-.64.49-1.03.77-1.42,1.43-1.72,1.5-1.75l.08-.02s.25,0,.68-.03l.38-.02-.15.34c-.06.14-.09.29-.09.44,0,.59.48,1.08,1.08,1.08.09,0,.16,0,.22-.02l.19.4c-.17.14-.36.27-.55.38-1.46.87-2.78,2.22-3.27,2.75.43.14,1.42.23,2.89-.98.98-.8,1.62-1.48,2.13-2.02.61-.65,1.06-1.12,1.71-1.41,1.2-.53,2.62-.15,2.68-.13l.21.06-.05.21c-.02.07-.43,1.75-2.76,3.04-1.54.85-2.73,2.02-3.32,2.65.59-.1,1.52-.32,2.35-.78,1.36-.74,2.99-1.74,3.01-1.75l.24.39s-1.66,1.02-3.03,1.76c-1.42.78-3.05.91-3.12.91l-.52.04ZM192.33,101.85c-.6,0-1.08.48-1.08,1.07s.48,1.08,1.08,1.08,1.08-.48,1.08-1.08c0-.13-.02-.25-.07-.36l-.18-.46-.38-.17c-.14-.06-.29-.09-.45-.09ZM224.76,109.54v-.45s3.78-.06,3.78-.06v.45s-3.78.06-3.78.06ZM230.52,109.44v-.45s3.21-.07,3.21-.07v.45s-3.21.07-3.21.07ZM235.72,109.34v-.45s2.54-.03,2.54-.03v.45s-2.54.03-2.54.03ZM214.3,105.73h-.45v-1.73l2.96-.05v.45s-2.51.04-2.51.04v1.29ZM222.11,104.3v-.45s11.24-.2,11.24-.2v.45s-11.24.2-11.24.2ZM213.93,97.5c-1.16-1.93-1.04-3.72-1.04-3.79l.03-.39,1.84,1.23-.25.38-1.16-.77c.03.62.21,1.84.97,3.12l-.39.23ZM276.87,49.03l-.42-.17s1.33-3.24,2.09-4.92c.12-.26.26-.53.41-.78-.65.17-1.46-.19-2.67-.71l-.65-.28c-.59-.25-1.33-.58-2.16-.95-2.97-1.32-7.03-3.12-10.11-4.14l.14-.43c3.1,1.03,7.17,2.83,10.15,4.15.83.37,1.57.7,2.16.95l.65.28c1.72.75,2.38,1.03,2.97.23.2-.45.3-.88.15-1.32-.24-.7-1.1-1.35-2.63-1.99-1.07-.45-2.31-.82-3.63-1.22-4.07-1.24-8.69-2.64-8.23-6.56l.45.05c-.41,3.54,3.82,4.83,7.91,6.08,1.32.4,2.57.78,3.67,1.24,1.68.7,2.6,1.42,2.88,2.26.09.27.11.54.08.8l.18.08c-.15.32-.29.58-.44.79-.13.28-.29.56-.45.84-.16.28-.31.55-.43.81-.75,1.68-2.07,4.88-2.08,4.91Z"/>
        </g>
        <g id="path508">
          <path d="M225.23,242.36c-41.04-.23-58.77-7.86-69.36-12.42-1.01-.43-1.95-.84-2.84-1.21-8.76-3.63-11.72-2.2-17.09.4-.91.44-1.85.89-2.9,1.36l-.19-.41c1.05-.47,1.98-.92,2.89-1.36,5.31-2.56,8.51-4.11,17.46-.41.9.37,1.84.78,2.85,1.21,10.56,4.54,28.23,12.15,69.18,12.38,39.18-.23,54.78-7.32,65.11-12.01,1.46-.66,2.84-1.29,4.14-1.83,8.94-3.71,12.14-2.16,17.45.4.91.44,1.85.89,2.9,1.36l-.19.41c-1.06-.47-2-.93-2.91-1.37-5.19-2.51-8.33-4.02-17.08-.39-1.3.54-2.67,1.16-4.13,1.82-10.36,4.71-26.01,11.82-65.29,12.05ZM220.36,231.32c-23.1,0-36.56-3.49-56.48-10.9-16.94-6.3-20.96-1.78-25.23,3.01-1.15,1.29-2.34,2.63-3.8,3.76l-.28-.36c1.43-1.11,2.6-2.43,3.74-3.71,4.37-4.91,8.49-9.54,25.72-3.13,21.22,7.89,35.07,11.33,61.18,10.82,26.05.5,39.93-2.93,61.19-10.82,14.57-5.41,19.06-1.16,23.8,3.33,1.06,1,2.16,2.04,3.39,3l-.28.36c-1.25-.97-2.35-2.02-3.42-3.03-4.84-4.58-9.03-8.54-23.33-3.24-21.32,7.91-35.25,11.35-61.35,10.85-1.67.03-3.29.05-4.86.05ZM230.51,230.1l-.39-.22.04-.1c1.85-4.83,2.63-6.88,4.39-8.83-.31.2-.6.39-.89.57-3.35,2.16-5.02,3.24-8.25,8.37l-.19-.09-.19.09c-3.22-5.13-4.9-6.21-8.25-8.37-.28-.18-.58-.37-.89-.57,1.76,1.95,2.54,3.99,4.39,8.83l.04.1-.39.22c-3.68-4.99-5.71-6.32-8.27-8-.85-.56-1.73-1.13-2.73-1.88,2.34,4.05,4.19,9.24,4.21,9.3l-.4.2c-.05-.08-4.91-7.37-11.35-9.41.85,2.16,3.59,8.75,3.61,8.83l-.38.24c-3.74-4.05-4.26-4.36-9.25-7.34-.79-.47-1.69-1.01-2.73-1.64,1.99,2.89,3.76,7.58,3.85,7.8l-.39.22c-5.83-7.13-16.21-9.79-27.76-7.11l-.14-.43c17.94-7.43,32.68-9.5,42.86-6.05l-.19-1.94c-5.63.45-9.33.05-14.79-3.32l.19-.41c8.24,2.67,13.64.56,15.21-.23-2.28-.62-11.11-3.01-14.58-3.87-4.07-1.02-6.73-2.09-6.73-7.53v-50.9c0-9-1.89-12.32-3.47-13.52-1.2-.91-2.24-.63-2.28-.62l-.56.16,6.95-11.22.17.06c9.75,3.39,14.99,1.1,20.54-1.32,3.93-1.72,8-3.49,13.93-3.49s10,1.78,13.93,3.49c5.55,2.42,10.79,4.71,20.54,1.32l.17-.06,6.96,11.22-.56-.16s-1.09-.29-2.29.62c-1.58,1.2-3.47,4.52-3.47,13.52v50.9c0,5.44-2.66,6.51-6.72,7.53-3.48.86-12.3,3.25-14.58,3.87,1.57.78,6.97,2.9,15.21.23l.19.41c-5.44,3.36-9.14,3.77-14.79,3.32l-.14,1.76c10.16-3.19,24.69-1.07,42.31,6.23l-.14.43c-11.55-2.68-21.93-.02-27.76,7.11l-.39-.22c.08-.22,1.86-4.91,3.85-7.8-1.04.63-1.94,1.17-2.73,1.64-4.99,2.98-5.51,3.29-9.25,7.34l-.38-.24c.03-.07,2.76-6.66,3.61-8.83-6.43,2.04-11.3,9.34-11.35,9.41l-.4-.2c.02-.06,1.87-5.25,4.21-9.3-1,.75-1.88,1.32-2.73,1.88-2.56,1.68-4.59,3.01-8.27,8ZM218.51,219c2.96,2.55,5.21,5.92,6.71,10.09,1.16-3.22,2.76-5.96,4.79-8.22-.82-.32-3.03-1.33-3.68-2.98-.3-.75-.23-1.54.2-2.34.7-1.29.89-2.26.56-2.82-.31-.52-1.05-.63-1.62-.63v-.45c.98,0,1.68.29,2.01.85.42.71.24,1.81-.55,3.27-.36.67-.42,1.33-.17,1.96.63,1.59,3.03,2.57,3.59,2.78.6-.63,1.23-1.23,1.9-1.78-1.17-1.06-1.83-1.85-1.77-2.66.06-.87.94-1.62,2.43-2.61.86-.57,1.66-.72,2.38-.45,1.22.46,1.84,1.98,2.05,2.59.68-.3,1.38-.57,2.11-.81l.19-2.4.23.02c5.22.43,8.57.19,13.15-2.31-9,2.31-14.25-1.02-14.31-1.05l-.42-.28.49-.13c.11-.03,11.14-3.03,15.14-4.02,3.97-.99,6.38-1.97,6.38-7.09v-50.9c0-9.21,2-12.64,3.67-13.9.86-.65,1.69-.75,2.17-.74l-6.21-10.02c-9.8,3.36-15.1,1.05-20.69-1.39-3.89-1.7-7.92-3.46-13.75-3.46s-9.86,1.76-13.75,3.46c-5.6,2.44-10.89,4.75-20.69,1.39l-6.2,10.02c.49,0,1.3.1,2.16.74,1.67,1.26,3.67,4.68,3.67,13.9v50.9c0,5.12,2.41,6.1,6.39,7.09,3.99.99,15.02,3.99,15.13,4.02l.49.13-.42.28c-.06.04-5.31,3.36-14.3,1.05,4.6,2.51,7.95,2.75,13.15,2.31l.22-.02.25,2.59c.62.22,1.22.47,1.81.73.05.03.11.05.17.08.26-.72.95-2.29,2.19-2.76.72-.27,1.5-.13,2.32.42,1.55,1.04,2.24,1.83,2.3,2.66.07.91-.64,1.79-1.83,2.87ZM236.63,219.01l.28.36c-3.08,2.57-3.81,4.04-5.79,9.19,3.16-4.04,5.15-5.35,7.42-6.84,1.11-.73,2.25-1.48,3.66-2.61l.33.3c-1.8,2.83-3.4,6.63-4.22,8.72,1.82-2.32,5.98-6.99,11.06-8.39l.43-.12-.16.42c-.43,1.14-2.39,5.88-3.31,8.11,3.04-3.24,3.86-3.73,8.49-6.5,1.03-.62,2.26-1.35,3.75-2.25l.29.34c-1.6,1.86-3.22,5.49-4.01,7.39,5.63-6.04,14.73-8.49,24.94-6.74-18.17-7.17-32.84-8.64-42.52-4.24-5.1,2.32-8.83,6.29-11.13,11.81,2.61-3.8,4.37-4.93,7.27-6.81.93-.6,1.98-1.27,3.21-2.14ZM208.26,219.11c1.41,1.13,2.55,1.88,3.66,2.6,2.28,1.49,4.27,2.8,7.42,6.84-1.98-5.15-2.71-6.62-5.79-9.19l.28-.36c1.24.86,2.28,1.54,3.21,2.14,2.9,1.87,4.65,3,7.27,6.81-2.29-5.53-6.03-9.5-11.13-11.81-9.69-4.4-24.35-2.93-42.52,4.24,10.2-1.75,19.3.7,24.94,6.74-.79-1.9-2.41-5.53-4.01-7.39l.29-.34c1.49.9,2.71,1.64,3.75,2.25,4.63,2.77,5.45,3.25,8.49,6.5-.92-2.22-2.87-6.96-3.31-8.11l-.16-.42.43.12c5.07,1.41,9.24,6.07,11.06,8.39-.82-2.09-2.41-5.89-4.22-8.72l.33-.3ZM213.94,216c1.53.75,2.94,1.65,4.22,2.7,1.08-.99,1.78-1.8,1.72-2.55-.05-.67-.68-1.36-2.1-2.31-.69-.46-1.33-.58-1.91-.37-1.09.41-1.72,1.89-1.94,2.53ZM234.57,213.34c-.43,0-.91.17-1.41.5-1.56,1.04-2.19,1.68-2.23,2.27-.05.63.6,1.37,1.67,2.34,1.31-1.04,2.75-1.92,4.32-2.65-.17-.51-.73-1.96-1.79-2.36-.18-.07-.37-.1-.57-.1ZM194,195.86l-.07-.45s3.3-.51,5.42-.88c1.02-.18,1.9-.19,2.92-.21,1.13-.02,2.41-.03,4.15-.3,1.92-.29,3.47-.37,5.27-.46,1.3-.07,2.64-.13,4.32-.29,3.06-.29,8.41-.84,9.79-1.25.27-.08.53-.17.81-.26,1.02-.34,2.3-.76,4.88-1.26.91-.17,1.43-.3,1.72-.39-.43-.12-1.26-.38-2.39-.82-.58-.22-.93-.39-1.23-.55-.54-.27-.9-.45-2.25-.7-.99-.18-1.11-.09-1.19-.03-.2.15-.39.23-1.34.03-1.88-.38-2.3-.63-2.35-.66l.25-.38-.12.19.12-.19s.41.24,2.19.59c.82.17.91.1.98.05.21-.16.43-.25,1.54-.05,1.42.26,1.82.46,2.38.74.29.15.63.32,1.19.53,1.6.62,2.62.88,2.62.88.34.03.4.21.41.31.01.22.02.42-2.44.89-2.56.49-3.82.91-4.83,1.24-.28.09-.55.18-.82.27-1.42.42-6.8.98-9.88,1.27-1.69.16-3.1.23-4.34.29-1.78.09-3.33.17-5.22.46-1.77.28-3.07.29-4.21.31-1,.01-1.86.03-2.84.2-2.12.37-5.39.87-5.43.88ZM216.79,190.52l-.29-.25c-.78-.67-1.19-.57-2.15-.1l-.37.18.04-.41c.02-.14.39-3.56.64-4.57,0-.01.01-.05.03-.1-.11-.03-1.49-.39-2.5-.74h-.13v-.05c-.1-.04-.2-.07-.29-.11-.66-.25-1.45-.14-2.45,0-.42.06-.87.11-1.35.15-1.06.09-1.18.07-1.59-.18-.17-.11-.41-.25-.91-.46-.98-.41-1.29-.44-1.8-.48-.26-.02-.58-.05-1.05-.14-1.24-.22-1.9-.64-3.35-1.56l-.77-.48c-1.79-1.12-2.85-1.11-4.08-1.11h-.34s0-.45,0-.45h.34c1.24-.01,2.41-.02,4.32,1.17l.77.49c1.44.91,2.03,1.28,3.18,1.49.45.08.75.11,1.01.13.54.05.89.08,1.94.52.54.22.8.39.97.5.29.18.31.19,1.31.11.48-.04.92-.1,1.33-.15,1.02-.13,1.91-.25,2.67.03.1.04.22.08.34.12h2.7c.27-1.2.64-3.05.82-4.71.12-1.1.24-1.56.33-1.86.08-.31.12-.43.05-.98-.05-.4-.06-.46-.06-.47v-.06c0-.06-.01-.29-.07-1.25-.09-1.55-.31-2.21-.41-2.43-.4,0-1.62-.04-2.68-.25-1.14-.23-1.44-1.23-1.44-1.73v-3.16c0-.82-.37-1.85-.54-2.35l-.08-.22c-.14-.43.26-1.48.38-1.8l.14-.35,1.18,1.38c.02.08.51,2.04.63,2.79.12.72.36,1.33.37,1.34l.34,1.23,1.11-.1c.11-.12.39-.44.67-.91.15-.26.36-.33.51-.35.28-.03.55.11.74.24.02-.11.03-.27-.01-.48-.03-.14-.06-.24-.09-.32-.12-.36-.17-.57.23-1.56.47-1.17.56-1.26,1.58-1.55l.33-.09c1.35-.41,1.74.27,2.18,1.06l.1.17c.37.65.2,1.09.06,1.48-.08.21-.15.41-.15.65,0,.57-.25,1.01-.42,1.24.33.33,1.07,1.12,1.18,1.87.09.61.23.89.29.98.26.1,1.34.47,2.51.47,1.38,0,2.99.24,3.06.25l.26.04-.35,1.23-.1.04s-.68.27-1.22.27c-.17,0-.36.08-.6.18-.37.16-.88.37-1.64.45-.96.09-1.76.05-2.12.02l-.45,1.82h0s0,1.21.13,1.93c.09.53.37,3.41.57,5.86h33.88v.45h-33.85c.09,1.2.15,2.24.15,2.79,0,1.54.81,1.79.84,1.8l.66.19-.64.24s-1.09.39-2.78,0c-1.43-.34-1.43-1.24-1.42-2.73,0-.03,0-.06,0-.09l-1.41-.47c-.22,1.17-.78,3.75-.81,3.87l-.08.37ZM215.51,189.34c.32,0,.64.11,1,.36.19-.91.71-3.31.8-3.92.13-.76,1.47-4.42,1.52-4.58l.44.06s.13,1.54.25,4.05c.03.58.03,1.09.02,1.54-.01,1.48-.01,2.03,1.06,2.28.89.2,1.58.17,2.02.12-.31-.3-.65-.87-.65-1.91,0-1.8-.64-8.35-.75-9.03-.12-.77-.13-2-.13-2.06l.55-2.26.2.02s1,.12,2.22,0c.69-.07,1.15-.26,1.51-.42.28-.12.52-.22.78-.22.34,0,.76-.13.95-.2l.15-.51c-.51-.07-1.7-.21-2.73-.21-1.42,0-2.68-.51-2.74-.53l-.08-.05c-.05-.05-.3-.35-.43-1.26-.09-.65-.89-1.48-1.19-1.75l-.18-.16.17-.17s.43-.45.43-1.1c0-.32.1-.58.18-.81.14-.37.24-.63-.03-1.1l-.1-.17c-.43-.77-.65-1.15-1.66-.85l-.33.1q-.87.25-1.28,1.28c-.35.88-.31.99-.22,1.25.04.1.08.22.11.38.15.72-.15,1.05-.18,1.09l-.16.17-.16-.16c-.11-.11-.4-.33-.61-.31-.04,0-.11.03-.17.14-.39.65-.78,1.04-.79,1.05l-.06.06-1.65.15-.43-1.57s-.25-.63-.38-1.41c-.11-.67-.53-2.38-.61-2.7l-.59-.68c-.17.49-.29.99-.24,1.14l.07.2c.18.52.57,1.6.57,2.5v3.16s.02,1.08,1.07,1.29c1.22.24,2.71.24,2.73.24h.11l.07.09c.04.06.42.62.55,2.77.03.49.06,1.11.06,1.28h0s.02.09.06.48c.07.61.03.78-.07,1.15-.08.29-.2.73-.31,1.8-.3,2.72-1.1,5.93-1.14,6.07-.19.78-.47,3.16-.58,4.11.36-.16.67-.26.98-.26ZM217.76,185.82l1.33.45c0-.29,0-.6-.02-.94-.01-.28-.03-.54-.04-.79h-.88c-.19.57-.34,1.05-.38,1.29ZM213.72,184.54c.55.16.99.28,1.08.3.02-.09.04-.19.07-.3h-1.15ZM218.3,184.08h.71c-.04-.69-.07-1.27-.1-1.72-.18.5-.4,1.13-.6,1.72Z"/>
        </g>
        <g id="path510">
          <path d="M225.23,270.69c-47.59-.25-69.88-20.71-91.43-40.5l.31-.33c21.49,19.73,43.71,40.13,91.12,40.38,44.68-.49,64.95-19.12,86.41-38.85l1.93-1.77.31.33-1.93,1.77c-20.58,18.92-41.86,38.49-86.72,38.97ZM221.99,255.62c-33.8,0-52.91-15.35-65.68-25.62l-.06-.05.28-.35.06.05c13.12,10.54,32.94,26.47,68.62,25.47,33.21.95,50.51-13.19,63.14-23.5.95-.78,1.88-1.54,2.79-2.26l.28.35c-.9.73-1.83,1.48-2.78,2.26-12.68,10.36-30.05,24.54-63.42,23.61-1.09.03-2.17.05-3.23.05ZM218.31,55.51c-2.41-1.21-4.01-.99-4.02-.99l-.07-.45c.07-.01,1.74-.25,4.3,1.03l-.2.41Z"/>
        </g>
      </g>
    </g>
  </g>
</svg>