<?xml version="1.0" encoding="UTF-8"?>
<svg id="Layer_2" data-name="Layer 2" xmlns="http://www.w3.org/2000/svg" viewBox="0 0 450 300">
  <g id="_Ñëîé_1" data-name="Ñëîé 1">
    <g>
      <rect width="450" height="300" fill="gold"/>
      <g>
        <g id="lin">
          <path d="M284,164.36h-118.01M296.77,154.78h-143.53M296.77,145.22h-143.53M284,135.64h-118.01"/>
          <path d="M284,167.54h-118.01c-1.76,0-3.19-1.43-3.19-3.19s1.43-3.19,3.19-3.19h118.01c1.76,0,3.19,1.43,3.19,3.19s-1.43,3.19-3.19,3.19ZM296.77,157.97h-143.53c-1.76,0-3.19-1.43-3.19-3.19s1.43-3.19,3.19-3.19h143.53c1.76,0,3.19,1.43,3.19,3.19s-1.43,3.19-3.19,3.19ZM296.77,148.41h-143.53c-1.76,0-3.19-1.43-3.19-3.19s1.43-3.19,3.19-3.19h143.53c1.76,0,3.19,1.43,3.19,3.19s-1.43,3.19-3.19,3.19ZM284,138.83h-118.01c-1.76,0-3.19-1.43-3.19-3.19s1.43-3.19,3.19-3.19h118.01c1.76,0,3.19,1.43,3.19,3.19s-1.43,3.19-3.19,3.19Z" fill="#bf0a30"/>
        </g>
        <g id="lin-2" data-name="lin">
          <path d="M210.64,209v-118.01M220.22,221.77V78.23M229.78,221.77V78.23M239.36,209v-118.01"/>
          <path d="M229.78,224.95c-1.76,0-3.19-1.43-3.19-3.19V78.23c0-1.76,1.43-3.19,3.19-3.19s3.19,1.43,3.19,3.19v143.53c0,1.76-1.43,3.19-3.19,3.19ZM220.22,224.95c-1.76,0-3.19-1.43-3.19-3.19V78.23c0-1.76,1.43-3.19,3.19-3.19s3.19,1.43,3.19,3.19v143.53c0,1.76-1.43,3.19-3.19,3.19ZM239.36,212.19c-1.76,0-3.19-1.43-3.19-3.19v-118.01c0-1.76,1.43-3.19,3.19-3.19s3.19,1.43,3.19,3.19v118.01c0,1.76-1.43,3.19-3.19,3.19ZM210.64,212.19c-1.76,0-3.19-1.43-3.19-3.19v-118.01c0-1.76,1.43-3.19,3.19-3.19s3.19,1.43,3.19,3.19v118.01c0,1.76-1.43,3.19-3.19,3.19Z" fill="#bf0a30"/>
        </g>
        <g>
          <circle cx="225" cy="150" r="24.12" transform="translate(-40.28 97.52) rotate(-22.5)" fill="gold"/>
          <path d="M225,176.11c-14.4,0-26.11-11.71-26.11-26.11s11.71-26.11,26.11-26.11,26.11,11.71,26.11,26.11-11.71,26.11-26.11,26.11ZM225,127.88c-12.2,0-22.12,9.93-22.12,22.12s9.93,22.12,22.12,22.12,22.12-9.93,22.12-22.12-9.93-22.12-22.12-22.12Z" fill="#bf0a30"/>
        </g>
      </g>
    </g>
  </g>
</svg>