<?xml version="1.0" encoding="UTF-8"?>
<svg id="Layer_2" data-name="Layer 2" xmlns="http://www.w3.org/2000/svg" viewBox="0 0 450 300">
  <g id="_Ñëîé_1" data-name="Ñëîé 1">
    <g>
      <g id="rect172">
        <rect y=".03" width="450" height="150.04" fill="#bf0a30"/>
      </g>
      <g id="rect603">
        <rect y="150.1" width="450" height="149.9" fill="#fff"/>
      </g>
      <g id="rect170">
        <rect width="150.02" height="300" fill="#002868"/>
      </g>
      <g id="path607">
        <path d="M22.44,70.39c-9.38,5.24-11.08,7.42-16.22,11.44l11.4.24c-.14,1.06-2.62,14.28-2.86,15.21,8.58-5.7,12.65-8.32,24.36-11.62,4.65-1.29-.37-6.02-.85-7.28-3.18,1.44-5.63,3.14-7.97,5.23" fill="#ffca00"/>
        <path d="M14.28,97.95l.19-.75c.23-.9,2.42-12.54,2.8-14.84l-11.9-.25.66-.52c1.2-.94,2.22-1.78,3.19-2.59,3.15-2.61,5.87-4.86,13.07-8.88l.29.52c-7.15,3.99-9.85,6.23-12.97,8.81-.8.66-1.62,1.34-2.55,2.08l10.9.23-.04.33c-.12.92-2.1,11.52-2.71,14.52,8.44-5.6,12.57-8.07,23.83-11.25.91-.25,1.47-.66,1.66-1.21.43-1.23-.95-3.11-1.86-4.36-.3-.41-.55-.75-.71-1.03-2.8,1.29-5.17,2.86-7.63,5.06l-.4-.45c2.59-2.31,5.07-3.94,8.05-5.28l.29-.13.11.3c.09.24.41.67.78,1.18,1.04,1.43,2.47,3.38,1.94,4.91-.26.75-.95,1.28-2.07,1.59-11.45,3.22-15.47,5.73-24.28,11.58l-.65.43Z" fill="#002868"/>
      </g>
      <g id="path628">
        <path d="M30.45,83.5c17.48-16.02,75.33-15.63,91.45.49.52-.19,10.94-17.77,10.42-17.59-31.63-22.16-88.32-18.36-112.11-.88l.28,1.04,9.95,16.92Z" fill="#ffca00"/>
        <path d="M121.82,84.34l-.13-.13c-7.41-7.41-24.65-12.09-45-12.21-20.37-.12-38.01,4.37-46.03,11.73l-.27.25-10.17-17.32-.34-1.24.17-.12c24.4-17.93,80.96-21.08,112.33.78l.14-.05.12.29c.06.15.16.44-5,9.13-5.14,8.66-5.5,8.79-5.62,8.84l-.18.06ZM75.89,71.39c.26,0,.53,0,.79,0,20.3.12,37.57,4.78,45.2,12.17,1.37-1.82,9.33-15.22,10.1-17.02-31.11-21.65-87.11-18.59-111.43-.89l.22.81,9.75,16.57c8.15-7.21,25.42-11.64,45.37-11.64Z" fill="#002868"/>
      </g>
      <g id="path613">
        <path d="M33.45,77.49c-.36,0-.71-.21-.86-.56-.21-.43-3.12-5.88-5.05-9.46-.21-.4-.11-.9.24-1.18.36-.28.86-.27,1.2.03l6.16,5.43-1.42-7.88c-.08-.45.17-.89.59-1.05.43-.16.9,0,1.13.4l5.36,9.01c.26.44.12,1.02-.33,1.28-.45.26-1.02.12-1.28-.33l-2.7-4.55.98,5.43c.07.39-.11.79-.46.98-.35.2-.78.15-1.08-.11l-4.27-3.76c2.59,4.85,2.65,5,2.67,5.05.18.48-.06,1.03-.54,1.21-.11.04-.22.06-.33.06Z" fill="#002868"/>
      </g>
      <g id="path618">
        <path d="M63.53,68.31c-.5,0-.91-.39-.94-.9-.07-1.59.99-2.91,1.76-3.88.04-.05.08-.09.12-.13l2.15-1.83c.29-.38.42-.95.35-1.57-.06-.55-.26-1-.45-1.22-.63-.16-1.4-.19-1.89.17-.38.27-.58.8-.59,1.55,0,.52-.43.93-.95.93-.52,0-.93-.43-.93-.95.02-1.72.75-2.6,1.36-3.04.94-.68,2.34-.82,3.74-.38.1.03.2.08.29.15.68.52,1.16,1.49,1.28,2.6.13,1.18-.17,2.26-.83,3.04-.03.04-.07.08-.11.11l-2.15,1.83c-.39.49-.83,1.05-1.09,1.62l3.82-.15c.52,0,.95.38.97.9.02.52-.38.95-.9.97l-5.01.19s-.02,0-.04,0Z" fill="#002868"/>
      </g>
      <g id="path621">
        <path d="M73.17,68.13c-.51,0-1.06-.12-1.6-.43-.05-.03-.11-.07-.15-.11-.9-.79-1.17-1.63-1.39-2.5-.27-1.31-.34-4.27-.19-5.56,0-.03,0-.05.01-.08.22-1.1.61-2.2,1.93-2.85.79-.41,1.99-.42,2.92-.01.07.03.13.07.19.11.9.67,1.25,1.55,1.49,2.41,0,.02.01.05.02.07.27,1.31.32,4.74-.11,6.08-.28,1.13-.9,2.04-1.72,2.5-.34.22-.84.38-1.4.38ZM72.58,66.11c.46.23.89.13,1.03.04.41-.23.72-.74.89-1.41.3-.96.3-4.02.08-5.16-.2-.68-.39-1.05-.71-1.31-.51-.18-1.05-.1-1.22,0,0,0-.02,0-.03.01-.52.25-.73.59-.92,1.5-.12,1.14-.06,3.83.16,4.89.18.72.33,1.07.72,1.44ZM72.2,57.44h0,0Z" fill="#002868"/>
      </g>
      <g id="path629">
        <path d="M97.17,69.2s-.09,0-.13,0c-.51-.07-.87-.55-.8-1.06l1.06-7.5c-.26.15-.54.28-.84.4-.48.2-1.03-.03-1.23-.5-.2-.48.03-1.03.5-1.23.89-.37,1.47-.8,2.12-1.56.27-.32.72-.42,1.1-.25.38.17.6.57.54.99l-1.41,9.91c-.07.47-.47.81-.93.81Z" fill="#002868"/>
      </g>
      <g id="path630">
        <path d="M102.55,70.53c-.13,0-.27-.03-.4-.09-.47-.22-.67-.78-.45-1.25,1.31-2.75,2.86-5.04,4.88-7.62-3.36-.98-3.45-1.01-3.49-1.03-.48-.18-.73-.73-.54-1.21.18-.48.71-.72,1.18-.55.24.07,2.94.86,4.71,1.38.3.09.54.32.63.62.09.3.03.62-.16.87-2.42,3.03-4.1,5.37-5.52,8.35-.16.34-.5.54-.85.54Z" fill="#002868"/>
      </g>
      <g id="path631">
        <path d="M109.87,72.63c-.18,0-.37-.05-.53-.17-.43-.29-.53-.88-.24-1.3,1.84-2.66,3.81-4.83,5.97-6.58l-3.25-1.6c-.46-.23-.66-.79-.43-1.26.23-.46.79-.65,1.26-.43l4.6,2.27c.3.15.49.44.52.76.03.33-.12.65-.39.84-2.48,1.77-4.68,4.08-6.74,7.06-.18.26-.47.4-.77.4Z" fill="#002868"/>
      </g>
      <g id="path632">
        <path d="M119.15,76.88c-2.26-.05-3.54-1.34-3.85-3.83-.06-.51.3-.98.82-1.04.52-.06.98.3,1.04.82.22,1.79.92,2.16,1.98,2.19.51-.02,1.01-.26,1.38-.68.46-.54.65-1.31.54-2.24-.29-.86-.83-1.58-2.65-1.22-.38.07-.77-.09-.97-.42-.21-.33-.19-.75.04-1.06l2.67-3.61c.28-.39.81-.5,1.23-.25l3.02,1.77c.45.26.6.84.33,1.28-.26.45-.84.6-1.28.33l-2.29-1.34-1.04,1.41c1.34.26,2.3,1.15,2.77,2.62.02.05.03.11.04.16.2,1.49-.15,2.83-.96,3.79-.7.82-1.72,1.31-2.8,1.34Z" fill="#002868"/>
      </g>
      <g id="path614">
        <path d="M42.56,72.35s-.02,0-.03,0c-.52-.01-.93-.45-.91-.96.2-7.54.27-9.94.42-10.82h-.02c.01-.13.06-.26.12-.37.04-.09.09-.15.15-.2.12-.13.28-.22.45-.26.81-.19.91-.21,7.07,9.34.28.44.15,1.02-.28,1.3-.43.28-1.01.16-1.3-.28-1.39-2.15-3.23-4.97-4.49-6.82-.09,2.3-.19,5.73-.26,8.16-.01.51-.43.91-.94.91Z" fill="#002868"/>
      </g>
      <g id="path615">
        <path d="M42.76,68.52c-.41,0-.78-.26-.9-.67-.15-.5.14-1.02.63-1.16l4.09-1.2c.5-.15,1.02.14,1.16.63.15.5-.14,1.02-.63,1.16l-4.09,1.21c-.09.03-.18.04-.27.04Z" fill="#002868"/>
      </g>
      <g id="path678">
        <path d="M18.86,172.88l5.98.08-.19-25.91,11.46,26.05h6.22v-38.11l-6.07.08.09,24.1-10.72-23.99-6.69.08-.09,37.63Z" fill="#ffca00"/>
      </g>
      <g id="path680">
        <path d="M128.18,147.08h6.37l-.08-3.36c-.18-2.17-1-4.92-3.14-6.95-1.42-1.59-3.11-2.48-5.3-3.08-1.86-.73-6.4-.51-8.71.78-2.73,1.52-5.03,4.24-6.57,8.62-2.02,7.37-1.11,16.61.17,20.95,1.52,4.61,3.91,7.06,7.09,8.61,1.98.66,5.43,1.17,8.66.3,3.52-1.33,5.13-3.64,6.53-6.11.85-1.67,1.82-4.87,1.65-8.41l-6.65.08c0,1.3-.26,2.79-.59,4.09-.75,1.81-1.91,3.03-4.8,3.03-1.94,0-3.24-.8-4.33-2.23-1.46-1.41-1.85-4.57-1.94-5.46-.44-4.03-.45-8.02.71-12.23.44-1.7,1.32-3.27,2.47-4.04,1.87-1.01,3.8-.86,4.89-.54,1.43.44,2.75,1.51,3.17,2.93.32,1.33.37,2.14.39,3.02Z" fill="#ffca00"/>
      </g>
      <g id="polygon693">
        <path d="M91.2,174.13l-14.28-11.1-14.66,11.03,5.81-17.27-14.86-10.93,17.87.42,5.47-17.79,5.24,17.53,18.24-.06-14.63,10.41,5.8,17.75Z" fill="#fff"/>
      </g>
      <g id="path679">
        <path d="M40.83,85.1l-.45-.39c.09-.11.24-.31.19-.44-.05-.12-.36-.51-2.35-.67-.52.07-1.18.12-1.85.17-.75.06-1.53.12-2.25.2-1.71.32-3.09.52-3.84-.25l.43-.42c.54.55,1.77.37,3.32.07.75-.09,1.53-.15,2.29-.21.67-.05,1.31-.1,1.89-.17,1.77.14,2.68.47,2.91,1.04.13.33.04.68-.29,1.06Z" fill="#002868"/>
      </g>
      <g id="path685">
        <path d="M129.99,70.95c9.38,5.24,11.08,7.42,16.22,11.44l-11.4.24c.14,1.06,2.62,14.28,2.86,15.21-8.58-5.7-12.65-8.32-24.36-11.62-4.65-1.29.53-6.1,1.02-7.36,3.18,1.44,5.88,3.14,7.8,5.31" fill="#ffca00"/>
        <path d="M138.15,98.52l-.65-.43c-8.8-5.85-12.83-8.35-24.28-11.58-1.1-.3-1.78-.83-2.03-1.57-.53-1.54.96-3.53,2.04-4.98.37-.5.72-.97.82-1.21l.11-.3.29.13c3.51,1.58,6.1,3.35,7.9,5.39l-.45.4c-1.71-1.93-4.14-3.6-7.44-5.12-.17.29-.44.64-.75,1.07-.95,1.27-2.38,3.18-1.95,4.42.18.54.73.94,1.63,1.19,11.27,3.17,15.4,5.65,23.84,11.25-.61-3-2.59-13.59-2.71-14.52l-.04-.33,10.9-.23c-.93-.74-1.75-1.42-2.55-2.08-3.13-2.59-5.82-4.82-12.97-8.81l.29-.52c7.2,4.02,9.92,6.27,13.06,8.88.98.81,1.99,1.65,3.19,2.59l.66.52-11.9.25c.38,2.3,2.58,13.95,2.8,14.84l.19.75Z" fill="#002868"/>
      </g>
      <g id="path690">
        <path d="M111.61,85.69c-.33-.3-.44-.68-.3-1.05.27-.71,1.38-1.14,2.96-1.15,1.37.05,2.75.25,3.96.42l.15.02c.18.02.38.03.57.05,1.02.1,1.9.19,2.72-.19l.25.54c-.97.45-1.92.35-3.03.24-.19-.02-.38-.04-.58-.06l-.17-.02c-1.2-.17-2.55-.37-3.88-.42-1.44.01-2.25.41-2.39.77-.02.05-.07.19.14.39l-.41.44Z" fill="#002868"/>
      </g>
      <g id="path622">
        <path d="M81.2,61.9s-.02,0-.03,0c-.02,0-1.77-.07-3.56-.1-.37,0-.67-.31-.66-.69,0-.37.3-.65.69-.66,1.8.03,3.57.1,3.59.1.37.02.66.33.65.7-.01.36-.31.65-.67.65Z" fill="#002868"/>
      </g>
      <g id="path624">
        <path d="M82.99,68.08s-.01,0-.02,0c-.37,0-.67-.32-.66-.69l.21-8.65c0-.37.32-.68.69-.66.37,0,.67.32.66.69l-.21,8.65c0,.37-.31.66-.67.66Z" fill="#002868"/>
      </g>
      <g id="path627">
        <path d="M86.97,68.47s-.04,0-.06,0c-.37-.03-.65-.36-.62-.73.26-3.2.16-4.73-.35-5.28-.33-.36-.97-.41-2.28-.41h0c-.37,0-.67-.3-.68-.67,0-.37.3-.68.67-.68,1.22,0,2.49-.01,3.28.84.84.91,1.02,2.5.71,6.31-.03.35-.32.62-.67.62Z" fill="#002868"/>
      </g>
      <g id="path661">
        <path d="M80.5,68.06c-.55,0-1.23-.06-1.71-.55-.51-.51-.56-1.28-.55-1.89l.13-7.2c0-.37.3-.68.69-.66.37,0,.67.31.66.69l-.13,7.19c0,.64.1.85.16.92.07.07.25.15.75.15.37,0,.67.3.67.67s-.3.68-.67.68Z" fill="#002868"/>
      </g>
      <g id="path616">
        <path d="M53.61,69.72c-.45,0-.85-.33-.92-.79l-.75-4.6-4.24-4.3c-.36-.37-.36-.96,0-1.33.37-.36.96-.36,1.33,0l4.45,4.51c.14.14.23.31.26.51l.8,4.9c.08.51-.26.99-.77,1.08-.05,0-.1.01-.15.01Z" fill="#002868"/>
      </g>
      <g id="path617">
        <path d="M52.91,65.04c-.11,0-.23-.02-.34-.06-.48-.19-.72-.73-.53-1.21l2.44-6.28c.19-.48.73-.72,1.21-.53.48.19.72.73.53,1.21l-2.44,6.28c-.14.37-.5.6-.87.6Z" fill="#002868"/>
      </g>
      <g id="path671">
        <path d="M22.81,232.47c-9.38-5.12-11.08-7.26-16.22-11.18l11.4-.23c-.14-1.04-2.62-13.96-2.86-14.87,8.58,5.58,12.65,8.13,24.36,11.36,4.65,1.26-.37,5.89-.85,7.11-3.18-1.4-5.63-3.07-7.97-5.11" fill="#ffca00"/>
        <path d="M22.67,232.73c-7.2-3.93-9.92-6.13-13.07-8.68-.98-.79-1.99-1.61-3.19-2.53l-.68-.52,11.91-.24c-.39-2.27-2.57-13.63-2.8-14.51l-.19-.75.65.42c8.8,5.72,12.83,8.17,24.28,11.32,1.12.3,1.82.83,2.07,1.57.52,1.5-.91,3.4-1.95,4.79-.35.47-.69.92-.78,1.15l-.11.29-.29-.13c-2.97-1.31-5.46-2.9-8.05-5.16l.39-.45c2.47,2.15,4.83,3.68,7.64,4.95.16-.27.41-.61.71-1.01.91-1.21,2.27-3.04,1.86-4.24-.19-.54-.75-.94-1.66-1.19-11.26-3.1-15.4-5.52-23.84-11,.61,2.94,2.59,13.29,2.71,14.19l.04.33-10.88.22c.92.72,1.74,1.38,2.53,2.02,3.13,2.53,5.83,4.72,12.98,8.62l-.29.53Z" fill="#002868"/>
      </g>
      <g id="path683">
        <path d="M30.83,219.65c17.48,15.66,75.33,15.29,91.45-.48.52.18,10.94,17.38,10.42,17.2-31.63,21.67-88.32,17.96-112.11.86l.28-1.02,9.95-16.55Z" fill="#ffca00"/>
        <path d="M75.84,251.68c-21.78,0-42.86-5.19-55.42-14.22l-.17-.12.37-1.3,10.14-16.86.27.24c8.03,7.19,25.67,11.58,46.04,11.47,20.35-.12,37.59-4.69,45-11.94l.13-.13.18.06c.12.04.48.17,5.62,8.64,5.16,8.5,5.06,8.78,5,8.93l-.1.28-.15-.05c-15.22,10.37-36.38,14.99-56.91,14.99ZM20.94,237.09c24.32,17.31,80.31,20.3,111.42-.87-.8-1.79-8.74-14.87-10.1-16.64-7.63,7.23-24.89,11.79-45.2,11.9-.26,0-.53,0-.79,0-19.95,0-37.23-4.33-45.37-11.38l-9.75,16.2-.22.78Z" fill="#002868"/>
      </g>
      <g id="path687">
        <path d="M38.65,220.14c-.63-.07-1.28-.11-1.95-.16-.76-.06-1.54-.11-2.27-.2-1.52-.28-2.8-.47-3.34.07l-.42-.42c.74-.74,2.13-.56,3.85-.24.7.08,1.47.14,2.22.19.68.05,1.33.1,1.92.16,1.99-.16,2.26-.58,2.29-.66.05-.12-.1-.32-.19-.42l.45-.4c.33.37.42.72.29,1.04-.23.56-1.14.89-2.86,1.03Z" fill="#002868"/>
      </g>
      <g id="path693">
        <path d="M130.36,231.92c9.38-5.12,11.08-7.26,16.22-11.18l-11.4-.23c.14-1.04,2.62-13.96,2.86-14.87-8.58,5.58-12.65,8.13-24.36,11.36-4.65,1.26.53,5.97,1.02,7.2,3.18-1.4,5.88-3.07,7.8-5.2" fill="#ffca00"/>
        <path d="M130.51,232.18l-.29-.53c7.15-3.91,9.85-6.09,12.98-8.62.79-.64,1.61-1.3,2.53-2.02l-10.88-.22.04-.33c.12-.9,2.1-11.24,2.71-14.19-8.44,5.47-12.57,7.9-23.83,11-.9.24-1.45.64-1.63,1.17-.41,1.21,1.01,3.07,1.95,4.3.32.41.58.77.75,1.05,3.3-1.48,5.74-3.12,7.45-5.01l.44.4c-1.81,2-4.39,3.72-7.9,5.27l-.29.13-.11-.29c-.09-.23-.44-.69-.81-1.18-1.08-1.41-2.56-3.35-2.04-4.86.25-.73.93-1.26,2.04-1.56,11.45-3.15,15.48-5.6,24.28-11.32l.65-.42-.19.75c-.23.88-2.41,12.23-2.8,14.51l11.91.24-.68.52c-1.2.92-2.22,1.74-3.19,2.53-3.15,2.55-5.87,4.75-13.07,8.68Z" fill="#002868"/>
      </g>
      <g id="path695">
        <path d="M114.66,219.66c-1.6-.01-2.7-.44-2.97-1.14-.14-.36-.02-.73.3-1.02l.4.45c-.21.19-.16.32-.14.36.13.36.94.74,2.4.75,1.32-.04,2.68-.24,3.87-.41l.15-.02c.21-.02.41-.04.59-.06,1.11-.11,2.06-.2,3.03.23l-.25.55c-.82-.37-1.7-.28-2.72-.18-.19.02-.39.04-.59.06l-.13.02c-1.21.17-2.59.37-3.95.41Z" fill="#002868"/>
      </g>
      <g id="path646">
        <path d="M76.33,248.31c-.51,0-.92-.4-.94-.91-.05-1.67,1.09-3.04,2.17-3.77l2.05-1.56c.38-.48.57-1.18.48-1.85-.06-.45-.23-.84-.48-1.08-1.53-.34-2.23-.27-2.69,1.31-.14.5-.66.78-1.16.64-.5-.14-.78-.67-.64-1.16,1.02-3.51,3.78-2.87,5.11-2.57.11.03.22.07.32.14.75.52,1.26,1.42,1.4,2.49.15,1.24-.22,2.5-.99,3.38-.04.05-.09.09-.14.13l-2.15,1.64s-.03.02-.05.04c-.44.29-.87.74-1.13,1.24l4.03-.08h.02c.51,0,.93.41.94.92.01.52-.4.95-.92.96l-5.22.1h-.02Z" fill="#002868"/>
      </g>
      <g id="path657">
        <path d="M72.26,248.35s-.03,0-.04,0c-.52-.02-.92-.46-.9-.98l.3-6.94c-.12.07-.26.15-.41.23-.46.25-1.02.08-1.27-.38-.25-.45-.08-1.02.38-1.27.79-.43.91-.52,1.57-1.48.24-.35.67-.49,1.07-.36.4.13.66.51.64.93l-.4,9.35c-.02.5-.44.9-.94.9Z" fill="#002868"/>
      </g>
      <g id="path676">
        <path d="M62.66,247.54s-.09,0-.13,0l-6.01-.85.16-.95c.1-.6,1.59-9.71,1.65-10.11.06-.47.47-.86.95-.82.52.01.93.44.91.96,0,.15-1.1,6.82-1.51,9.34l4.1.58c.51.07.87.55.8,1.06-.07.47-.47.81-.93.81Z" fill="#002868"/>
      </g>
      <g id="path675">
        <path d="M53.33,246.3s-.09,0-.14,0c-.51-.08-.87-.55-.79-1.06l1.56-10.59c.08-.51.55-.87,1.06-.79.51.08.87.55.79,1.06l-1.56,10.59c-.07.47-.47.8-.93.8Z" fill="#002868"/>
      </g>
      <g id="path672">
        <path d="M35.27,240.75c-.11,0-.23-.02-.34-.07-.48-.19-.72-.73-.53-1.22l4.23-10.74.92.46c.33.16.71.3,1.11.45.95.35,2.02.74,3.02,1.64l.11.09.07.12c.67,1.12.71,2.76.1,4-.54,1.1-1.51,1.77-2.74,1.91h-.11s-.11,0-.11,0c-1.2-.16-2.2-.64-3.16-1.1-.05-.02-.1-.05-.14-.07l-1.54,3.92c-.15.37-.5.59-.87.59ZM38.38,234.49l.26.12c.83.4,1.62.77,2.48.91.53-.09.92-.38,1.16-.86.34-.69.28-1.57.03-2.09-.71-.59-1.52-.89-2.3-1.18-.12-.04-.24-.09-.36-.13l-1.27,3.23Z" fill="#002868"/>
      </g>
      <g id="path654">
        <path d="M102.03,246.44c-.44,0-.82-.31-.91-.75l-1.5-7.88c-.19.23-.4.46-.64.69-.37.36-.95.35-1.31-.02-.36-.37-.35-.95.02-1.31.72-.7,1.13-1.34,1.49-2.35.14-.39.52-.65.94-.61.42.03.76.34.84.75l1.97,10.39c.1.5-.23.99-.74,1.08-.06.01-.12.02-.17.02Z" fill="#002868"/>
      </g>
      <g id="path655">
        <path d="M108.01,244.76c-.46,0-.86-.34-.93-.81-.45-3.17-.41-6.51-.26-9.51-3.66,1.28-3.75,1.3-3.8,1.31-.5.13-1.01-.17-1.14-.67-.13-.49.16-.99.64-1.14.25-.08,3.12-1.08,5-1.74.3-.1.62-.05.87.14.25.19.39.49.37.8-.19,3.24-.33,7.03.17,10.54.07.51-.29.99-.8,1.06-.04,0-.09,0-.13,0Z" fill="#002868"/>
      </g>
      <g id="path656">
        <path d="M115.72,241.92c-.42,0-.8-.29-.91-.71-.65-2.63-.54-6.1-.36-9.57l-3.69,1.44c-.48.19-1.03-.05-1.21-.53-.19-.48.05-1.03.53-1.21l5.05-1.98c.3-.12.63-.07.89.11.26.19.4.49.39.81v.07c-.22,3.78-.44,7.69.22,10.41.12.5-.18,1.01-.69,1.13-.07.02-.15.03-.22.03Z" fill="#002868"/>
      </g>
      <g id="path677">
        <path d="M122.62,238.11c-.38,0-.77-.08-1.19-.23-1.15-.32-2.31-1.48-2.84-2.85-.76-1.49-1.19-3.12-1.23-4.71,0-.03,0-.06,0-.09.1-1.46.41-2.48,1.76-3.67.11-.1.24-.17.38-.2,1.61-.42,2.94.07,3.74,1.4.27.44.13,1.02-.32,1.29-.44.27-1.02.13-1.29-.32-.29-.47-.65-.76-1.44-.61-.76.72-.89,1.25-.95,2.19.01.28.04.57.07.86.3-.38.65-.66.99-.86.04-.02.07-.04.11-.06,1.08-.46,1.71-.35,2.79.09.03.01.05.02.08.04,1.29.67,2.09,1.86,2.32,3.45,0,.03,0,.06,0,.08.06.98-.21,2.38-.93,3.29-.04.05-.08.09-.12.13-.6.52-1.23.78-1.93.78ZM120.43,234.59c.42.86,1.12,1.39,1.5,1.49.03,0,.06.02.09.03.54.2.83.17,1.22-.14.31-.44.51-1.24.48-1.91-.15-.97-.56-1.61-1.29-2-.71-.29-.82-.29-1.24-.11-.3.18-.99.71-.76,2.46,0,.06.01.12,0,.18Z" fill="#002868"/>
      </g>
      <g id="path706">
        <path d="M82.8,241.7c-.36,0-.66-.28-.67-.64-.02-.37.27-.69.64-.71,1.8-.08,3.57-.13,3.59-.13.36,0,.68.29.69.66,0,.37-.29.68-.66.69-.02,0-1.77.04-3.56.13-.01,0-.02,0-.03,0Z" fill="#002868"/>
      </g>
      <g id="path709">
        <path d="M85.79,247.77c-.47,0-1-.08-1.42-.45-.54-.48-.64-1.24-.67-1.85l-.33-7.19c-.02-.37.27-.69.64-.71.37-.03.69.27.71.64l.33,7.19c.03.64.15.84.22.9.07.06.26.13.76.1.38-.02.69.26.72.63.02.37-.26.69-.63.72-.11,0-.22.01-.33.01Z" fill="#002868"/>
      </g>
      <g id="path707">
        <path d="M88.55,247.45c-.34,0-.63-.25-.67-.6l-1-8.6c-.04-.37.22-.71.59-.75.37-.05.71.22.75.59l1,8.6c.04.37-.22.71-.59.75-.03,0-.05,0-.08,0Z" fill="#002868"/>
      </g>
      <g id="path708">
        <path d="M92.55,247.29c-.35,0-.65-.28-.67-.64-.19-3.2-.5-4.71-1.08-5.18-.38-.31-1.02-.27-2.31-.09-.37.05-.71-.2-.76-.57-.05-.37.2-.71.57-.77,1.21-.18,2.46-.36,3.36.38.96.78,1.36,2.33,1.58,6.15.02.37-.26.69-.63.71-.01,0-.03,0-.04,0Z" fill="#002868"/>
      </g>
      <g id="path659">
        <path d="M32.54,239.48c-.05,0-.1,0-.15-.01-.51-.08-.86-.56-.78-1.08.5-3.05,1-6.36,1.3-8.53-1.67,1.72-4.2,4.36-5.97,6.23-.36.38-.95.39-1.33.03-.37-.36-.39-.95-.03-1.33,5.44-5.71,7.15-7.51,7.87-8.07v-.02c.09-.09.21-.16.33-.2.09-.04.16-.04.23-.04.17-.01.35.02.51.11.72.4.83.46-1.06,12.11-.07.46-.47.79-.92.79Z" fill="#002868"/>
      </g>
      <g id="path660">
        <path d="M33.09,235.48c-.14,0-.27-.03-.4-.09l-4.01-1.92c-.47-.22-.66-.78-.44-1.25.22-.47.78-.66,1.25-.44l4.01,1.92c.47.22.66.78.44,1.25-.16.34-.5.53-.85.53Z" fill="#002868"/>
      </g>
      <g id="path673">
        <path d="M43.68,244.26c-.51,0-.92-.4-.94-.91q0-.19,2.84-10.77l.24-.88.89.22c.39.09.79.18,1.18.26.83.17,1.69.35,2.52.65,1.46.48,2.72,2.05,2.14,4.02-.27,1.21-.86,2.21-1.69,2.85-.41.32-1,.24-1.31-.17-.32-.41-.24-1,.17-1.31.47-.36.84-1.02,1.02-1.84.38-1.3-.92-1.76-.93-1.77-.73-.26-1.49-.42-2.3-.58-.12-.02-.23-.05-.35-.07-1.06,3.93-2.46,9.15-2.56,9.58-.08.42-.45.74-.9.75,0,0-.02,0-.02,0Z" fill="#002868"/>
      </g>
      <g id="path674">
        <path d="M49.93,245.7c-.05,0-.11,0-.16-.01-.51-.09-.85-.58-.76-1.09.29-1.65.55-3.72.46-4.15,0,0,0,0,0-.01-.03-.07-.18-.44-.65-.63l-3.8-.97c-.5-.13-.8-.64-.68-1.14.13-.5.64-.8,1.14-.68l3.84.99s.06.02.08.03c1.25.45,1.77,1.49,1.88,2.01h0c.21.93-.24,3.73-.45,4.89-.08.45-.48.77-.92.77ZM49.47,240.45h0s0,0,0,0ZM49.45,240.27c0,.07.01.12.02.15,0-.05-.02-.11-.02-.15Z" fill="#002868"/>
      </g>
    </g>
  </g>
</svg>