<?xml version="1.0" encoding="UTF-8"?>
<svg id="Layer_2" data-name="Layer 2" xmlns="http://www.w3.org/2000/svg" xmlns:xlink="http://www.w3.org/1999/xlink" viewBox="0 0 490.5 381.63">
  <defs>
    <clipPath id="clippath">
      <rect x="36.03" y="40.81" width="450" height="300" fill="none"/>
    </clipPath>
    <clipPath id="clippath-1">
      <path d="M36.03,340.81V40.81l450,56.25-103.85,93.75,103.85,93.75-450,56.25Z" clip-path="url(#clippath)" fill="none"/>
    </clipPath>
    <clipPath id="clippath-2">
      <rect x="36.03" y="40.81" width="450" height="300" clip-path="url(#clippath-1)" fill="none"/>
    </clipPath>
  </defs>
  <g id="_Ñëîé_1" data-name="Ñëîé 1">
    <g>
      <g>
        <g clip-path="url(#clippath-2)">
          <polyline points="486.03 97.06 36.03 40.81 36.03 340.81 486.03 284.56" fill="#fff"/>
          <polyline points="486.03 97.06 36.03 40.81 36.03 340.81 486.03 284.56" fill="none" stroke="#c1133d" stroke-width="72.06"/>
          <line x1="36.03" y1="190.81" x2="486.03" y2="190.81" fill="none" stroke="#c1133d" stroke-width="36.03"/>
        </g>
        <path d="M36.03,40.81v300l276.92-150L36.03,40.81Z" fill="#001c5a"/>
      </g>
      <path d="M173.53,190.81c0,28.68-23.25,51.92-51.92,51.92s-51.92-23.25-51.92-51.92,23.25-51.92,51.92-51.92,51.92,23.25,51.92,51.92h0Z" fill="#fff"/>
      <path d="M156.22,190.81c0,19.12-15.5,34.62-34.62,34.62s-34.62-15.5-34.62-34.62,15.5-34.62,34.62-34.62,34.62,15.5,34.62,34.62h0Z" fill="#c1133d"/>
      <path d="M269.92,190.81l-10.29-3.34-1.67,5.15,11.96-1.8Z" fill="#fff"/>
      <path d="M269.92,190.81l-10.29,3.34-1.67-5.15,11.96,1.8Z" fill="#fff"/>
      <path d="M262.44,201.1v-10.82h-5.41l5.41,10.82Z" fill="#fff"/>
      <path d="M262.44,201.1l-6.36-8.75,4.38-3.18,1.98,11.93Z" fill="#fff"/>
      <path d="M262.44,180.52l-6.36,8.75,4.38,3.18,1.98-11.93Z" fill="#fff"/>
      <path d="M262.44,180.52v10.82h-5.41l5.41-10.82Z" fill="#fff"/>
      <path d="M250.35,197.17l10.29-3.35-1.67-5.14-8.62,8.49Z" fill="#fff"/>
      <path d="M250.35,197.17l6.36-8.75,4.38,3.18-10.74,5.58Z" fill="#fff"/>
      <path d="M250.35,184.45l6.36,8.75,4.38-3.18-10.74-5.58Z" fill="#fff"/>
      <path d="M250.35,184.45l10.29,3.34-1.67,5.14-8.62-8.49Z" fill="#fff"/>
      <path d="M200.69,190.81l-10.29-3.34-1.67,5.15,11.96-1.8Z" fill="#fff"/>
      <path d="M200.69,190.81l-10.29,3.34-1.67-5.15,11.96,1.8Z" fill="#fff"/>
      <path d="M193.21,201.1v-10.82h-5.41l5.41,10.82Z" fill="#fff"/>
      <path d="M193.21,201.1l-6.36-8.75,4.38-3.18,1.98,11.93Z" fill="#fff"/>
      <path d="M193.21,180.52l-6.36,8.75,4.38,3.18,1.98-11.93Z" fill="#fff"/>
      <path d="M193.21,180.52v10.82h-5.41l5.41-10.82Z" fill="#fff"/>
      <path d="M181.12,197.17l10.29-3.35-1.67-5.14-8.62,8.49Z" fill="#fff"/>
      <path d="M181.12,197.17l6.36-8.75,4.38,3.18-10.74,5.58Z" fill="#fff"/>
      <path d="M181.12,184.45l6.36,8.75,4.38-3.18-10.74-5.58Z" fill="#fff"/>
      <path d="M181.12,184.45l10.29,3.34-1.67,5.14-8.62-8.49Z" fill="#fff"/>
      <path d="M233.69,171.75l-10.71-1.57-.78,5.35,11.49-3.78Z" fill="#fff"/>
      <path d="M233.69,171.75l-9.58,5.02-2.51-4.79,12.09-.23Z" fill="#fff"/>
      <path d="M228.05,183.15l-1.82-10.67-5.33.91,7.15,9.76Z" fill="#fff"/>
      <path d="M228.05,183.15l-7.73-7.56,3.78-3.87,3.96,11.43Z" fill="#fff"/>
      <path d="M224.6,162.86l-4.8,9.7,4.85,2.4-.05-12.09Z" fill="#fff"/>
      <path d="M224.6,162.86l1.81,10.67-5.33.91,3.52-11.57Z" fill="#fff"/>
      <path d="M215.47,181.3l9.58-5.02-2.51-4.79-7.07,9.81Z" fill="#fff"/>
      <path d="M215.47,181.3l4.8-9.7,4.84,2.4-9.65,7.29Z" fill="#fff"/>
      <path d="M213.33,168.76l7.74,7.56,3.78-3.87-11.52-3.7Z" fill="#fff"/>
      <path d="M213.33,168.76l10.7,1.57-.78,5.35-9.92-6.92Z" fill="#fff"/>
      <path d="M233.69,209.87l-9.58-5.02-2.51,4.79,12.09.23Z" fill="#fff"/>
      <path d="M233.69,209.87l-10.71,1.57-.78-5.35,11.49,3.78Z" fill="#fff"/>
      <path d="M224.6,218.76l1.81-10.67-5.33-.91,3.52,11.57Z" fill="#fff"/>
      <path d="M224.6,218.76l-4.8-9.7,4.85-2.4-.05,12.09Z" fill="#fff"/>
      <path d="M228.05,198.48l-7.73,7.56,3.78,3.87,3.96-11.43Z" fill="#fff"/>
      <path d="M228.05,198.48l-1.82,10.67-5.33-.91,7.15-9.76Z" fill="#fff"/>
      <path d="M213.33,212.86l10.7-1.57-.78-5.35-9.92,6.92Z" fill="#fff"/>
      <path d="M213.33,212.86l7.74-7.56,3.78,3.87-11.52,3.7Z" fill="#fff"/>
      <path d="M215.47,200.32l4.8,9.7,4.84-2.4-9.65-7.29Z" fill="#fff"/>
      <path d="M215.47,200.32l9.58,5.02-2.51,4.79-7.07-9.81Z" fill="#fff"/>
      <path d="M156.97,261.55l-1.61-10.7-5.35.81,6.96,9.89Z" fill="#fff"/>
      <path d="M156.97,261.55l-7.59-7.71,3.85-3.8,3.74,11.5Z" fill="#fff"/>
      <path d="M144.43,259.46l9.67-4.84-2.42-4.84-7.26,9.68Z" fill="#fff"/>
      <path d="M144.43,259.46l4.98-9.6,4.8,2.49-9.78,7.11Z" fill="#fff"/>
      <path d="M162.83,250.26l-10.67-1.78-.89,5.34,11.56-3.56Z" fill="#fff"/>
      <path d="M162.83,250.26l-9.68,4.84-2.42-4.84h12.1Z" fill="#fff"/>
      <path d="M142.53,246.89l7.59,7.71,3.85-3.8-11.44-3.91Z" fill="#fff"/>
      <path d="M142.53,246.89l10.67,1.78-.89,5.33-9.78-7.11Z" fill="#fff"/>
      <path d="M153.91,241.2l-4.98,9.6,4.8,2.49.18-12.09Z" fill="#fff"/>
      <path d="M153.91,241.2l1.61,10.7-5.35.8,3.74-11.5Z" fill="#fff"/>
      <path d="M118.05,269.82l3.8-10.13-5.07-1.9,1.26,12.03Z" fill="#fff"/>
      <path d="M118.05,269.82l-2.88-10.43,5.21-1.44-2.34,11.86Z" fill="#fff"/>
      <path d="M108.11,261.89l10.8.49.24-5.4-11.05,4.92Z" fill="#fff"/>
      <path d="M108.11,261.89l9.03-5.96,2.98,4.52-12.01,1.44Z" fill="#fff"/>
      <path d="M128.66,262.81l-8.46-6.74-3.37,4.23,11.83,2.51Z" fill="#fff"/>
      <path d="M128.66,262.81l-10.8-.49.24-5.4,10.56,5.89Z" fill="#fff"/>
      <path d="M112.57,249.98l2.88,10.43,5.21-1.44-8.09-8.99Z" fill="#fff"/>
      <path d="M112.57,249.98l8.46,6.74-3.38,4.23-5.08-10.97Z" fill="#fff"/>
      <path d="M125.28,250.55l-9.03,5.96,2.98,4.52,6.05-10.48Z" fill="#fff"/>
      <path d="M125.28,250.55l-3.8,10.13-5.06-1.9,8.87-8.23Z" fill="#fff"/>
      <path d="M80.03,258.09l8.25-7-3.49-4.13-4.76,11.12Z" fill="#fff"/>
      <path d="M80.03,258.09l2.56-10.51,5.25,1.29-7.81,9.23Z" fill="#fff"/>
      <path d="M75.21,246.32l9.2,5.69,2.84-4.6-12.04-1.09Z" fill="#fff"/>
      <path d="M75.21,246.32l10.79-.81.4,5.39-11.19-4.58Z" fill="#fff"/>
      <path d="M92.71,257.14l-4.1-10.01-5,2.05,9.1,7.96Z" fill="#fff"/>
      <path d="M92.71,257.14l-9.2-5.69,2.84-4.6,6.36,10.29Z" fill="#fff"/>
      <path d="M84.9,238.1l-2.56,10.51,5.25,1.28-2.69-11.79Z" fill="#fff"/>
      <path d="M84.9,238.1l4.1,10.01-5,2.05.9-12.06Z" fill="#fff"/>
      <path d="M95.72,244.78l-10.78.81.4,5.39,10.38-6.2Z" fill="#fff"/>
      <path d="M95.72,244.78l-8.25,7-3.5-4.13,11.75-2.87Z" fill="#fff"/>
      <path d="M78.89,296.18l6.96-8.28-4.14-3.48-2.82,11.76Z" fill="#fff"/>
      <path d="M78.89,296.18l.77-10.79,5.39.38-6.16,10.41Z" fill="#fff"/>
      <path d="M72.16,285.39l10.03,4.06,2.03-5.01-12.06.95Z" fill="#fff"/>
      <path d="M72.16,285.39l10.5-2.61,1.3,5.25-11.8-2.64Z" fill="#fff"/>
      <path d="M91.23,293.12l-5.72-9.18-4.59,2.86,10.31,6.32Z" fill="#fff"/>
      <path d="M91.23,293.12l-10.02-4.06,2.03-5.01,7.99,9.08Z" fill="#fff"/>
      <path d="M80.35,275.66l-.77,10.79,5.4.39-4.62-11.18Z" fill="#fff"/>
      <path d="M80.35,275.66l5.72,9.18-4.59,2.86-1.13-12.04Z" fill="#fff"/>
      <path d="M92.13,280.43l-10.5,2.61,1.3,5.25,9.19-7.86Z" fill="#fff"/>
      <path d="M92.13,280.43l-6.96,8.28-4.14-3.48,11.1-4.8Z" fill="#fff"/>
      <path d="M46.46,276.14l9.31-5.51-2.76-4.66-6.55,10.17Z" fill="#fff"/>
      <path d="M46.46,276.14l4.29-9.93,4.97,2.14-9.26,7.78Z" fill="#fff"/>
      <path d="M43.68,263.73l8.12,7.15,3.57-4.06-11.7-3.09Z" fill="#fff"/>
      <path d="M43.68,263.73l10.77,1.01-.51,5.39-10.27-6.4Z" fill="#fff"/>
      <path d="M59.12,277.33l-2.36-10.56-5.28,1.18,7.64,9.38Z" fill="#fff"/>
      <path d="M59.12,277.33l-8.12-7.15,3.57-4.06,4.54,11.21Z" fill="#fff"/>
      <path d="M54.62,257.25l-4.29,9.93,4.97,2.14-.68-12.07Z" fill="#fff"/>
      <path d="M54.62,257.25l2.37,10.56-5.28,1.18,2.91-11.74Z" fill="#fff"/>
      <path d="M64.16,265.66l-10.77-1.01-.51,5.39,11.27-4.37Z" fill="#fff"/>
      <path d="M64.16,265.66l-9.31,5.51-2.75-4.66,12.06-.86Z" fill="#fff"/>
      <path d="M52.53,229.32l10.61-2.09-1.05-5.31-9.57,7.4Z" fill="#fff"/>
      <path d="M52.53,229.32l7.36-7.93,3.97,3.68-11.32,4.25Z" fill="#fff"/>
      <path d="M54.05,216.7l5.27,9.45,4.72-2.63-9.99-6.81Z" fill="#fff"/>
      <path d="M54.05,216.7l9.82,4.55-2.28,4.91-7.54-9.46Z" fill="#fff"/>
      <path d="M64.07,234.67l1.29-10.74-5.37-.65,4.08,11.39Z" fill="#fff"/>
      <path d="M64.07,234.67l-5.27-9.45,4.72-2.63.55,12.08Z" fill="#fff"/>
      <path d="M66.53,214.24l-7.36,7.93,3.96,3.68,3.39-11.61Z" fill="#fff"/>
      <path d="M66.53,214.24l-1.29,10.74-5.37-.65,6.66-10.09Z" fill="#fff"/>
      <path d="M72.72,225.35l-9.82-4.55-2.27,4.91,12.09-.36Z" fill="#fff"/>
      <path d="M72.72,225.35l-10.61,2.09-1.05-5.3,11.66,3.21Z" fill="#fff"/>
      <path d="M42.52,190.81l10.29,3.34,1.67-5.15-11.96,1.8Z" fill="#fff"/>
      <path d="M42.52,190.81l10.29-3.34,1.67,5.15-11.96-1.8Z" fill="#fff"/>
      <path d="M49.99,180.52v10.82h5.41l-5.41-10.82Z" fill="#fff"/>
      <path d="M49.99,180.52l6.36,8.75-4.38,3.18-1.98-11.93Z" fill="#fff"/>
      <path d="M49.99,201.1l6.36-8.75-4.38-3.18-1.98,11.93Z" fill="#fff"/>
      <path d="M49.99,201.1v-10.82h5.41l-5.41,10.82Z" fill="#fff"/>
      <path d="M62.09,184.45l-10.29,3.34,1.67,5.14,8.62-8.49Z" fill="#fff"/>
      <path d="M62.09,184.45l-6.36,8.75-4.38-3.18,10.74-5.58Z" fill="#fff"/>
      <path d="M62.09,197.17l-6.36-8.75-4.38,3.18,10.74,5.58Z" fill="#fff"/>
      <path d="M62.09,197.17l-10.29-3.35,1.67-5.14,8.62,8.49Z" fill="#fff"/>
      <path d="M156.97,120.08l-1.61,10.7-5.35-.81,6.96-9.89Z" fill="#fff"/>
      <path d="M156.97,120.08l-7.59,7.71,3.85,3.8,3.74-11.5Z" fill="#fff"/>
      <path d="M144.43,122.16l9.67,4.84-2.42,4.84-7.26-9.68Z" fill="#fff"/>
      <path d="M144.43,122.16l4.98,9.6,4.8-2.49-9.78-7.11Z" fill="#fff"/>
      <path d="M162.83,131.36l-10.67,1.78-.89-5.34,11.56,3.56Z" fill="#fff"/>
      <path d="M162.83,131.36l-9.68-4.84-2.42,4.84h12.1Z" fill="#fff"/>
      <path d="M142.53,134.74l7.59-7.71,3.85,3.79-11.44,3.91Z" fill="#fff"/>
      <path d="M142.53,134.74l10.67-1.78-.89-5.33-9.78,7.11Z" fill="#fff"/>
      <path d="M153.91,140.43l-4.98-9.6,4.8-2.49.18,12.09Z" fill="#fff"/>
      <path d="M153.91,140.43l1.61-10.7-5.35-.8,3.74,11.5Z" fill="#fff"/>
      <path d="M118.05,111.81l3.8,10.13-5.07,1.9,1.26-12.03Z" fill="#fff"/>
      <path d="M118.05,111.81l-2.88,10.43,5.21,1.44-2.34-11.86Z" fill="#fff"/>
      <path d="M108.11,119.74l10.8-.49.24,5.4-11.05-4.92Z" fill="#fff"/>
      <path d="M108.11,119.74l9.03,5.96,2.98-4.52-12.01-1.44Z" fill="#fff"/>
      <path d="M128.66,118.82l-8.46,6.74-3.37-4.23,11.83-2.51Z" fill="#fff"/>
      <path d="M128.66,118.82l-10.8.49.24,5.4,10.56-5.89Z" fill="#fff"/>
      <path d="M112.57,131.64l2.88-10.43,5.21,1.44-8.09,8.99Z" fill="#fff"/>
      <path d="M112.57,131.64l8.46-6.74-3.38-4.23-5.08,10.97Z" fill="#fff"/>
      <path d="M125.28,131.07l-9.03-5.96,2.98-4.52,6.05,10.48Z" fill="#fff"/>
      <path d="M125.28,131.07l-3.8-10.13-5.06,1.9,8.87,8.23Z" fill="#fff"/>
      <path d="M80.03,123.54l8.25,7-3.49,4.13-4.76-11.12Z" fill="#fff"/>
      <path d="M80.03,123.54l2.56,10.51,5.25-1.29-7.81-9.23Z" fill="#fff"/>
      <path d="M75.21,135.31l9.2-5.69,2.84,4.6-12.04,1.09Z" fill="#fff"/>
      <path d="M75.21,135.31l10.79.81.4-5.39-11.19,4.58Z" fill="#fff"/>
      <path d="M92.71,124.49l-4.1,10.01-5-2.05,9.1-7.96Z" fill="#fff"/>
      <path d="M92.71,124.49l-9.2,5.69,2.84,4.6,6.36-10.29Z" fill="#fff"/>
      <path d="M84.9,143.53l-2.56-10.51,5.25-1.28-2.69,11.79Z" fill="#fff"/>
      <path d="M84.9,143.53l4.1-10.01-5-2.05.9,12.06Z" fill="#fff"/>
      <path d="M95.72,136.84l-10.78-.81.4-5.39,10.38,6.2Z" fill="#fff"/>
      <path d="M95.72,136.84l-8.25-7-3.5,4.13,11.75,2.87Z" fill="#fff"/>
      <path d="M78.89,85.44l6.96,8.28-4.14,3.48-2.82-11.76Z" fill="#fff"/>
      <path d="M78.89,85.44l.77,10.79,5.39-.38-6.16-10.41Z" fill="#fff"/>
      <path d="M72.16,96.23l10.03-4.06,2.03,5.01-12.06-.95Z" fill="#fff"/>
      <path d="M72.16,96.23l10.5,2.61,1.3-5.25-11.8,2.64Z" fill="#fff"/>
      <path d="M91.23,88.5l-5.72,9.18-4.59-2.86,10.31-6.32Z" fill="#fff"/>
      <path d="M91.23,88.5l-10.02,4.06,2.03,5.01,7.99-9.08Z" fill="#fff"/>
      <path d="M80.35,105.97l-.77-10.79,5.4-.39-4.62,11.18Z" fill="#fff"/>
      <path d="M80.35,105.97l5.72-9.18-4.59-2.86-1.13,12.04Z" fill="#fff"/>
      <path d="M92.13,101.19l-10.5-2.61,1.3-5.25,9.19,7.86Z" fill="#fff"/>
      <path d="M92.13,101.19l-6.96-8.28-4.14,3.48,11.1,4.8Z" fill="#fff"/>
      <path d="M46.46,105.48l9.31,5.51-2.76,4.66-6.55-10.17Z" fill="#fff"/>
      <path d="M46.46,105.48l4.29,9.93,4.97-2.15-9.26-7.78Z" fill="#fff"/>
      <path d="M43.68,117.89l8.12-7.15,3.57,4.06-11.7,3.09Z" fill="#fff"/>
      <path d="M43.68,117.89l10.77-1.01-.51-5.39-10.27,6.4Z" fill="#fff"/>
      <path d="M59.12,104.29l-2.36,10.56-5.28-1.18,7.64-9.38Z" fill="#fff"/>
      <path d="M59.12,104.29l-8.12,7.15,3.57,4.06,4.54-11.21Z" fill="#fff"/>
      <path d="M54.62,124.37l-4.29-9.93,4.97-2.15-.68,12.07Z" fill="#fff"/>
      <path d="M54.62,124.37l2.37-10.56-5.28-1.18,2.91,11.74Z" fill="#fff"/>
      <path d="M64.16,115.97l-10.77,1.01-.51-5.39,11.27,4.37Z" fill="#fff"/>
      <path d="M64.16,115.97l-9.31-5.51-2.75,4.66,12.06.86Z" fill="#fff"/>
      <path d="M52.53,152.3l10.61,2.09-1.05,5.31-9.57-7.4Z" fill="#fff"/>
      <path d="M52.53,152.3l7.36,7.93,3.97-3.68-11.32-4.25Z" fill="#fff"/>
      <path d="M54.05,164.93l5.27-9.45,4.72,2.63-9.99,6.81Z" fill="#fff"/>
      <path d="M54.05,164.93l9.82-4.55-2.28-4.91-7.54,9.46Z" fill="#fff"/>
      <path d="M64.07,146.96l1.29,10.74-5.37.65,4.08-11.39Z" fill="#fff"/>
      <path d="M64.07,146.96l-5.27,9.45,4.72,2.63.55-12.08Z" fill="#fff"/>
      <path d="M66.53,167.38l-7.36-7.93,3.96-3.68,3.39,11.61Z" fill="#fff"/>
      <path d="M66.53,167.38l-1.29-10.74-5.37.65,6.66,10.09Z" fill="#fff"/>
      <path d="M72.72,156.28l-9.82,4.55-2.27-4.91,12.09.36Z" fill="#fff"/>
      <path d="M72.72,156.28l-10.61-2.09-1.05,5.3,11.66-3.21Z" fill="#fff"/>
    </g>
  </g>
</svg>