<?xml version="1.0" encoding="UTF-8"?>
<svg id="Layer_2" data-name="Layer 2" xmlns="http://www.w3.org/2000/svg" viewBox="0 0 450 300">
  <g id="_Ñëîé_1" data-name="Ñëîé 1">
    <g>
      <g id="path76">
        <path d="M0,300h450V0H0v300Z" fill="#002a86"/>
      </g>
      <g id="path82">
        <path d="M195.6,79.17c-3.81.21-8.52,1.84-11.69,4.4.38.93,1.08.83,1.85.6l.23-.29c.54,0,1.23-.54,1.85-.85.04-.06.09-.12.15-.17.02-.01.05-.03.06-.04.5-.3,1.43-.18,1.88-.6.1-.1.19-.24.23-.42,3.16-1.94,6.24-1.39,10.25-1.08v.77c-2.7-.54-7.64-.92-9.96,1.4,2.32,2,5.26,3.07,8.5,2.69l2.31-1c1.16,4.54,6.1,6.55,9.88,8.02.46-.78.78-1.77.85-2.77-.92-1.08-2.56-1.1-3.25-2.33,1.31.08,3.02.7,3.79,1.94.39,1.16-.02,2.31-.71,3.17.29.36.86.37,1.19.19.01,0,.03-.01.04-.02l5.42-4.33s.04-.03.06-.04c.39-.22.94.07,1.08.5l.17-.15c1.77,2.24,4.63,2.85,6.48,4.85l-.23.31.04.06c-.38-.03-.9-.53-1.35-.75-1.85-1.62-4.09-2.48-5.94-4.1-1.62,2.01-3.88,2.7-5.73,4.48-3.62-.16-7.09-2.4-10.1-4.71-.69-1-1.61-2.08-1.92-3.31-.77-.08-1.48.69-2.25.77-2.93-.16-6.7-.39-9.02-3.17-2.16.38-4.48,3.55-6.56.85h-.38c-7.26,7.17-17.22,11.64-23.08,19.98,1.24,1.7,3.1-.62,4.56-1.08,2.01-1.7,5.18-2.62,7.1-5.17l.15-.69s-.02-.02-.02-.02c0,0-.02-.02-.02-.02-.01,0-.03-.01-.04-.02,0,0-.03-.02-.04-.02-.3-.13-.81.02-1.08-.12,0,0-.01-.02-.02-.02,0,0-.02-.02-.02-.02-.01,0-.03-.03-.04-.04,0,0-.02-.02-.02-.02,0,0-.02-.02-.02-.02,0,0-.02-.03-.02-.04,0,0,0-.02,0-.02,0,0-.02-.03-.02-.04,0-.01,0-.05,0-.06,0-.03-.02-.09-.02-.12,0-.02,0-.04,0-.06.38-.58,1.15-.43,1.44-.75,0,0,.02-.01.02-.02,0,0,.02-.02.02-.02,0-.01.01-.03.02-.04,0,0,.02-.03.02-.04,0-.02.02-.06.02-.08,0-.01,0-.03,0-.04,2.47-1.47,5.48-2.8,7.33-4.96l3.31-2.77s.03.01.04.02c0,0,.02.02.02.02,0,0,.03.02.04.02,0,0,.03.02.04.02.12.05.27.08.38.12.01,0,.03.01.04.02,0,0,.02.02.02.02,0,0,.02.02.02.02,0,0,.02.02.02.02,0,.01.02.03.02.04,0,0,0,.02,0,.02,0,.01,0,.05,0,.06,0,.03,0,.08-.02.12-3.78,2.86-6.41,6.24-10.73,7.79v.92c1,.23,1.86-.83,2.94-1.06,2.08-1.31,4.01-2.94,6.25-3.94.16.3.31.55.23.85-.77.47-1.24.84-2.08,1.15l-.23.23.12.15s-.07,0-.1,0c-.05,0-.12,0-.17,0-.27.04-.47.19-.71.31v.25l-.15-.17c-.62,1.08-1.92,1.47-3,2.08-.77.23-1.41.84-2.1,1-.07-.13-.15-.2-.25-.25-.11-.06-.25-.1-.35-.15,0,0-.03-.02-.04-.02,0,0-.03-.02-.04-.02,0,0-.02-.02-.02-.02-.04-.03-.08-.08-.1-.12,0-.02-.02-.04-.02-.06-1.18,3.83-5.42,4.45-8.19,6.75,0,.01-.02.03-.02.04-.11.39.19,1.04.71,1.19h1.25c3.09-2.09,6.46-4.48,9.4-7.02.37-.24,1-.55,1.35-.46.06.02.13.06.17.1,0,0,.02.02.02.02,0,0,0,.02,0,.02,0,0,0,.03,0,.04,0,0,0,.03,0,.04,0,0-.02.03-.02.04,0,0,0,.02,0,.02-.2.48-1.07.59-1.35.94-2.62,2.62-5.33,4.48-8.33,6.42,0,.02,0,.04,0,.06,0,.04,0,.09,0,.12,0,.02.01.05.02.06,0,0,.02.03.02.04,0,0,.01.03.02.04,0,0,.02.02.02.02,0,0,.02.02.02.02.15.14.4.2.58.29,3.4-.46,5.49-3.69,8.19-5.23,2.62-2.16,4.79-4.01,7.1-6.25.15.15.44.23.52.38,0,0,0,.02,0,.02.05.1.1.17.1.23,0,0,0,.02,0,.02,0,0,0,.02,0,.02,0,0,0,.02,0,.02,0,0-.02.02-.02.02,0,0,0,.02,0,.02,0,.01-.02.03-.02.04-.01.02-.04.05-.06.06-.09.07-.24.13-.33.21,0,0-.02.02-.02.02-.01.02-.03.04-.04.06,0,0,0,.02,0,.02,0,0-.02.01-.02.02,0,0,0,.02,0,.02,0,0,0,.02,0,.02,0,0,0,.02,0,.02,0,0,0,.02,0,.02,0,.04.02.1.04.15-2.23,1.24-3.87,3.39-5.88,4.85-1.62,1.31-3.69,2.71-5.23,4.17,1.31,1.24,2.92-.62,4.54-.54.23-.92,1.54-2.17,2.4-2.4l.23.31c-.54.7-1.24,1.39-1.62,2.17.85.23,1.85-.16,2.31-.94,3.24-2.31,3.71-6.56,7.1-8.65.62,1.47-1.55,1.55-1.62,2.94-.93,1.08-1.62,2.24-2.08,3.48l-.15-.17-1.17,1.54c.46.54,1.02.85,1.71.85,1.7-1.62,2.39-3.54,4.17-5.31.14.06.25.1.31.17,0,0,.01.03.02.04,0,0,.02.02.02.02,0,0,.02.01.02.02,0,0,0,.02,0,.02,0,0,.02.03.02.04,0,0,0,.02,0,.02s0,.02,0,.02c0,0,.02.02.02.02.01.08,0,.19-.02.31-.7.7-1.56,1.54-1.79,2.54,2,.92,2.54-1.93,3.62-2.94.62-1.62,1.48-3.39,2.48-4.54,0,0,.02.02.02.02.03.03.09.06.12.08.08.04.2.08.27.12.02.01.05.05.06.06,0,0,.02.02.02.02,0,0,.02.01.02.02,0,0,0,.02,0,.02,0,0,.02.01.02.02,0,.02.02.05.02.06,0,0,0,.03,0,.04,0,.01.02.03.02.04,0,0,0,.02,0,.02,0,0,0,.02,0,.02,0,0-.02.02-.02.02,0,0,0,.02,0,.02,0,0-.02,0-.02,0,0,0-.02.02-.02.02,0,0-.02,0-.02,0-.04,0-.09.02-.12.04,0,0-.02.02-.02.02,0,0-.02.02-.02.02,0,0-.02.02-.02.02,0,0,0,.02,0,.02,0,0,0,.02,0,.02-.93,1.47-1.79,2.86-2.25,4.48,0,0,.02,0,.02,0,0,0,.02,0,.02,0,0,0,.02.02.02.02.26.15.47.62.73.77,0,0,.02,0,.02,0,0,0,.02.02.02.02,0,0,.02,0,.02,0s.02,0,.02,0c.01,0,.03.02.04.02,0,0,.03,0,.04,0,0,0,.02,0,.02,0,0,0,.03-.02.04-.02,0,0,.02,0,.02,0,0,0,.03-.02.04-.02,0,0,.02,0,.02,0,.04-.02.1-.07.15-.1,0,0,.03-.03.04-.04.03-.03.07-.09.1-.12.53-.69,1.01-1.59,1.54-2.21,0,0,.03.01.04.02,0,0,.02.02.02.02.03.03.06.07.08.1,0,0,.02.03.02.04,0,0,.02.02.02.02.08.19.04.41.04.62,0,.01,0,.03,0,.04,0,.02-.02.05-.02.06-.08.38-.55.73-.71,1.06,0,0-.02.03-.02.04,0,0-.02.03-.02.04,0,0,0,.03,0,.04,0,.02-.02.06-.02.08,0,0,.02.03.02.04,0,0,0,.03,0,.04,0,0,.02.03.02.04,0,0,.02.03.02.04.06.1.16.21.33.31,1-.31,1.94-.92,2.25-2,.1.06.18.13.23.21,0,0,.02.02.02.02,0,.02.01.05.02.06.21.63-.7,1.75-.69,2.23,0,.02,0,.06,0,.08,0,0,.02.02.02.02,0,0,.02.02.02.02,0,0,0,.02,0,.02,0,0,.02.02.02.02,0,0,.02,0,.02,0,0,0,.02.02.02.02,0,0,.02,0,.02,0,0,0,.02.02.02.02,0,0,.02,0,.02,0,.18.05.53,0,1.1-.19,0,0,.02-.02.02-.02.05-.03.11-.08.15-.12.01-.01.03-.05.04-.06.06-.12.1-.27.17-.38,0,0,.02-.02.02-.02.04-.05.1-.09.17-.1.05,0,.13-.02.21,0,.09.04.16.11.21.17.02.02.05.06.06.08.03.05.04.13.04.19,0,.15-.06.33-.15.46-.05.07-.11.14-.17.19.85,1.08,2.24.77,3.08,1.85.23-.38.46-.76.69-1.15h.4s0,.02,0,.02c.03.1,0,.24.02.35,0,0,0,.03,0,.04,0,0,.02.02.02.02,0,0,0,.02,0,.02,0,0,.02.02.02.02,0,0,.02.02.02.02,0,0,.03.02.04.02,0,0-.01.04-.02.04-.03.02-.08.06-.1.08-.17.18-.21.44-.35.6-.03.03-.07.06-.1.08-.01,0-.05.03-.06.04,0,0-.01,0-.02,0,.15.42.34.6.54.62.06,0,.13,0,.19-.02.26-.06.54-.24.75-.29.01,0,.03-.02.04-.02.01,0,.05,0,.06,0,.02,0,.05.01.06.02,0,0,.03.02.04.02.03.02.08.06.1.1.06.11.1.29.12.56.2.2.42.41.69.5.14.04.3.07.48.04.42-.36.65-1.14,1.21-1.23,0,0,.03,0,.04,0,.01,0,.05,0,.06,0,.02,0,.05,0,.06,0,.08.78-.23,1.7.23,2.31.15.07.29.07.4.04.03,0,.08-.03.1-.04.15-.07.29-.19.46-.23.06-.01.14-.01.21,0-.01.09-.03.18-.02.25,0,.01.02.03.02.04,0,0,0,.03,0,.04,0,0,.02.03.02.04,0,.01.01.03.02.04,0,0,.02.02.02.02.01.02.03.05.04.06,0,0,.02.02.02.02.09.08.24.13.4.21l.02.02.96.48c.45-1.26,1.11-2.71,1.15-4.15.38-.39.59-.73.67-1,.01-.05.02-.12.02-.17,0-.02.02-.06.02-.08,0-.02-.02-.06-.02-.08,0-.02,0-.05,0-.06,0-.02-.02-.05-.02-.06,0-.01-.02-.03-.02-.04-.38-.87-2.58-1.05-3.1-1.96,0,0-.02-.02-.02-.02-3.16-1.7-5.86-5.1-8.33-7.79-.03-.02-.06-.06-.08-.08-.34-.39-.25-.96-.6-1.31-1.85,2.93-5.39,1.94-8.25,1.94-2.47-.78-5.8-2.55-6.65-5.79l.17-1c.06,0,.12,0,.17,0,.02,0,.06.02.08.02.02,0,.05.02.06.02.03.01.06.03.08.04,0,0,.02.02.02.02,0,0,.02.01.02.02,0,0,.02.02.02.02,0,.01.01.05.02.06,0,0,.02.02.02.02,0,0,0,.02,0,.02.09.28-.04.75.04,1.06,0,0,.02.03.02.04,0,0,.02.03.02.04,0,0,0,.02,0,.02,0,0,.02.02.02.02,0,0,.02.03.02.04,0,0,.02.02.02.02.01.01.03.03.04.04.51.37.48,1.23,1,1.38.02,0,.06.02.08.02.46-.7.92-1.02,1.38-1.56,1.16,1.24-2.31,2.17-.23,3.1l1.48-1.94.6.54c-.54.54-.91,1.24-1.15,1.94.46.3.99.45,1.38.83.23-1.39,1.08-2.47,1.85-3.62.85.85-.7,1.86-.85,2.94-.12.18-.37.33-.48.52,0,0-.02.02-.02.02,0,0,0,.03,0,.04,0,0-.02.02-.02.02,0,0,0,.03,0,.04,0,0,0,.03,0,.04,2.24.08,4.92,1.4,6.08-1.69.1.05.18.12.23.19,0,.02.03.05.04.06.01.03.01.08.02.1,0,.04.02.09.02.12,0,.2-.09.43-.17.67l-.69.54c2,.84,2.4-1.62,3.71-2.54.54.54.47,1.53.85,2.23,3.47,3.63,6.4,7.8,11.1,9.5.69-1.08,1.46-2.31,1.77-3.62,1.08-.62,2.02-.61,3.25-.46,1.16.7,1.84,1.61,2.46,2.69.31,1.77.08,3.55-.23,5.25,1.08.54,2.78.23,4.02-.31-.16-2-1.79-5.39.83-6.62,1.39-.38,2.79-.31,4.25-.17.46-2.16-.55-4.63-1.4-6.48-.1-.44-.02-.72.15-.9.05-.05.12-.11.19-.15.5-.26,1.37-.17,1.83-.44.02-.01.06-.05.08-.06,4.4-1,9.65-2.69,11.27-7.4h.29c-.23,4.7-5.64,6.31-9.19,7.62-1.31.38-2.76.39-3.92,1.17,0,.92.53,1.7.83,2.48,2.08-.08,4.72-1.86,6.73-3.02.54,0,1.07-.54,1.38-.85,2.62-.62,4.32-4,7.02-4,.85.08,1.7,1.47,2.71,1.08,1.85.46,4.16-.02,5.4-1.71.02-.07.06-.12.1-.17.26-.27.84-.21,1.29-.21,1.62,1.47,3.55,2.29,5.4,3.15.31-.1.49-.03.69-.06,0,0,.03-.02.04-.02,0,0,.03,0,.04,0,0,0,.03-.02.04-.02.06-.03.12-.07.19-.12-4.47-3.54-8.95-6.94-14.73-7.08-6.25-1.55-8.96,7.78-15.29,6.4-1.46.07-3.85,0-4.62-1.54-1.39,1.39-3.54,2.54-5.62,1.69-1.31-1-2.7-1.53-3.94-2.54-1.31.93-2.69,2.23-4.54,1.54-4.71-1.32-8.19-6.24-13.35-6.08-.09,0-.18,0-.27,0ZM205.56,85.56s.02,0,.02,0c.85.3,1.92.92,2.23,1.77-.09.04-.18.05-.27.06-.04,0-.09.02-.12.02-.03,0-.08-.02-.1-.02-.03,0-.08-.01-.1-.02-.53-.17-.97-.84-1.48-1.12-.11-.16-.21-.41-.21-.56,0,0,0-.02,0-.02,0,0,0-.02,0-.02,0,0,0-.02,0-.02,0,0,.02-.02.02-.02,0,0,0-.02,0-.02,0,0,.02,0,.02,0,0,0,0-.02,0-.02Z" fill="#ffea0f"/>
      </g>
      <g id="path84">
        <path d="M243.73,103.85c-.13.03-.25.09-.33.15-3,2.78-6.94,4.78-10.42,6.25-2.85.93-5.95,1.53-8.96,1.69,0,0-.02.02-.02.02,0,.01-.01.05-.02.06-.02.03-.03.08-.04.1,0,.02-.02.06-.02.08-.01.13.01.27,0,.4,0,.05-.02.12-.04.17-.04.08-.11.17-.23.25l.15.15c-.93,1.31-2.7.78-3.94.71-1.34-.61-4.03.54-5.06-.69-.15-.18-.27-.42-.33-.71l-.54-.69c-1.98-.51-4.16-.68-5.96-1.69l-1.69-.5c-1.06-.4-2.48-.75-2.23-2.29,0,0-.03,0-.04,0,0,0-.02,0-.02,0-.02,0-.06,0-.08,0,0,0-.03,0-.04,0,0,0-.02,0-.02,0,0,0-.03,0-.04,0,0,0-.03.02-.04.02,0,0-.03,0-.04,0-.29.12-.45.47-.69.58,0,0-.02.02-.02.02,0,0-.02,0-.02,0,0,0-.02,0-.02,0,0,0-.02.02-.02.02,0,0-.02,0-.02,0-.01,0-.04,0-.04,0,0,0-.02,0-.02,0,0,0-.03-.02-.04-.02,0,0-.03,0-.04,0,0,0-.03-.02-.04-.02-.01,0-.03-.02-.04-.02-.01,0-.03-.01-.04-.02-.03-.02-.08-.04-.1-.06,0,0-.03-.03-.04-.04-.49-.56-.49-1.49-1.17-1.9-.07-.04-.15-.08-.23-.1-.16.47-.15,1.01-.54,1.4-1.16-.62-2.46-1.24-3.31-2.31-.13.18-.19.32-.21.46-.03.27.05.53-.1.94-1.39-.47-1.3-2.18-3-2.1-.22.38-.17,1.08-.17,1.4,0,0-.02.02-.02.02-.04.03-.09.06-.12.08-.04.02-.09.05-.12.06-.04.01-.09.02-.12.02-.02,0-.05,0-.06,0-.01,0-.03,0-.04,0-.01,0-.03,0-.04,0-.61-.1-1.26-1-2-1.17-.07-.02-.15-.02-.23-.02l-.15-.15c-.54.61.07,1.15-.54,1.69-1-.47-2.09-1.46-3.17-.69.08,1.16.32,2-.6,2.92.14.13.27.22.4.25,0,0,.02,0,.02,0,.02,0,.06,0,.08,0,0,0,.02,0,.02,0,.01,0,.05,0,.06,0,0,0,.02,0,.02,0,.02,0,.05-.02.06-.02.49-.16.84-1.01,1.33-1.23.66-.05,1.2-.81,1.81-1,.24-.07.51-.05.79.15.11.3.1.56.02.77-.2.5-.76.85-.96,1.31,0,.02-.03.06-.04.08,0,0,0,.02,0,.02,0,.01-.02.05-.02.06.58.32,1,.36,1.29.25.02,0,.04-.01.06-.02.01,0,.03-.01.04-.02.02,0,.05-.03.06-.04,0,0,.02-.02.02-.02.6-.48.66-1.83,1.19-2.42,0,0,.03-.03.04-.04.03-.03.07-.06.1-.08.02-.01.05-.03.06-.04.01,0,.03-.02.04-.02.02-.01.06-.03.08-.04.33-.11.8-.01,1.48.42,0,.01.01.03.02.04.01.02.03.06.04.08.02.05.03.12.04.17.1.61-.49,1.16-.54,1.56,0,.02,0,.06,0,.08,0,0,0,.03,0,.04,0,.01.01.05.02.06,0,0,.02.02.02.02.01.02.03.05.04.06,0,0,.02.02.02.02.02.02.07.06.1.08.1.06.26.12.46.17.62-.7,1.02-1.62,2.02-1.85.31.39.54,1,.23,1.4-.08.12-.19.2-.25.29,0,0-.02.03-.02.04,0,0,0,.02,0,.02,0,0-.02.02-.02.02,0,0,0,.02,0,.02,0,0,0,.02,0,.02,0,0,0,.02,0,.02,0,0,0,.02,0,.02,0,0,0,.02,0,.02,0,.01.02.03.02.04,0,0,0,.02,0,.02,0,0,.02.03.02.04,0,0,.02.02.02.02,1.46.92,2.15-2.17,4-.85.08.85-.23,1.4.23,1.94,1-.24,1.93-1.31,3.08-.69.03.02.07.04.1.06,0,0,.02.02.02.02.39.43.59,1.73,1.1,2.06.01,0,.03.01.04.02.24.1.56.03.98-.4,1.47,0,2.7,1.39,4.17.46,1-.38,1.87-.1,3.23,2.29l20.79.62c3.28-2.93,7.38-3.77,11.08-3.77,0,0,.02-.02.02-.02.07-.06.15-.12.21-.17.02-.02.05-.05.06-.06,0,0,.02-.02.02-.02,0,0,0-.02,0-.02,0,0,0-.02,0-.02,0,0,0-.02,0-.02,0,0,0-.02,0-.02,0,0,0-.02,0-.02-4.01-1.31-6.48,1.15-10.42,1.23-.1-.26-.36-.5-.46-.71,0,0-.02-.03-.02-.04,0,0,0-.02,0-.02,0-.03-.02-.06-.02-.08,0-.01,0-.03,0-.04,0-.01,0-.04,0-.06,0,0,.02-.02.02-.02,0,0,0-.02,0-.02,2.93-1,5.17-3.56,8.65-3.48,1.54-.31,3.1-.92,4.33-1.92-.77-.31-1.55-.4-2.4-.17-1.23.77-2.86,2.48-4.17,1.4.38-1.23,2.07-1.48,2.77-2.48,0-.02-.01-.05-.02-.06,0-.01-.01-.03-.02-.04,0,0-.02-.02-.02-.02-.02-.02-.05-.05-.06-.06,0,0-.02-.02-.02-.02,0,0-.02-.02-.02-.02-.01,0-.03-.02-.04-.02-.02,0-.05-.02-.06-.02-.02,0-.06-.02-.08-.02-.02,0-.06,0-.08,0,0,0-.02,0-.02,0-.02,0-.04,0-.06,0,0,0-.02,0-.02,0,0,0-.02,0-.02,0,0,0-.01,0-.02,0ZM230.41,112.98c.2-.02.38,0,.54.04.02,0,.05.02.06.02.05.02.11.05.15.08.03.03.07.07.1.1.06.08.13.19.17.33-.51.16-1.37.21-1.81-.08,0,0-.02-.02-.02-.02-.03-.02-.08-.06-.1-.08,0,0-.02-.02-.02-.02,0,0-.01-.03-.02-.04-.05-.07-.09-.17-.1-.27.3.06.7-.03,1.06-.06ZM226.41,113s.03,0,.04,0c0,0,.03,0,.04,0,0,0,.03,0,.04,0,.01,0,.05.02.06.02.02,0,.05.01.06.02,0,0,.03.02.04.02,0,0,.02.02.02.02,0,0,.02.02.02.02.02.02.05.05.06.06,0,0,.03.03.04.04.04.05.07.13.1.21,0,.01-.01.03-.02.04,0,0-.02.02-.02.02-.03.04-.05.08-.08.1-.33.28-1.04.07-1.5.15l-.15-.17s.02,0,.02,0c0,0,.02,0,.02,0,0,0,.02,0,.02,0,.01,0,.05-.02.06-.02.28-.1.67-.4,1-.5.02,0,.06-.02.08-.02,0,0,.02-.02.02-.02Z" fill="#ffea0f"/>
      </g>
      <g id="path86">
        <path d="M219.81,74.81c-.79.04-1.6.18-2.04.4-2.32.7-2.54,3.47-2.77,5.71-.15.91-.82,1.76-.92,2.52l.15-.12s.02,0,.02,0c0,0,.03,0,.04,0,.17-.02.36.01.5.1.04.03.09.08.12.12,0,0,.02.02.02.02,0,0,.02.03.02.04,0,0,.02.02.02.02,0,.02.01.06.02.08.5.28,1.09.63,1.58.58.06,0,.13-.02.19-.04.04-.01.09-.04.12-.06.02-.01.06-.05.08-.06.16-.13.31-.33.42-.65.23-.06.42-.03.56.08.04.04.09.1.12.15-.14.43-.03.99-.31,1.31-.02.02-.05.05-.06.06.01.04.02.1.04.12,0,.01.03.03.04.04.02.02.04.05.06.06,0,0,.03.02.04.02.01,0,.05.04.06.04.02,0,.05.02.06.02.11.03.25.05.35.08.02,0,.05.01.06.02.02,0,.05.01.06.02.02.01.06.04.08.06.01.01.03.03.04.04,1.93.62,2.92-.84,4.31-1.77.31-1.62-1.78-3.47-.85-5.4.85-1.16,1.94-.47,3.25-.85.07.17.2.41.35.58.03.03.07.08.1.1.17.14.39.23.62.17.31-1.01.07-2.18-.85-2.79-.85-.3-1.92-.14-2.46.4-.2.22-.38.32-.52.33-.01,0-.05,0-.06,0,0,0-.03-.02-.04-.02-.02,0-.05-.01-.06-.02,0,0-.03-.02-.04-.02,0,0-.02-.02-.02-.02-.02-.01-.05-.03-.06-.04,0,0-.02-.02-.02-.02-.28-.29-.46-.92-.73-1.1-.05.02-.12.03-.17.04-.28.05-.5-.08-.81-.21l.15-.15c-.28-.02-.59-.04-.9-.02ZM219.93,76.27c.36-.09.79.35,1.08.65.16.54-.48.76-.71,1-.54-.24-.84-.78-.69-1.4.03-.05.07-.09.1-.12,0,0,.02-.02.02-.02,0,0,.02-.02.02-.02.01,0,.03-.01.04-.02,0,0,.02-.02.02-.02,0,0,.02,0,.02,0,0,0,.02-.02.02-.02.01,0,.05-.02.06-.02Z" fill="#ffea0f"/>
      </g>
      <g id="path90">
        <path d="M252.64,85.78c2.01.85,3.86,2.63,6.25,2.09,3.78,2.39,7.87,5.71,11.8,7.63,1.85,2.16,4.78,3.02,6.25,5.41-4.48-3.24-9.26-4.64-13.74-8.02-1.78-.62-3.63.08-5.17-1.09-2.47-1-4.4-3.47-6.79-4.78-.38-.69-1-1.38-.7-2.16,1.08-.62,1.16.84,2.08.93" fill="#ffea0f"/>
      </g>
      <g id="path94">
        <path d="M242.92,86.25c-.39,5.86-7.18,9.57-11.11,13.19-.93.16-1.62,1.08-2.78.93-.93-2.09-1.54-4.56-1.62-6.79,4.32-1.16,8.02-4.17,11.88-6.26.54-.76,1.31-1.38,2.08-1.76.62-.09,1.24.22,1.54.69" fill="#ffea0f"/>
      </g>
      <g id="path96">
        <path d="M253.88,90.26c-.93,1.09-2.01.85-3.32.7.16-.47-.38-.47-.38-.85-.85.24-1.62,1.93-2.62.7-1.62-.54-1.85,1.62-3.39.54l-1.62.16c-.54,1.92,1.85.23,2.47,1,1.16,1.08,1.85-2.31,3.08-.3.93.3,1.47-.54,2.08-.7.46,1,1.39.38,2.32.54.38-.08.69-.38,1.15-.24.77,2.01,2.47,3.63,4.32,4.87.54-1.24-1.31-2.01-2-2.78-.77-.92-1.85-2.24-1.62-3.09l-.3-.31c.22.08.46-.3.69.16l.16-.16-.16.16c2.16,1.01,5.02,3.86,7.1,2.62,0,.15-.08.24-.16.31,2.55-.31,4.24,2.47,6.56,3.16,1.78,1.23,3.63,2.08,5.56,3.4,1.85.84,3.08,1.46,4.01,3.47,0,.54,0,1.32-.54,1.47l-.54-.08c-3.47-2.62-6.87-5.25-10.42-7.4-.62.3.08.84.23,1.16,3.08,2.23,6.64,4.32,9.34,6.79-.31.54-.7,1.62-1.54.92-2.55-.46-4.94-2.54-7.1-4.16-2.16-2.77-5.4-4.08-6.94-7.17-.23.15-.54.15-.7.38v.46c4.02,3.63,7.64,8.57,12.5,10.8,0,.32.08.7-.23.85-1.08-.7-2.24-1.54-3.48-1.39-.76,1.08-2.16.31-3.08.16-1.85-2.09-4.63-4.25-6.09-6.72-.23-.07-.39.16-.54.31.54,1.93,3.16,3.94,4.55,5.71-.38.3-.62,1.08-1.08.76l-2.55-2.47c-.08.24-.46.24-.54,0-2.24-2.08-4.01-3.93-5.17-6.63-.23-.08-.46,0-.7.24,1,3.16,3.4,5.01,5.56,7.48-.23.16-.08.39-.08.62-2-.77-3.31-2.94-5.32-3.48-.39-2.08-1.93-3.39-2.32-5.33-.31-.07-.38.16-.62.31.23,1.93,1.93,3.48,2.01,5.24.08,0,.15.09.23.16-1.46,0-2.24-1.62-3.62-2.39,0-1.24-.39-2.78-.93-4.01h-.46c-.08,1.23.85,2.93.31,4.01-.7-.46-1.08-2.01-2.24-1.78-.92,1.7-3.7.62-4.32,2.47l.16.16h-.23c0-.47,0-.85-.46-1.08-.69.54-.31,1.7-1.08,2.31-.54-.46-1.47-.08-1.39-1.08-1.24.07-.23,1.62-1.16,2.08-.62-.16-.38-1.7-1.39-1.08l-.08,1.93c-.54-.16-1.39-.3-1.85.15-.39.31-.39.78-.54,1.24-.46-.08-.85-.78-1.39-.31-.54.31-.39,1.54-1.24,1.16.15-.69-.77-.84-.7-1.39-.15-1.3-.92-2.7-.46-3.77,4.09-.7,6.64-4.4,9.64-6.95,2.93-2.01,3.78-4.71,4.71-7.64,1.93.62,4.01.15,5.7-.7.38,2.09,2.86,2.7,4.24,4.32" fill="#ffea0f"/>
      </g>
      <g id="path98">
        <path d="M217.54,99.28c-.08,3.94-.92,7.64-1.39,11.28h-.85c.15-.7.31-1.7-.16-2.24-1.31.24.39,3.78-2.24,2.47-.7-.46.31-1.31-.77-1.39-.15.31-.46.69-.15,1.01-.54.07-1.16-.16-1.7-.32.16-1.23,2.01-2.39,1.16-3.62-.85.93-1.85,2.16-1.85,3.4h-.69c1.39-2.85.69-6.02,2.24-8.8l-.15-.16.46-.23c-.08-.62.39-1.39.7-2.09.16-.62.77-1.23,1.39-1.39.31.31.93,0,.77-.46,1.54.08,2.55,1.31,3.24,2.54" fill="#ffea0f"/>
      </g>
      <g id="path100">
        <path d="M224.29,97.73c-.42,0-.9.02-1.5.02-.77.3-.86,1.15-.94,1.77.92,3.78.32,7.65,1.48,11.27.05.07.1.14.15.19.04.04.09.08.12.1,0,0,.03.02.04.02,0,0,.03.02.04.02.03.01.07.03.1.04.47.13,1.03-.23,1.54-.23l-.15-.54c.06-.71-.67-1.76-.35-2.38.03-.06.09-.14.15-.19.1-.09.25-.16.44-.21.62,1.08.53,2.31.69,3.46l4.33-1.15c-.46-.77-.24-1.93-.71-2.77-.06-.08-.1-.16-.12-.23,0,0-.02-.03-.02-.04,0,0,0-.02,0-.02,0,0,0-.03,0-.04,0,0,0-.02,0-.02,0,0,0-.03,0-.04,0,0,0-.02,0-.02s0-.02,0-.02c0,0,0-.02,0-.02,0,0,.02-.03.02-.04,0,0,0-.02,0-.02,0,0,.02-.02.02-.02.01-.02.03-.04.04-.06,0,0,.03-.03.04-.04,0,0,.02-.02.02-.02,0,0,.02-.02.02-.02.04-.03.1-.05.15-.08-1.93-2.63-.7-6.03-2.94-8.5-1.11-.16-1.75-.17-2.67-.17ZM227.95,108.31c.62.31.53,1.15.69,1.77,0,0,0,.02,0,.02,0,0-.02.02-.02.02,0,0-.02.02-.02.02,0,0-.02.02-.02.02-.03.03-.07.05-.1.06-.04.01-.09.02-.12.02-.08,0-.18,0-.25,0-.12-.47-.53-1.03-.44-1.5,0-.02.01-.06.02-.08,0-.01.01-.05.02-.06.02-.04.06-.09.08-.12.04-.05.1-.12.17-.17Z" fill="#ffea0f"/>
      </g>
      <g id="path102">
        <path d="M221.55,105.08c.08,2.39.16,5.09,1.54,7.1.23.54-.38.84-.54,1.16-1,.46-1.77-1.16-2.78-.62.08-.46.38-1.24,0-1.62-.39.15-.85.54-.85.92v.85h-1.15c-.38-.7.39-1.93-.69-2.47.23-1.55.23-3.63.62-5.56,1.15.7,2.93-.24,3.85.23" fill="#ffea0f"/>
      </g>
      <g id="path106">
        <path d="M215.61,113.03v-1.39c.46.15.7-.3,1.08-.39l.15,1.78h-1.23" fill="#ffea0f"/>
      </g>
      <g id="path114">
        <path d="M220.98,221.68l-.33-.12c-.69-.25-17.03-6.23-22.93-9.53-9.36-5.25-19.15-14.84-29.11-28.49-12-16.45-15.13-38.93-15.26-39.88-.74-5.51-.66-10.6,1.96-20.33,2.64-9.78,7.56-12.65,9.67-13.88,2.66-1.55,4.84-1.63,8.18-1.23,3.12.37,5.45,3.65,6.32,5.07l79.24.69c.84-.94,3.01-3.16,5.5-4.15,3.12-1.25,7.18-1.93,13.62,2.43,6.91,4.68,9.22,19.68,9.76,24.16,1.05,8.68-.32,17.45-4.19,26.81l-.38.93c-4.36,10.54-7.23,17.5-23.32,34.53-16.44,17.41-37.49,22.69-38.38,22.91l-.34.08ZM170.3,110.33c-1.69,0-2.83.34-4.16,1.12-2.01,1.18-6.21,3.62-8.6,12.48-2.52,9.36-2.6,14.2-1.9,19.42.03.23,3.19,22.86,14.84,38.82,9.62,13.2,19.43,22.82,28.37,27.84,5.28,2.96,19.84,8.36,22.26,9.25,2.76-.75,22.05-6.42,36.91-22.16,15.79-16.72,18.45-23.16,22.86-33.82l.39-.93c3.72-8.99,5.04-17.38,4.03-25.65-1.05-8.74-3.91-19.24-8.76-22.53-5.53-3.74-8.78-3.27-11.46-2.19-2.57,1.03-4.91,3.87-4.93,3.9l-.35.43h-.56s-81.13-.71-81.13-.71l-.32-.6c-.62-1.16-2.72-4.22-4.9-4.47-1.01-.12-1.84-.18-2.58-.18Z" fill="#ffea0f"/>
      </g>
      <g id="path116">
        <path d="M206.08,120.48s0,.02,0,.02c-.03.01-.06.03-.08.04-.03.01-.06.03-.08.04-.1.07-.18.18-.21.29-.11.6.62,1.67.62,1.67l1.15,18.52-1.79-.12-.4-5.92-2.81.25v4.77h-2.83l-1.94,1.79-.38-5.54,3.98-.25-.38-1.67-3.9.4-.88-9.4h-1.42l.27,16.98-3.48-.52-2.44-11.44-1.04.12-.5.5-2.83-.25v3.85l3.33.52,1.69,7.58s-.49.12-.81.33c-.02.01-.05.03-.06.04,0,0-.02.02-.02.02,0,0-.02.02-.02.02,0,0-.02.02-.02.02-.02.02-.05.06-.06.08,0,0-.02.02-.02.02,0,0,0,.02,0,.02,0,0-.02.02-.02.02,0,.02-.02.05-.02.06,0,0,0,.03,0,.04,0,0,0,.02,0,.02,0,0,0,.03,0,.04,0,0,0,.03,0,.04,0,0,0,.03,0,.04,0,0,.02.03.02.04,0,0,0,.02,0,.02.26.65,1.54,2.06,1.54,2.06l7.33-.62,1.04-1.17,1.27,1.02,2.46.15.9-1.29,1.79,1.02s4.63-1.42,6.56-1.42,35.35.9,35.35.9l-1.15,1.81c.02.13.21,1.17,1.29,1.29,1.16.12,20.83.1,20.83.1l-1.17,3.35.52,2.19-2.31,3.23,2.19.12-3.23,4.6,2.06.27-2.06,2.06,2.96-.15v7.21l1.54-.12v-2.58h2.06l-.12,2.71h2.06v-3.98l1.15.12v4.12h1.42l.65-11.33,1.79,1.17-.25-3.08.77-.12s-1.81-2.97-1.81-4.25c0-1.29-.12-2.83-.12-2.83l1.42.65.9,1.54-.62,1.67,1.54-.65-.27,11.58-1.79,2.44,1.67-.77.4.92,1.92-3.75v-10.29l.52-3.21,2.06-.25.12-1.02-1.94-1.17,2.06-1.15-1.54-1.56-.27-3.21,1.94-1.67-1.94-.65-.5-3.21,1.27-.92s-1.01-1.66-1.27-2.29c-.26-.65-.52-1.94-.52-1.94l2.58-.9s-2.97-2.57-4.77-3.6c-1.73-.98-4.77-2.22-5.46-2.77-.02-.02-.05-.05-.06-.06-.51-.52-2.06-2.19-2.06-2.19,0,0-1.38-.41-2.02-.1-.03.02-.08.04-.1.06,0,0-.03.02-.04.02,0,0-.02.02-.02.02,0,0-.02.02-.02.02-.75.7-9.24,7.6-9.62,8.21-.26.52-1.03,3.23-1.42,3.88-.38.64-1.67,2.43-2.31,3.33-.6.84-.87,1.58-.9,1.67.05.04.41.31.73.4,0,0,.02,0,.02,0,.02,0,.06.02.08.02h.02s.03,0,.04,0c0,0,.03,0,.04,0,.01,0,.05-.02.06-.02,0,0,.02,0,.02,0,.38-.12,2.06-.77,2.71-.52.6.24.98.71,1.02.77h-1.67c-1.03,0-3.08,1.03-3.85,1.67s-2.44,1.42-2.44,1.42l-.52-.25,3.6-2.58c-.08-.07-.75-.58-1.12-.4,0,0-.03.02-.04.02-.38.25-2.7,1.28-3.73,1.79-.96.48-1.81,1.32-1.92,1.42v.35c-.19-.33-3.37-5.62-8.1-5.75-4.74-.12-7.91,5.42-8.1,5.77l-9.77-1.54.25,1.04-5.65-.4,2.81-.9.27.52,1.67-.52-9-2.31-.9,2.31-2.46-.25-2.04-18.52s.38-.98.1-1.54c0,0-.02-.03-.02-.04-.02-.02-.05-.06-.06-.08-.01-.02-.05-.05-.06-.06-.02-.02-.06-.05-.08-.06-.09-.06-.21-.1-.35-.12-.05,0-.11-.02-.17-.02-.01,0-.03,0-.04,0,0,0-.02,0-.02,0,0,0-.03,0-.04,0h-.04s-.02,0-.02,0c0,0-.02,0-.02,0,0,0-.02,0-.02,0,0,0-.02,0-.02,0,0,0-.02,0-.02,0ZM275.56,127.21c.13.06.91.38,1.38.6.52.27.5,1.04.5,2.19,0,1.08-.22,1.83-.25,1.92l.9,1.56.9-1.69h.65l-1.54,3.1s.02.02.02.02c0,0,.02.02.02.02,0,0,.02.02.02.02.02.02.05.04.08.06,0,0,.03.02.04.02.12.05.31.1.58.1.01,0,.03,0,.04,0,0,0,.03,0,.04,0,.02,0,.06.02.08.02.46.15.59.9.6,1,0,0-.12,1.81-.12,3.23,0,.38-.09.65-.21.85-.05.08-.11.15-.17.21,0,0-.02.02-.02.02-.07.06-.16.13-.23.17-.17.09-.36.13-.46.15,0,0-.03,0-.04,0,.04.05.39.42.88.79.51.38.62,1.53.62,4.35s-1.8,3.44-1.92,3.48l-1.94-3.85,1.54-.77-2.04-3.88,2.04-1.02s-.5-1.03-1.27-2.06c-.77-1.02.12-3.21.12-3.21.05-.09.49-.83.12-1.92-.35-1.05.15-1.68.25-1.79,0,0,0-.02,0-.02,0,0-.25-1.02-.12-1.79,0-.05.02-.12.02-.17,0,0,0-.02,0-.02,0,0,0-.03,0-.04-.1-.65-.92-1.47-1.12-1.67ZM273.81,127.83l-.6,1.02,1.15,1.27s-.44,2.2-.17,2.98c0,0,0,.02,0,.02,0,0,.02.03.02.04,0,0,.02.03.02.04.39.64,1.8,1.43.77,4-1.03,2.57-1.17,3.73-1.04,4.75.13,1.03,0,2.44,0,2.44l-.62-.12-.4-2.31-.38-.9s.38-2.2.38-3.23-.77-2.94-.77-2.94c0,0-4.1.75-4.88,1.15-.77.38-2.58,1.04-2.58,1.04l-.25-.79s5.58-2.03,6.04-2.31c.38-.26,1.42-.25,1.42-.25l.77-3.08s-.9-.9-.9-1.29c0,0,0-.02,0-.02,0,0,0-.02,0-.02,0,0,0-.02,0-.02,0,0,.02-.02.02-.02.23-.42,1.79-1.32,2-1.44ZM267.95,137.83s.02,0,.02,0c0,0,.03,0,.04,0,0,0,.02,0,.02,0,0,0,.02,0,.02,0,0,0,.02,0,.02,0,.03,0,.07,0,.1,0,0,0,.02,0,.02,0,.03,0,.07.01.1.02,0,0,.02,0,.02,0,0,0,.02,0,.02,0,0,0,.02.02.02.02,0,0,.02,0,.02,0,0,0,.02.02.02.02,0,0,.02,0,.02,0,0,0,.02.02.02.02,0,0,.03.03.04.04,0,0,.02.02.02.02.03.04.06.1.08.15.14.32.11.8.1.88l-.92,1.94.52.5,1.79.92.65-2.83.77-.38s.27,1.15.27,1.67-.78,2.57-1.29,3.73c-.48,1.08.17,1.94.25,2.04l-.38,1.42h-.65v-.77c.01-.09.09-.82-.4-1.42,0,0-.02-.02-.02-.02,0,0-.02-.02-.02-.02-.03-.03-.06-.06-.08-.08,0,0-.02-.02-.02-.02-.45-.35-1.05-.05-1.42.02,0,0-.03,0-.04,0,0,0-.02,0-.02,0-.01,0-.03,0-.04,0-.38,0-1.54-.77-1.54-.77,0,0-.51.13-.9.38,0,0-.02.02-.02.02,0,0-.03.02-.04.02,0,0-.02,0-.02,0,0,0-.03.02-.04.02,0,0-.02,0-.02,0-.41.03-1.06-.66-1.4-1.33-.38-.77-.77-2.83-.77-2.83l-.65.27-.65-.65,2.71-2.19.12,1.02-.77.9s0,.65.25,2.06c.24,1.33,1.4,1.63,1.54,1.67l1.17-.9.9,1.29,1.79.25.65-1.67s-2.96-1.3-3.6-2.06c-.07-.08-.13-.18-.17-.27-.32-.75.23-1.71.69-2.17.34-.35.65-.7.96-.85.03-.01.08-.03.1-.04,0,0,0-.02,0-.02ZM274.1,145.69l-.12,1.92-.77,2.06-.27-.5-.38-2.83,1.54-.65ZM270.1,149.42l.77,1.54-.62,1.67-.92.65v-2.19l.77-1.67ZM273.06,152.77l1.17.25s.12,1.55.12,2.06-.9,2.96-.9,2.96l-.9-1.56.5-3.71ZM269.48,154.69l.62,1.04-.5,1.92-.77-.12v-2.19l.65-.65ZM269.98,158.81l.52,1.15-.4.65-1.27-.12,1.15-1.67ZM272.16,160.35l1.29.25-.65,4.12-.65-.15v-4.23ZM269.2,162.54l1.67.52.15.5-1.94,1.92-.52-.23-.12-2.08.77-.62Z" fill="#ffea0f"/>
      </g>
      <g id="path138">
        <path d="M209.31,144.56c-1.18.16-2.19,1.02-2.98,1.65-.03.02-.06.06-.08.08,0,0-.03.03-.04.04-1.04,1.19.28,4.74.9,7.46.64,2.83,5.67,10.17,5.67,10.17l2.44,4.62s-.64.52-1.02,1.17c-.39.64-1.43,3.08-1.17,6.04.26,2.96,2.97,4.1,4.12,4.75,1.16.64,3.85.25,3.85.25l.9.77-15.81-.77,1.15-4.5.92-2.04s.5,3.07.62,3.58c0,0,0,.02,0,.02,0,.03.03.06.04.08.02.03.04.08.06.1,0,0,.02.02.02.02,0,0,.03.03.04.04.01,0,.03.03.04.04.04.04.1.08.15.1.22.12.5.17.71.12.02,0,.05-.01.06-.02.01,0,.03-.01.04-.02,0,0,.03-.02.04-.02.02-.01.05-.05.06-.06,0,0,.02-.02.02-.02.26-.38.38-2.06.38-4.25s.13-8.11,0-9.65c-.13-1.55-1.54-1.79-1.54-1.79l-3.98-.25s0-.77-.12-1.17c0,0,0-.02,0-.02,0,0-.02-.02-.02-.02-.01-.02-.03-.05-.04-.06-.3-.37-1.43-.83-2.25-1.06-.9-.25-6.04-.62-7.58-.62s-5.92.76-9.4.62c-3.47-.12-9.25,1.17-9.25,1.17l-2.31-1.92-1.29,1.02-1.69.12.52,2.19s-1.01,5.02-1.27,5.79c0,.02-.02.06-.02.08-.01.06-.02.14-.02.21,0,0,0,.02,0,.02.07.77,1.04,1.79,1.71,2.12.77.38,2.19.38,2.19.38l1.25-1.23c-.06.16-.1.38-.1.6,0,.52.4,1.27.4,1.27,0,0,1.75.63,2.42.52,0,0,.02,0,.02,0,.64-.13,2.31-.4,2.31-.4,0,0,1.15,2.7,1.67,3.85.52,1.16-.13,4.77-.13,4.77,0,0-1.93.32-2.56.77,0,0-.02.02-.02.02-.03.03-.06.06-.08.08,0,0-.02.02-.02.02,0,0-.02.02-.02.02,0,.01-.02.04-.02.04,0,.01-.02.05-.02.06,0,0,0,.02,0,.02,0,0,0,.03,0,.04,0,0,0,.03,0,.04,0,0,.02.02.02.02,0,.02.03.06.04.08,0,0,.02.03.02.04,0,0,.02.03.02.04,0,0,.02.02.02.02,0,0,.02.02.02.02.41.42,1.58.83,2.6.83,1.42,0,5.41.25,8.62.25s9.51-.26,12.33-.4c2.83-.13,6.05-.5,9.27-.5s10.92.5,12.85.5,8.37.52,10.17.52,9.39.15,11.19.27c1.8.13,11.83,1.27,12.73,1.15.16-.02.31-.07.42-.12.08-.04.15-.08.21-.12,0,0,.03-.03.04-.04,0,0,.03-.03.04-.04l.02-.02s.05-.06.06-.08c.02-.04.05-.09.06-.12,0-.02.03-.06.04-.08,0,0,0-.02,0-.02,0,0,0-.02,0-.02,0,0,0-.02,0-.02,0,0,0-.02,0-.02,0,0,0-.02,0-.02,0,0,0-.02,0-.02l-2.96-1.02s-5.69.25-6.17.21c0,0-.02,0-.02,0v-.02s.02,0,.02,0c.09-.01.31-.04.65-.06,3.08-.26,5.77-3.09,6.42-4.62.64-1.54.25-4.9.25-4.9,0,0,1.42.25,2.06.25s2.45-.13,3.6,0c1.16.13,1.94-.38,2.71-1.02.77-.64,1.42-1.02,1.42-1.02l-4.25-.4.65-2.44.25,2.19,1.42-.4-.12-5.65-.4-.27-1.54,1.69.52.38-.77.52-.9-1.54-1.81,3.33h.92l-.4,1.94h-2.56s.12-2.58.25-5.02c.13-2.45,4.1-10.67,5.52-12.08,1.42-1.41,1.43-3.21,1.17-3.85,0-.01-.02-.03-.02-.04,0-.01-.03-.05-.04-.06,0,0-.02-.02-.02-.02-.02-.02-.06-.06-.08-.08-.68-.56-2.95-1.08-4.21-1.08-1.41,0-2.84.78-4.12.27-1.23-.5-3.9-.03-4.56.46,0,0-.02.02-.02.02,0,0-.03.02-.04.02,0,0-.02.02-.02.02-.03.03-.08.06-.12.08-.74.43-2.94.6-4.6-.35-1.8-1.02-3.61-.39-4.9-.12-1.29.26-2.45.13-3.73-.9-1.29-1.03-3.34-.38-3.85,0,0,0-.03.02-.04.02-.01,0-.03.02-.04.02-.63.32-2.41.28-3.5-.44-1.16-.78-1.93-.52-4.5-.27-2.58.27-2.46-.38-4-1.02s-5.27.66-7.33.79c-2.06.12-2.19-.27-4.38-1.94-.73-.56-1.44-.77-2.1-.75,0,0-.02,0-.02,0-.02,0-.06,0-.08,0,0,0-.02,0-.02,0,0,0-.03,0-.04,0,0,0-.02,0-.02,0,0,0-.03,0-.04,0,0,0-.02,0-.02,0-.02,0-.04,0-.06,0ZM174.23,165.25c.05-.01.08,0,.08,0v.9s-.01.06-.02.08c-.01.03-.04.08-.06.1,0,0-.03.03-.04.04-.05.05-.12.09-.19.12-.19.09-.41.14-.46.15,0,0-.13-.05-.25-.15-.02-.02-.06-.06-.08-.08-.04-.05-.08-.12-.1-.19-.02-.1-.02-.23.04-.35.21-.42.85-.58,1.08-.62ZM179,166.54s.09,0,.12,0c.17,0,.32.05.4.08.02.01.06.02.06.02,0,0-.14.64-.52,1.02-.07.07-.15.13-.21.17-.03.02-.08.03-.1.04,0,0-.03.02-.04.02,0,0-.02,0-.02,0,0,0-.03,0-.04,0,0,0-.02,0-.02,0,0,0-.02,0-.02,0-.04,0-.08-.03-.1-.04,0,0-.03-.02-.04-.02-.02-.01-.04-.02-.04-.02,0,0-.25-.91.27-1.17.11-.06.22-.09.31-.1ZM256.6,167.69l.27,3.46s-.91-1.54-1.94-1.92c-1.03-.38-2.31-.52-5.4-.52s-4.9,3.25-5.02,3.46l-.65-.25.77-3.33-17.08.52c.17.07,1.61.7,2.81,1.67,1.28,1.02,2.56,3.73,2.56,3.73l-.38.52,6.56.12s-.51,2.43,0,3.46c.52,1.02,1.54,2.46,1.54,2.46h-11.06s2.05-2.33,2.31-3.23c.26-.9.65-2.81.65-2.81,0,0-.51-.65-.77-1.42-.26-.77-1.16-1.68-2.31-2.71,0,0-.02-.02-.02-.02-1.22-1.02-7.31-1.52-7.31-1.52l-1.29-.77,35.75-.9ZM235.77,169.23l.52.77v1.27l-.9.15v-1.42l.38-.77ZM251.2,169.87l.65.62-.52,2.19-.38-.12.25-2.69ZM183.81,170l.65,1.42-.65,8.02c-.11-.65-1.02-5.82-1.4-6.33,0,0,0-.02,0-.02-.39-.38-1.17-2.19-1.17-2.19l2.56-.9ZM217.25,170l2.58.5-1.42,1.17-1.54-.9.38-.77ZM241.43,170l.9.25-.52,2.06-.5-1.42.12-.9ZM249.79,170l.4,2.44-1.17.25-.77-2.31,1.54-.38ZM246.95,170.64l.9,1.79-.25.52-1.67-.77,1.02-1.54ZM223.56,170.77l1.15.12-.25,2.44-1.67-1.42.77-1.15ZM253.27,170.77l.65.77-1.04,1.42-.5-.25.9-1.94ZM226.52,171.02l1.15,1.04-.77,1.79h-.77l-.12-.65.52-2.19ZM201.43,171.67l.4,1.79,2.69,1.56-1.15,5.27-4.5.12,2.56-8.75ZM215.85,172.06l2.31.77-.27.38-2.44-.65.4-.5ZM234.75,172.06l3.33.12.15.77h-3.35l-.12-.9ZM221.89,172.83l1.15,1.02-.65,1.02-1.27-.12.77-1.92ZM245.68,172.96l1.79,1.15.12.92-1.79.62-.12-2.69ZM186.64,173.33l3.08,2.44v4.52l-3.73-.4.65-6.56ZM255.06,173.46l-.12.92-1.79.5-.15-1.27,2.06-.15ZM228.06,173.6h.77l.12,1.92-1.54.12-.25-.62.9-1.42ZM215.06,173.85l2.58.52-2.58.38v-.9ZM250.68,174.35s.03,0,.04,0c0,0,.02,0,.02,0,0,0,.02,0,.02,0,.02,0,.05,0,.06,0,.02,0,.06,0,.08,0,.02,0,.05.02.06.02,0,0,.02,0,.02,0,.03,0,.06.03.08.04.1.05.2.13.27.23.01.02.05.06.06.08.08.15.12.34.12.54,0,.08,0,.16-.02.23-.03.13-.08.26-.15.35-.01.01-.03.05-.04.06-.02.02-.06.06-.08.08,0,0-.03.03-.04.04-.02.01-.05.03-.06.04-.09.05-.21.08-.31.08-.11,0-.24-.03-.33-.08-.02,0-.05-.03-.06-.04,0,0-.03-.03-.04-.04-.02-.02-.06-.06-.08-.08-.01-.02-.03-.05-.04-.06-.06-.1-.12-.23-.15-.35-.01-.07-.02-.15-.02-.23,0-.22.06-.45.17-.6,0,0,.02-.02.02-.02.07-.09.17-.18.27-.23.02,0,.06-.03.08-.04,0,0,.02,0,.02,0,0,0,.01-.02.02-.02ZM198.48,174.5l-2.44,5.92-2.83.12s-.52-1.02-.65-1.67c-.13-.64,0-4.25,0-4.25l5.92-.12ZM224.66,175.37s.03,0,.04,0c0,0,.02,0,.02,0,0,0,.03,0,.04,0,0,0,.02,0,.02,0,0,0,.02,0,.02,0,.01,0,.03,0,.04,0,0,0,.03,0,.04,0,0,0,.03,0,.04,0,0,0,.02,0,.02,0,.03,0,.07.03.1.04.03.02.08.04.1.06.05.04.11.11.15.17,0,.01.02.03.02.04,0,.01.02.03.02.04,0,0,.02.03.02.04,0,0,0,.02,0,.02,0,0,.02.03.02.04,0,0,0,.03,0,.04,0,0,0,.03,0,.04,0,0,0,.03,0,.04,0,0,0,.02,0,.02,0,.01-.02.05-.02.06,0,.02-.01.04-.02.06,0,.02-.03.06-.04.08-.01.02-.03.05-.04.06,0,0-.03.03-.04.04-.03.03-.07.06-.1.08-.02.01-.06.03-.08.04-.02,0-.06.02-.08.02,0,0-.02.02-.02.02,0,0-.03,0-.04,0-.01,0-.03,0-.04,0,0,0-.03,0-.04,0,0,0-.02,0-.02,0,0,0-.02,0-.02,0,0,0-.03-.02-.04-.02-.12-.03-.24-.1-.31-.19-.02-.03-.04-.07-.06-.1,0,0-.02-.03-.02-.04,0,0-.02-.03-.02-.04,0,0,0-.02,0-.02,0,0,0-.03,0-.04,0,0,0-.02,0-.02,0,0-.02-.03-.02-.04,0,0,0-.02,0-.02,0,0,0-.03,0-.04,0,0,.02-.03.02-.04,0,0,0-.03,0-.04,0,0,0-.02,0-.02,0,0,.02-.03.02-.04,0-.01.02-.03.02-.04,0-.01.02-.03.02-.04,0,0,.01-.03.02-.04.02-.02.04-.06.06-.08.03-.03.07-.06.1-.08,0,0,.03-.02.04-.02.02,0,.04-.03.06-.04ZM218.02,175.77l.27.65-2.19,1.17-.65-1.02,2.56-.79ZM253.27,175.77l1.27.15-.12.65-1.15-.15v-.65ZM220.98,175.92h1.94l.12.77-1.15,1.27-.92-2.04ZM241.93,176.17h.79l-.15,1.04-.65.5v-1.54ZM247.48,176.29l.25.77-1.67,1.17-.52-1.54,1.94-.4ZM227.29,176.56l1.79.38-.38,1.02-1.67-.38.25-1.02ZM252.1,177.21l.77,2.19-1.42.62-.25-2.56.9-.25ZM218.66,177.33l.52.5-.52,1.29-1.27-.52,1.27-1.27ZM225.87,177.98h.65l.38,1.42-.9.38-.12-1.79ZM224.08,178.1l1.02.77-.12,1.02-1.67-.12.77-1.67ZM248.12,178.87l-.12,1.54-.92-.4,1.04-1.15ZM249.54,179.39l.65.25v1.27h-1.17l.52-1.52Z" fill="#ffea0f"/>
      </g>
      <g id="path176">
        <path d="M230.5,166.27c-.21,0-.39-.17-.39-.39,0,0,0-.53-.13-2.03-.08-.98-.57-1.05-2.11-1.15-.2-.01-.4-.02-.62-.04-1.3-.09-1.49.77-1.51.93v1.9c0,.21-.17.39-.39.39s-.39-.17-.39-.39v-1.92h0c0-.2-.27-.33-.72-.52-.21-.09-.43-.19-.63-.3-.43-.26-1.88-.58-2.7-.73-.21-.04-.35-.24-.31-.45.04-.21.24-.35.45-.31.23.04,2.28.41,2.96.83.16.1.35.18.54.26.24.1.51.22.73.38.33-.48.95-.9,2.03-.83.21.02.42.03.61.04,1.45.09,2.7.16,2.84,1.85.13,1.55.13,2.07.13,2.1,0,.21-.17.39-.39.39h0ZM242.85,166.27h0c-.21,0-.39-.17-.39-.39,0-.07.01-1.75.92-2.6.38-.36.87-.52,1.42-.48.21.01.37.2.36.41-.02.21-.2.36-.41.36-.34-.03-.61.07-.84.27-.55.51-.68,1.64-.68,2.04,0,.21-.17.38-.39.38ZM232.17,166.14c-.18,0-.34-.13-.38-.31-.01-.07-.31-1.67.44-2.57.32-.39.79-.59,1.36-.59,2.5,0,4.21.23,4.37,1.36.13.9.26,1.79.26,1.79l-.76.11s-.13-.9-.26-1.8c-.05-.32-.71-.7-3.6-.7-.34,0-.59.1-.76.31-.43.51-.34,1.57-.27,1.94.04.21-.1.41-.31.45-.02,0-.05,0-.07,0ZM249.27,166.14c-.12,0-.24-.06-.32-.17-.05-.08-.31-.54-.45-1.84-.13-1.31,1.6-1.93,2.64-2.09.21-.03.41.11.44.32.03.21-.11.41-.32.44-.54.08-2.07.5-1.99,1.25.12,1.13.33,1.5.33,1.51.11.18.05.42-.13.53-.06.04-.13.06-.2.06ZM253,165.87s-.07,0-.11-.02c-.2-.06-.32-.27-.26-.48.12-.4.76-2.4,1.81-2.7.9-.26,2.03-.51,2.08-.52.2-.04.41.09.46.29.05.21-.09.41-.29.46-.01,0-1.16.26-2.04.51-.47.13-1.04,1.38-1.28,2.17-.05.17-.2.28-.37.28ZM215.07,163.18c-.15,0-.29-.09-.35-.23-.09-.19,0-.42.2-.51l2.32-1.03c.19-.08.42,0,.51.2.09.19,0,.42-.2.51l-2.32,1.03c-.05.02-.1.03-.16.03ZM230.63,162.15s-.02,0-.02,0c-.21-.01-.38-.19-.36-.41l.39-6.68c.01-.21.21-.39.41-.36.21.01.38.19.36.41l-.39,6.68c-.01.21-.18.36-.38.36ZM253.39,162.02s-.08,0-.12-.02c-.2-.07-.31-.29-.24-.49l2.06-6.04c.07-.2.29-.31.49-.24.2.07.31.29.24.49l-2.06,6.04c-.05.16-.2.26-.37.26ZM245.8,160.87s-.03,0-.05,0c-.21-.02-.36-.22-.34-.43l.77-6.56c.03-.21.22-.37.43-.34.21.02.36.22.34.43l-.77,6.56c-.02.2-.19.34-.38.34ZM219.7,160.87c-.2,0-.36-.15-.38-.35,0-.03-.26-2.54-1-4.4-.77-1.92-2.7-6.81-2.7-6.81l.72-.28s1.93,4.89,2.7,6.81c.78,1.97,1.04,4.51,1.05,4.61.02.21-.13.4-.35.42-.01,0-.03,0-.04,0ZM222.4,160.22c-.2,0-.36-.15-.38-.35l-.77-7.45c-.02-.21.13-.4.34-.42.21-.02.4.13.42.34l.77,7.45c.02.21-.13.4-.34.42-.01,0-.03,0-.04,0ZM238.86,159.19s-.02,0-.04,0c-.21-.02-.37-.21-.35-.42l.38-4.12c.02-.21.21-.37.42-.35.21.02.37.21.35.42l-.38,4.12c-.02.2-.19.35-.38.35ZM211.47,156.63c-.14,0-.27-.07-.34-.2-.07-.13-1.84-3.31-1.97-4.66-.09-.84.18-2.6,1.2-3.09.4-.19,1.06-.24,1.9.6,1.71,1.71,2.46,3.04,2.3,4.06-.12.74-.12,1.98-.12,1.99,0,.21-.17.39-.39.39s-.39-.17-.39-.39c0-.05,0-1.32.13-2.12.09-.51-.21-1.52-2.08-3.39-.29-.29-.7-.6-1.02-.45-.51.24-.85,1.48-.76,2.32.1.99,1.39,3.48,1.88,4.36.1.19.04.42-.15.53-.06.03-.12.05-.19.05Z" fill="#002a86"/>
      </g>
      <g id="path178">
        <path d="M266.02,181.4c-1.11,0-2.86-.4-3.72-.61-.21-.05-.33-.26-.28-.47.05-.21.26-.33.47-.28,1.64.41,3.61.73,3.96.55.19-.1.42-.03.52.15.1.18.05.41-.13.51-.17.1-.46.14-.82.14ZM258.28,179.9c-.18,0-.34-.13-.38-.31-.04-.21.1-.41.31-.45l3.98-.77c.21-.04.41.1.45.31.04.21-.1.41-.31.45l-3.98.77s-.05,0-.07,0ZM260.72,178.1c-.2,0-.37-.16-.38-.36-.01-.21.15-.4.36-.41l1.93-.13c.2,0,.4.15.41.36.01.21-.15.4-.36.41l-1.93.13s-.02,0-.03,0ZM261.75,175.78h-1.42c-.21,0-.39-.17-.39-.39s.17-.39.39-.39h1.42c.21,0,.39.17.39.39s-.17.39-.39.39ZM263.29,175.65c-.18,0-.34-.12-.38-.31-.04-.21.09-.41.3-.46l7.33-1.54c.2-.04.41.09.46.3.04.21-.09.41-.3.46l-7.33,1.54s-.05,0-.08,0Z" fill="#ffea0f"/>
      </g>
      <g id="path180">
        <path d="M217.22,167.92c-.15,0-.29-.09-.35-.23-.09-.19,0-.42.2-.51l2.31-1.02c.19-.09.42,0,.51.2.09.19,0,.42-.2.51l-2.31,1.02c-.05.02-.1.03-.16.03ZM216.84,166.78c-.15,0-.29-.09-.35-.23-.09-.19,0-.42.2-.51l2.32-1.03c.19-.08.42,0,.51.2.09.19,0,.42-.2.51l-2.32,1.03c-.05.02-.1.03-.16.03ZM216.06,165.63c-.15,0-.29-.09-.35-.23-.09-.19,0-.42.2-.51l2.32-1.03c.19-.09.42,0,.51.2.09.19,0,.42-.2.51l-2.32,1.03c-.05.02-.1.03-.16.03ZM215.71,164.48c-.15,0-.29-.09-.35-.23-.09-.19,0-.42.2-.51l2.31-1.03c.19-.09.42,0,.51.2.09.19,0,.42-.2.51l-2.31,1.03c-.05.02-.1.03-.16.03Z" fill="#002a86"/>
      </g>
      <g id="path222">
        <path d="M193.08,173.21c-.16,0-.31-.1-.36-.26l-1.54-4.38c-.07-.2.03-.42.24-.49.2-.07.42.03.49.24l1.54,4.38c.07.2-.03.42-.24.49-.04.01-.09.02-.13.02ZM186.39,169.99s-.05,0-.07,0c-.03,0-.7-.14-1.51-.54-.32-.16-.44-.4-.48-.58-.12-.55.34-1.14.67-1.57.07-.09.13-.16.17-.22.04-.06.11-.37-.42-1.69-.29-.74.49-1.36,1.24-1.66.19-.08.42.02.5.22.08.2-.02.42-.22.5-.42.17-.87.5-.81.66.44,1.1.67,1.94.34,2.41-.05.07-.12.16-.2.27-.16.2-.57.73-.53.92,0,.02.04.04.07.05.71.35,1.31.47,1.31.47.21.04.35.24.3.45-.04.18-.2.31-.38.31ZM187.29,167.94c-.18,0-.34-.12-.38-.3-.05-.22-.43-2.16.78-2.51.97-.27,1.92-.15,1.96-.14.21.03.36.22.33.43-.03.21-.22.36-.43.33,0,0-.84-.11-1.64.12-.39.11-.35,1.1-.24,1.6.04.21-.09.41-.3.46-.03,0-.05,0-.08,0ZM177.39,163.44c-.17,0-.33-.11-.37-.29-.05-.21.07-.42.27-.47.18-.05,4.43-1.17,5.63-1.17.72,0,1.4.25,1.94.45.24.09.58.22.67.2.36-.12,1.78-.51,2.83-.78,1.07-.26,7.39.43,8.11.51.21.02.36.21.34.43-.02.21-.22.37-.43.34-2.66-.29-7.14-.69-7.84-.52-1.03.26-2.43.65-2.8.77-.3.1-.66-.04-1.15-.22-.49-.18-1.1-.4-1.67-.4-.91,0-4.23.82-5.43,1.14-.03,0-.07.01-.1.01ZM202.72,163.05c-.2,0-.37-.16-.38-.36-.02-.21.14-.4.36-.41l1.67-.12c.21-.02.4.14.41.36.02.21-.14.4-.36.41l-1.67.12s-.02,0-.03,0Z" fill="#002a86"/>
      </g>
      <g id="path224">
        <path d="M166.7,121l-.9.15-.12.62-2.19,1.02,2.19.15v1.02l-1.67,1.42-1.29,2.83-.12,2.96-5.54,5.12,6.31,7.33,18.4.4.5-1.94,1.29-1.67.12-3.48.65.15.12-.67h-3.33v.02l-.4,1.81,1.02.25-.9,1.42-1.42.38.4-7.33,1.79-.5-.12-1.17-3.98-.25.25,9.38-3.33-.12-.15-4.38,2.06.25v-6.42l-1.92-.27v-1.67l1.54.15-.12-3.88-1.29-.12-.27-1.79h-1.4l-.27,2.71-1.54,1.67-.25,1.15,1.92.27v1.42l-3.58-.27v3.73h-1.17l.12-6.44,2.06-1.52-2.96-.67-.52-3.21ZM165.56,133.6l.52,7.06-1.54-.12.12-6.81.9-.12ZM162.98,135.02v5l-1.4-1.27,1.02-3.6.38-.12ZM171.08,135.02l1.54.12v5.65h-5.4v-2.42l.77.1-.12.65,2.96-.12.25-3.98ZM160.04,136.29l-.15,1.17-.77-.77.92-.4Z" fill="#ffea0f"/>
      </g>
      <g id="path234">
        <path d="M189.17,144.15l-7.84-.52.1-1.54,7.84.52-.1,1.54ZM163.22,143.64l-8.36-.26.05-1.54,8.36.26-.05,1.54ZM227.94,142.31l-6.5-2.2-.15.54-64.17-18.27.42-1.48,44.81,12.76-43.59-14.75.49-1.46,63.77,21.58-61.09-24.63.58-1.43,66.36,26.75-.46,1.13h.03s-.49,1.47-.49,1.47ZM248.93,140.36l-.51-1.24-.32.17-.72-1.36.29-.15-.58-.99,33.18-19.41.78,1.33-24.86,14.55,1.6-.85,23.55-11.84.69,1.38-23.53,11.83-8.2,4.35,5.89-2.42.59,1.43-7.84,3.22ZM203.27,139.09l-13.63-4.11.45-1.48,13.63,4.11-.45,1.48ZM229.94,138.94l-63.14-27.52.62-1.42,58.59,25.54-34.21-19.65.77-1.34,32.8,18.85-25.64-17.41.87-1.28,21.25,14.43-14.24-13.23,1.05-1.13,20.06,18.64-15.76-17.56,1.15-1.03,19.16,21.34-1.15,1.03-.22-.25-.76.82-.28-.26-.35.62-.17-.1-.4.91ZM246.34,136.98l-1.16-1.01,17.75-24.17,1.24.91-12.21,16.63,19.15-18.67,1.08,1.11-18.63,18.16,22.25-16.76.93,1.23-29.7,22.38-.21-.28-.49.47ZM244.78,136.34l-1.29-.84,13.12-20.2,1.29.84-13.12,20.2ZM233.37,135.75l-15.56-19.8,1.21-.95,15.56,19.8-1.21.95ZM243.44,135.04l-.7-.27-.04.16-1.51-.34,4.37-19.42,1.51.34-3.17,14.08,5.56-14.28,1.44.56-7.46,19.16ZM234.99,134.52l-11.7-18.65,1.31-.82,6.93,11.04-4.18-10.21,1.43-.59,7.33,17.89-4.29-17.41,1.5-.37,4.5,18.26-1.5.37-.04-.18-1.28.66ZM241.17,134.32l-1.54-.14,1.67-18.78,1.54.14-1.67,18.78ZM237.83,134.27l-.64-18.78,1.54-.05.64,18.78-1.54.05ZM162.93,129.07l-6.82-1.67.37-1.5,6.82,1.67-.37,1.5Z" fill="#ffea0f"/>
      </g>
      <g id="path236">
        <path d="M161.96,145.3s-1.28-1.02-1.93-.9c-.64.13-2.32.65-2.32.65,0,0,1.03.51,1.93.64.9.12,2.32-.39,2.32-.39" fill="#ffea0f"/>
        <path d="M159.94,146.04c-.12,0-.24,0-.35-.02-.94-.14-1.99-.65-2.03-.67l-.75-.37.8-.25c.07-.02,1.69-.52,2.35-.66.76-.15,1.97.78,2.2.96l.46.37-.56.2c-.05.02-1.19.43-2.13.43ZM158.7,145.1c.31.11.66.21.98.26.43.06,1.04-.06,1.52-.18-.42-.27-.89-.49-1.12-.45-.31.06-.89.23-1.39.37Z" fill="#ffea0f"/>
      </g>
      <g id="path238">
        <path d="M162.04,147.99s-1.28-1.03-1.93-.9c-.64.13-2.32.64-2.32.64,0,0,1.03.52,1.93.64.9.12,2.32-.38,2.32-.38" fill="#ffea0f"/>
        <path d="M160.02,148.72c-.12,0-.24,0-.35-.02-.94-.13-1.99-.65-2.03-.67l-.74-.37.79-.24c.07-.02,1.7-.52,2.35-.65.76-.15,1.97.78,2.2.97l.46.37-.56.2c-.05.02-1.19.42-2.12.42ZM158.78,147.78c.31.11.66.21.99.26.45.06,1.07-.06,1.52-.18-.42-.27-.88-.5-1.11-.45-.32.06-.9.22-1.4.37Z" fill="#ffea0f"/>
      </g>
      <g id="path240">
        <path d="M165.82,148s-1.29-1.03-1.93-.9c-.64.13-2.31.64-2.31.64,0,0,1.03.51,1.93.64.9.13,2.32-.38,2.32-.38" fill="#ffea0f"/>
        <path d="M163.82,148.74c-.13,0-.25,0-.37-.02-.94-.13-1.98-.65-2.03-.67l-.74-.37.79-.25c.07-.02,1.69-.52,2.34-.65.76-.15,1.97.78,2.21.97l.46.37-.56.2c-.05.02-1.18.43-2.11.43ZM162.56,147.8c.31.11.66.21.99.26.43.06,1.04-.05,1.52-.18-.42-.27-.89-.5-1.12-.45-.32.06-.89.22-1.39.37Z" fill="#ffea0f"/>
      </g>
      <g id="path242">
        <path d="M162.98,150.32s-1.28-1.03-1.93-.9c-.64.13-2.32.64-2.32.64,0,0,1.03.52,1.93.65.9.12,2.31-.39,2.31-.39" fill="#ffea0f"/>
        <path d="M160.97,151.06c-.12,0-.24,0-.35-.02-.95-.14-1.99-.66-2.04-.68l-.75-.37.8-.24c.07-.02,1.69-.51,2.35-.65.76-.16,1.97.77,2.2.96l.46.37-.56.2c-.05.02-1.19.43-2.13.43ZM159.73,150.11c.31.11.66.21.99.26.45.06,1.06-.06,1.52-.18-.42-.27-.89-.5-1.12-.45-.32.07-.9.23-1.39.37Z" fill="#ffea0f"/>
      </g>
      <g id="path244">
        <path d="M165.83,146.72s-1.29-1.03-1.93-.91c-.64.13-2.31.64-2.31.64,0,0,1.03.52,1.93.65.9.13,2.32-.38,2.32-.38" fill="#ffea0f"/>
        <path d="M163.83,147.46c-.13,0-.25,0-.36-.02-.94-.14-1.99-.66-2.03-.68l-.75-.37.8-.24c.07-.02,1.69-.51,2.34-.65.77-.14,1.97.79,2.21.97l.46.37-.56.2c-.05.02-1.18.42-2.11.42ZM162.58,146.51c.31.11.66.21.99.26.43.06,1.04-.05,1.52-.17-.42-.27-.89-.5-1.12-.46-.31.06-.89.22-1.39.37Z" fill="#ffea0f"/>
      </g>
      <g id="path246">
        <path d="M170.32,146.33s-1.29-1.03-1.93-.9c-.64.13-2.31.64-2.31.64,0,0,1.03.52,1.93.65.9.12,2.32-.39,2.32-.39" fill="#ffea0f"/>
        <path d="M168.3,147.08c-.12,0-.24,0-.35-.02-.94-.14-1.99-.66-2.03-.68l-.74-.37.79-.24c.07-.02,1.7-.52,2.34-.65.76-.15,1.97.78,2.21.97l.46.37-.56.2c-.05.02-1.19.43-2.13.43ZM167.06,146.13c.31.11.66.22.99.26.43.06,1.04-.06,1.52-.18-.42-.27-.89-.51-1.12-.45-.32.06-.9.23-1.39.37Z" fill="#ffea0f"/>
      </g>
      <g id="path248">
        <path d="M170.32,148.52s-1.29-1.03-1.93-.91c-.64.14-2.31.65-2.31.65,0,0,1.03.52,1.93.64.9.13,2.32-.38,2.32-.38" fill="#ffea0f"/>
        <path d="M168.32,149.26c-.13,0-.25,0-.37-.02-.94-.13-1.99-.65-2.03-.68l-.74-.37.8-.24c.07-.02,1.69-.52,2.34-.66.76-.15,1.97.79,2.21.97l.46.37-.56.2c-.05.02-1.18.43-2.11.43ZM167.06,148.31c.31.11.66.21.99.26.43.06,1.04-.05,1.52-.18-.43-.27-.9-.51-1.12-.46-.31.07-.89.23-1.39.37Z" fill="#ffea0f"/>
      </g>
      <g id="path250">
        <path d="M174.94,146.26s-1.28-1.03-1.93-.9c-.64.12-2.32.64-2.32.64,0,0,1.03.51,1.93.64.9.13,2.32-.38,2.32-.38" fill="#ffea0f"/>
        <path d="M172.95,146.99c-.13,0-.25,0-.37-.02-.94-.14-1.98-.65-2.03-.67l-.75-.37.8-.25c.07-.02,1.7-.52,2.35-.65.74-.15,1.97.78,2.2.97l.46.37-.56.2c-.05.02-1.17.42-2.11.42ZM171.69,146.05c.3.11.65.21.98.26.45.07,1.07-.05,1.52-.17-.42-.27-.88-.5-1.12-.45-.32.06-.89.22-1.39.36Z" fill="#ffea0f"/>
      </g>
      <g id="path252">
        <path d="M169.83,150.09s-1.28-1.02-1.93-.9c-.64.13-2.32.64-2.32.64,0,0,1.03.52,1.93.65.9.12,2.31-.39,2.31-.39" fill="#ffea0f"/>
        <path d="M167.82,150.83c-.12,0-.24,0-.34-.02-.95-.14-1.99-.66-2.04-.68l-.75-.38.8-.24c.07-.02,1.69-.51,2.35-.65.77-.14,1.97.78,2.2.96l.47.37-.56.2c-.05.02-1.19.43-2.13.43ZM166.58,149.89c.31.11.66.21.99.26.45.06,1.06-.06,1.52-.18-.42-.27-.89-.5-1.12-.45-.31.06-.89.22-1.39.37Z" fill="#ffea0f"/>
      </g>
      <g id="path254">
        <path d="M174.99,150.6s-1.28-1.02-1.93-.9c-.64.13-2.32.65-2.32.65,0,0,1.03.51,1.93.64.9.12,2.32-.39,2.32-.39" fill="#ffea0f"/>
        <path d="M172.98,151.35c-.12,0-.24,0-.35-.02-.94-.14-1.99-.65-2.03-.67l-.75-.37.8-.25c.07-.02,1.69-.52,2.35-.66.77-.14,1.97.78,2.2.96l.47.37-.56.2c-.05.02-1.19.43-2.13.43ZM171.74,150.41c.31.11.66.21.98.26.43.06,1.04-.06,1.52-.18-.42-.27-.89-.5-1.12-.45-.31.06-.89.23-1.39.37Z" fill="#ffea0f"/>
      </g>
      <g id="path256">
        <path d="M173.27,152.9s-1.28-1.03-1.93-.9c-.64.12-2.32.63-2.32.63,0,0,1.03.52,1.93.65.9.13,2.32-.38,2.32-.38" fill="#ffea0f"/>
        <path d="M171.27,153.63c-.13,0-.25,0-.36-.02-.94-.14-1.99-.66-2.03-.68l-.75-.38.8-.24c.07-.02,1.7-.51,2.35-.64.76-.15,1.97.78,2.2.97l.46.37-.56.2c-.05.02-1.18.42-2.11.42ZM170.02,152.68c.31.11.66.21.98.26.43.06,1.04-.05,1.52-.17-.42-.27-.88-.5-1.11-.45-.32.06-.9.22-1.39.36Z" fill="#ffea0f"/>
      </g>
      <g id="path258">
        <path d="M177.02,147.63s-1.29-1.02-1.93-.89c-.64.12-2.31.64-2.31.64,0,0,1.03.52,1.93.64.9.12,2.32-.39,2.32-.39" fill="#ffea0f"/>
        <path d="M175.01,148.37c-.12,0-.24,0-.35-.02-.94-.13-1.99-.65-2.03-.67l-.74-.37.79-.24c.07-.02,1.7-.52,2.35-.65.75-.15,1.97.77,2.2.95l.47.37-.56.2c-.05.02-1.19.43-2.13.43ZM173.76,147.43c.31.11.66.21.99.26.43.06,1.04-.06,1.52-.18-.42-.27-.89-.5-1.12-.44-.32.06-.9.22-1.39.37Z" fill="#ffea0f"/>
      </g>
      <g id="path260">
        <path d="M179.96,148.52s-1.28-1.03-1.93-.91c-.64.14-2.32.65-2.32.65,0,0,1.03.52,1.93.64.9.13,2.32-.38,2.32-.38" fill="#ffea0f"/>
        <path d="M177.96,149.26c-.13,0-.25,0-.37-.02-.94-.13-1.99-.65-2.03-.68l-.74-.37.8-.24c.07-.02,1.69-.52,2.34-.66.76-.14,1.97.79,2.21.97l.46.37-.56.2c-.05.02-1.18.43-2.11.43ZM176.7,148.31c.31.11.66.21.99.26.43.06,1.04-.05,1.53-.18-.42-.27-.89-.51-1.12-.46-.31.07-.89.23-1.39.37Z" fill="#ffea0f"/>
      </g>
      <g id="path262">
        <path d="M182.14,147.1s-1.28-1.03-1.93-.9c-.64.12-2.31.64-2.31.64,0,0,1.03.52,1.93.64.9.12,2.31-.38,2.31-.38" fill="#ffea0f"/>
        <path d="M180.14,147.84c-.12,0-.24,0-.35-.02-.94-.13-1.99-.65-2.03-.67l-.74-.37.79-.24c.07-.02,1.7-.52,2.35-.65.74-.15,1.96.78,2.2.96l.46.37-.56.2c-.05.02-1.19.42-2.12.42ZM178.89,146.9c.31.11.66.21.99.26.43.06,1.04-.05,1.52-.18-.42-.27-.88-.49-1.11-.45-.31.06-.89.22-1.39.37Z" fill="#ffea0f"/>
      </g>
      <g id="path264">
        <path d="M187.8,145.82s-1.28-1.03-1.93-.9c-.64.13-2.32.64-2.32.64,0,0,1.03.52,1.93.65.9.12,2.32-.39,2.32-.39" fill="#ffea0f"/>
        <path d="M185.79,146.56c-.12,0-.24,0-.35-.02-.95-.14-1.99-.66-2.03-.68l-.75-.37.8-.24c.07-.02,1.69-.51,2.35-.65.76-.16,1.97.78,2.2.96l.46.37-.56.2c-.05.02-1.2.43-2.13.43ZM184.55,145.61c.31.11.66.21.99.26.45.06,1.07-.06,1.52-.18-.42-.27-.89-.5-1.12-.45-.32.07-.9.23-1.39.37Z" fill="#ffea0f"/>
      </g>
      <g id="path266">
        <path d="M187.16,148s-1.28-1.03-1.93-.9c-.64.13-2.32.64-2.32.64,0,0,1.03.51,1.93.64.9.13,2.31-.38,2.31-.38" fill="#ffea0f"/>
        <path d="M185.17,148.74c-.13,0-.25,0-.37-.02-.94-.13-1.99-.65-2.03-.67l-.75-.37.8-.25c.07-.02,1.7-.52,2.35-.65.76-.15,1.97.78,2.2.97l.46.37-.55.2c-.05.02-1.18.43-2.11.43ZM183.91,147.8c.31.11.66.21.99.26.45.07,1.07-.05,1.52-.18-.42-.27-.89-.5-1.12-.45-.32.06-.9.22-1.39.37Z" fill="#ffea0f"/>
      </g>
      <g id="path268">
        <path d="M191.79,148.13s-1.29-1.02-1.93-.9c-.64.13-2.32.65-2.32.65,0,0,1.03.51,1.93.64.9.12,2.32-.39,2.32-.39" fill="#ffea0f"/>
        <path d="M189.78,148.87c-.12,0-.24,0-.35-.02-.94-.14-1.99-.65-2.03-.67l-.75-.37.8-.25c.07-.02,1.69-.52,2.35-.66.75-.15,1.97.77,2.2.96l.47.37-.56.2c-.05.02-1.19.43-2.13.43ZM188.54,147.93c.31.11.66.21.98.26.43.06,1.04-.06,1.52-.18-.42-.27-.89-.5-1.12-.45-.31.06-.89.23-1.39.37Z" fill="#ffea0f"/>
      </g>
      <g id="path270">
        <path d="M184.08,151.22s-1.29-1.03-1.93-.9c-.64.12-2.31.63-2.31.63,0,0,1.03.52,1.93.65.9.13,2.32-.38,2.32-.38" fill="#ffea0f"/>
        <path d="M182.08,151.96c-.13,0-.25,0-.36-.02-.94-.14-1.99-.66-2.03-.68l-.75-.37.8-.24c.07-.02,1.7-.51,2.35-.64.75-.16,1.97.78,2.2.97l.46.37-.56.2c-.05.02-1.18.42-2.11.42ZM180.82,151.01c.31.11.66.21.98.26.43.06,1.04-.05,1.52-.17-.42-.27-.88-.5-1.12-.45-.31.06-.89.22-1.39.36Z" fill="#ffea0f"/>
      </g>
      <g id="path272">
        <path d="M188.06,152.5s-1.28-1.03-1.93-.9c-.64.13-2.32.64-2.32.64,0,0,1.03.51,1.93.65.9.12,2.31-.39,2.31-.39" fill="#ffea0f"/>
        <path d="M186.05,153.25c-.12,0-.24,0-.35-.02-.94-.14-1.99-.66-2.03-.68l-.75-.37.8-.25c.07-.02,1.7-.52,2.35-.65.76-.15,1.97.78,2.2.97l.46.37-.55.2c-.05.02-1.19.43-2.13.43ZM184.81,152.3c.31.11.66.22.99.27.45.06,1.06-.06,1.52-.18-.42-.27-.89-.5-1.12-.45-.32.06-.9.22-1.39.37Z" fill="#ffea0f"/>
      </g>
      <g id="path274">
        <path d="M194.43,152.08s-1.29-1.03-1.93-.9c-.64.12-2.32.63-2.32.63,0,0,1.03.52,1.93.65.9.13,2.32-.38,2.32-.38" fill="#ffea0f"/>
        <path d="M192.43,152.81c-.12,0-.25,0-.36-.02-.94-.14-1.99-.66-2.03-.68l-.75-.38.8-.24c.07-.02,1.7-.51,2.35-.64.75-.15,1.96.78,2.2.97l.47.37-.56.2c-.05.02-1.18.42-2.12.42ZM191.18,151.86c.31.11.66.21.98.26.45.06,1.06-.06,1.52-.17-.45-.28-.91-.49-1.11-.45-.32.06-.9.22-1.39.36Z" fill="#ffea0f"/>
      </g>
      <g id="path276">
        <path d="M165.04,173.72l7.46.39-1.8,1.28,2.7-1.67,7.84-.26" fill="#ffea0f"/>
        <polygon points="171.11 176.05 170.25 174.77 165 174.49 165.08 172.95 172.55 173.34 173.17 172.96 181.22 172.69 181.27 174.24 173.63 174.49 171.11 176.05" fill="#ffea0f"/>
      </g>
      <g id="path278">
        <path d="M178.79,176.81s-1.29-1.03-1.93-.9c-.64.13-2.31.64-2.31.64,0,0,1.03.52,1.93.65.9.12,2.32-.39,2.32-.39" fill="#ffea0f"/>
        <path d="M176.77,177.55c-.12,0-.24,0-.35-.02-.94-.14-1.99-.66-2.03-.68l-.75-.38.8-.24c.07-.02,1.69-.51,2.34-.65.76-.17,1.97.77,2.21.96l.46.37-.56.2c-.05.02-1.2.43-2.13.43ZM175.53,176.61c.31.11.66.21.99.26.43.06,1.04-.06,1.52-.18-.42-.27-.89-.5-1.12-.45-.31.07-.89.23-1.39.37Z" fill="#ffea0f"/>
      </g>
      <g id="path280">
        <path d="M179.58,178.61s-1.29-1.03-1.93-.9c-.64.12-2.31.64-2.31.64,0,0,1.03.52,1.93.64.9.12,2.32-.38,2.32-.38" fill="#ffea0f"/>
        <path d="M177.57,179.35c-.12,0-.24,0-.35-.02-.94-.13-1.99-.65-2.03-.67l-.74-.37.79-.24c.07-.02,1.7-.52,2.35-.65.76-.15,1.97.77,2.2.96l.47.37-.56.2c-.05.02-1.19.42-2.12.42ZM176.32,178.41c.31.11.66.21.99.26.43.06,1.04-.05,1.52-.18-.42-.27-.9-.5-1.12-.45-.31.06-.89.22-1.39.37Z" fill="#ffea0f"/>
      </g>
      <g id="path282">
        <path d="M174.94,180.67s-1.28-1.03-1.93-.9c-.64.13-2.32.64-2.32.64,0,0,1.03.51,1.93.65.9.12,2.32-.39,2.32-.39" fill="#ffea0f"/>
        <path d="M172.93,181.41c-.12,0-.24,0-.35-.02-.95-.14-1.99-.66-2.03-.68l-.75-.37.8-.25c.07-.02,1.7-.52,2.35-.65.76-.15,1.97.78,2.2.97l.46.37-.55.2c-.05.02-1.19.43-2.13.43ZM171.69,180.46c.31.11.66.22.99.27.43.06,1.04-.06,1.52-.18-.42-.27-.89-.51-1.12-.45-.32.06-.9.23-1.4.37Z" fill="#ffea0f"/>
      </g>
      <g id="path284">
        <path d="M180.86,186.2s-1.28-1.03-1.93-.9c-.64.12-2.32.64-2.32.64,0,0,1.03.52,1.93.64.9.13,2.32-.38,2.32-.38" fill="#ffea0f"/>
        <path d="M178.86,186.94c-.13,0-.25,0-.37-.02-.94-.13-1.99-.65-2.03-.68l-.74-.37.79-.24c.07-.02,1.7-.52,2.35-.65.75-.15,1.96.78,2.2.97l.46.37-.56.2c-.05.02-1.18.43-2.11.43ZM177.6,185.99c.31.11.66.21.99.26.45.07,1.07-.05,1.52-.18-.42-.27-.88-.5-1.12-.45-.32.06-.9.22-1.4.37Z" fill="#ffea0f"/>
      </g>
      <g id="path286">
        <path d="M190.28,196.6c-.79,0-1.38-.21-1.81-.64-.49-.5-.65-1.19-.65-2.01l-6.7.82.47-2.78-4.26-2.21,1.27-.7c.17-.09,4.19-2.28,6.93-2.28.33,0,.64,0,.91-.02,1.08-.03,1.95-.06,2.56.56.51.52.65,1.32.65,2.35.9-.16,2.2-.38,3.14-.45,1.76-.15,2.42.18,4.01.98,1.3.65,1.38,1.33,1.09,2.22-.09.28-.19.56-.15.98.18,2.22-3.26,2.82-7,3.14-.16.01-.31.02-.45.02ZM189.57,191.29c-.03.34-.06.66-.09.96-.11,1.13-.23,2.29.09,2.62.15.15.51.2,1.02.16,5.62-.49,5.6-1.44,5.6-1.48-.06-.74.11-1.25.22-1.6.01-.04.03-.1.05-.14-.06-.04-.17-.11-.36-.21-1.5-.75-1.86-.93-3.19-.82-1.01.08-2.49.34-3.35.5ZM180.67,189.78l2.62,1.36-.31,1.85,4.93-.6c0-.1.02-.19.03-.29.04-.35.07-.71.1-1.08-.03-.06-.05-.12-.07-.19-.04-.21,0-.41.11-.58.06-1.39-.12-1.72-.2-1.8-.14-.14-.79-.13-1.42-.11-.29,0-.61.02-.96.02-1.39,0-3.42.77-4.85,1.43Z" fill="#ffea0f"/>
      </g>
      <g id="path288">
        <path d="M256.13,196.53l-1.08-.72s-1.01-.64-2.66-.64c-1.77,0-2.42.14-2.43.14l-.71.16-.21-.7c-.02-.07-.5-1.79-.89-4.51-.17-1.19.03-2.05.63-2.64.98-.97,2.7-.8,4.37-.55,2.75.41,6.76,3.62,6.93,3.76l1.28,1.03-4.9.99-.32,3.67ZM252.4,193.62c1,0,1.82.19,2.41.39l.22-2.44,2.72-.55c-1.43-1-3.44-2.22-4.82-2.42-.76-.12-2.54-.39-3.05.12-.27.27-.25.87-.18,1.32.24,1.66.51,2.94.68,3.66.44-.04,1.1-.08,2.02-.08ZM198.37,191.7c-1.91,0-3.33-.55-4.23-1.65-1.32-1.6-1.01-3.79-.9-4.34-.05-.97.24-1.8.86-2.41,1.3-1.28,3.54-1.17,3.94-1.14,1.21,0,33.88,0,41.8.39,6.64.31,7.67,1.56,7.56,4.43-.01.3-.02.62,0,.93.13,2.5-2.15,3.47-3.37,3.63h-.11c-.39,0-39.15-.11-45.1.14-.15,0-.29,0-.43,0ZM194.76,185.95s-.42,1.93.57,3.13c.65.78,1.78,1.14,3.41,1.07,5.88-.25,43.36-.14,45.11-.13.36-.06,2.07-.43,1.99-2.02-.02-.38,0-.74,0-1.07.06-1.58.1-2.54-6.09-2.83-7.99-.39-41.42-.39-41.76-.39h-.07c-.52-.05-2.04,0-2.75.7-.31.31-.44.73-.4,1.3v.12s-.02.12-.02.12Z" fill="#ffea0f"/>
      </g>
      <g id="path290">
        <path d="M248.4,196.48c-.96,0-2.14-.22-3.55-.84-2.39-1.04-2.51-4.4-2.52-4.54-.01-.43.32-.78.75-.79,0,0,.01,0,.02,0,.42,0,.76.33.77.75,0,.04.1,2.53,1.59,3.17,3.51,1.54,4.99.11,5.05.05.3-.3.79-.31,1.09-.01.3.29.32.77.03,1.08-.06.07-1.1,1.14-3.24,1.14ZM246.45,190.7c-.35,0-.67-.24-.75-.6-.1-.42.16-.83.57-.93l2.18-.51c.41-.1.83.16.93.57.1.42-.16.83-.57.93l-2.18.51c-.06.01-.12.02-.18.02Z" fill="#ffea0f"/>
      </g>
      <g id="path292">
        <path d="M214.23,191.39l1.67,2.81-2.96-1.27-.77,1.15,1.92,1.94-3.21-.52-1.27,2.71,6.29,1.02-.65,4.5-5.79-.52-2.04-5.77-1.94.25,1.29,5.67-7.33-.15,2.06,6.96h1.42l-1.17-4.9,5.79.4.65,2.44-3.48-.77.25,2.19,6.19,1.94,1.02,3.08s2.05.89,5.27,1.27c3.22.39,11.96-.38,11.96-.38l-.4-2.83s.9-.64,2.71-1.42c1.8-.77,3.73-5.65,3.73-5.65l1.94-.77-2.19-.9,3.21-4.65,5.54-.12v-1.29l-5.92-.12-2.19,1.42,1.42-2.31,4.88-.52.12-1.02-5.92-.15-6.81,8.25-1.67-.27.25-4.38,2.06.52-.9-1.29,1.67-.5-.9-.77.77-1.42-3.85-.77,1.79-2.06-1.54-.9-2.56,2.19.62-2.19h-4.75l-.25,1.94-.77-2.06h-2.19l-.12,1.79-.65-1.67-2.31-.12ZM213.7,205.42l.25,1.29-2.31,2.04-1.29-3.21,3.35-.12Z" fill="#ffea0f"/>
      </g>
      <g id="path296">
        <path d="M222.96,214.92c-.07,0-.14,0-.21-.03-.41-.11-.65-.54-.54-.95l.39-1.41c.11-.41.54-.65.95-.54.41.11.65.54.54.95l-.39,1.41c-.09.34-.41.57-.74.57ZM219.23,214.41c-.12,0-.25-.03-.37-.09-.37-.2-.51-.67-.31-1.05l.77-1.41c.21-.37.67-.51,1.05-.31.37.2.51.67.31,1.05l-.77,1.41c-.14.26-.41.4-.68.4ZM213.83,213c-.15,0-.3-.04-.44-.14-.35-.24-.44-.72-.2-1.07l1.41-2.06c.24-.35.72-.44,1.07-.2.35.24.44.72.2,1.07l-1.41,2.06c-.15.22-.39.34-.64.34ZM228.23,211.32h-5.69l3.89-5.83c.24-.35.72-.45,1.07-.21.35.24.45.72.21,1.07l-2.29,3.43h2.8c.43,0,.77.35.77.77s-.35.77-.77.77ZM223.6,204.38h-5.79c-.43,0-.77-.35-.77-.77s.35-.77.77-.77h5.79c.43,0,.77.35.77.77s-.35.77-.77.77Z" fill="#002a86"/>
      </g>
      <g id="path298">
        <path d="M200.94,185.7h-1.5v-.87h4.39v.87h-1.54v3.58h-1.36v-3.58" fill="#ffea0f"/>
        <path d="M202.63,189.62h-2.02v-3.58h-1.5v-1.54h5.05v1.54h-1.54v3.58ZM201.28,188.95h.69v-3.58h1.54v-.2h-3.72v.2h1.5v3.58Z" fill="#ffea0f"/>
      </g>
      <g id="path300">
        <path d="M204.36,189.28v-4.45h1.36v1.76h1.66v-1.76h1.35v4.45h-1.35v-1.83h-1.67v1.83h-1.36" fill="#ffea0f"/>
      </g>
      <g id="path302">
        <path d="M209.66,189.28v-4.45h3.73v.87h-2.38v.91h2.18v.86h-2.18v.95h2.38v.86h-3.73" fill="#ffea0f"/>
      </g>
      <g id="path304">
        <path d="M221.14,184.83v2.82c-.01,1.24-1.1,1.72-2.34,1.72s-2.33-.48-2.34-1.72v-2.82h1.36v2.76c.02.56.34.92.98.92s.96-.36.98-.92v-2.76h1.35" fill="#ffea0f"/>
      </g>
      <g id="path306">
        <path d="M222.07,184.83h1.9l1.64,3.31h.02v-3.31h1.22v4.45h-1.88l-1.66-3.41h-.01v3.41h-1.22v-4.45" fill="#ffea0f"/>
      </g>
      <g id="path308">
        <path d="M227.71,189.28h1.4v-4.44h-1.4v4.44Z" fill="#ffea0f"/>
      </g>
      <g id="path310">
        <path d="M229.84,187.06c0-1.47.91-2.32,2.54-2.32s2.54.85,2.54,2.32-.92,2.32-2.54,2.32-2.54-.85-2.54-2.32ZM232.38,185.6c-.92,0-1.11.78-1.11,1.48s.19,1.44,1.11,1.44,1.11-.77,1.11-1.44-.19-1.48-1.11-1.48" fill="#ffea0f"/>
      </g>
      <g id="path312">
        <path d="M235.64,184.83h1.9l1.64,3.31h.02v-3.31h1.22v4.45h-1.88l-1.66-3.41h-.01v3.41h-1.22v-4.45" fill="#ffea0f"/>
      </g>
      <g id="path314">
        <path d="M147.46,139.9l1.3,2.05,2.04.26-1.36,1.81.33,2.3-2.1-1.02-2.28.77.52-2.04-1.42-1.82,2.09-.26.87-2.05" fill="#ffea0f"/>
      </g>
      <g id="path316">
        <path d="M147.42,130.9l1.31,2.05,2.04.26-1.36,1.81.34,2.3-2.1-1.02-2.28.77.51-2.04-1.41-1.82,2.09-.26.87-2.05" fill="#ffea0f"/>
      </g>
      <g id="path318">
        <path d="M150.13,120.87l1.05,2.2,1.99.5-1.58,1.63.05,2.33-1.96-1.27-2.35.47.76-1.96-1.18-1.98h2.1s1.11-1.94,1.11-1.94" fill="#ffea0f"/>
      </g>
      <g id="path320">
        <path d="M153.37,111.62l1.04,2.2,1.99.5-1.58,1.64.05,2.32-1.96-1.26-2.35.48.76-1.97-1.18-1.98h2.1s1.12-1.93,1.12-1.93" fill="#ffea0f"/>
      </g>
      <g id="path322">
        <path d="M148.09,148.53l1.34,2.05,2.04.22-1.34,1.84.37,2.3-2.11-.99-2.26.8.49-2.05-1.44-1.8,2.09-.28.84-2.08" fill="#ffea0f"/>
      </g>
      <g id="path324">
        <path d="M149.19,157.79l1.34,2.04,2.04.24-1.34,1.83.36,2.3-2.1-.99-2.27.8.49-2.05-1.44-1.8,2.08-.28.84-2.08" fill="#ffea0f"/>
      </g>
      <g id="path326">
        <path d="M152.26,166.29l1.43,1.98,2.05.14-1.25,1.9.48,2.27-2.15-.88-2.23.9.39-2.07-1.52-1.73,2.07-.37.74-2.12" fill="#ffea0f"/>
      </g>
      <g id="path328">
        <path d="M155.26,174.05l1.43,1.98,2.05.12-1.25,1.91.48,2.26-2.15-.88-2.23.9.39-2.07-1.52-1.72,2.07-.38.74-2.11" fill="#ffea0f"/>
      </g>
      <g id="path330">
        <path d="M159.88,182.15l1.43,1.98,2.05.13-1.25,1.89.48,2.27-2.16-.88-2.22.9.39-2.07-1.52-1.73,2.07-.38.74-2.11" fill="#ffea0f"/>
      </g>
      <g id="path332">
        <path d="M164.9,189.87l1.43,1.98,2.05.12-1.25,1.9.48,2.27-2.16-.88-2.22.89.39-2.06-1.52-1.72,2.07-.38.74-2.11" fill="#ffea0f"/>
      </g>
      <g id="path334">
        <path d="M170.56,196.82l1.43,1.98,2.05.13-1.25,1.9.48,2.27-2.16-.89-2.22.9.39-2.08-1.52-1.72,2.07-.38.74-2.11" fill="#ffea0f"/>
      </g>
      <g id="path336">
        <path d="M177.63,203.37l1.43,1.98,2.05.13-1.25,1.89.47,2.27-2.15-.88-2.23.9.39-2.07-1.53-1.73,2.07-.38.74-2.11" fill="#ffea0f"/>
      </g>
      <g id="path338">
        <path d="M185.61,208.37l1.26,2.08,2.03.3-1.4,1.78.28,2.3-2.07-1.06-2.3.71.56-2.03-1.37-1.84,2.09-.21.92-2.04" fill="#ffea0f"/>
      </g>
      <g id="path340">
        <path d="M192.74,213.57l1.26,2.08,2.03.3-1.4,1.78.28,2.3-2.08-1.06-2.29.71.56-2.03-1.37-1.84,2.09-.21.92-2.04" fill="#ffea0f"/>
      </g>
      <g id="path342">
        <path d="M200.84,218.2l1.26,2.08,2.03.3-1.4,1.79.28,2.3-2.07-1.06-2.29.7.56-2.02-1.38-1.85,2.09-.2.91-2.04" fill="#ffea0f"/>
      </g>
      <g id="path344">
        <path d="M210.49,221.03l1.26,2.08,2.03.3-1.4,1.79.28,2.3-2.07-1.06-2.29.71.56-2.03-1.38-1.85,2.1-.2.91-2.04" fill="#ffea0f"/>
      </g>
      <g id="path346">
        <path d="M220.39,222.82l1.26,2.1,2.03.3-1.4,1.78.28,2.3-2.07-1.06-2.3.71.56-2.03-1.38-1.84,2.09-.2.91-2.05" fill="#ffea0f"/>
      </g>
      <g id="path348">
        <path d="M169.9,273.24h8.4v-29.6h-8.4v29.6Z" fill="#ffea0f"/>
      </g>
      <g id="path350">
        <path d="M195.5,258.45c-3.61-.51-4.86-2.8-4.86-6.66,0-6.02,4.82-7.72,9.7-7.72,5.3,0,9.33,1.65,9.33,7.72,0,3.65-.93,6.24-4.16,6.7v.22c4.16.42,6.47,3.93,6.47,8.51,0,6.96-6.85,7.48-12.45,7.48-5.13,0-10.95-2.14-10.95-8.26,0-4.62,2.68-7.31,6.92-7.86v-.13ZM204.88,265.15c0-2.8-2.04-4.03-4.54-4.03s-4.54,1.24-4.54,4.03,2.04,4.03,4.54,4.03,4.54-1.23,4.54-4.03ZM196.39,252.38c0,2.29,1.61,3.65,3.95,3.65s3.94-1.36,3.94-3.65-1.61-3.65-3.94-3.65-3.95,1.36-3.95,3.65" fill="#ffea0f"/>
      </g>
      <g id="path352">
        <path d="M223.04,265.42c.77.51,3.28,2.05,5.4,2.05,2.93,0,3.85-.84,3.85-3.34,0-2.71-1.28-4.63-2.56-4.52-1.48.12-5.19.68-5.4,2.21l-4.63-1.8,2.91-15.14,16.4.03v5.51l-10.3-.18-1.03,4.63c.26-.78.5-.26,3.6-.26,5.73,0,9.26,3.53,9.26,9,0,6.84-4.1,10.55-10.8,10.55-6.2,0-7.97-2.06-9.26-2.57l2.57-6.17" fill="#ffea0f"/>
      </g>
      <g id="path354">
        <path d="M253.65,267.73c.04.98,3.07.4,3.79.83.72.42,1.5-.45,2.38-.57,1.8-.26,4.2-1.62,4.37-5.4-1.65,2.08-4.04,1.89-6.68,1.54-3.86-.52-7.46-4.04-7.46-9.77,0-7.09,3.96-10.16,10.41-10.32,8.62-.22,12.01,7.58,11.71,16.49-.13,4.08-1.9,8.64-3.6,10.3-3.02,2.92-6.18,3.6-8.88,3.84-5.2.48-8.36-1.02-8.36-1.02l2.32-5.92ZM260.33,249.55c-2.84,0-4.58,1.73-4.58,4.41,0,3.05,1.95,4.41,4.58,4.41,3.06,0,4.58-2.38,4.58-4.41,0-2.84-1.82-4.41-4.58-4.41" fill="#ffea0f"/>
      </g>
      <g id="path356">
        <path d="M66.92,45.32l-4.24,3.47s-2.51-2.51-4.82-2.31c-2.31.2-4.81,3.02.39,6.37,5.4,3.47,6.32,7.86,6.17,11.38-.19,4.43-3.84,7.58-7.72,7.71-5.98.2-11.96-3.66-11.96-3.66l3.47-5.59,6.36,2.7s3.09,0,2.51-3.28c-.58-3.27-6.45-9.28-7.91-11.96-2.31-4.24,2.9-10.8,6.75-10.41,5.76.58,7.72,1.35,8.68,2.51s2.32,3.08,2.32,3.08" fill="#ffea0f"/>
      </g>
      <g id="path358">
        <path d="M70.97,41.46v7.14l6.94-.58.19,22.56,7.14-.77-.19-22.38,6.17-1.16-.38-6.36-19.87,1.54" fill="#ffea0f"/>
      </g>
      <g id="path360">
        <path d="M111.48,37.6l-9.25.77-6.56,30.88,7.15-.21,1.73-4.81,7.9-.77,1.56,3.27,6.35-1.35-8.88-27.77ZM107.43,46.48l3.85,11.19-6.38.96,2.52-12.15Z" fill="#ffea0f"/>
      </g>
      <g id="path364">
        <path d="M121.32,35.47v6.56l7.91-.96.38,23.53,8.48-1.35-.19-23.15,5.59-1.73v-6.75l-22.18,3.85" fill="#ffea0f"/>
      </g>
      <g id="path366">
        <path d="M149.87,30.46l.77,29.7,18.52-2.7-.38-6.17-10.8,1.16.19-5.01,4.82-.97-.19-5.59-4.24.2-.39-5.99,11.38-2.12-.58-6.18-19.1,3.67" fill="#ffea0f"/>
      </g>
      <g id="path368">
        <path d="M200.41,25.25c-6.37.26-12.94,4.05-12.17,13.9,1.12,14.25,6.76,18.12,13.31,18.12s11.78-8.86,11.4-16.58c-.39-7.71-3.28-15.82-12.54-15.44ZM200.62,31.04c.12,0,.25,0,.38,0,5.4.2,5.4,6.18,5.4,9.65s-.77,9.45-6.17,9.25c-5.4-.18-5.21-5.98-5.79-10.02-.56-3.91,2.83-8.66,6.19-8.88Z" fill="#ffea0f"/>
      </g>
      <g id="path372">
        <path d="M233.2,26.03l-15.62-.39-.19,30.48h7.52v-12.92h3.48l-.2-5.79-3.47-.2v-5.98l8.68.18-.2-5.4" fill="#ffea0f"/>
      </g>
      <g id="path374">
        <path d="M263.43,28c-6.28.12-12.78,3.71-12.4,13.42.56,14.28,6.05,18.37,12.6,18.62,6.56.26,12.08-8.4,12-16.12-.08-7.73-2.65-15.94-11.92-15.92-.1,0-.19,0-.29,0ZM263.66,33.79c.14,0,.28.01.42.02,5.39.41,5.16,6.39,5.02,9.85s-1.15,9.41-6.54,9c-5.39-.4-4.95-6.18-5.38-10.25-.4-3.92,3.12-8.5,6.48-8.62Z" fill="#ffea0f"/>
      </g>
      <g id="path378">
        <path d="M281.89,30.21c-.68,0-1.04.06-1.04.06l-.77,32.4,6.17,1.17.4-7.33,10.6,9.83,1.15-6.75-5.4-5.58s7.53-4.06,7.33-8.69c-.2-4.62-1.35-10.22-8.1-12.92-4.85-1.94-8.6-2.2-10.33-2.19ZM288.6,38.5c1.01-.03,2.26.1,3.44.65,2.51,1.16,1.73,5.78.96,8.1-.77,2.31-6.75,2.69-6.75,2.69l.4-11.19s.82-.22,1.96-.25Z" fill="#ffea0f"/>
      </g>
      <g id="path382">
        <path d="M307.47,36.44l-1.93,29.9,16.01,3.48.38-6.56-8.49-2.7.19-4.83h4.44l.2-6.36-4.05-.78v-5.2l7.72.96.38-5.79-14.85-2.12" fill="#ffea0f"/>
      </g>
      <g id="path384">
        <path d="M348.36,48.78l-4.63,3.48s-2.7-5.01-7.52-2.32c-4.82,2.7-4.82,7.72-4.05,11.19.77,3.48,1.77,6.88,5.02,7.34,5.59.77,4.24-2.7,4.24-2.7l-3.47-.38-.2-6.37,10.42.58s.36,11.26-2.32,13.31c-3.28,2.51-10.9,4.53-15.62-.2-4.05-4.06-5.56-9.7-4.82-15.81.46-3.85,2.31-10.23,5.98-12.16,3.66-1.93,8.1-2.51,10.42-1.54,2.32.96,6.56,5.59,6.56,5.59" fill="#ffea0f"/>
      </g>
      <g id="path386">
        <path d="M365,46.08c-6.37.26-12.92,4.06-12.15,13.9,1.12,14.26,6.75,18.12,13.31,18.12s11.76-8.86,11.38-16.58c-.39-7.72-3.28-15.83-12.54-15.44ZM365.25,51.87c.11,0,.22,0,.33,0,5.4.2,5.4,6.17,5.4,9.65,0,3.47-.77,9.45-6.17,9.25-5.4-.19-5.21-5.97-5.79-10.02-.56-3.93,2.85-8.69,6.23-8.88Z" fill="#ffea0f"/>
      </g>
      <g id="path390">
        <path d="M382.32,47.25l.38,29.9,6.56-.2.19-12.72,8.48,11.57h7.33l-.96-30.48-6.75.58.77,15.81-11.19-14.66-4.82.2" fill="#ffea0f"/>
      </g>
      <g id="path392">
        <path d="M292.86,140.66l-1.31,2.06-2.04.26,1.36,1.81-.33,2.3,2.1-1.01,2.28.76-.52-2.04,1.42-1.81-2.09-.26-.87-2.06" fill="#ffea0f"/>
      </g>
      <g id="path394">
        <path d="M292.9,131.67l-1.31,2.06-2.04.26,1.36,1.81-.34,2.3,2.1-1.01,2.28.76-.51-2.04,1.41-1.81-2.09-.26-.87-2.06" fill="#ffea0f"/>
      </g>
      <g id="path396">
        <path d="M290.19,121.64l-1.04,2.21-1.99.5,1.58,1.63-.05,2.33,1.96-1.27,2.35.48-.76-1.96,1.18-1.98h-2.1s-1.12-1.94-1.12-1.94" fill="#ffea0f"/>
      </g>
      <g id="path398">
        <path d="M286.96,112.4l-1.04,2.2-1.99.5,1.58,1.64-.05,2.31,1.95-1.27,2.36.48-.76-1.97,1.18-1.98h-2.1s-1.12-1.93-1.12-1.93" fill="#ffea0f"/>
      </g>
      <g id="path400">
        <path d="M292.24,149.3l-1.34,2.04-2.04.23,1.34,1.84-.37,2.3,2.11-.99,2.26.79-.49-2.04,1.44-1.8-2.08-.27-.84-2.08" fill="#ffea0f"/>
      </g>
      <g id="path402">
        <path d="M291.14,158.57l-1.34,2.04-2.04.23,1.34,1.84-.37,2.3,2.11-.99,2.27.8-.49-2.04,1.44-1.8-2.08-.28-.84-2.08" fill="#ffea0f"/>
      </g>
      <g id="path404">
        <path d="M288.07,167.07l-1.43,1.98-2.05.12,1.25,1.9-.48,2.27,2.15-.88,2.23.9-.39-2.07,1.52-1.72-2.07-.38-.74-2.11" fill="#ffea0f"/>
      </g>
      <g id="path406">
        <path d="M285.07,174.82l-1.43,1.98-2.05.12,1.25,1.9-.48,2.27,2.15-.89,2.23.9-.39-2.07,1.52-1.73-2.07-.38-.74-2.11" fill="#ffea0f"/>
      </g>
      <g id="path408">
        <path d="M280.44,182.92l-1.43,1.98-2.05.13,1.25,1.89-.48,2.28,2.16-.89,2.22.9-.39-2.06,1.52-1.72-2.07-.38-.74-2.11" fill="#ffea0f"/>
      </g>
      <g id="path410">
        <path d="M275.43,190.64l-1.43,1.98-2.05.13,1.25,1.9-.47,2.28,2.15-.89,2.22.9-.39-2.07,1.52-1.72-2.07-.38-.74-2.11" fill="#ffea0f"/>
      </g>
      <g id="path412">
        <path d="M269.77,197.59l-1.43,1.98-2.05.12,1.25,1.9-.48,2.26,2.16-.88,2.22.9-.39-2.07,1.52-1.72-2.07-.39-.74-2.1" fill="#ffea0f"/>
      </g>
      <g id="path414">
        <path d="M262.7,204.14l-1.43,1.98-2.05.14,1.25,1.89-.48,2.28,2.15-.89,2.23.9-.39-2.07,1.52-1.73-2.07-.38-.74-2.11" fill="#ffea0f"/>
      </g>
      <g id="path416">
        <path d="M254.72,209.14l-1.26,2.09-2.03.3,1.4,1.78-.28,2.3,2.07-1.06,2.3.71-.56-2.03,1.38-1.84-2.09-.21-.92-2.04" fill="#ffea0f"/>
      </g>
      <g id="path418">
        <path d="M247.58,214.33l-1.26,2.09-2.03.3,1.4,1.79-.28,2.3,2.08-1.06,2.29.71-.56-2.03,1.37-1.85-2.09-.2-.92-2.04" fill="#ffea0f"/>
      </g>
      <g id="path420">
        <path d="M239.48,218.96l-1.26,2.1-2.03.3,1.4,1.78-.28,2.31,2.07-1.07,2.29.71-.56-2.02,1.38-1.85-2.09-.2-.92-2.04" fill="#ffea0f"/>
      </g>
      <g id="path422">
        <path d="M229.84,221.79l-1.26,2.1-2.03.3,1.4,1.79-.28,2.3,2.07-1.07,2.29.71-.56-2.03,1.38-1.84-2.1-.21-.92-2.04" fill="#ffea0f"/>
      </g>
    </g>
  </g>
</svg>