<?xml version="1.0" encoding="UTF-8"?>
<svg id="Layer_2" data-name="Layer 2" xmlns="http://www.w3.org/2000/svg" viewBox="0 0 450 300">
  <g id="_Ñëîé_1" data-name="Ñëîé 1">
    <g>
      <g id="rect552">
        <rect width="450" height="300" fill="#003e7d"/>
      </g>
      <g id="path557">
        <path d="M24.91,56.01c-12.69,42.3,38.33,76.48,73.08,45.81,36.45-38.27-4.23-89.96-46.46-73.46,30.83-5.3,49.2,30.32,28.47,52.54-20.02,20.45-56.54,7.01-55.09-24.9Z" fill="#fff"/>
      </g>
      <g id="path554">
        <path d="M247.54,50.76c-1.62.75-2.81,2.94-3.49,4.67-1.62,4.82-3.28,9.63-4.91,14.44-.85,2.16-1.67,4.36-2.52,6.51-1.57-.21.62-2.89.5-4.04.52-2.36,1.67-4.66,1.77-7.06-.39-1.8.04-4.14-.85-5.6-1.33,3.08-3.02,6.03-4.17,9.17-.86,3.78-2.02,7.49-2.51,11.34-.29,1.99-.64,3.96-1.29,5.87-1.6-.15-1.18-2.96-2.11-4.12-.85-2.71-2.57-5.06-3.81-7.6-.63-.63-2.09-5.06-2.06-2.59-.14,1.78-.27,3.57-.43,5.35-3.55-6.63-7.11-13.26-10.66-19.9.29,2.15,0,4.48.77,6.51,1.72,3.72,3.3,7.5,4.95,11.25-.87.82-1.04-.54-1.47-1.09-3.28-5.8-6.57-11.6-9.85-17.39-1.33.93-.4,2.65-.57,3.99.54,1.88,1.79,3.57,2.64,5.35,1.55,2.91,3.15,5.8,4.75,8.68-1.14,1.26-1.77-2.31-2.59-3.11-2.97-5.15-5.91-10.32-8.97-15.42-1.34.46-1.75,1.44-1.53,2.74-.22,1.3.32,2.41,1.07,3.45,2.3,3.98,4.62,7.94,6.93,11.91-.79.91-1.02-.42-1.48-.95-3.73-5.9-7.46-11.8-11.18-17.7-.91-.41-2.19-1.5-1.9.31-.43,2.26,2.03,3.84,2.83,5.8,3.32,5.13,6.73,10.29,10.03,15.37-.69.93-1.01-.26-1.45-.77-2.1-2.97-4.19-5.94-6.29-8.91-.78-.2-1.79-.71-1.49.56-.05.81-.27,1.66.42,2.26,3.35,5.03,6.77,10.03,10.08,15.08,1.07,2.2,2.05,4.46,3.19,6.62,1.91,1.97,3.83,3.94,5.74,5.91-1.37,1.11-2.77-2.4-4.13-3.04-1.45-1.63-3.4-2.93-4.22-5.02-.99-1.55-1.56-3.41-3.1-4.55-1.7-1.27-3-3.6-4.97-4.17-.64,1.4-.12,4.56,1.79,5.65.19.52,2.86,2.32,1.4,1.96-2.88-.32-5.58-1.32-8.28-2.32-1.63,1.56,3.89,2.82.79,3.45-2.24.03-3.97-2-6.02-2.76-5.11-2.79-10.34-5.37-15.57-7.93-1.08-.33-2.17-.65-3.25-.98-.3,1.89,2.65,2.43,3.64,3.76,3.96,2.14,8.02,4.17,11.99,6.32-.13,1.19-1.2.29-1.92.18-7.43-2.39-14.86-4.79-22.29-7.18-1.25-.3-1.03.36-.53,1.2.12.97,1.09,1.02,1.85,1.3,5.83,1.96,11.66,3.93,17.5,5.88.23.92.42,1.85.62,2.77-1.33-1.09-2.63-2.34-4.45-2.46-3.8-.94-7.71-.14-11.57-.1-2.06-.49-2.32,1.17-.27,1.52,1.64,1.28,3.77.56,5.68.66,3.11-.09,6.22-.19,9.33-.3.55,1.77-3.04.59-3.17,2.02-.36,1.71,2.87,1.71,4.03,1.36,1.78.03,3.01-2.61,4.52-2.16-.4,1.69-3.36,2.07-3.7,3.82-.22,1.75,3.35,1.24,4.38.49,1.19-.99,3.25-2.49,3.36.17.35,2.4,3.52,1.47,5.25,2.28,3.08.47,6.23.66,9.27,1.17,2.92,1.32,5.84,2.64,8.75,3.97-.6,1.65-3.16-.85-4.49-.76-2.2-.61-4.23-1.86-6.57-1.89-2.02-.37-4.05-.33-6.08-.09-6.15.51-12.31.93-18.45,1.5-5.72.97-11.45,1.89-17.16,2.83-1.45.45-4.61,1.3-1.59,1.89,6.49-.3,12.96-.85,19.44-1.34.47,1.13-.92.75-1.62.93-5.39.55-10.77,1.09-16.16,1.64-1.66,1.23-3.87,1.9-4.78,3.91.26,2.86,3.83.24,5.61.43,4.66-.78,9.3-1.53,13.8-2.96,1.34.11,4.69-2.28,4.89-.57-5.08,1.57-10.18,3.16-15.3,4.58-1.09.25-2.18.51-3.27.76-.32,2.62,3.65,1.09,5.27,1.51,3.56-.83,6.95-2.27,10.46-3.26,1.87-.15,4.71-2.35,6.07-1.45-1.21,1.23-4.01,1.88-5.76,2.9-3.62,1.58-7.28,3.03-10.81,4.83-2.32,2.35,2.47,2.14,3.64.92,3.77-1.73,7.48-3.55,11.19-5.41.91.75-.43,1.11-.9,1.63-2.1,1.65-4.15,3.35-6.5,4.64-.91.73-2.39.98-2.57,2.32,2.06,1.17,4.03-.25,5.87-1.17,4.82-3.12,9.7-6.18,14.61-9.15,2.12-.95,4.3-1.77,6.46-2.64.83.83-.53,1.08-1.04,1.57-2.37,1.59-4.75,3.16-7.11,4.75-2.58,2.67-4.92,5.61-7.97,7.78-1.42,1.19-2.88,2.26-4,3.57-2.23,2.24-4.54,4.41-6.75,6.67-.69,2.29-2.16,4.44-2,6.89.03,2.64-.27,5.31-.02,7.94.27,1.09.9,3.58,1.11,1.09.12-1.14.9-5.05,1.75-2.31.46,1.03.92,4.13,1.47,3.59.8-1.59.95-3.82,2.24-5.03,1.15.67,2.06,2.33,3.16.42,1.39-1.62,1.19-4.06,1.88-6.03.6-2.56,1.2-5.12,1.8-7.68,1.09-.32.83,1.01,1.1,1.68.35,1.58.7,3.16,1.05,4.73,2.38-1.03,1.41-4.25,2.18-6.29.15-1.53.64-5.54,2.28-2.48.96,2.31,3.63-.35,3.55-2.03.54-2.66,1.07-5.33,1.62-7.98.71,1.27,1.46,2.53,2.19,3.79,2.49-.12,3.34-2.61,4.95-4.09,1.45-1.5,2.74-3.25,4.35-4.56,1.83-.94,3.55-2.21,5.44-3.02,1.84,1.7-.94,4-1.98,5.46-2.33,2.88-5.21,5.26-7.65,8.05-.96,1.11-2.47,2.05-2.07,3.7,1.23.55,2.5,1.04,3.74,1.6-1.86.93-3.87,1.74-5.59,2.87-1.67,1.44-3.46,2.72-5.21,4.06-.47,1.27-.78,2.7,1.1,2.17,1.34-.23,4.94.34,2.11,1.66-2.66,1.74-5.75,2.83-8.38,4.55-.73.97-2.69,2.5-.3,2.44,1.59-.23,3.98-2.66,5.17-1.43-1.68,1.85-3.85,3.64-5.68,5.49-.93.72-3.01,2.73-1.78,3.3,2.91-1.39,4.95-4,7.42-5.99.87-1.38,3.2-2.61,2.46.08-2.87,3.58-5.65,7.26-8.61,10.74.3,3.5,2.55-1,3.66-1.94,1.73-2.04,3.34-4.23,5.59-5.72.78-.17,2.85-3.12,2.96-1.91-.05,1,.26,2.12-.59,2.9-1.79,2.41-2.98,5.16-4.44,7.77-.24,1.12-.49,4.36,1.13,2.83,1.93-3.61,4.29-6.98,5.82-10.8,1.56-3.28,2.61-6.79,3.92-10.15,1.1-1.64,1.64-1.09,1.49.63.18,1.6.11,5.02,1.21,5.26,2.01-4.58,4.52-8.91,6.66-13.43.74-2.2,1.62-4.36,2.53-6.51,1.15-.12.62,1.13.74,1.86-.08,1.46.15,2.96-.11,4.39-1.24,3.57-2.17,7.25-3.91,10.62-1.05,2.17-2.53,4.13-3.55,6.31-1.02,1.33-.64,1.34.51.56,2.03-.93,3.39-2.67,4.8-4.33,2.21-1.77.57,2.26.06,3.12-1.2,3.41-1.98,6.99-3.34,10.36-.02,1.02-.37,3.37.93,1.57,2.44-1.91,3.33-4.97,4.79-7.57.89,1.29,2.55,2.04,3.36.45-.14-2.01-1.06-4.1-.16-6.05.9-3.23,1.63-6.52,2.14-9.82.24-2.01.38-4.05.63-6.05,1.12-.58.65,1.2.74,1.87v4.6c1.1.12,3.11-1.82,3.68-.55-1.11.95-2.8,1.53-3.8,2.57-.04,1.28-.09,2.57-.13,3.85,1.37-.83,2.73-1.66,4.1-2.49.97.68-.32,1.15-.75,1.72-1.12,1.05-2.24,2.09-3.36,3.14-.02.91-.04,1.81-.06,2.72.95-.3,1.91-.58,2.85-.89.78.89-.56,1.09-1.12,1.55-.63.58-2.05.69-1.84,1.79-.07,2.77-.17,5.53-.28,8.29.5-.99,2.26-3.37,2-3.5-.58,1.13-2.68,1.21-1.25.03.59-.72,3.84-3.03,2.69-.72-1.12,1.61-2.08,3.75-3.26,5.07-.33-.03-.73,2.33.28,1.87.84.57,3.42.83,1.64,1.82-.76.77-1.72,1.45-2.37,2.27.05,2.31-.53,6.17-.08,7.51.68-.96,2.93-2.69,2.46-3.15-.95.45-3.84.24-1.81-.5,1.23-.47,4.67-.6,2.47,1.34-1.17,2.09-3.96,2.74-3.43,5.03.01,1.68-.68,2.71,1.38,2.41,2.36-.21,2.52,2.09.4,2.72-1.46.85-2.74.8-1.86,2.74.46,1.27,3.6,2.13,2.81,3.45-.12-1.49-.45.57-1.27-.92-1-.8-2.29-2.7-1.87-.18-.18,4.81-.37,9.62-.56,14.42.99-.3,2.75,1.09,2.77,1.73-1.02.95-3.46-3.19-2.83.09.03,1.48-.35,4.21-.05,4.9.49-.41,1.27.77,1.88.97l2.07,1.43c-.38,1.17-1.19-.04-1.84-.35-.76-.53-1.52-1.05-2.28-1.58.18,1.96-.68,5.55.11,6.56.9.66,3.24,2.56,3.18,3.63-1.16.31-2.83-3.15-3.56-2.95-.11,2.92-.22,5.84-.33,8.75,1.22.41,3.68,1.99,4.33,2.99-1.1.93-3.42-2.53-4.38-2.09-.17,2.36-.03,4.77-.37,7.1-.45,1.69,4.22,1.28,3.21,3.01-1.72-.57-4.11-3.03-4.12.15-.37,2.54-2.68,5.13-.88,7.53.69,1.95,2.91,2.78,4.57,3.78,1.96-.31,3.84-1.28,5.88-1.35,3.01-.47,6.07-.63,9.07-1.12,1.27-.92,2.84-1.8.93-2.98-1.52-1.87-1.16-4.53-2.04-6.65,0-1.73-.36-2.47-1.87-1.23-1.19.24-3.04,2.77-3.71,1.19,1.78-.86,3.39-1.98,5.19-2.81-.21-2.26-.65-4.5-.6-6.78-1.42.92-3.52,2.82-4.89,2.56.56-1.27,3.28-1.83,4.43-3.17.84-.01.29-1.21.44-1.91-.02-1.97-.04-3.94-.06-5.9-1.32,1.49-2.89,2.55-4.89,2.87-1.48-1.3,2.26-.83,2.75-1.93.9-1.01,2.55-1.64,2.11-3.23-.02-1.74-.03-3.48-.05-5.22-1.16.77-3.28,3.53-4.4,2.39,1.21-1.08,3.83-2.11,4.38-3.72-.02-2.26-.05-4.52-.07-6.78-1.25,1.67-2.96,2.81-4.97,3.34-.99,1.1-3.01.12-1-.43,1.97-.65,3.95-1.36,5.17-3.15,1.11-.6.74-1.65.78-2.75-.02-1.61-.04-3.22-.05-4.83-2.35,2.08-4.47,4.39-6.8,6.49-1.23-1.29,2.28-2.42,2.77-3.7,1.16-1.39,3.12-2.73,4.02-3.92l-.05-5.27c-.89.83-2.34,1.88-.51.89.82.92-.62,1.02-1.22,1.42-.83.39-1.67.77-2.49,1.17-.87-1.63,2.81-2.43,3.54-3.86.99.24.62-.69.67-1.66-.01-1.23-.03-2.45-.04-3.68-1.23,2.23-3.67.94-5.62.53-1.44-.12-.08-.56.51-.91l4.63-2.49c.87.88-.57,1.05-1.15,1.48-.91.48-1.83.97-2.74,1.45,1.71.96,3.81.35,4.34-1.32,0-2.94-.08-5.83-.22-8.78-1.35,1.36-2.13,2.85-3.81,3.45.79-.36,4.03.11,1.85.68-1.25.25-5.43.41-2.51-1.18,1.49-.59,2.46-1.68,3.41-2.93,1.13-.65,1.12-1.09.97-2.42-.08-1.81-.15-3.62-.23-5.43-.69.84-3.6,3.15-2.86,3.15.87-.55,4.3-.71,2.26.28-1.31-.08-4.13,1.74-4.59.14,1.82-1.05,3.16-2.68,4.68-4.11.89.11.3-1.19.42-2-.22-5.44-.44-10.87-.66-16.31-.85.76-4.43,3.65-3.13.78.88-1.01,1.77-2.76,2.75-3.11.64-.33.06-1.51.2-2.19.15-1.66-.87-3.08-1.36-4.61-.03-.62-1.2-1.71-.21-1.9,1.08.92,1.6,3.42,2.47,4.89,1.33,3.09,2.86,6.11,4.03,9.26.65,2.62,1.34,5.23,1.43,7.95.67-.24,1.91.16,1.86-.88.16-1.02.89-2.08.25-3.05-2.92-7.96-6.25-15.75-9.34-23.64.73-.76.98.28,1.26.9,1.8,3.58,2.97,7.44,4.47,11.16,1.52,4.03,3.12,8.04,4.95,11.94,2.82-1.64.49-4.57.09-6.96-1.32-4.36-3.1-8.57-4.62-12.86-.45-.76-1.44-1.12-2.1-1.73-.97-.72-1.96-1.44-2.92-2.15.79-1.5,2.56,1.14,3.78,1.27,2.1,2.21,2.61-1.19,4.47-1.58.52,1.91-3.01,3.46-1.13,5.67,1.36,4.63,2.57,9.3,4.37,13.79.3.81.6,1.61.89,2.42-.61.87.26,4.61,1.5,3.65.42-2.02,1.72-4.02.62-6.06-1.61-6.15-3.82-12.13-5.68-18.2.02-2.22,1.41.94,1.56,1.9,2.14,5.81,4.45,11.56,6.34,17.45-.4,1.73-.39,5.39,1.87,3.32.1-2.31.28-4.68-.68-6.85-1.95-5.2-3.51-10.56-5.25-15.84-.99,1.08-2.86.05-3.15-1.15.33-2.62-1.83-2.55-3.79-2.38-.86-.08,1.49-1.31,1.77-1.76,1.06-.58,3.31-2.36,1.14-2.84-.69-.32-1.38-.65-2.08-.96,1.04-1.78,2.11-3.54,3.48-5.09.85-1.54.2-4.31-1.44-5.25-1.19-.65-1.06-2.16-1.53-3.28-.62-.66,0-1.93.5-.97.31,1.06.62,2.13.93,3.19,1.79.96,2.62,2.54,2.58,4.53.82,1.86-1.34,2.98-2.13,4.39-.47.69-.87,1.43-1.32,2.14,1,.47,2.02.9,3,1.4.21,1.88-3.03,3.12-2.79,3.76,3.14-.84,1.23,3.54,3.61,3.89.81,0,1.51-.81,2.27-1.14,1.36.26-.57.89-.25,1.5,2.54,6.9,5.14,13.8,7.55,20.72-.23,2.51,2.16,2.83,3.64,3.87.21,1.34.84,3.87,2.25,3.33.06-3.57.28-7.17.29-10.73.2-1.22-1.87-4.18-.17-4.32.95,2.79,2.22,5.52,2.87,8.39.46,1.87-.46,4.9,2.22,5.18,1.18.48.27-3.81,1.53-2.64.7.55,1.4,1.11,2.1,1.66,2.84.07.73-3.04.77-4.62-.89-2.22-1.74-4.46-2.62-6.68,1.32-.55-.71.19-.33-1.22-.3-2.19-1.72-3.84-3-5.55-.54-1.16-.5-2.54-1.51-.89-1.2.99-.67,2.63.17,3.68,1.37,2.12,1.23,4.91,2.94,6.83.75,1.23,1.76,2.48,1.5,4,.07.7.12,2.1-.76,1.43-.12-1.19.32-2.49-.42-3.44-.91-1.78-2.2-2.89-2.56-4.89-.39-2.01-1.51-3.73-2.36-5.55.19-.44-2.82.24-2.59-.7.83-.12.68-.48,2.1-.17,1.07-.9,1.06-2.6.34-3.74-1.42-3.18-3.6-5.96-5.19-9.04-.4-2.01.4-4.49-1.53-5.89-1.99-1.94-3-4.56-4.11-7.04-1.28-1.78-3.36-2.83-4.85-4.45-.81.26-3.86.35-2.35-.56,2.09-.84,3.53.36,4.86,1.77,1.52,1.18,3.13,2.4,3.63,4.33.95,2.26,2.18,4.35,3.93,6.09,1.54,1.45.75,3.77,1.16,5.62,1.9,3.45,4.44,6.59,5.72,10.34-.28,1.64.45-.53,1.23-.33-.07-1.86.57-4.37-.63-6.1-1.25-2.33-2.72-4.58-3.85-6.97-.79-1.7-1.76-3.83-2.64-5.68-.92-2.15-2.27-4.07-3.54-6.02,1.27-1.32,1.92,2.49,2.91,3.15,2.21,3.91,3.6,8.23,6.02,12.03.71,1.67,2.2,3.13,2.52,4.91.24,1.06-.42,4.5.44,4.22.43-.83.87-1.65,1.29-2.49.69-.33,2.05-.12,2.22-.87.24-2.32-2.1-4.01-2.33-6.28-.66-3.1-1.9-6.04-3.45-8.8-1.66-3.64-4.09-6.87-5.4-10.66-.35-2.21,1.45.61,1.49,1.65,1.27,2.9,3.14,5.51,4.45,8.4,1.25,2.35,2.45,4.73,3.14,7.32.47,2.44,1.48,4.69,2.75,6.82.22.97-.03,1.73.8,1.82.38.89-1.48.44-.74,1.81.21.86-.22,4.1-.87,2.25.06-1.52.77-3.99-1.4-2.83-.58.5-.8,1.46-1.24,2.13-.37.91-1.73.85-.8,2.15,1.22,1.81,2.84,3.43,3.16,5.69.26,2.01,1.93,3.38,2.94,5.12,1.1,1.13,2.39,4.58,3.49,3.96.49-2.14-1.39-3.58-2.08-5.44-1.47-3.15-2.81-6.37-4.22-9.55,1.14.83,2.6,1.31,3.25,2.66,2.62,3.49,5.19,7.01,7.88,10.44,2.82,1.35,1.09-2.16.23-3.27-2.15-4.34-5.09-8.22-7.63-12.34-.55-.56-2.32-3.3-.67-2.46,2.9,3.58,5.8,7.16,8.7,10.74.98.67,2.75,1.23,2.16-.44-2.49-4.54-5.65-8.66-8.42-13.04-2.89-4.12-5.35-8.52-7.95-12.84,1.37-1.11,3.16,1.67,4.68,2.03,2.44,1.33,4.61,3.03,6.6,4.95,3.36,2.92,6.6,6.02,10.09,8.78,1.74.95,3.1,2.62,4.97,3.24.03-.63-1.92-2.99-1.1-2.98,1.96.55,3.82,1.37,5.63,2.27,1.21.6,5.02,2.03,3.11-.45-.61-1.24-3.49-1.91-3.02-3.25.54-.29,1.41.62,2.07.79,1.53.92,3.24,1.33,4.99,1.58,2.56-.11.95-2.78-.78-2.8-3.97-2.11-7.9-4.29-11.85-6.43.82-1.66,3.5.97,5.04.89.9-.28,4.22.4,3.06-1.17-.49-.6-1.51-.62-2.21-.99-5.41-1.96-10.83-3.89-16.23-5.87-2.31-1.55-4.65-3.06-6.97-4.59.35-1.42,2.68.41,3.83.26,2.02.53,4.06.97,6.16.94,1.35.04,4.18.38,4.67.16-.89-.48-4.84-1.62-2.59-2.24,1.13-.07,4.68-.14,1.65-.25-2.15-.22-4.39-.15-6.46-.72.27-.77,1.34-.48,2.74-.33,1.53.52,4.63-.37,5.23.91,1.52.49,4.18-.14,6.14-.02,2.7-.24,5.68.14,8.21-.53.88-1.38,3.52-1.82,3.48-3.61-.18-1.66-.2-3.36-.47-4.99-.56-.61-.68-1.86-1.63-1.92-2.55-.42-4.99-1.12-7.41-1.99-5.04-.12-10.1-.08-15.12-.38-1.63-.11-3.57,1.37-5.44,1.26-2.89.29-5.84.05-8.64.95-1.08.84-2.58-.37-.85-.59,2.16-.57,4.35-.96,6.6-.93,2.28-.07,4.58-.24,6.7-1.18,1.3-.88,1.59.62,1.84-1.02,1.19-.45,4.99-.13,4.1-1.38-4.69.16-9.39.22-14.08.3-1.69-.17-3.84.88-5.51,1.68-1.96.79-.34-1.19.87-1.25,2.08-1.23,4.66-.93,6.68-2.27,3.15-1.47,6.12-3.33,9.19-4.95.8-.71,3.02-1.81.67-2.04-1.84-.43-3.82.64-5.73.66-2.52.45,0-1.75.95-2.17,2.94-1.51,5.82-3.17,8.64-4.92.89-.68,3.53-1.15,2.68-2.28-2.39.8-4.75,1.94-7.19,2.6-.83.2-4.57.66-2.72-.8,3.6-2.38,7.14-4.84,10.71-7.26,1.19-1.6.33-1.64-1.1-.99-1.65.5-2.88,1.85-4.42,2.64-.53.93-3.49,1.71-1.92.11,1.59-1.39,3.15-2.82,4.81-4.12.84-1.17,1.7-3.96-.58-2.64-1.47.77-3.36.89-4.39,2.32-1.81,1.88-3.66,3.75-5.45,5.65-1.31-1.23,2.08-2.58,2.49-3.88,1.47-1.68,3.02-3.32,4.34-5.12.28-1.48.34-2.52-1.16-1.49-.73.31-1.46.63-2.19.94.22,1.52-3.01,3.11-4.04,4.62-1.74,1.48-4.1,2.1-5.62,3.87-1.22-1.3,2.14-2.29,3-3.06,2.44-1.19,4.09-3.43,6.06-5.23-2.15.44-4.63.35-5.89,2.49-3.26,3.1-6.43,6.3-9.76,9.31-4.06,2.82-8.19,5.58-12.36,8.21-1.91.77-4.62.14-5.52,2.44-1.59,2.24-3.48,4.25-5.26,6.34,1.91-.42,3.72.02,5.45.86,1.66.58,3.07,1.73,4.65,2.44-.35,1.58-2.53,2.77-4.24,2.48-1.08-.03-2.05-.76-3.08-1.07.1-1.24,1.16-.24,1.86-.06,1.38.75,3.25.46,4.27-.77-.53-1.09-3.35-2.19-4.98-2.8-1.48-.89-3.18-.28-4.79-.26-1.9.43.53-1.25.81-1.91,2.1-2.37,4.12-4.81,5.95-7.39-.13-1.91,1.99-3.26,2.69-5.02,2.08-3.06,3.15-6.67,4.74-9.99.68-1.39.33-3.01.5-4.51-.05-.81.24-1.7-.05-2.47-1.48,2.72-3,5.44-4.42,8.17-1.75.1-.18-2.67.32-3.39,1.34-2.72,2.86-5.39,4.12-8.12l.11-3.44c-1.13-.98-1.7,2.37-2.6,3.16-1.97,3.28-3.78,6.66-5.84,9.87-.2,1.09-2.37,1.88-1.5.34,2.93-5.39,5.94-10.76,8.95-16.1,1.21-2.14.82-4.64.99-6.99-1.16-1.83-1.97.99-2.89,1.71-1.19,1.47-1.62,3.41-2.54,5.07-1.48,3.21-3.01,6.41-4.52,9.6-1.68-.69.97-3.2.99-4.62,1.44-3.73,2.88-7.45,4.31-11.18-.72-1.5-2.33,2.45-3.1,3.36-1.37,3.06-2.96,6.02-4.47,9-1.62-.71.99-3.19.92-4.55.78-2.26,1.82-4.51,2.57-6.74-.11-.84,1.08-3.03.02-3.08ZM257.92,91.38c.37,1.49-1.87,2.17-2.79,3.32-1.16.43-5.31,1.45-3.52,2.38,1.18-.63,2.36-1.25,3.54-1.87,1.51,1.43,3.79,2.96,3.61,5.15-1.43.36-.82-2.81-2.53-3.1-.79-1.36-1.78-1.01-2.84-.26-.84.45-1.7.88-2.53,1.35-1.41-1.92.15-3.48,2.18-3.71,2.01-.31,3.18-2.05,4.69-3.2l.04-.03.15-.02ZM268.6,95.54c.14,1.68-2.82.95-3.61,2.37-1.29.62-2.59,2.54-3.75,2.52-1.27-.25,1.53-1.48,1.97-2.17,1.61-1.29,3.26-2.48,5.39-2.72ZM243.59,103.75c1.75.66,3.62,1.08,5.1,2.29,1.92.68,2.01,2.87,2.56,4.52.05,1.07-.87,4.46-1.83,3.73.39-1.56,1.78-3.49.61-5.28-.15-1.97-2.2-2.51-3.58-3.46l-3.12-1.11c.09-.23.18-.47.26-.7ZM292.93,103.94c3.56.15,7.15.3,10.68.64.39.42-.71.44-.55.66-4.58-.21-9.16-.77-13.75-.39-2.15-.28-4.02,1.36-6.2.9-1.16.23-3.83-.39-2-.87,2.08.23,4.2.26,6.15-.63,1.84-.34,3.79-.11,5.67-.31ZM287.46,106.92c3.68.52,7.37.85,11.08.8,2.34.13,5.08-.1,7.18.27-.35,1.56-3.62.06-5.02.52-4.13-.05-8.26-.05-12.35-.73-.79.02-1.04-.1-.91-.87ZM291.44,111.03c1.51,1.58,3.68,1.86,5.85,1.51,2.56-.17,5.19.53,7.67-.43,2.16-.2-.16,1.22-1.29,1.07-2.51.53-5.08-.17-7.61.15-2.03.72-3.69-.99-5.14-1.37-1.09.64-2.28.78-3.51.69h-5.3c-.36-1.18,1-.64,1.7-.76,1.77-.01,3.54.03,5.3-.02.77-.3,1.51-.7,2.32-.85ZM219.28,113.43c1.84.76-1.5,2.58-.95,3.78.08,1.26.23,2.15.82.41.27-.81.52-1.63.81-2.44.74,1.23,1.72,1.91,3.13,1.93.6,1.04.89,3.38,1.53,1.21.58-1.12,1.03-2.41,1.87-3.33,1.36.78-.19,3.55.21,4.96-.11,2.23.36,4.47.05,6.71.2,1.33-1.12,4.73,1.25,3.11.82-.39.93-1.54,1.43-2.27.91-1.76.57-3.9,1.16-5.75,1.76-.45.16,4.89,1.86,3.19.49-1.81-.84-3.33-.99-5.33v-3.55c1.18-.36.64,1,.75,1.7-.09,1.42.06,2.84.68,4.15,1.94,1.05,1.63-2.56,3.17-3.28,1.68-.67.74-4.18,2.43-3.79-.16,2.16-1.36,3.95-2.85,5.42-.61,1.03-.89,3.51-2.64,2.51,1.27,1.3-.17,4.03-1.74,3.57-.35-1.16-.37-2.51-.56-.53-.05,1.65-1.21,2.95-1.8,4.44-1.43.78-3.99,1.64-3.05-1.01.17-2.84.38-5.68.03-8.52-.03-.93.47-3.86.01-3.29-.66,1.33-1.28,2.67-1.94,4-.81-1.21-.49-4.08-2.41-3.79-1.07-.21-1.44-1.48-1.7.24-.47.51-1.06,3.36-1.91,2.08-.21-1.57-.08-4.01-1.87-2.1-.33-1.28-.64-2.55-.96-3.83,1.06-.64.87.8,1.15,1.47-.06,2.17,2.26.06,2.53-1.07.16-.33.33-.67.49-1ZM248.88,123c2.01,4.08,4.14,8.11,6.3,12.12,1.17,2.85,2.58,5.63,3.07,8.69-.46,1.45,2.97,3.43,1.29,3.81-1.85-1.44-2.04-3.74-2.55-5.85-1.21-3.77-2.95-7.36-4.88-10.81-1.39-2.48-2.58-5.06-3.88-7.57.21-.13.43-.25.64-.38ZM244.76,127.46c1.92.22-1.75,2.22.64,2.45,1.24.2.92,1.95,2.04,2.25,2.83.16-.31,4.18,2.6,3.59,1.39,1.1-.07,3.94,2.11,4.66,1.82.87,1.3,3.03,2.15,4.52.2,1.14.86.97,1.65.41.59-.39,1.76-1,1.54.08-1.02.51-2.05,1.02-3.07,1.53-.82-1.58-1.54-3.21-1.72-5-1.6-1.2-3.05-2.54-2.8-4.74.38-1.69-2.83.03-1.98-2.09,1.11-2.16-1.38-1.88-1.89-3.33-.14-1.45-2.32-1.21-2.44-2.49.36-.63.81-1.2,1.17-1.83ZM233.23,148.28c-.32.94-3.34,3.76-1.1,1.98,1.16-.7,1.32-.24,1.11-1.79v-.13s0-.05,0-.05ZM232.78,154.98c2.18.37-2.71,2.47-1.66,2.53.64-.47,2.01-.41,1.3.4-1.06.33-2.12.65-3.18.98-.79-1.7,2.69-2.54,3.51-3.87l.04-.04ZM233,162.21c1.79.06-.98,1.87-1.49,2.64-1.96,1.59,2.33-1.58,1.98,0-.82.57-3.79,2.45-4.82,1.41,1.29-1.46,3.13-2.42,4.33-4.05ZM222.24,168.68c-.1,1.38-.36,3.11.96,1.4,1.48-.91-.15-.87-.96-1.4ZM221.6,185.39c-.03,1.3-.52,3.36,1.19,1.74,1.27-.55,2.21-1.55.18-1.53-.45-.07-.91-.14-1.37-.21ZM221.28,199.54c1.14.69,4.05.87,3.97,2.17-.82-.13-3.83-.82-3.97-1.8v-.36ZM216.09,247.24c-4.46.12-8.93-.02-13.38.13-1.92,1.23-4.15,2.03-5.65,3.81-1.14,1.6,1.91,2.97,3.48,2.61.79.53,3.61-.5,3.13.98-.74,2.14-3.15,2.52-4.74,3.81-.98,2.04,1.35,4.57,3.1,2.62,1.04-.98,1.93-1.1,2.67.12,1.21.95-.85,3.51,1.81,3.37,1.74-.87,3.29-2.4,4.92-3.56,1.08-1.38,2.83-2.92,3.52-.31,1.59,1.36,3.58,1.02,5.48.9,2.33-.08,4.9-.39,6.24-2.59,2.18-1.04,4.26,1.09,5.36,2.79,1.47.97,3.93,1.09,3.18-1.35-.58-1.6-.08-3.3,1.85-2.26,2.11.4,3.75,2,5.77,2.56-.12-1.54-.14-4.44,1.99-2.47,1.8,1.3,3.68,2.57,5.86,3.15.08-.91-.16-1.9.13-2.76,1.4-1.44,4.2,2.78,3.59-.43.29-1.1-1.22-3.55.32-3.38,2.13.9,4.37,1.52,6.64,1.93-1.5-2.5-4.19-3.87-6.47-5.55-2.21-.92-4.54-1.65-6.95-1.6-2.61-.24-5.27-.13-7.84-.51-1.1-.8-.92-.09-.72.15-1.54,2.2-4.28,1.78-6.61,2.19-3.25.31-6.53.64-9.61,1.79-2.13.28-4.01-1.6-5.55-2.91-.68-.94-1-2.17-1.51-3.23Z" fill="#fff"/>
      </g>
    </g>
  </g>
</svg>